<svg width="1039" height="1137" viewBox="0 0 1039 1137" fill="none" xmlns="http://www.w3.org/2000/svg">
<path fill-rule="evenodd" clip-rule="evenodd" d="M10.0258 268.61C14.6847 271.577 14.82 271.619 12.1143 270.752C11.4232 269.823 10.6865 269.073 10.0258 268.61ZM227.285 1136.33H132.797C132.081 1135.31 131.435 1134.2 131.096 1132.85C129.657 1127.08 128.925 1129.24 131.096 1124.9C132.32 1122.45 133.513 1118.87 131.809 1115.46C130.135 1112.11 128.906 1109.39 128.906 1104.61C128.906 1102.11 130.046 1095.61 128.193 1093.75C125.68 1091.24 123.34 1091.56 118.051 1091.56H103.579C101.025 1091.56 93.1472 1092.75 91.246 1090.84C90.4782 1090.08 83.2972 1085.65 83.2972 1084.32C83.2972 1078.7 82.8901 1078.94 80.3927 1075.61C77.1282 1071.25 72.369 1069.77 68.8244 1066.23C65.8176 1063.22 62.1108 1062.72 55.7792 1061.14C50.1327 1059.72 51.0256 1061.05 48.544 1056.09C47.1788 1053.35 44.9256 1052.24 44.9256 1047.37C44.9256 1042.84 46.3503 1040.14 41.3072 1040.14C37.3667 1040.14 34.8872 1039.63 31.8804 1037.23C30.4479 1036.08 22.4518 1027.09 19.5492 1029.99C18.5559 1030.98 15.0387 1036.34 11.6001 1032.89C10.2236 1031.52 8.24868 1026.59 6.55393 1029.99C5.06851 1032.96 3.18564 1033.5 -0.000976562 1033.59V267.666C5.49092 268.609 9.83098 270.017 12.1172 270.749C13.5079 272.617 14.7896 275.203 15.4289 277.579C17.4862 285.22 23.8084 292.851 36.4239 295.519C41.5656 296.607 46.2009 298.15 46.7178 298.984C48.2316 301.433 53.9538 300.753 53.9538 298.119C53.9538 296.794 55.5908 291.709 57.5722 286.855L62.8711 280.739L68.9862 286.039C78.2178 295.467 83.21 296.18 98.3892 290.321C108.635 286.366 105.863 281.484 107.562 265.804C108.685 255.448 107.851 254.45 96.7589 252.45C93.5191 251.866 89.5505 249.894 87.9438 248.118C86.3362 246.342 83.3909 244.907 81.4208 244.907C61.0307 235.097 92.0573 233.584 60.9861 224.622C58.6041 223.933 62.6988 220.286 58.4906 219.268C59.4478 219.268 62.6336 217.434 65.5723 215.192C68.5128 212.949 71.9562 211.096 73.2173 211.063C74.4773 211.03 77.5826 209.298 80.0972 207.24L94.4157 198.83L88.6056 190.013C85.4198 185.173 82.7973 180.662 82.7973 179.973C82.7973 179.281 85.3658 175.853 88.5044 172.378C91.6438 168.903 94.2123 164.964 94.2123 163.611C94.2123 158.824 113.249 158.955 123.106 161.624C125.902 162.381 126.547 161.361 127.591 161.166C137.344 159.333 124.885 153.397 115.615 151.838C112.343 151.287 103.995 150.967 101.602 149.086C97.878 146.156 97.4255 144.816 98.2387 139.758C99.1154 134.296 98.7765 133.659 93.8554 131.399C87.5463 128.5 85.3527 121.612 90.7471 121.612C95.5424 121.612 99.5937 120.641 96.1483 116.822C93.1831 113.532 86.2254 112.709 93.4472 106.373C100.166 100.478 101.336 100.022 107.308 101.022C119.501 103.061 135.236 101.563 145.068 97.453C148.021 96.2193 151.782 95.2108 153.425 95.2108C155.068 95.2116 159.99 96.7486 161.069 95.6701C163.023 93.7165 174.051 90.0708 183.389 88.3303C186.08 87.8284 189.381 86.4951 190.727 85.3731C194.592 82.1545 216.526 73.1499 220.743 74.1093C221.434 74.2655 222.684 72.6206 223.494 70.4909C225.375 65.5404 232.789 59.7014 237.254 59.6332C239.151 59.605 242.085 58.5045 243.826 57.1873C245.569 55.8702 249.11 54.7925 251.674 54.7925C254.239 54.7916 262.864 52.5305 270.834 49.7464C283.364 45.3697 290.048 47.5893 289.334 43.3243C287.409 31.8313 295.147 33.6133 302.633 40.2657C304.644 42.0525 307.339 41.1482 312.266 38.635C318.159 35.6276 316.004 32.5063 315.12 28.0841C314.006 22.5143 316.667 18.2976 321.285 18.2976C324.44 18.2976 327.104 16.0069 334.127 7.13604C338.104 2.11061 338.413 1.98955 348.803 2.85495C354.639 3.3408 362.282 4.09158 365.773 4.53662L372.092 5.35209L376.015 7.90024C377.173 10.9152 382.166 10.7458 384.78 7.59423C387.799 3.9571 392.87 0 397.418 0L397.412 0.00456274C400.27 0.00456274 402.683 2.13987 406.483 8.00626C409.323 12.3934 411.63 17.1045 411.63 18.507C411.63 23.1563 415.221 28.9905 419.171 30.7895C422.669 32.3842 424.009 35.4305 423.147 39.8622C422.98 40.7134 423.329 44.9104 423.91 49.1384C424.79 55.5349 425.653 56.9602 429.005 57.8028C434.049 59.0679 442.379 52.9632 442.511 47.9149C442.694 40.7958 453.208 41.8102 460.499 49.6479C464.017 53.4289 465.303 53.8248 471.403 52.91C476.902 52.0854 479.568 52.5597 484.092 55.3569C490.094 59.0671 491.19 62.533 497.342 55.4592C500.345 52.003 506.726 49.271 508.756 53.0635C509.685 54.7984 510.131 57.5653 510.131 60.8102C510.131 65.9001 506.759 61.8872 502.539 63.3587C498.532 64.7553 498.972 74.3876 498.972 78.4964V83.4915L502.642 80.1791C508.188 75.1261 512.833 72.1262 519.254 72.1262C522.451 72.1254 527.402 68.2107 527.407 67.5383C527.412 66.8661 535.871 66.7448 540.351 61.8812C544.974 55.2348 554.678 53.4611 558.085 47.0997C559.27 43.5146 559.214 37.1095 562.925 35.0717C570.334 31.0026 577.658 28.4905 577.653 21.4623C577.651 19.4207 581.03 17.4982 583.512 16.8752C585.996 16.2512 590.506 13.5922 593.499 10.9627C599.231 5.92974 598.031 4.16271 602.468 5.86532C606.905 7.56981 605.64 24.9878 600.379 28.2406C597.547 29.9923 598.716 35.761 605.679 38.027C608.972 39.0991 619.867 43.8451 629.936 48.5779L648.281 57.1922L683.443 92.6662C702.804 112.185 724.591 133.406 731.191 140.424C759.151 179.032 754.869 177.429 767.168 166.724C769.426 164.227 769.672 162.836 768.289 160.251C765.423 154.895 766.205 151.142 771.5 145.216C775.929 140.255 771.635 138.408 778.634 138.437C787.044 138.472 794.391 137.713 794.992 146.541C795.094 148.071 796.61 148.938 799.425 148.937C802.214 148.934 804.28 147.035 807.171 153.117C813.056 165.496 817.747 162.965 821.083 157.245C822.904 154.122 828.908 154.696 831.071 154.696C833.231 154.696 837.658 153.607 840.906 152.251C845.251 150.434 846.816 148.776 846.816 146.032C846.816 141.588 849.664 138.387 853.594 138.387C855.159 138.386 857.368 136.442 858.539 134.054C861.531 127.946 865.7 123.531 878.31 125.033C883.924 125.701 890.416 127.647 892.782 129.314C895.147 130.98 899.01 133.457 901.343 134.869C903.675 136.283 907.21 140.319 909.191 143.84L914.49 153.524L926.975 151.995C933.967 152.53 936.189 153.701 942.365 154.442C945.125 154.67 942.849 158.752 945.626 161.577C948.459 164.455 951.261 165.949 960 173.962C963.332 177.02 966.106 170.094 973.907 171.363C979.105 171.356 990.277 170.938 994.499 166.522C997.434 163.441 997.406 156.114 999.129 152.047C1002.02 145.244 999.508 145.319 1003.82 145.319C1009.21 145.319 1013.81 148.893 1013.91 153.168C1014.01 157.479 1026.98 161.73 1033.33 161.73C1035.33 161.73 1037.41 162.066 1038.88 162.597C1038.69 167.228 1035.61 170.195 1035.62 174.88C1033.67 175.342 1031.31 176.435 1029.71 177.734L1025.88 180.843L1028.89 189.152C1031.45 196.277 1031.59 198.615 1029.96 205.411C1027.78 214.531 1022.95 223.43 1013.2 227.429C1007.42 229.8 1003.36 223.139 1003.36 230.028C1006.1 243.936 993.931 245.211 1011.06 265.553C1014.33 271.153 1017.51 278.667 1019.57 281.201C1025.5 288.497 1025.64 303.297 1018.14 308.216C1015.96 309.641 1014.54 315.647 1011.87 319.988C1009.2 324.331 1002.68 325.92 1000.81 326.92C997.084 328.919 995.058 323.949 995.058 321.212C995.058 318.726 978.66 325.344 975.233 328.449C971.522 331.806 943.944 332.831 938.184 330.642C928.822 327.08 933.159 326.742 934.006 367.083C934.435 387.492 935.523 416.81 935.484 421.519L935.433 430.081H940.986C944.415 430.084 947.607 431.315 949.396 433.293C953.07 437.354 954.3 441.567 951.687 446.444C949.974 449.643 948.724 450.043 942.567 449.35C937.105 448.732 934.854 449.205 932.834 451.438C928.891 455.796 924.265 452.219 918.515 449.35C913.491 446.843 916.44 449.156 904.959 457.809C898.611 462.596 891.051 468.47 887.685 469.838C850.824 484.828 853.746 497.677 858.638 496.699C863.871 495.652 879.986 492.281 881.518 494.764C882.016 495.569 881.559 498.092 880.5 500.42C878.895 503.945 879.253 506.723 882.487 517.038C885.704 527.297 888.542 532.157 899.048 545.171C906.028 553.815 911.731 562.121 911.738 563.621C911.742 565.124 913.659 568.577 915.966 571.318C921.223 577.567 921.408 580.94 915.203 583.906C911.828 585.52 911.048 586.632 912.349 587.934C915.417 591.002 914.325 595.75 909.24 601.541C906.549 604.607 904.347 607.834 904.347 608.729C904.347 609.624 903.552 611.127 906.642 616.221C910.33 622.301 915.619 618.429 908.938 634.61C913.301 636.467 918.234 639.088 915.929 640.53C912.762 642.506 903.523 645.704 901.558 647.869C898.593 651.135 900.22 653.056 896.565 656.074C885.161 665.495 853.408 694.373 851.567 697.766C850.604 699.547 848.715 715.575 845.76 720.143C841.264 727.09 836.571 722.569 831.745 723.812C827.582 732.102 804.24 734.299 793.118 735.434C789.004 738.889 791.678 736.889 787.666 751.997C786.515 757.768 784.647 776.6 782.011 777.278C778.291 777.278 761.872 781.831 761.576 788.594C749.685 794.472 750.823 777.495 743.943 772.13C735.977 779.611 733.798 791.395 716.171 785.893C714.713 787.692 704.202 791.723 717.496 797.412C715.876 801.91 708.298 792.785 698.895 814.283C695.991 820.924 691.831 809.693 683.098 820.145C681.366 828.702 679.033 824.48 678.614 838.849C678.557 839.492 678.428 839.982 678.308 840.328C681.352 841.456 687.328 843.008 687.328 844.71C687.328 847.888 685.472 854.976 679.41 856.67C676.936 858.252 674.469 872.1 677.061 874.584C688.34 882.228 691.67 883.913 684.858 889.109C685.697 895.152 687.571 897.179 691.533 903.278C695.179 908.888 702.464 911.021 705.904 908.12C708.683 905.78 705.847 899.812 711.56 899.812C715.291 898.584 725.063 899.385 728.53 900.424C734.38 902.177 740.556 901.727 740.556 907.356C740.556 913.721 739.057 915.032 740.046 919.945C742.814 922.404 755.406 938.264 754.876 941.654C754.226 945.821 753.049 953.377 756.661 953.377C761.299 953.377 772.546 958.85 769.552 961.331C767.697 962.875 760.976 969.806 755.538 965.412C743.107 965.716 724.577 963.888 726.746 971.274C725.446 974.02 720.83 973.784 717.676 975.706C715.749 981.236 704.76 984.105 706.312 981.264C708.525 977.212 711.164 974.797 707.433 972.287C702.94 971.378 694.704 970.668 686.898 972.59C679.909 979.456 666.048 990.194 661.57 997.059C660.605 1007.67 655.808 1005.64 650.207 1007.41C645.049 1009.04 641.812 1013.78 634.308 1022.09C628.726 1028.27 621.437 1033.9 619.886 1033.91C618.186 1033.92 612.448 1030.77 609.898 1024.59C605.943 1014.99 605.364 1016.49 604.496 979.172C604.165 964.949 603.586 962.752 595.934 964.182C590.675 965.176 589.372 964.04 590.331 959.239C592.149 950.148 591.972 946.739 580.342 940.944C569.98 935.783 569.146 935.622 562.914 937.686C558.071 939.287 555.136 941.749 551.703 947.165C549.156 951.19 548.495 957.506 548.495 958.992C548.492 960.469 545.235 964.816 542.481 968.623C542.478 982.003 548.08 987.694 539.73 993.442C535.269 993.877 508.168 991.851 504.771 1010.06C511.242 1019.52 507.859 1025.51 506.76 1026.22C502.332 1029.07 491.741 1023.29 489.076 1016.33C488.416 1014.61 486.947 1016.5 485.866 1016.69C478.81 1017.91 451.492 1045.14 450.501 1044.87C416.883 1035.14 452.512 1031.94 429.732 1035.44C414.132 1037.83 409.748 1037.72 403.385 1034.67C382.161 1026.36 391.636 1030.3 371.232 1030.95C371.525 1030.66 371.795 1030.14 372.046 1029.41C369.697 1029.62 367.408 1029.42 365.71 1028.56C363.19 1027.3 357.96 1025.66 355.569 1025.66C352.317 1025.66 344.721 1023.74 342.523 1024.18C339.987 1024.69 330.957 1024.05 330.956 1026.38C330.956 1030.98 330.355 1032.63 328.765 1035.8C327.68 1037.98 325.8 1041.61 322.955 1042.32C320.322 1042.99 314.56 1041.81 312.101 1043.04C308.538 1044.82 304.977 1045.07 301.96 1048.09C299.304 1050.74 298.342 1052.51 298.342 1057.51C298.342 1064.28 294.611 1063.84 293.298 1069.08C292.38 1072.76 288.965 1076.19 288.965 1080.71C288.965 1084.76 291.364 1086.96 290.393 1090.85C289.296 1095.25 284.362 1096.39 282.443 1100.23C280.754 1103.61 280.297 1112.73 277.347 1110.37C274.499 1108.09 271.282 1105.94 268.685 1111.14C267.265 1113.98 267.977 1123.59 267.208 1120.51C265.518 1113.75 261.766 1121.28 257.068 1121.28C251.801 1121.28 250.725 1123.55 248.403 1124.13C244.464 1125.11 238.191 1130.65 233.931 1130.65C232.607 1130.65 222.66 1130.46 223.077 1132.13C224.306 1137.05 227.416 1134.86 227.285 1136.33Z" fill="url(#paint0_linear_845_18356)"/>
<defs>
<linearGradient id="paint0_linear_845_18356" x1="302.316" y1="17.9256" x2="293.319" y2="1134.13" gradientUnits="userSpaceOnUse">
<stop stop-color="#2E8656"/>
<stop offset="1" stop-color="white"/>
</linearGradient>
</defs>
</svg>
