<svg width="199" height="116" viewBox="0 0 199 116" fill="none" xmlns="http://www.w3.org/2000/svg">
<path d="M150.262 62.2107C149.193 60.2201 146.259 60.2228 145.186 62.2102C144.808 62.9119 144.421 63.6152 144.024 64.3191C135.535 79.4163 131.269 94.4128 129.13 105.652C128.452 109.221 127.989 112.399 127.675 115.066C127.662 115.183 127.751 115.288 127.869 115.288H149.691C153.218 115.288 156.018 112.439 155.805 109.063L153.224 68.1929C153.2 67.8159 153.097 67.4477 152.921 67.113C152.428 66.1758 151.922 65.2344 151.397 64.2906C151.011 63.595 150.633 62.9015 150.262 62.2107Z" fill="#A1BB94"/>
<path d="M149.273 5.59728C149.076 2.49841 146.398 0.0808716 143.159 0.0808716H127.87C127.008 0.0808716 126.188 0.252119 125.445 0.559907C125.398 0.579659 125.367 0.625722 125.367 0.676735C125.366 0.77285 125.363 0.903355 125.359 1.06744C125.351 1.39451 125.335 1.85591 125.305 2.44178C125.244 3.61384 125.125 5.28823 124.894 7.39842C124.441 11.5031 123.555 17.2662 121.826 24.2025C121.772 24.4181 121.745 24.6403 121.745 24.8624V69.785C121.745 72.9288 126.999 73.8067 128.253 70.9202C130.09 66.6938 132.202 62.3846 134.632 58.0628C137.217 53.4655 139.408 48.9154 141.267 44.5058C141.536 43.8683 141.542 43.1527 141.298 42.5059C138.03 33.8369 135.926 25.9954 134.573 19.4851C133.365 13.6648 132.754 8.90178 132.444 5.55391C132.29 3.87935 132.211 2.55655 132.171 1.63086C132.15 1.16832 132.141 0.804563 132.136 0.545144C132.133 0.415124 132.131 0.310765 132.13 0.23409C132.129 0.196141 132.129 0.164895 132.129 0.140166V0.13968C132.129 0.127083 132.129 0.116023 132.129 0.106692V0.0902275C132.129 0.0875835 132.129 0.0847598 137.636 0.0847598C142.345 0.0847598 143.026 0.0830538 143.124 0.0819651C143.133 0.0814986 143.141 0.0897609 143.141 0.0980039C143.143 0.128643 143.143 0.185245 143.144 0.266897C143.148 0.4316 143.155 0.698812 143.171 1.06197C143.202 1.78844 143.268 2.9017 143.402 4.35665C143.671 7.26796 144.214 11.5442 145.314 16.8416C145.363 17.0743 145.412 17.3085 145.462 17.5449C145.967 19.9047 149.056 19.8801 149.521 17.5121C149.633 16.9414 149.739 16.3812 149.84 15.8325C149.879 15.6185 149.891 15.4002 149.877 15.1829L149.273 5.59728Z" fill="#A1BB94"/>
<path d="M85.8693 78.5827C84.7753 75.958 81.1558 76.7826 81.1558 79.6236V109.416C81.1558 112.658 83.898 115.286 87.281 115.286H92.4061C94.0368 115.286 95.3058 113.873 95.0809 112.267C94.7918 110.196 94.4182 107.891 93.9336 105.392C92.4643 97.8024 89.9986 88.4851 85.8693 78.5827Z" fill="#2E8656"/>
<path d="M109.484 115.286C112.867 115.286 115.609 112.658 115.609 109.416V57.6578C115.609 54.6638 111.103 53.7304 109.747 56.4041C106.561 62.6913 102.726 69.2281 98.1062 75.857C97.5866 76.6027 97.4687 77.5556 97.788 78.4056C101.19 87.4519 103.346 95.8789 104.709 102.921C105.431 106.645 105.932 109.993 106.282 112.853C106.45 114.234 107.62 115.286 109.019 115.286H109.484Z" fill="#2E8656"/>
<path d="M113.508 1.52557C112.431 0.625225 111.024 0.0799586 109.484 0.0799586C99.383 0.0799586 90.6932 -0.105607 90.6932 0.0886462V0.136884C90.6932 0.161613 90.6926 0.193486 90.6921 0.231901C90.6915 0.30811 90.6904 0.411836 90.6877 0.540768C90.6821 0.799254 90.6713 1.16242 90.6515 1.62387C90.6114 2.54786 90.5352 3.86889 90.3837 5.54127C90.0809 8.88588 89.4812 13.6446 88.2949 19.4603C86.9524 26.0449 84.8542 33.994 81.5793 42.7852C81.3368 43.4366 81.3472 44.1564 81.6227 44.7945C83.4805 49.1009 85.663 53.5407 88.2302 58.0261C88.7262 58.8924 89.2085 59.7589 89.6782 60.6241C90.6821 62.473 93.3256 62.614 94.4208 60.8172C103.415 46.0647 108.348 32.2695 111.055 21.5942C112.718 15.0381 113.541 9.66077 113.948 5.96933C114.058 4.97178 114.137 4.09833 114.194 3.35818C114.246 2.67013 114.038 1.97007 113.508 1.52557Z" fill="#2E8656"/>
<path d="M169.089 62.7061C169.089 65.4175 165.074 66.2779 163.854 63.8528C163.689 63.5231 163.587 63.1401 163.58 62.7708L162.429 6.68022C162.363 3.43873 165.05 0.759018 168.433 0.695407C168.793 0.688253 169.089 0.977346 169.089 1.33568V62.7061ZM164.48 106.629C164.446 104.943 166.562 104.662 166.895 106.316C167.225 107.959 167.505 109.511 167.743 110.962C168.075 112.989 165.998 114.314 165.109 112.46C164.767 111.747 164.57 110.959 164.552 110.127L164.48 106.629ZM190.632 0.277307C194.014 0.213696 196.809 2.78972 196.876 6.03059L198.999 109.477C199.066 112.719 196.378 115.398 192.996 115.461L182.883 115.652C181.356 115.681 180.102 114.457 180.102 112.938V3.13858C180.102 1.65936 181.293 0.452931 182.78 0.424936L190.632 0.277307Z" fill="#E0EAB8"/>
<path d="M28.3288 0.077179C31.7112 0.077179 34.453 2.7053 34.4534 5.94742V68.9177C34.4534 72.0319 29.3722 72.9202 28.0933 70.078C26.3063 66.1068 24.2703 62.0665 21.9494 58.0152C13.2837 42.8901 8.94872 28.289 6.78425 17.4847C5.70349 12.0881 5.16785 7.65756 4.90237 4.6114C4.77017 3.08988 4.70485 1.91585 4.67297 1.14272C4.65772 0.756548 4.64995 0.468954 4.64668 0.289631C4.64622 0.266458 4.66208 0.24623 4.68463 0.240786C5.14655 0.13425 5.6293 0.077179 6.12528 0.077179H28.3288ZM0 53.2374C0 50.1297 5.04779 49.2382 6.32886 52.0726C8.14713 56.0937 10.2261 60.2077 12.6039 64.3582C21.2509 79.4509 25.5952 94.4394 27.7723 105.67C28.3961 108.888 28.8385 111.79 29.1545 114.284C29.2198 114.803 28.8539 115.284 28.3288 115.284H6.12528C2.74225 115.284 0 112.655 0 109.414V53.2374Z" fill="#066658"/>
<path d="M71.0535 0.452406C73.3771 1.28634 75.0319 3.43324 75.0319 5.95169V17.5652C75.0319 18.7998 73.4292 18.9869 73.1867 17.7753C72.114 12.4156 71.5823 8.01415 71.319 4.9893C71.1879 3.47836 71.1243 2.31239 71.0924 1.54486C71.077 1.16133 71.0693 0.876526 71.0655 0.698758C71.0655 0.687249 71.0611 0.676231 71.0535 0.665344V0.452406ZM59.4218 0.0810242C59.5342 0.274033 59.6286 0.440314 59.6851 0.554471C59.8646 0.913272 60.0094 1.59977 60.0901 2.04085C60.0901 2.05236 60.0912 2.06445 60.0916 2.07596C60.1307 3.03121 60.2075 4.39738 60.3573 6.11906C60.6568 9.56196 61.2494 14.4411 62.4267 20.3257C63.7184 26.779 65.7177 34.4641 68.8127 42.8016C69.0536 43.4496 69.0436 44.1657 68.7727 44.8016C66.9434 49.0932 64.8085 53.5583 62.3143 58.132C61.5878 59.4652 60.8889 60.7924 60.2167 62.1125C58.8605 64.7773 54.3916 63.8457 54.3916 60.8588V1.73083C54.3916 0.821615 53.6503 0.0847301 52.7363 0.0847301C52.7867 0.0836414 52.8377 0.0810242 52.8887 0.0810242H59.4218ZM43.3793 108.814C43.3793 111.028 40.9976 111.83 40.9218 109.618C40.9158 109.447 40.9179 109.274 40.9279 109.101L43.3793 65.7029V108.814ZM71.7848 64.2506C72.6139 62.7297 75.0319 63.3042 75.0319 65.0336V109.418C75.0319 112.659 72.2896 115.288 68.9071 115.288H58.1839C56.5423 115.288 55.27 113.857 55.5135 112.242C55.7863 110.43 56.1258 108.441 56.5484 106.297C58.7238 95.2689 63.0785 80.2179 71.7848 64.2506Z" fill="#41754F"/>
</svg>
