<svg width="221" height="58" viewBox="0 0 221 58" fill="none" xmlns="http://www.w3.org/2000/svg">
<g clip-path="url(#clip0_20_4306)">
<rect width="221" height="58" rx="12" fill="#F8FF33"/>
<path d="M191.502 10.5318C189.829 8.31861 185.231 8.32129 183.551 10.5315C182.958 11.312 182.35 12.094 181.73 12.877C168.727 29.2919 162.047 45.5998 158.625 58H199.775L196.143 17.1847C196.106 16.7654 195.945 16.3562 195.67 15.9839C194.897 14.942 194.104 13.895 193.282 12.8456C192.677 12.0718 192.083 11.3006 191.502 10.5318Z" fill="#02493F" fill-opacity="0.08"/>
<path d="M150.037 -42C149.271 -38.9287 148.266 -35.4873 146.95 -31.7373C146.866 -31.4974 146.823 -31.2502 146.823 -31.0032V18.9553C146.823 22.4521 155.055 23.4281 157.021 20.218C159.897 15.5181 163.207 10.7257 167.014 5.91943C171.064 0.806618 174.497 -4.25404 177.409 -9.15795C177.831 -9.86652 177.841 -10.6623 177.458 -11.3818C172.337 -21.0227 169.041 -29.7436 166.921 -36.9837C166.406 -38.7457 165.96 -40.4203 165.574 -42H150.037ZM183.165 -42C183.348 -41.3247 183.543 -40.6325 183.75 -39.9236C183.826 -39.6651 183.903 -39.4044 183.982 -39.1415C184.772 -36.5168 189.612 -36.5444 190.342 -39.1778C190.517 -39.8125 190.682 -40.4354 190.841 -41.0455C190.902 -41.2839 190.921 -41.5266 190.899 -41.7684L190.878 -42H183.165Z" fill="#02493F" fill-opacity="0.08"/>
<path d="M90.6147 28.7403C88.9002 25.8216 83.2292 26.7386 83.2292 29.8982V58H103.096C100.777 49.662 96.9424 39.513 90.6147 28.7403Z" fill="#02493F" fill-opacity="0.08"/>
<path d="M137.21 58V5.46956C137.21 2.13968 130.148 1.10164 128.025 4.07529C123.033 11.067 117.023 18.3369 109.787 25.7093C108.973 26.5385 108.787 27.5984 109.288 28.5432C114.619 38.604 117.996 47.9755 120.133 55.8065C120.336 56.5515 120.528 57.2828 120.71 58H137.21Z" fill="#02493F" fill-opacity="0.08"/>
<path d="M95.7327 -42C95.3551 -40.4283 94.9192 -38.7626 94.4158 -37.0104C92.3122 -29.688 89.0247 -20.8476 83.8938 -11.0708C83.5137 -10.3464 83.5304 -9.54594 83.9619 -8.83598C86.8724 -4.04701 90.2919 0.89061 94.3141 5.87893C95.0911 6.84253 95.8472 7.80587 96.5832 8.76791C98.1561 10.8242 102.297 10.9812 104.014 8.98286C118.104 -7.42382 125.832 -22.7652 130.075 -34.6374C131.016 -37.2717 131.786 -39.7346 132.415 -42H95.7327Z" fill="#02493F" fill-opacity="0.08"/>
<path d="M221 11.0855C221 14.1007 214.71 15.0577 212.8 12.3607C212.54 11.9937 212.38 11.5677 212.369 11.1575L210.832 -42H221V11.0855Z" fill="#02493F" fill-opacity="0.08"/>
<path d="M-0.00012207 19.1399L0.0910921 19.2836C2.09506 22.4446 10.0562 21.4566 10.0562 17.9935V-42H-0.00012207V19.1399Z" fill="#02493F" fill-opacity="0.08"/>
<path d="M73.6315 -42V-39.1185C73.6315 -37.7452 71.1199 -37.5375 70.7402 -38.8844C70.4373 -39.9586 70.1622 -40.9979 69.9119 -42H73.6315ZM41.293 -42H52.3715C52.7907 -40.1424 53.2892 -38.1535 53.8825 -36.0487C55.9058 -28.8719 59.0383 -20.3247 63.8873 -11.0524C64.2643 -10.3315 64.2492 -9.53547 63.8243 -8.82797C60.9582 -4.05517 57.6132 0.91013 53.7059 5.99666C52.5671 7.47912 51.4721 8.95519 50.4195 10.4234C48.2941 13.3872 41.2931 12.3508 41.293 9.02891V-42ZM73.6315 58H45.1189C48.6634 45.8955 55.4728 29.8165 68.5437 12.801C69.8427 11.1099 73.6315 11.7484 73.6315 13.6722V58ZM24.0387 58H20.5706L24.0387 14.4163V58Z" fill="#02493F" fill-opacity="0.08"/>
</g>
<defs>
<clipPath id="clip0_20_4306">
<rect width="221" height="58" rx="12" fill="white"/>
</clipPath>
</defs>
</svg>
