<svg width="102" height="49" viewBox="0 0 102 49" fill="none" xmlns="http://www.w3.org/2000/svg">
<path d="M42.507 0.000932214C38.0052 -0.0667211 34.0098 3.55431 34.0098 8.79466V32.3923C34.0143 33.2417 33.3767 33.9951 32.4483 33.9951H25.0342C8.99082 34.0141 10.4244 13.5896 24.0803 13.5704C30.1512 13.5618 32.2731 13.5704 32.2731 13.5704V7.8478H23.7891C18.4729 7.85635 14.4482 9.87052 11.741 12.8734C9.03374 15.8764 7.64774 19.8755 7.6499 23.8498C7.652 27.6759 8.96367 31.6469 11.7035 34.6564C14.4434 37.6659 18.6093 39.724 24.367 39.724H38.361C39.17 39.724 39.8558 39.0423 39.8558 38.2472V9.41729C39.8469 7.90968 40.6329 6.69764 41.8966 6.29645H41.8968C43.1227 5.90839 44.4691 6.4138 45.2806 7.56222L45.2842 7.56735L45.2874 7.57267C47.254 10.7788 52.168 18.6437 56.6066 25.7335C58.8259 29.2783 60.9265 32.6297 62.4808 35.1086C63.258 36.348 63.8986 37.3694 64.3491 38.0878C64.7962 38.8006 65.0446 39.1966 65.0723 39.2414C65.3996 39.7016 65.8116 39.8746 66.1548 39.767H66.155L66.1554 39.7668C66.3501 39.7066 66.5033 39.5701 66.6179 39.3455C66.7326 39.1209 66.8005 38.809 66.8005 38.4343V9.42143C66.7957 7.91861 67.5768 6.70403 68.8448 6.30513C70.0632 5.91648 71.4137 6.42193 72.2172 7.57149L72.2203 7.57603L72.2231 7.58076C74.1941 10.7848 79.1103 18.6498 83.5499 25.7396C87.987 32.8253 91.9542 39.1467 92.0164 39.2451C92.0166 39.2453 92.0166 39.2455 92.0168 39.2457C92.3376 39.7031 92.7757 39.8856 93.1415 39.7709C93.3396 39.7086 93.4979 39.5693 93.6159 39.3445C93.7339 39.1197 93.8044 38.81 93.8044 38.4387V0.179615V0.177643H88.001V22.5195C88.001 22.5195 84.4073 16.4565 78.2809 5.99194C72.287 -4.25966 60.9755 -0.0224995 60.9709 8.7988V22.5154C60.9709 22.5154 57.4633 16.448 51.341 5.98346C48.9043 1.82043 45.5871 0.0472214 42.507 0.000932214ZM24.8376 0.177643C-8.51115 0.173513 -8.19478 47.4431 25.2868 47.4647H38.3693C43.9994 47.4688 47.6147 44.1466 47.6103 38.0235V26.0504C47.6103 26.0504 54.9476 38.1537 57.8269 42.8912C62.7257 50.9465 74.5801 49.3626 74.5503 39.3005V26.0589C74.5503 26.0589 81.8875 38.1576 84.7708 42.9016C89.6695 50.9545 101.525 49.369 101.495 39.3045V0.177643H95.7001V38.4383V38.4387C95.7041 40.2467 94.6855 41.2572 93.7148 41.5625L93.7142 41.5627C92.5302 41.9382 91.2423 41.4357 90.4414 40.2943L90.4386 40.2904L90.4361 40.2865C90.2704 40.0232 74.567 15.0045 70.6408 8.61263C70.3151 8.15242 69.8379 7.96334 69.4146 8.0965C68.975 8.23658 68.6956 8.69948 68.6956 9.42064V38.4296V38.43C68.7002 40.2454 67.6987 41.2529 66.7323 41.5625L66.7317 41.5627L66.7311 41.5629C65.5645 41.9276 64.297 41.4261 63.5011 40.2857L63.4991 40.2829L63.4973 40.2801C63.4656 40.2311 63.2122 39.8278 62.7591 39.1063C62.306 38.3848 61.6633 37.3609 60.8843 36.1192C59.3262 33.6358 57.2235 30.2816 55.0033 26.7359C50.5651 19.6479 45.6614 11.7995 43.7009 8.60415C43.3756 8.14467 42.894 7.95895 42.4699 8.09255V8.09235C42.0254 8.23269 41.7433 8.69551 41.7473 9.41098V9.41157V38.247C41.7473 40.0977 40.2225 41.6055 38.361 41.6055H24.3668C17.9997 41.6055 13.3375 39.306 10.2788 35.933C7.22023 32.56 5.76292 28.1235 5.75857 23.8498C5.75421 19.4154 7.29781 14.9517 10.3276 11.5897C13.3574 8.22764 17.8773 5.9747 23.7848 5.9661H23.785H32.2731V0.177643H24.8376Z" fill="#EC1C2E"/>
</svg>
