<svg width="101" height="48" viewBox="0 0 101 48" fill="none" xmlns="http://www.w3.org/2000/svg">
<path d="M42.2998 0.00104974C37.82 -0.0662739 33.844 3.53711 33.844 8.75192V32.2345C33.8486 33.0798 33.214 33.8295 32.2901 33.8295H24.9122C8.947 33.8485 10.3736 13.5234 23.963 13.5044C30.0042 13.4958 32.1158 13.5044 32.1158 13.5044V7.80967H23.6732C18.3829 7.81818 14.3778 9.82254 11.6838 12.8108C8.98971 15.7991 7.61046 19.7787 7.61261 23.7337C7.61471 27.5411 8.91998 31.4927 11.6465 34.4876C14.373 37.4824 18.5186 39.5305 24.2482 39.5305H38.174C38.9791 39.5305 39.6616 38.8521 39.6616 38.0609V9.37151C39.6527 7.87125 40.4349 6.66512 41.6924 6.26589H41.6926C42.9125 5.87971 44.2523 6.38266 45.0599 7.52549L45.0635 7.53059L45.0667 7.53589C47.0237 10.7263 51.9137 18.553 56.3307 25.6082C58.5392 29.1357 60.6296 32.4708 62.1763 34.9376C62.9496 36.171 63.5872 37.1874 64.0355 37.9023C64.4804 38.6116 64.7276 39.0057 64.7551 39.0502C65.0809 39.5082 65.4909 39.6803 65.8324 39.5733H65.8326L65.833 39.5731C66.0268 39.5132 66.1791 39.3774 66.2932 39.1539C66.4073 38.9304 66.4749 38.62 66.4749 38.2471V9.37564C66.4701 7.88014 67.2475 6.67148 68.5093 6.27452C69.7217 5.88776 71.0656 6.39075 71.8652 7.53471L71.8683 7.53922L71.8711 7.54393C73.8325 10.7324 78.7247 18.559 83.1427 25.6142C87.5581 32.6654 91.506 38.956 91.5679 39.054C91.5681 39.0542 91.5682 39.0544 91.5683 39.0546C91.8876 39.5097 92.3235 39.6913 92.6876 39.5772C92.8847 39.5152 93.0422 39.3766 93.1596 39.1529C93.277 38.9292 93.3472 38.621 93.3472 38.2515V0.178862V0.176899H87.5721V22.4099C87.5721 22.4099 83.9959 16.3764 77.8993 5.96286C71.9347 -4.23878 60.6783 -0.0222677 60.6737 8.75604V22.4058C60.6737 22.4058 57.1833 16.368 51.0907 5.95442C48.666 1.81168 45.3649 0.0471133 42.2998 0.00104974ZM24.7165 0.176899C-8.46967 0.172789 -8.15484 47.212 25.1635 47.2335H38.1823C43.785 47.2375 47.3827 43.9315 47.3782 37.8383V25.9235C47.3782 25.9235 54.6798 37.9678 57.5451 42.6822C62.42 50.6983 74.2167 49.1221 74.187 39.1091V25.932C74.187 25.932 81.4883 37.9718 84.3576 42.6926C89.2325 50.7063 101.03 49.1285 101 39.113V0.176899H95.2337V38.2511V38.2515C95.2377 40.0507 94.224 41.0562 93.2581 41.36L93.2575 41.3602C92.0793 41.7339 90.7976 41.2338 90.0006 40.0981L89.9978 40.0942L89.9953 40.0902C89.8305 39.8283 74.2036 14.9315 70.2965 8.57077C69.9724 8.11281 69.4975 7.92465 69.0762 8.05716C68.6388 8.19656 68.3608 8.6572 68.3608 9.37485V38.2424V38.2428C68.3653 40.0494 67.3688 41.052 66.407 41.36L66.4065 41.3602L66.4059 41.3604C65.2449 41.7234 63.9836 41.2243 63.1916 40.0894L63.1896 40.0867L63.1879 40.084C63.1563 40.0351 62.9042 39.6338 62.4533 38.9158C62.0023 38.1979 61.3627 37.1789 60.5875 35.9432C59.0371 33.4719 56.9446 30.1341 54.7352 26.6058C50.3186 19.5523 45.4388 11.7421 43.4879 8.56233C43.1642 8.10509 42.685 7.92028 42.2629 8.05323V8.05303C41.8206 8.19269 41.5398 8.65325 41.5439 9.36523V9.36582V38.0607C41.5439 39.9024 40.0265 41.4028 38.174 41.4028H24.248C17.912 41.4028 13.2725 39.1145 10.2287 35.758C7.18504 32.4014 5.73483 27.9866 5.7305 23.7337C5.72617 19.3209 7.26224 14.879 10.2773 11.5333C13.2923 8.18766 17.7902 5.9457 23.6688 5.93715H23.669H32.1158V0.176899H24.7165Z" fill="white"/>
</svg>
