<svg width="74" height="65" viewBox="0 0 74 65" fill="none" xmlns="http://www.w3.org/2000/svg">
<path d="M72.8087 45.4133C72.8087 44.8064 72.3164 44.3142 71.7093 44.3142C71.1024 44.3144 70.6104 44.8064 70.6104 45.4133C70.6104 46.0204 71.1024 46.5127 71.7093 46.5127V47.704L71.5916 47.701C70.4205 47.6416 69.4815 46.7026 69.4221 45.5313L69.419 45.4133C69.419 44.1485 70.4445 43.123 71.7093 43.123L71.8274 43.1261C73.0375 43.1874 74 44.1879 74 45.4133L73.997 45.5313C73.9356 46.7417 72.9348 47.704 71.7093 47.704V46.5127C72.3164 46.5127 72.8087 46.0204 72.8087 45.4133Z" fill="#292D32"/>
<path d="M52.2595 21.5991C51.8886 20.9079 50.8699 20.9089 50.4975 21.5989C50.366 21.8425 50.2315 22.0867 50.094 22.3311C47.1467 27.5728 45.6652 32.7795 44.9229 36.6818C44.6872 37.9208 44.5266 39.0241 44.4177 39.9503C44.4129 39.9907 44.4439 40.0272 44.4851 40.0272H52.0614C53.2861 40.0272 54.258 39.038 54.1841 37.8661L53.288 23.676C53.2798 23.5452 53.244 23.4173 53.183 23.3011C53.0118 22.9757 52.836 22.6489 52.6537 22.3212C52.5198 22.0797 52.3883 21.8389 52.2595 21.5991Z" fill="#A1BB94"/>
<path d="M51.916 1.94359C51.8478 0.867676 50.9179 0.0283203 49.7934 0.0283203H44.4851C44.1858 0.0283203 43.9012 0.0877766 43.6431 0.194639C43.6267 0.201497 43.6162 0.21749 43.616 0.235201C43.6156 0.268572 43.6147 0.313882 43.6132 0.37085C43.6103 0.484409 43.605 0.644606 43.5945 0.848017C43.5734 1.25495 43.5322 1.83629 43.4518 2.56894C43.2945 3.99406 42.9868 5.99497 42.3866 8.40323C42.3679 8.47807 42.3584 8.55524 42.3584 8.63235V24.2292C42.3584 25.3208 44.1828 25.6255 44.6182 24.6234C45.2558 23.156 45.9892 21.6598 46.8329 20.1593C47.7303 18.5632 48.491 16.9834 49.1364 15.4524C49.2299 15.2311 49.232 14.9826 49.1474 14.7581C48.0124 11.7483 47.2821 9.02572 46.8123 6.76536C46.3929 4.74458 46.1807 3.0909 46.0732 1.92853C46.0199 1.34713 45.9924 0.887865 45.9785 0.566467C45.9711 0.405877 45.9681 0.279582 45.9662 0.189513C45.9652 0.144371 45.9646 0.108138 45.9642 0.081517C45.9639 0.0683414 45.9639 0.0574928 45.9639 0.0489071V0.0487384C45.9639 0.0443645 45.9637 0.0405248 45.9637 0.0372849V0.0315686C45.9637 0.0306507 45.9639 0.0296703 47.8757 0.0296703C49.5107 0.0296703 49.7472 0.029078 49.7814 0.0287C49.7842 0.028538 49.7873 0.0314066 49.7873 0.0342686C49.7876 0.0449062 49.7876 0.0645582 49.7882 0.0929072C49.7896 0.150091 49.792 0.242866 49.7974 0.368952C49.8084 0.621178 49.8313 1.0077 49.8778 1.51285C49.9711 2.52364 50.1597 4.00832 50.5416 5.84756C50.5584 5.92834 50.5755 6.00965 50.5931 6.09173C50.7681 6.91104 51.8406 6.90252 52.0023 6.08034C52.0412 5.88222 52.0778 5.68773 52.1128 5.49722C52.1264 5.42292 52.1305 5.34711 52.1258 5.27167L51.916 1.94359Z" fill="#A1BB94"/>
<path d="M29.9026 27.2838C29.5227 26.3725 28.2661 26.6588 28.2661 27.6452V37.989C28.2661 39.1144 29.2181 40.0271 30.3927 40.0271H32.1721C32.7383 40.0271 33.1789 39.5364 33.1008 38.9788C33.0004 38.2598 32.8707 37.4594 32.7024 36.5919C32.1923 33.9568 31.3362 30.7218 29.9026 27.2838Z" fill="#2E8656"/>
<path d="M38.1016 40.027C39.2761 40.027 40.2281 39.1144 40.2281 37.9889V20.0187C40.2281 18.9792 38.6636 18.6551 38.1929 19.5834C37.0867 21.7663 35.755 24.0358 34.1512 26.3374C33.9708 26.5963 33.9298 26.9271 34.0407 27.2222C35.222 30.3631 35.9704 33.2889 36.4438 35.7337C36.6943 37.0269 36.8684 38.1893 36.9898 39.1823C37.048 39.6616 37.4544 40.027 37.9401 40.027H38.1016Z" fill="#2E8656"/>
<path d="M39.4988 0.52967C39.125 0.217075 38.6364 0.0277612 38.1017 0.0277612C34.5947 0.0277612 31.5776 -0.0366663 31.5776 0.0307775V0.0475254C31.5776 0.0561111 31.5774 0.0671774 31.5773 0.0805149C31.5771 0.106974 31.5767 0.142988 31.5758 0.187752C31.5738 0.277497 31.57 0.403586 31.5632 0.563799C31.5492 0.884602 31.5228 1.34326 31.4702 1.9239C31.3651 3.08513 31.1568 4.73732 30.745 6.75653C30.2789 9.04265 29.5504 11.8026 28.4134 14.8548C28.3292 15.081 28.3328 15.3309 28.4284 15.5524C29.0734 17.0476 29.8312 18.5891 30.7225 20.1464C30.8947 20.4471 31.0622 20.748 31.2253 21.0484C31.5738 21.6903 32.4916 21.7393 32.8719 21.1154C35.9944 15.9934 37.7071 11.2038 38.647 7.49738C39.2247 5.22114 39.5104 3.35417 39.6517 2.07252C39.6898 1.72618 39.7171 1.42292 39.7369 1.16594C39.7551 0.927054 39.6829 0.683997 39.4988 0.52967Z" fill="#2E8656"/>
<path d="M58.7959 21.7711C58.7959 22.7125 57.4021 23.0112 56.9786 22.1692C56.9213 22.0547 56.8858 21.9218 56.8834 21.7935L56.4837 2.31916C56.4606 1.19373 57.3937 0.263351 58.5683 0.241266C58.6933 0.238782 58.7959 0.339154 58.7959 0.463566V21.7711ZM57.196 37.0208C57.1839 36.4356 57.9187 36.3379 58.0342 36.912C58.1488 37.4826 58.246 38.0213 58.3288 38.5252C58.4441 39.229 57.7227 39.6889 57.4141 39.0453C57.2956 38.7979 57.227 38.5242 57.2209 38.2352L57.196 37.0208ZM66.2757 0.0961035C67.4499 0.0740182 68.4204 0.968401 68.4435 2.09362L69.1805 38.0097C69.204 39.1351 68.2705 40.0655 67.0963 40.0874L63.5853 40.1537C63.055 40.1638 62.6197 39.7388 62.6197 39.2113V1.08952C62.6197 0.575946 63.0332 0.157079 63.5493 0.14736L66.2757 0.0961035Z" fill="#E0EAB8"/>
<path d="M9.92497 0.0268555C11.0993 0.0268555 12.0513 0.939325 12.0514 2.06497V23.9279C12.0514 25.0092 10.2872 25.3176 9.84321 24.3308C9.22277 22.952 8.51588 21.5492 7.71007 20.1426C4.7014 14.8913 3.1963 9.82187 2.44481 6.07067C2.06958 4.19699 1.88361 2.65872 1.79143 1.60111C1.74553 1.07285 1.72286 0.665232 1.71179 0.396807C1.70649 0.262729 1.70379 0.162878 1.70266 0.100618C1.7025 0.0925721 1.70801 0.085549 1.71584 0.0836591C1.87621 0.0466703 2.04382 0.0268555 2.21602 0.0268555H9.92497ZM0.0893555 18.4838C0.0893555 17.4048 1.84192 17.0953 2.2867 18.0794C2.918 19.4755 3.63979 20.9039 4.46537 22.3449C7.46756 27.585 8.97589 32.7889 9.73176 36.6881C9.94835 37.8054 10.1019 38.8129 10.2116 39.6789C10.2343 39.8589 10.1073 40.026 9.92497 40.026H2.21602C1.04145 40.026 0.0893555 39.1133 0.0893555 37.9879V18.4838Z" fill="#066658"/>
<path d="M24.7587 0.157262C25.5654 0.446801 26.14 1.19219 26.14 2.06658V6.09875C26.14 6.52739 25.5835 6.59234 25.4993 6.17169C25.1269 4.31081 24.9423 2.78266 24.8509 1.73245C24.8053 1.20786 24.7833 0.803039 24.7722 0.536557C24.7668 0.403398 24.7642 0.304514 24.7628 0.242794C24.7628 0.238799 24.7613 0.234973 24.7587 0.231193V0.157262ZM20.7202 0.0283203C20.7593 0.0953321 20.792 0.153064 20.8116 0.192698C20.874 0.317272 20.9242 0.555622 20.9522 0.708761C20.9522 0.712757 20.9526 0.716957 20.9528 0.720953C20.9663 1.05261 20.993 1.52694 21.045 2.1247C21.149 3.32005 21.3548 5.01408 21.7635 7.05716C22.212 9.29771 22.9061 11.966 23.9807 14.8607C24.0643 15.0857 24.0609 15.3343 23.9668 15.5551C23.3317 17.0451 22.5904 18.5953 21.7245 20.1833C21.4723 20.6462 21.2296 21.107 20.9962 21.5653C20.5253 22.4905 18.9738 22.1671 18.9738 21.1301V0.601123C18.9738 0.28545 18.7164 0.029607 18.3991 0.029607C18.4165 0.029229 18.4343 0.0283203 18.452 0.0283203H20.7202ZM15.1504 37.78C15.1504 38.5486 14.3234 38.8269 14.2971 38.0591C14.295 37.9996 14.2958 37.9396 14.2992 37.8794L15.1504 22.8119V37.78ZM25.0126 22.3077C25.3005 21.7796 26.14 21.9791 26.14 22.5795V37.9895C26.14 39.1149 25.1879 40.0276 24.0135 40.0276H20.2904C19.7205 40.0276 19.2787 39.5306 19.3633 38.9702C19.458 38.341 19.5759 37.6502 19.7226 36.9058C20.4779 33.0771 21.9898 27.8514 25.0126 22.3077Z" fill="#41754F"/>
<path fill-rule="evenodd" clip-rule="evenodd" d="M46.1492 45.5599C45.0649 45.5866 44.174 46.0042 43.4754 46.8119C44.1978 45.9765 45.1263 45.5586 46.261 45.5586L46.1492 45.5599ZM46.4058 46.894C46.4081 46.894 46.4106 46.8943 46.413 46.8943C46.4096 46.8943 46.4062 46.8939 46.4029 46.8938L46.4058 46.894ZM42.7664 48.0125C42.9253 47.6041 43.1206 47.2538 43.352 46.961L43.2832 47.0503C43.0815 47.3241 42.9093 47.6451 42.7664 48.0125ZM42.2959 50.2398C42.261 50.644 42.2431 51.0764 42.2431 51.5367L42.2435 51.5746C42.2435 51.562 42.2433 51.5492 42.2433 51.5365C42.2433 51.0763 42.261 50.644 42.2959 50.2398ZM47.2809 47.0827C47.2815 47.0829 47.282 47.0833 47.2826 47.0837C47.5713 47.2004 47.8429 47.4228 48.0968 47.75C48.3624 48.0655 48.5586 48.5387 48.6856 49.1696C48.8241 49.8007 48.8932 50.5899 48.8932 51.5367L48.891 51.8222C48.8879 51.9849 48.882 52.143 48.8738 52.2965C48.8868 52.0545 48.8938 51.8011 48.8938 51.5365C48.8938 50.5898 48.8245 49.8009 48.686 49.17C48.5589 48.5389 48.3624 48.0655 48.0968 47.75C47.8429 47.4228 47.5718 47.2007 47.283 47.0839C47.2822 47.0835 47.2817 47.0831 47.2809 47.0827ZM42.2477 51.926C42.2547 52.2375 42.2706 52.5353 42.2948 52.8193C42.2694 52.5225 42.2538 52.2108 42.2471 51.8841L42.2477 51.926ZM46.261 47.2037C45.523 47.2037 44.9691 47.502 44.5654 48.1149C44.1681 48.736 43.9415 49.854 43.9415 51.5367C43.9415 53.2189 44.1681 54.3369 44.5654 54.9579L44.6428 55.0692C45.039 55.6069 45.5692 55.869 46.261 55.869C47.0239 55.869 47.5789 55.5443 47.9631 54.8663C48.3619 54.1623 48.5806 53.0658 48.5806 51.5367C48.5806 50.6032 48.5123 49.8384 48.3803 49.237L48.3789 49.2313C48.257 48.6257 48.0755 48.2103 47.8575 47.9512L47.8536 47.9468L47.8497 47.9418C47.6187 47.6443 47.3887 47.4639 47.1655 47.3735L47.1605 47.3717L47.1556 47.3696C46.9155 47.2628 46.6201 47.2037 46.261 47.2037ZM46.4123 56.178C46.3626 56.1805 46.3123 56.1816 46.261 56.1819L46.2614 56.1821C46.3124 56.1821 46.3627 56.1805 46.4123 56.178ZM45.8223 57.4923C45.9292 57.5033 46.0381 57.5104 46.1492 57.513L46.261 57.5142C46.1113 57.5142 45.965 57.5069 45.8223 57.4923ZM46.261 45.2456C47.5251 45.2456 48.5713 45.7649 49.3782 46.781C50.209 47.8003 50.5917 49.4094 50.5917 51.5367C50.5917 53.6643 50.2086 55.2772 49.3794 56.3074L49.3798 56.3078C48.5719 57.3141 47.5251 57.8271 46.261 57.8271C45.0061 57.8271 43.9713 57.3481 43.1817 56.3992L43.1061 56.3059C42.3009 55.2869 41.9305 53.6736 41.9305 51.5367C41.9305 49.3995 42.3009 47.7861 43.1061 46.7671L43.1817 46.6736C43.9713 45.7249 45.0061 45.2456 46.261 45.2456Z" fill="#292D32"/>
<path fill-rule="evenodd" clip-rule="evenodd" d="M65.8019 45.4729C65.327 45.8512 64.8521 46.2654 64.3774 46.7153L64.1756 46.9094C64.0417 47.0403 63.905 47.1782 63.765 47.323C63.9762 47.1045 64.1805 46.902 64.3776 46.7155C64.9201 46.2013 65.4629 45.7337 66.0055 45.3131L65.8019 45.4729ZM62.0638 49.2721C62.2406 49.0342 62.4289 48.8012 62.6285 48.5736C62.7098 48.4791 62.7904 48.3867 62.8702 48.2961C62.7904 48.3867 62.7097 48.4793 62.6281 48.5738L62.5106 48.7102C62.3543 48.8942 62.2054 49.0815 62.0638 49.2721ZM65.0529 49.1695C64.4757 49.1695 63.9387 49.2864 63.4422 49.52C63.9389 49.2862 64.4757 49.1699 65.0531 49.1699C65.0851 49.1699 65.1169 49.1698 65.1485 49.1706L65.0529 49.1695ZM64.6891 50.4671L64.835 50.4701L64.8424 50.4707C64.7919 50.4682 64.7407 50.4671 64.6891 50.4671ZM64.0629 50.5336C64.0478 50.5368 64.0332 50.5404 64.0183 50.5441C64.0551 50.5351 64.0922 50.5269 64.1297 50.5197L64.0629 50.5336ZM63.7175 50.6355C63.6817 50.6488 63.6463 50.6625 63.6113 50.6774L63.6737 50.6521C63.6882 50.6463 63.7028 50.641 63.7175 50.6355ZM60.7565 54.7934C60.5729 54.3166 60.481 53.8036 60.481 53.2544L60.482 53.3634C60.4934 53.8714 60.585 54.3482 60.7565 54.7934ZM66.5054 51.1292C66.571 51.1854 66.6353 51.2451 66.698 51.3085C67.2521 51.8695 67.5291 52.5414 67.5291 53.3243L67.5259 53.4701C67.5017 54.0074 67.3423 54.4905 67.0474 54.9197C67.3687 54.4522 67.5297 53.9206 67.5297 53.3243C67.5297 52.5414 67.2527 51.8693 66.6984 51.3083C66.6357 51.2449 66.5711 51.1854 66.5054 51.1292ZM66.8818 55.1382C66.8245 55.2072 66.7631 55.2744 66.698 55.3403L66.5928 55.4422C66.5353 55.4954 66.4761 55.5455 66.4163 55.5929C66.5132 55.5162 66.6077 55.4323 66.6984 55.3403C66.7635 55.2746 66.8245 55.207 66.8818 55.1382ZM64.6891 50.7801C64.0441 50.7801 63.4899 50.9959 63.014 51.4371L62.9201 51.5282C62.4233 52.0311 62.1791 52.6242 62.1791 53.3243C62.1791 54.0244 62.4233 54.6176 62.9201 55.1205L63.014 55.2117C63.4899 55.6531 64.0441 55.8689 64.6891 55.8689C65.3901 55.8689 65.9801 55.6223 66.4757 55.1205L66.5658 55.025C67.0019 54.5429 67.2165 53.9806 67.2165 53.3243C67.2165 52.6681 67.002 52.1055 66.5658 51.6236L66.4757 51.5282C65.9801 51.0264 65.3901 50.7801 64.6891 50.7801ZM67.6682 56.2518C67.6583 56.2619 67.648 56.2716 67.6381 56.2815L67.6682 56.2518ZM64.6149 57.5129L64.7237 57.514C64.6849 57.514 64.6462 57.5134 64.6077 57.5125C64.6102 57.5125 64.6125 57.5129 64.6149 57.5129ZM67.7008 46.1897L67.2861 46.4264C66.6824 46.7708 65.9878 47.3184 65.2013 48.0798L65.2009 48.0795C64.8803 48.3946 64.6085 48.6705 64.3833 48.9081C64.6012 48.8738 64.8245 48.8569 65.0529 48.8569C66.1947 48.8569 67.1818 49.2994 67.999 50.1642L68.0747 50.2459C68.8422 51.0946 69.2276 52.1084 69.2276 53.2717C69.2276 54.5023 68.7774 55.5739 67.8905 56.4716C67.0034 57.3696 65.9431 57.827 64.7237 57.827C63.4743 57.827 62.3961 57.3788 61.5067 56.4909L61.5051 56.4894C60.6167 55.5902 60.1678 54.5063 60.1678 53.2544C60.1678 52.4507 60.3789 51.6213 60.7875 50.77L60.7881 50.7685C61.2046 49.9134 61.7392 49.1134 62.3911 48.3694L62.6289 48.0966C63.1779 47.4725 63.689 46.9361 64.1621 46.4882L64.368 46.2953C64.8493 45.8497 65.331 45.44 65.8135 45.0658L66.0018 44.9199L67.7008 46.1897Z" fill="#292D32"/>
<path fill-rule="evenodd" clip-rule="evenodd" d="M36.8144 46.8937C36.8746 46.8964 36.9339 46.9017 36.9924 46.909C36.9148 46.8993 36.836 46.894 36.7556 46.8922L36.8144 46.8937ZM36.5957 45.5608C35.9016 45.5834 35.2785 45.7758 34.7264 46.1373C34.1492 46.5229 33.6989 47.0836 33.3757 47.8199L34.4838 48.4862V48.4859L33.3757 47.8199C33.6989 47.0836 34.1492 46.5229 34.7264 46.1373C35.3152 45.7516 35.985 45.5586 36.7356 45.5586L36.5957 45.5608ZM38.2767 47.557C38.7268 47.9895 38.9522 48.5095 38.9522 49.117L38.9478 49.2528C38.9352 49.4483 38.8956 49.6418 38.8289 49.8338C38.911 49.5974 38.9523 49.3588 38.9523 49.1174C38.9523 48.5095 38.727 47.9895 38.2767 47.557ZM38.7813 49.9594C38.7501 50.0354 38.7148 50.1112 38.675 50.1864L38.6028 50.3186C38.5628 50.388 38.5167 50.4609 38.4654 50.5381C38.5504 50.4099 38.6209 50.2931 38.6752 50.1866C38.715 50.1114 38.7501 50.0354 38.7813 49.9594ZM37.9503 51.2246C37.8684 51.3245 37.781 51.4287 37.6876 51.5367L32.6653 57.3739H32.6657L37.6882 51.5364C37.7814 51.4285 37.8686 51.3242 37.9503 51.2246ZM36.7356 45.2456C37.8619 45.2456 38.8061 45.6186 39.5404 46.3749C40.2807 47.1248 40.6504 48.0518 40.6504 49.1349C40.6502 50.2003 40.1065 51.3227 39.1032 52.4937L39.1025 52.4944L36.2572 55.799H40.7022V57.687H31.9837L37.4507 51.3324L37.4512 51.3317L37.6235 51.1294C38.0069 50.6707 38.2605 50.3103 38.3965 50.0439L38.3984 50.0407L38.4553 49.9245C38.5795 49.654 38.6396 49.3856 38.6396 49.117C38.6394 48.6297 38.4736 48.2131 38.1311 47.8537L38.0542 47.7769C37.6728 47.391 37.227 47.2037 36.7005 47.2037C36.2769 47.2037 35.9146 47.3188 35.602 47.5437C35.2859 47.7712 35.0038 48.123 34.7661 48.621L34.6178 48.9316L32.9785 47.9464L33.0892 47.6942C33.4324 46.9122 33.9182 46.3006 34.5523 45.8769L34.5548 45.8754L34.6765 45.799C35.2897 45.429 35.9788 45.2456 36.7356 45.2456Z" fill="#292D32"/>
<path fill-rule="evenodd" clip-rule="evenodd" d="M55.2423 46.8937C55.3042 46.8966 55.3654 46.9019 55.4255 46.9096C55.3463 46.8997 55.2655 46.894 55.1831 46.8922L55.2423 46.8937ZM55.0236 45.5608C54.3295 45.5834 53.7065 45.7758 53.1545 46.1373C52.5773 46.5229 52.1268 47.0836 51.8035 47.8199L52.9119 48.4862V48.4859L51.8038 47.8199C52.1271 47.0836 52.5773 46.5229 53.1545 46.1373C53.7433 45.7516 54.413 45.5586 55.1634 45.5586L55.0236 45.5608ZM56.4761 47.3525C56.5546 47.4146 56.6308 47.4826 56.7045 47.557C57.1546 47.9895 57.38 48.5095 57.38 49.117L57.3758 49.2528C57.3556 49.5685 57.2647 49.8797 57.103 50.1864L57.0308 50.3186C56.9916 50.3867 56.9464 50.4583 56.8963 50.5339C56.9802 50.4072 57.0495 50.292 57.1032 50.1866C57.288 49.8361 57.3804 49.4795 57.3804 49.1174C57.3804 48.5095 57.1552 47.9895 56.7049 47.557C56.6312 47.4826 56.5548 47.4146 56.4761 47.3525ZM56.1157 51.5367L51.0935 57.3739L56.1163 51.5364C56.1635 51.4816 56.2092 51.4275 56.2536 51.3749C56.209 51.4277 56.1631 51.4818 56.1157 51.5367ZM55.1634 45.2456C56.2888 45.2456 57.2322 45.6182 57.9663 46.3729L58.1012 46.5156C58.7527 47.2399 59.0784 48.1188 59.0784 49.1349C59.0783 50.2003 58.5344 51.3227 57.5311 52.4937L57.5307 52.4944L54.6851 55.799H59.1303V57.687H50.4116L55.8787 51.3324L55.8791 51.3317L56.0513 51.1294C56.4348 50.6707 56.6883 50.3103 56.8243 50.0439L56.8262 50.0407L56.8836 49.9245C57.008 49.654 57.0672 49.3854 57.0672 49.117C57.0672 48.5972 56.8786 48.1579 56.4879 47.7826L56.4848 47.7799L56.4822 47.7769C56.1008 47.391 55.6551 47.2037 55.1287 47.2037C54.7049 47.2037 54.3424 47.3188 54.0298 47.5437C53.7138 47.7712 53.432 48.1232 53.1943 48.621L53.0457 48.9316L51.4065 47.9464L51.5172 47.6942C51.8604 46.9122 52.3464 46.3006 52.9807 45.8769L52.9832 45.8754L53.1046 45.799C53.7178 45.429 54.4068 45.2456 55.1634 45.2456Z" fill="#292D32"/>
<path d="M8.98775 57.3118H7.24663L2.28182 51.3471H4.00577C4.72983 51.3471 5.31577 51.1516 5.764 50.7609C6.22385 50.3702 6.45362 49.853 6.45362 49.2096C6.45362 48.5658 6.22385 48.0487 5.764 47.658C5.31577 47.2672 4.72983 47.0718 4.00577 47.0718H1.76463V57.3118H0.38562V45.8306H4.12635C5.26414 45.8306 6.16635 46.1525 6.8329 46.796C7.4994 47.4281 7.83279 48.2327 7.83279 49.2096C7.83279 50.1058 7.54552 50.8587 6.97081 51.4678C6.39627 52.0769 5.68366 52.3815 4.83329 52.3815L8.98775 57.3118Z" fill="#292D32"/>
<path d="M17.4106 57.3118H10.6528V45.8306H17.4106V47.0718H12.032V50.8817H17.2037V52.1228H12.032V56.0706H17.4106V57.3118Z" fill="#292D32"/>
<path d="M27.1263 54.0015C27.1263 54.99 26.7471 55.8118 25.9885 56.4667C25.23 57.1218 24.2933 57.4495 23.1786 57.4495C22.0868 57.4495 21.1733 57.1392 20.4377 56.5186C19.7137 55.8865 19.3229 55.1222 19.2654 54.2257L20.6102 53.9326C20.6446 54.5993 20.9031 55.1337 21.3858 55.536C21.88 55.9381 22.4949 56.1393 23.2304 56.1393C23.9659 56.1393 24.5635 55.9438 25.0233 55.5531C25.4944 55.151 25.7301 54.6395 25.7301 54.0189C25.7301 53.4672 25.5232 53.0363 25.1094 52.726C24.7071 52.4043 23.9947 52.1225 22.9717 51.8812C21.7765 51.6055 20.9262 51.2263 20.4204 50.7436C19.9263 50.2608 19.6792 49.6402 19.6792 48.8816C19.6792 47.9623 20.0354 47.1981 20.7481 46.5889C21.4605 45.9799 22.3282 45.6753 23.3509 45.6753C24.3509 45.6753 25.1726 45.9397 25.8161 46.4683C26.4598 46.9855 26.8448 47.6463 26.9713 48.4507L25.6266 48.7437C25.5346 48.2037 25.2761 47.7783 24.8509 47.4682C24.4256 47.1579 23.9084 47.0026 23.2993 47.0026C22.6557 47.0026 22.1214 47.175 21.6962 47.5198C21.2824 47.8532 21.0755 48.2784 21.0755 48.7956C21.0755 49.2438 21.2593 49.6057 21.6272 49.8815C22.0064 50.146 22.673 50.3931 23.6268 50.6228C24.9025 50.9331 25.8047 51.3583 26.3333 51.8985C26.862 52.4271 27.1263 53.1281 27.1263 54.0015Z" fill="#292D32"/>
<path d="M17.7078 47.3688H12.3292V50.5842H17.5007V52.4197H12.3292V55.7732H17.7078V57.6086H10.3555V45.5332H17.7078V47.3688ZM6.15647 49.2094C6.15647 48.6463 5.95986 48.2144 5.57145 47.8843L5.5701 47.883L5.56875 47.8818C5.18585 47.5478 4.67422 47.369 4.00577 47.3688H2.06178V51.0497H4.00577V51.3469H2.28183L7.24664 57.3116H8.98776L4.8333 52.3813C5.65715 52.3813 6.35151 52.0953 6.91649 51.5238L6.97082 51.4676C7.52743 50.8775 7.81448 50.1525 7.83181 49.2928L7.83279 49.2094C7.83279 48.2325 7.4994 47.4279 6.8329 46.7958C6.18708 46.1723 5.3202 45.8509 4.23224 45.8313L4.12635 45.8304V45.5332C5.32247 45.5332 6.30523 45.8733 7.03939 46.5821C7.76783 47.2738 8.12994 48.1574 8.12994 49.2094C8.12994 50.1454 7.83678 50.9512 7.24512 51.6084L7.18681 51.6715C6.69499 52.1929 6.10636 52.5127 5.43046 52.6287L9.62688 57.6086H7.10721L2.06178 51.5471V57.6086H0.0882568V45.5332H4.12635V45.8304H0.385624V57.3116H1.76463V47.0716H4.00577C4.72983 47.0716 5.31577 47.2671 5.76401 47.6578C6.22386 48.0485 6.45362 48.5657 6.45362 49.2094L6.45286 49.2691C6.43893 49.885 6.20938 50.3822 5.76401 50.7607C5.32986 51.1393 4.76623 51.3345 4.07322 51.3463L4.00577 51.3469V51.0497C4.67422 51.0497 5.18585 50.8706 5.56875 50.5367L5.5701 50.5354L5.57145 50.5342C5.95986 50.2041 6.15647 49.7722 6.15647 49.2094ZM17.4106 56.0704H12.032V52.1226H17.2037V50.8815H12.032V47.0716H17.4106V45.8304H10.6528V57.3116H17.4106V56.0704ZM20.9067 53.9174C20.9372 54.5056 21.1603 54.96 21.5735 55.3053L21.6143 55.3379C22.0407 55.6692 22.5732 55.842 23.2304 55.842V56.1393L23.1616 56.1388C22.4564 56.1265 21.8645 55.9256 21.3859 55.536C20.9031 55.1337 20.6446 54.5994 20.6102 53.9327L19.2654 54.2258C19.323 55.1223 19.7137 55.8865 20.4378 56.5186C21.1502 57.1198 22.0299 57.4297 23.0769 57.4484L23.1786 57.4496C24.2587 57.4496 25.1713 57.1421 25.917 56.5272L25.9886 56.4668C26.7235 55.8323 27.1022 55.0411 27.125 54.0938L27.1263 54.0016C27.1263 53.1282 26.862 52.4272 26.3333 51.8985C25.8047 51.3583 24.9025 50.9331 23.6268 50.6228C22.7326 50.4074 22.0907 50.1767 21.7015 49.9307L21.6272 49.8816C21.2824 49.6231 21.0991 49.2886 21.0776 48.8785L21.0755 48.7956C21.0755 48.2946 21.2696 47.8797 21.6578 47.5513L21.6962 47.5199C22.1214 47.175 22.6557 47.0027 23.2993 47.0027L23.4125 47.0044C23.9727 47.0227 24.4522 47.1771 24.8509 47.4683C25.2761 47.7784 25.5346 48.2037 25.6266 48.7438L26.9713 48.4508C26.8488 47.6715 26.4834 47.0269 25.8758 46.5171L25.8161 46.4683C25.1927 45.9561 24.4021 45.6921 23.4443 45.6759L23.351 45.6753C22.3282 45.6753 21.4605 45.9799 20.7481 46.5889L20.6821 46.6465C20.0135 47.2459 19.6792 47.9911 19.6792 48.8817L19.6798 48.9524C19.6946 49.6787 19.9417 50.2759 20.4204 50.7436C20.9262 51.2263 21.7765 51.6056 22.9717 51.8812C23.9947 52.1226 24.7071 52.4043 25.1094 52.7261C25.5232 53.0364 25.7301 53.4673 25.7301 54.0189L25.7293 54.0767C25.715 54.6714 25.4797 55.1634 25.0233 55.5532L24.9797 55.5892C24.526 55.9559 23.9428 56.1393 23.2304 56.1393V55.842C23.9114 55.842 24.4358 55.6623 24.8307 55.3267C25.2353 54.9811 25.4327 54.5523 25.4327 54.0187C25.4327 53.5825 25.2847 53.2566 24.9915 53.0116L24.9311 52.9638L24.9273 52.961L24.9237 52.9581C24.576 52.6799 23.919 52.4102 22.9035 52.1706C21.691 51.8908 20.7784 51.4962 20.2151 50.9585L20.2139 50.9573L20.2126 50.9562C19.6554 50.4117 19.3819 49.7117 19.3819 48.8817C19.3819 47.8734 19.7777 47.0272 20.5547 46.363L20.6277 46.3022C21.3849 45.6835 22.2981 45.3779 23.351 45.3779C24.404 45.3779 25.2957 45.6574 26.0023 46.2365L26.0672 46.2896C26.7288 46.8447 27.1309 47.5534 27.2647 48.4045L27.3083 48.6815L25.3858 49.1004L25.3334 48.7937C25.254 48.3264 25.0353 47.9708 24.6755 47.7083C24.3088 47.4406 23.8556 47.2998 23.2992 47.2998C22.7113 47.2998 22.2465 47.4561 21.8832 47.7507L21.8825 47.7513C21.5365 48.03 21.3727 48.3712 21.3727 48.7954C21.3727 49.1455 21.5089 49.4195 21.8011 49.6402C22.1118 49.8555 22.6745 50.0765 23.5222 50.291L23.6965 50.3338L23.6971 50.334L23.8175 50.3639C25.0504 50.6763 25.9748 51.1088 26.5434 51.6883L26.5983 51.7444C27.155 52.331 27.4236 53.0931 27.4236 54.0016C27.4236 55.0441 27.0313 55.9244 26.2586 56.6245L26.1828 56.6917C25.3641 57.3988 24.3562 57.7465 23.1786 57.7465C22.0266 57.7465 21.0422 57.4175 20.246 56.7457L20.2421 56.7424C19.463 56.0623 19.0317 55.2261 18.9688 54.2449L18.9523 53.9898L20.8886 53.5677L20.9067 53.9174Z" fill="#292D32"/>
<path d="M2.40767 64.523H1.92039L0.530749 62.8657H1.01328C1.21593 62.8657 1.37998 62.8114 1.50531 62.7028C1.63409 62.5942 1.69846 62.4506 1.69846 62.2718C1.69846 62.0929 1.63409 61.9492 1.50531 61.8406C1.37998 61.7321 1.21593 61.6778 1.01328 61.6778H0.385979V64.523H0V61.333H1.04697C1.36551 61.333 1.61789 61.4223 1.80457 61.6012C1.99108 61.7768 2.08439 62.0003 2.08439 62.2718C2.08439 62.5209 2.00404 62.7301 1.84307 62.8992C1.68226 63.0686 1.48285 63.1532 1.24488 63.1532L2.40767 64.523Z" fill="#292D32"/>
<path d="M4.70102 64.523H2.80957V61.333H4.70102V61.6778H3.19555V62.7364H4.64308V63.0811H3.19555V64.178H4.70102V64.523Z" fill="#292D32"/>
<path d="M8.39356 62.9422C8.39356 63.3925 8.24728 63.7756 7.9545 64.0918C7.66497 64.4046 7.29027 64.5612 6.83021 64.5612C6.3736 64.5612 5.98444 64.4015 5.66266 64.0821C5.34418 63.7629 5.18494 63.378 5.18494 62.9279C5.18494 62.4776 5.34591 62.0927 5.66741 61.7735C5.98919 61.454 6.37684 61.2944 6.83021 61.2944C7.3514 61.2944 7.77275 61.4893 8.09452 61.8789L7.80498 62.1183C7.52511 61.8118 7.20015 61.6584 6.83021 61.6584C6.47971 61.6584 6.18212 61.7813 5.93773 62.0272C5.69641 62.2731 5.57583 62.5734 5.57583 62.9279C5.57583 63.2822 5.69641 63.5824 5.93773 63.8284C6.18212 64.0741 6.47971 64.1972 6.83021 64.1972C7.16489 64.1972 7.44303 64.0901 7.66497 63.8762C7.89014 63.659 8.00267 63.3973 8.00267 63.0906H6.83993V62.7458H8.39356V62.9422Z" fill="#292D32"/>
<path d="M9.419 64.523H9.03302V61.333H9.419V64.523Z" fill="#292D32"/>
<path d="M12.5881 63.8329C12.8325 63.587 12.9548 63.2853 12.9548 62.9277C12.9548 62.57 12.8325 62.2698 12.5881 62.0272C12.3469 61.7813 12.0509 61.6583 11.7004 61.6583C11.3497 61.6583 11.0522 61.7813 10.8078 62.0272C10.5664 62.2698 10.4458 62.57 10.4458 62.9277C10.4458 63.2853 10.5664 63.587 10.8078 63.8329C11.0522 64.0757 11.3497 64.197 11.7004 64.197C12.0509 64.197 12.3469 64.0757 12.5881 63.8329ZM12.8632 61.7733C13.1847 62.0893 13.3457 62.4742 13.3457 62.9277C13.3457 63.3811 13.1847 63.7674 12.8632 64.0869C12.5447 64.4029 12.157 64.561 11.7004 64.561C11.2436 64.561 10.8544 64.4029 10.5327 64.0869C10.2142 63.7674 10.0549 63.3811 10.0549 62.9277C10.0549 62.4742 10.2142 62.0893 10.5327 61.7733C10.8544 61.454 11.2436 61.2944 11.7004 61.2944C12.157 61.2944 12.5447 61.454 12.8632 61.7733Z" fill="#292D32"/>
<path d="M16.5597 64.6282L14.3209 62.1903V64.5229H13.9349V61.2275L16.1738 63.6655V61.3328H16.5597V64.6282Z" fill="#292D32"/>
<path d="M18.9295 63.1483L18.4422 62.0992L17.9547 63.1483H18.9295ZM19.9861 64.523H19.5615L19.0886 63.4932H17.7957L17.3227 64.523H16.8981L18.4422 61.2275L19.9861 64.523Z" fill="#292D32"/>
<path d="M22.2135 64.523H20.3221V61.333H20.7082V64.178H22.2135V64.523Z" fill="#292D32"/>
<path d="M54.2201 63.6031C54.2201 63.8776 54.114 64.106 53.9016 64.2879C53.6894 64.47 53.4273 64.5611 53.1152 64.5611C52.8095 64.5611 52.554 64.4748 52.3481 64.3024C52.1454 64.1268 52.0361 63.9144 52.0199 63.6654L52.3963 63.5839C52.4058 63.7692 52.4784 63.9176 52.6134 64.0294C52.7518 64.141 52.9238 64.197 53.1297 64.197C53.3356 64.197 53.5029 64.1428 53.6315 64.0342C53.7633 63.9223 53.8294 63.7803 53.8294 63.6079C53.8294 63.4545 53.7713 63.3349 53.6557 63.2486C53.5429 63.1592 53.3434 63.0809 53.0573 63.0139C52.7226 62.9373 52.4847 62.832 52.3431 62.6979C52.2048 62.5636 52.1357 62.3912 52.1357 62.1805C52.1357 61.9251 52.2355 61.7126 52.4348 61.5435C52.6342 61.3741 52.8771 61.2896 53.1634 61.2896C53.4432 61.2896 53.6732 61.3631 53.8534 61.51C54.0336 61.6536 54.1412 61.8372 54.1766 62.0606L53.8002 62.1422C53.7745 61.9921 53.7023 61.874 53.5831 61.7877C53.4642 61.7016 53.3194 61.6584 53.1492 61.6584C52.9689 61.6584 52.8194 61.7064 52.7002 61.8022C52.5843 61.8948 52.5266 62.0129 52.5266 62.1565C52.5266 62.2811 52.578 62.3817 52.6811 62.4582C52.787 62.5318 52.9735 62.6004 53.2406 62.6643C53.5977 62.7505 53.8502 62.8686 53.9982 63.0187C54.1462 63.1656 54.2201 63.3604 54.2201 63.6031Z" fill="#292D32"/>
<path d="M57.3964 63.239C57.3964 63.6381 57.2743 63.959 57.0297 64.2017C56.7853 64.4412 56.4862 64.561 56.1323 64.561C55.7785 64.561 55.4793 64.4412 55.2348 64.2017C54.9904 63.959 54.8682 63.6381 54.8682 63.239V61.3325H55.2541V63.2102C55.2541 63.5072 55.3362 63.7466 55.5002 63.9287C55.6642 64.1076 55.8749 64.197 56.1323 64.197C56.3896 64.197 56.6003 64.1076 56.7643 63.9287C56.9283 63.7466 57.0104 63.5072 57.0104 63.2102V61.3325H57.3964V63.239Z" fill="#292D32"/>
<path d="M61.9553 64.5229H61.5499L60.8214 62.2909L59.8901 64.6282L58.959 62.2909L58.2303 64.5229H57.825L58.9251 61.2275L59.8901 63.6462L60.8552 61.2275L61.9553 64.5229Z" fill="#292D32"/>
<path d="M66.1643 64.5229H65.759L65.0305 62.2909L64.0992 64.6282L63.168 62.2909L62.4392 64.5229H62.034L63.1341 61.2275L64.0992 63.6462L65.0642 61.2275L66.1643 64.5229Z" fill="#292D32"/>
<path d="M67.0488 64.523H66.6629V61.333H67.0488V64.523Z" fill="#292D32"/>
<path d="M69.7788 61.6775H68.8572V64.5227H68.4713V61.6775H67.5497V61.3325H69.7788V61.6775Z" fill="#292D32"/>
<path d="M46.8266 61.7046C46.8183 61.7328 46.8073 61.7674 46.7959 61.796L46.7957 61.7958L46.2134 63.3817H47.4438L46.8569 61.7956L46.8566 61.7951C46.8502 61.7734 46.8414 61.7493 46.8336 61.7265C46.8311 61.7191 46.8287 61.7117 46.8266 61.7046ZM36.2673 61.6078C35.921 61.6078 35.6299 61.7415 35.4251 61.973C35.2205 62.2044 35.1019 62.5344 35.1019 62.9278C35.1019 63.3211 35.2205 63.6512 35.4251 63.8827C35.6299 64.1139 35.921 64.2477 36.2673 64.2477C36.6136 64.2477 36.9055 64.113 37.1114 63.8811C37.3171 63.649 37.4368 63.319 37.4368 62.9278C37.4368 62.5344 37.3169 62.2044 37.1114 61.973C36.9055 61.7415 36.6136 61.6078 36.2673 61.6078ZM31.2209 61.6078C30.8748 61.6078 30.5837 61.7415 30.3791 61.973C30.1745 62.2044 30.0558 62.5344 30.0558 62.9278C30.0558 63.3211 30.1745 63.6512 30.3791 63.8827C30.5837 64.1139 30.8748 64.2477 31.2209 64.2477C31.5673 64.2477 31.8597 64.113 32.0652 63.8811C32.2711 63.649 32.3909 63.319 32.3909 62.9278C32.3909 62.5344 32.2711 62.2044 32.0652 61.973C31.8597 61.7415 31.5674 61.6078 31.2209 61.6078ZM48.9865 61.3364V64.2081H50.44V64.5193H48.6486V61.3364H48.9865ZM47.0321 61.3364L47.0344 61.3426L48.2095 64.506L48.2145 64.5193H47.8621L47.8596 64.5129L47.5529 63.6798H46.109L45.8019 64.5129L45.7994 64.5193H45.4559L45.4607 64.506L46.6227 61.3426L46.625 61.3364H47.0321ZM42.0375 64.5193H41.6998V61.3364H42.0375V64.5193ZM33.4114 61.3364V64.2081H34.8651V64.5193H33.0735V61.3364H33.4114ZM26.2157 61.3364V61.6475H24.6428V62.7675H26.0698V63.0746H24.6428V64.2081H26.2201V64.5193H24.3049V61.3364H26.2157ZM44.1276 61.2832C44.8121 61.2834 45.3512 61.697 45.4803 62.3294L45.4826 62.3412H45.1228L45.1209 62.334C44.9896 61.8835 44.605 61.6078 44.1141 61.6078C43.7701 61.6078 43.4834 61.7393 43.2828 61.9694C43.0818 62.1997 42.9665 62.5298 42.9665 62.9278C42.9665 63.3234 43.0818 63.6524 43.2828 63.8823C43.4834 64.1119 43.7701 64.2431 44.1141 64.2431C44.6098 64.2431 45.0029 63.9759 45.1384 63.5564L45.1408 63.5497H45.5007L45.4979 63.5619C45.3506 64.1633 44.794 64.5679 44.1097 64.5679C43.6653 64.5679 43.2917 64.4022 43.0291 64.1139C42.7664 63.8257 42.6153 63.4158 42.6153 62.9278C42.6153 62.4397 42.7685 62.0284 43.0344 61.7393C43.3003 61.4499 43.6786 61.2832 44.1276 61.2832ZM27.9431 61.2832C28.6273 61.2834 29.1667 61.697 29.2958 62.3294L29.2979 62.3412H28.9384L28.9361 62.334C28.8051 61.8835 28.4203 61.6078 27.9296 61.6078C27.5855 61.6078 27.2989 61.7393 27.0983 61.9694C26.8973 62.1997 26.782 62.5298 26.782 62.9278C26.782 63.3234 26.8973 63.6524 27.0983 63.8823C27.2989 64.1119 27.5855 64.2431 27.9296 64.2431C28.4253 64.2431 28.8186 63.9759 28.9541 63.5564L28.9561 63.5497H29.3162L29.3131 63.5619C29.1663 64.1633 28.6094 64.5679 27.9252 64.5679C27.4808 64.5677 27.107 64.4022 26.8443 64.1139C26.5818 63.8257 26.4308 63.4158 26.4308 62.9278C26.4308 62.4397 26.5839 62.0284 26.8499 61.7393C27.1158 61.4499 27.4941 61.2832 27.9431 61.2832ZM39.7031 61.2832C40.3739 61.2832 40.8957 61.6655 41.0205 62.2452L41.0232 62.2572H40.6589L40.6567 62.2503C40.5258 61.8225 40.1593 61.6035 39.6986 61.6035C39.3369 61.6035 39.0424 61.7372 38.8384 61.9705C38.6344 62.2042 38.5201 62.5387 38.5201 62.9411C38.5201 63.3499 38.641 63.6775 38.8495 63.9029C39.0576 64.1282 39.3542 64.2521 39.7074 64.2521C39.9711 64.2521 40.2303 64.1882 40.4235 64.0311C40.6164 63.8743 40.7446 63.6233 40.7446 63.2459V63.0923H39.6006V62.7896H41.0649V64.5237H40.794L40.7934 64.5144L40.7643 64.0429C40.586 64.3462 40.1941 64.5723 39.6945 64.5723C39.2434 64.5723 38.8618 64.41 38.593 64.1246C38.3244 63.8393 38.1692 63.4314 38.1692 62.9411C38.1692 62.4553 38.3242 62.0406 38.594 61.7476C38.8637 61.4545 39.2477 61.2834 39.7031 61.2832ZM36.2673 61.2788C36.714 61.2788 37.0933 61.449 37.3607 61.7404C37.6284 62.0319 37.7836 62.4441 37.7836 62.9278C37.7836 63.4093 37.6272 63.8204 37.3592 64.1113C37.091 64.4022 36.7115 64.5723 36.2673 64.5723C35.8206 64.5723 35.4411 64.4022 35.1735 64.1113C34.906 63.8204 34.7508 63.4092 34.7508 62.9278C34.7508 62.4462 34.9072 62.034 35.1752 61.7419C35.4434 61.4499 35.8227 61.2788 36.2673 61.2788ZM31.2209 61.2788C31.6676 61.2788 32.0471 61.449 32.3145 61.7404C32.582 62.0319 32.7374 62.4441 32.7374 62.9278C32.7374 63.4093 32.5809 63.8204 32.3128 64.1113C32.0446 64.4022 31.6655 64.5723 31.2209 64.5723C30.7744 64.5723 30.3951 64.4022 30.1275 64.1113C29.8598 63.8204 29.7046 63.4092 29.7046 62.9278C29.7046 62.4464 29.861 62.034 30.1292 61.7419C30.3971 61.4499 30.7767 61.2788 31.2209 61.2788Z" fill="#292D32"/>
<path d="M46.2658 63.3452H47.3912L46.8262 61.8188L46.2658 63.3452ZM47.4966 63.4186H46.1608L46.778 61.7375C46.783 61.7226 46.7875 61.7078 46.7913 61.6944L46.825 61.5769L46.8759 61.7367C46.8816 61.7531 46.8871 61.7695 46.8917 61.7847L47.4966 63.4186ZM31.221 61.6447C30.8922 61.6447 30.6106 61.7666 30.4066 61.9973C30.201 62.2297 30.0925 62.5514 30.0925 62.9278C30.0925 63.3041 30.201 63.626 30.4066 63.8584C30.6106 64.0891 30.8922 64.211 31.221 64.211C31.5499 64.211 31.8323 64.0885 32.0378 63.8567C32.2449 63.6233 32.3542 63.3022 32.3542 62.9278C32.3542 62.5518 32.2449 62.2301 32.0378 61.9973C31.8328 61.7666 31.5503 61.6447 31.221 61.6447ZM31.221 64.2843C30.8706 64.2843 30.57 64.1539 30.3518 63.907C30.1342 63.6609 30.0191 63.3224 30.0191 62.9278C30.0191 62.5333 30.1342 62.1947 30.3518 61.9487C30.5699 61.7018 30.8705 61.5714 31.221 61.5714C31.5718 61.5714 31.8732 61.7018 32.0927 61.9487C32.3117 62.195 32.4276 62.5337 32.4276 62.9278C32.4276 63.3205 32.3117 63.6584 32.0927 63.9055C31.8761 64.1497 31.5665 64.2843 31.221 64.2843ZM36.2673 61.6447C35.9384 61.6447 35.6566 61.7666 35.4526 61.9973C35.247 62.2297 35.1385 62.5514 35.1385 62.9278C35.1385 63.3041 35.247 63.626 35.4526 63.8584C35.6568 64.0891 35.9384 64.211 36.2673 64.211C36.5959 64.211 36.8782 64.0885 37.0838 63.8567C37.2906 63.6235 37.4002 63.3024 37.4002 62.9278C37.4002 62.5518 37.2906 62.2301 37.084 61.9973C36.8786 61.7666 36.5963 61.6447 36.2673 61.6447ZM36.2673 64.2843C35.9168 64.2843 35.616 64.1539 35.3977 63.907C35.1802 63.6609 35.0653 63.3224 35.0653 62.9278C35.0653 62.5333 35.1802 62.1947 35.3977 61.9487C35.616 61.7018 35.9166 61.5714 36.2673 61.5714C36.6178 61.5714 36.919 61.7018 37.1386 61.9487C37.3577 62.195 37.4734 62.5337 37.4734 62.9278C37.4734 63.3205 37.3577 63.6586 37.1386 63.9055C36.9188 64.1533 36.6174 64.2843 36.2673 64.2843ZM24.3415 64.4827H26.1834V64.2445H24.6062V63.038H26.033V62.8042H24.6062V61.6109H26.1791V61.3729H24.3415V64.4827ZM26.2567 64.5558H24.2683V61.2997H26.2523V61.6843H24.6794V62.7311H26.1062V63.1113H24.6794V64.1714H26.2567V64.5558ZM33.1101 64.4827H34.8283V64.2445H33.3748V61.3729H33.1101V64.4827ZM34.9017 64.5558H33.0369V61.2997H33.448V64.1714H34.9017V64.5558ZM41.7364 64.4827H42.001V61.373H41.7364V64.4827ZM42.0741 64.5558H41.6631V61.2995H42.0741V64.5558ZM47.8875 64.4827H48.1618L47.0064 61.3729H46.6507L45.5083 64.4827H45.7739L46.0833 63.6433H47.5785L47.8875 64.4827ZM48.2673 64.5558H47.8377L47.8284 64.5333L47.5274 63.7165H46.1344L45.8274 64.5495L45.7995 64.5558H45.4038L45.4263 64.4937L46.5971 61.306L46.625 61.2997H47.0586L47.0691 61.331L48.2673 64.5558ZM48.6852 64.4827H50.4035V64.2445H48.9498V61.3729H48.6852V64.4827ZM50.4766 64.5558H48.6119V61.2997H49.0231V64.1714H50.4766V64.5558ZM27.9429 61.3199C27.5126 61.3199 27.1438 61.4736 26.8768 61.7641C26.6089 62.0554 26.4674 62.4579 26.4674 62.9278C26.4674 63.3978 26.6072 63.7994 26.8714 64.0893C27.1349 64.3785 27.4993 64.5312 27.9252 64.5312C28.5785 64.5312 29.1139 64.1529 29.269 63.5864H28.9825C28.8316 64.0173 28.4314 64.2798 27.9296 64.2798C27.581 64.2798 27.284 64.1506 27.0705 63.9064C26.8577 63.663 26.7453 63.3246 26.7453 62.9278C26.7453 62.5291 26.8577 62.1893 27.0705 61.9453C27.2838 61.7007 27.5808 61.5714 27.9296 61.5714C28.43 61.5714 28.8251 61.8518 28.9655 62.3048H29.2529C29.1158 61.7054 28.6053 61.3199 27.9429 61.3199ZM27.9252 64.6044C27.4781 64.6044 27.0951 64.4434 26.8173 64.1388C26.5405 63.835 26.3942 63.4163 26.3942 62.9278C26.3942 62.4392 26.5422 62.0196 26.8229 61.7144C27.1042 61.4084 27.4915 61.2467 27.9429 61.2467C28.6422 61.2467 29.2004 61.6788 29.3316 62.3221L29.3421 62.3779H28.9114L28.9034 62.3522C28.7754 61.9127 28.4032 61.6447 27.9296 61.6447C27.6027 61.6447 27.3248 61.7653 27.1257 61.9937C26.9248 62.224 26.8186 62.5471 26.8186 62.9278C26.8186 63.3065 26.9248 63.6283 27.1257 63.8582C27.3248 64.0861 27.6029 64.2066 27.9296 64.2066C28.4083 64.2066 28.7874 63.9531 28.919 63.5452L28.9274 63.5199L28.9562 63.513H29.3627L29.3488 63.5706C29.1977 64.1889 28.6255 64.6044 27.9252 64.6044ZM44.1277 61.3199C43.6971 61.3199 43.3285 61.4736 43.0613 61.7641C42.7934 62.0554 42.6519 62.4579 42.6519 62.9278C42.6519 63.3976 42.7918 63.7994 43.0561 64.0893C43.3194 64.3785 43.6838 64.5312 44.1097 64.5312C44.763 64.5312 45.2982 64.1529 45.4535 63.5864H45.1672C45.0163 64.0169 44.6161 64.2798 44.1141 64.2798C43.7657 64.2798 43.4686 64.1506 43.2552 63.9064C43.0424 63.663 42.93 63.3246 42.93 62.9278C42.93 62.5291 43.0424 62.1893 43.2552 61.9453C43.4686 61.7007 43.7656 61.5714 44.1141 61.5714C44.6146 61.5714 45.0098 61.8518 45.1502 62.3048H45.4375C45.3005 61.7057 44.7898 61.3199 44.1277 61.3199ZM44.1097 64.6044C43.6627 64.6044 43.2796 64.4434 43.0019 64.1388C42.7251 63.835 42.5788 63.4163 42.5788 62.9278C42.5788 62.4392 42.727 62.0196 43.0074 61.7144C43.2888 61.4084 43.676 61.2467 44.1277 61.2467C44.8268 61.2467 45.3849 61.6788 45.5162 62.3221L45.5264 62.3779H45.0948L45.0874 62.351C44.9599 61.9127 44.5877 61.6447 44.1141 61.6447C43.7873 61.6447 43.5095 61.7653 43.3105 61.9937C43.1095 62.224 43.0032 62.5471 43.0032 62.9278C43.0032 63.3065 43.1095 63.6283 43.3105 63.8582C43.5095 64.0861 43.7874 64.2066 44.1141 64.2066C44.5926 64.2066 44.9718 63.9531 45.1036 63.5452L45.1117 63.5199L45.1409 63.513H45.5474L45.5333 63.5706C45.382 64.1889 44.8098 64.6044 44.1097 64.6044ZM31.221 61.3155C30.8013 61.3155 30.4232 61.4757 30.1561 61.7668C29.8887 62.058 29.7412 62.4703 29.7412 62.9278C29.7412 63.3854 29.8881 63.7969 30.1544 64.0864C30.4209 64.3762 30.7996 64.5356 31.221 64.5356C31.6406 64.5356 32.0189 64.3762 32.2858 64.0864C32.5535 63.7959 32.7009 63.3845 32.7009 62.9278C32.7009 62.4685 32.5542 62.0556 32.2875 61.7653C32.0176 61.471 31.6486 61.3155 31.221 61.3155ZM31.221 64.609C30.779 64.609 30.3811 64.4409 30.1004 64.1362C29.8216 63.8329 29.668 63.4037 29.668 62.9278C29.668 62.452 29.8221 62.0219 30.1022 61.717C30.3832 61.4109 30.7806 61.2422 31.221 61.2422C31.6633 61.2422 32.0614 61.4104 32.3416 61.7157C32.6205 62.0196 32.7742 62.4501 32.7742 62.9278C32.7742 63.4029 32.6199 63.8321 32.3397 64.1362C32.0587 64.4411 31.6614 64.609 31.221 64.609ZM36.2673 61.3155C35.8477 61.3155 35.4693 61.4757 35.2021 61.7668C34.9346 62.0583 34.7874 62.4705 34.7874 62.9278C34.7874 63.3852 34.934 63.7967 35.2004 64.0864C35.4669 64.3762 35.8457 64.5356 36.2673 64.5356C36.687 64.5356 37.0651 64.3762 37.3322 64.0864C37.5997 63.7961 37.7471 63.3847 37.7471 62.9278C37.7471 62.4684 37.6002 62.0554 37.3337 61.7653C37.0638 61.471 36.695 61.3155 36.2673 61.3155ZM36.2673 64.609C35.825 64.609 35.427 64.4409 35.1465 64.1362C34.8676 63.8327 34.7141 63.4037 34.7141 62.9278C34.7141 62.4522 34.8683 62.0222 35.1482 61.7173C35.4295 61.4109 35.8269 61.2422 36.2673 61.2422C36.7097 61.2422 37.1076 61.4104 37.3878 61.7157C37.6667 62.0194 37.8202 62.4499 37.8202 62.9278C37.8202 63.4031 37.6661 63.8323 37.3861 64.1362C37.1049 64.4411 36.7076 64.609 36.2673 64.609ZM39.7031 61.3199C39.2676 61.3199 38.8933 61.4765 38.6209 61.7723C38.3532 62.0634 38.2058 62.4783 38.2058 62.9412C38.2058 63.4113 38.3488 63.8117 38.6197 64.0996C38.8883 64.3847 39.26 64.5356 39.6943 64.5356C40.1494 64.5356 40.5472 64.3398 40.7327 64.0245L40.7934 63.9211L40.8283 64.487H41.0283V62.8263H39.6372V63.0559H40.7812V63.2458C40.7812 63.6053 40.6687 63.8792 40.4468 64.0595C40.2624 64.2095 40.0069 64.2887 39.7074 64.2887C39.3468 64.2887 39.0409 64.164 38.8224 63.9279C38.6007 63.6881 38.4835 63.3469 38.4835 62.9412C38.4835 62.5356 38.5967 62.1918 38.8108 61.9466C39.028 61.6982 39.3348 61.5668 39.6987 61.5668C40.1915 61.5668 40.55 61.8049 40.6858 62.2207H40.9773C40.8434 61.6723 40.3471 61.3199 39.7031 61.3199ZM39.6943 64.609C39.2392 64.609 38.8491 64.4501 38.5664 64.1497C38.2826 63.8483 38.1325 63.4304 38.1325 62.9412C38.1325 62.46 38.2867 62.0272 38.567 61.7228C38.8495 61.4157 39.2529 61.2467 39.7031 61.2467C40.3955 61.2467 40.9268 61.6357 41.0565 62.2377L41.0685 62.2939H40.6317L40.6239 62.2682C40.5009 61.8664 40.1645 61.6401 39.6987 61.6401C39.3568 61.6401 39.0687 61.7628 38.866 61.9948C38.6638 62.2265 38.5567 62.5537 38.5567 62.9412C38.5567 63.3281 38.6672 63.6521 38.8761 63.8781C39.0805 64.0988 39.3678 64.2154 39.7074 64.2154C39.9043 64.2154 40.1842 64.1786 40.4004 64.0028C40.6045 63.8369 40.7079 63.5822 40.7079 63.2458V63.129H39.5638V62.7529H41.1015V64.5604H40.7595L40.7342 64.1529C40.5178 64.4366 40.1302 64.609 39.6943 64.609Z" fill="#292929"/>
</svg>
