<svg width="1885" height="1112" viewBox="0 0 1885 1112" fill="none" xmlns="http://www.w3.org/2000/svg">
<g filter="url(#filter0_d_227_32163)">
<path fill-rule="evenodd" clip-rule="evenodd" d="M791.105 112.585C799.283 117.792 799.521 117.866 794.77 116.343C793.557 114.714 792.268 113.397 791.105 112.585ZM355.298 1104H1965.35C1966.76 1089.95 1970.1 1093.34 1972.67 1080.6C1988 1062.26 1995.31 1081.97 2000.41 1070.31C2016.92 1032.58 2030.21 1048.6 2033.06 1040.7C2009.72 1030.71 2028.17 1023.64 2030.74 1020.48C2061.68 1030.14 2065.51 1009.46 2079.49 996.33C2091.57 1005.74 2089.57 1035.54 2110.44 1025.22C2110.96 1013.35 2139.79 1005.36 2146.31 1005.36C2150.94 1004.17 2154.22 971.119 2156.24 960.992C2163.29 934.476 2158.59 937.983 2165.82 931.918C2185.34 929.928 2226.31 926.07 2233.62 911.523C2242.1 909.34 2250.33 917.274 2258.23 905.082C2263.41 897.067 2266.73 868.937 2268.42 865.81C2271.65 859.856 2327.4 809.168 2347.41 792.636C2353.83 787.337 2350.97 783.967 2356.18 778.231C2359.63 774.434 2375.84 768.82 2381.41 765.348C2385.45 762.821 2376.79 758.222 2369.13 754.963C2380.86 726.564 2371.58 733.36 2365.1 722.686C2359.68 713.747 2361.07 711.108 2361.07 709.539C2361.07 707.966 2364.94 702.306 2369.66 696.921C2378.59 686.759 2380.51 678.424 2375.12 673.039C2372.84 670.755 2374.21 668.801 2380.13 665.973C2391.03 660.765 2390.7 654.842 2381.47 643.878C2377.42 639.066 2374.06 633.006 2374.05 630.366C2374.04 627.737 2364.02 613.154 2351.77 597.987C2333.33 575.146 2328.34 566.613 2322.7 548.604C2317.02 530.504 2316.39 525.626 2319.21 519.443C2321.07 515.357 2321.87 510.926 2321 509.515C2318.31 505.156 2290.02 511.073 2280.83 512.911C2272.25 514.626 2267.11 492.076 2331.83 465.766C2337.73 463.364 2351 453.055 2362.15 444.653C2382.3 429.467 2377.13 425.406 2385.95 429.806C2396.04 434.841 2404.16 441.121 2411.08 433.472C2414.63 429.553 2418.58 428.722 2428.17 429.806C2438.98 431.022 2441.18 430.321 2444.19 424.707C2448.76 416.147 2446.61 408.753 2440.16 401.625C2437.01 398.153 2431.42 395.991 2425.4 395.987H2415.64L2415.74 380.959C2415.8 372.694 2413.89 321.239 2413.14 285.418C2411.65 214.614 2404.04 215.207 2420.48 221.459C2430.59 225.3 2479 223.503 2485.51 217.611C2491.53 212.161 2520.31 200.545 2520.31 204.907C2520.31 209.711 2523.87 218.434 2530.42 214.926C2533.7 213.171 2545.14 210.382 2549.83 202.761C2554.52 195.14 2557.02 184.599 2560.84 182.098C2574.01 173.466 2573.75 147.488 2563.34 134.683C2559.72 130.235 2554.15 117.047 2548.4 107.22C2518.34 71.5171 2539.7 69.2776 2534.89 44.8684C2534.89 32.7766 2542.01 44.4684 2552.16 40.3057C2569.28 33.2867 2577.75 17.6704 2581.59 1.66055C2581.73 1.08962 2581.86 0.536826 2581.98 0H922.41L914.114 4.87158C909.703 8.48404 904.251 11.5246 902.038 11.5818C899.825 11.6397 893.78 14.8933 888.618 18.8276C883.461 22.7635 877.867 25.9836 876.187 25.9836C883.572 27.7704 876.385 34.171 880.567 35.3794C935.113 51.1101 880.644 53.7643 916.438 70.9816C919.9 70.9816 925.068 73.5017 927.89 76.6188C930.712 79.7359 937.676 83.1977 943.366 84.222C962.837 87.7314 964.304 89.483 962.329 107.661C959.345 135.18 964.212 143.748 946.229 150.689C919.58 160.975 910.815 159.723 894.612 143.174L883.877 133.872L874.573 144.606C871.096 153.126 868.223 162.052 868.223 164.376C868.223 169 858.173 170.192 855.518 165.895C854.609 164.431 846.473 161.723 837.448 159.813C815.302 155.13 804.201 141.737 800.592 128.325C799.47 124.155 797.222 119.617 794.775 116.34C787.243 113.924 766.985 107.327 744.504 109.81C724.226 109.469 723.779 109.565 726.881 115.354C730.576 122.262 728.586 129.486 723.033 129.49C720.916 129.49 716.353 125.577 712.836 120.811C706.536 112.292 705.963 112.177 682.238 112.581C659.834 112.963 657.519 113.592 649.499 121.26C644.753 125.794 639.606 129.486 638.048 129.49C636.49 129.49 632.769 134.36 629.729 140.314C622.526 154.434 611.527 160.784 604.415 154.896C601.644 152.6 595.725 148.945 591.355 146.755C586.98 144.566 582.741 139.931 581.873 136.467C579.98 128.942 554.245 112.942 545.013 112.94C543.155 112.94 550.494 128.148 550.205 143.177C549.931 157.144 542.576 166.179 541.079 167.509C526.13 165.445 532.937 145.276 536.962 131.816C540.074 121.419 526.115 115.197 526.673 115.356C533.703 119.532 508.273 95.031 504.939 89.3228C501.776 83.9224 493.65 80.5947 490.625 74.1174C484.219 60.4232 484.305 59.5893 492.056 59.5355C497.259 59.5015 497.675 58.9173 494.203 56.6732C491.838 55.1475 475.56 53.9246 457.972 53.8983L430.151 59.0878L425.319 44.5937C419.705 27.7013 416.284 25.5597 404.386 31.7122C399.599 34.1882 393.006 36.1856 389.717 36.1856C386.427 36.1856 379.661 39.0869 374.773 42.6278C368.18 47.4113 365.556 48.0859 364.576 45.3099C362.51 39.427 351.835 30.4605 346.866 30.4605C344.384 30.4605 337.43 27.8368 331.476 24.6467C325.228 21.2941 319.081 19.7854 316.898 21.0686C314.817 22.2873 305.833 31.9995 296.859 42.6268C284.646 57.0879 278.662 61.9491 273.241 61.9491C269.256 61.9491 262.752 64.5256 258.748 67.6752C253.987 71.4192 247.092 73.4003 238.889 73.4003C227.816 73.4003 225.739 74.4885 220.729 82.7037C217.609 87.8192 215.009 94.2599 215.004 97.0172C214.996 99.7718 213.42 102.028 211.425 102.028C209.428 102.028 202.902 105.309 196.932 109.361C186.74 116.288 185.598 116.464 179.131 112.223C168.88 99.4394 165.652 96.6872 175.374 152.838C182.787 186.517 167.087 186.742 162.76 187.637C150.091 190.265 145.171 186.368 135.207 165.897C121.885 138.529 110.831 116.074 100.945 116.07C90.3968 116.07 86.5041 130.47 82.2485 145.055C78.1721 159.025 75.2571 161.349 64.9834 159.19C58.9965 157.932 57.1107 158.675 57.1107 162.142C57.1107 164.65 55.8521 168.889 54.3358 171.623C50.1493 179.178 37.0708 217.889 37.0708 222.704C37.0708 225.037 39.9194 230.703 43.3324 235.317L49.5051 243.726L36.6232 255.981C20.7149 271.105 1.63924 304.592 4.23963 312.788C5.24666 315.96 13.1619 322.546 21.8635 327.459C37.4145 336.236 37.6499 336.577 35.7282 346.693C32.5121 363.632 29.4413 375.732 34.6547 381.491C42.3898 390.039 49.3619 392.776 53.7978 389.094C56.6428 386.736 62.1145 386.659 73.8368 388.826C94.3691 392.621 89.4115 378.804 96.201 394.642C99.3328 401.947 108.398 416.343 110.515 418.705C112.631 421.068 116.48 431.353 119.102 441.519C121.723 451.681 130.326 468.404 132.521 472.65L144.508 499.575C128.702 502.552 122.989 482.757 112.392 489.467C106.169 491.849 95.3569 499.901 113.377 515.139C130.49 520.342 139.237 540.655 147.102 543.142C146.97 540.244 147.141 537.95 147.998 537.95C157.565 535.351 150.687 517.362 161.057 519.971C162.325 519.87 172.987 522.464 183.78 522.118C198.009 521.662 204.318 520.195 206.77 516.839C211.027 511.023 234.527 492.866 240.585 492.866C245.319 492.866 255.831 491.952 265.186 487.229C276.697 481.419 285.697 478.603 293.813 478.733C301.93 478.865 312.066 486.468 320.117 492.597C326.923 497.786 338.867 505.058 346.592 508.789L361.353 513.352L373.159 507.09C399.894 492.909 429.339 523.778 419.857 543.229C416.603 549.909 411.868 551.954 414.847 559.152C421.278 574.684 417.532 604.038 393.828 624.544C379.6 636.853 382.367 640.802 391.321 649.416L416.37 663.1L411.893 665.608C412.096 667.06 410.421 667.79 407.599 668.024L402.589 670.887C396.254 669.496 384.94 664.593 370.301 660.598C362.297 659.131 352.379 657.613 342.476 656.481C337.385 655.903 332.745 655.502 328.431 655.141C325.791 655.213 323.101 655.334 320.38 655.588C302.6 657.253 293.509 660.75 284.687 670.795C279.956 676.186 276.099 681.688 276.099 683.054C276.099 684.414 271.591 688.211 266.079 691.459C253.183 699.068 260.11 705.849 272.073 716.508C280.464 723.985 272.723 743.522 266.26 743.527C264.52 743.527 259.534 740.578 255.167 736.903C249.826 732.411 244.137 726.011 229.941 723.666C209.646 720.315 208.638 720.397 203.82 726.351C200.977 729.858 197.289 730.63 197.289 736.903C197.289 749.151 204.439 750.177 220.637 753.547C231.577 755.821 236.133 766.719 238.082 778.145C241.082 795.748 252.233 829.868 256.509 834.593C260.918 839.471 262.373 859.764 258.746 865.637C255.808 870.388 262.399 871.043 270.642 871.094C280.565 871.15 283.499 873.353 289.519 885.316C297.377 900.94 302.524 905.356 312.777 905.356C317.949 905.356 322.984 906.64 323.959 908.219C324.933 909.792 329.476 911.081 334.07 911.081C340.415 911.081 343.45 913.158 346.77 919.578C353.617 932.816 352.825 949.343 341.851 965.287C332.821 978.423 330.979 981.352 329.776 1003.22C329.669 1005.19 329.816 1007.14 329.974 1008.95C328.664 1010.64 329.233 1013.08 329.852 1020.5C337.877 1018.95 336.293 1025.49 336.293 1034.54C336.293 1040.84 333.156 1045.65 332.446 1048.5C331.207 1053.44 340.288 1055.08 343.892 1058.69C347.074 1061.87 349.577 1065.63 352.754 1068.8C354.653 1070.71 352.754 1084.84 352.754 1087.86C352.754 1093.38 354.952 1097.69 355.298 1104Z" fill="url(#paint0_linear_227_32163)"/>
<path d="M791.105 112.585C799.283 117.792 799.521 117.866 794.77 116.343C793.557 114.714 792.268 113.397 791.105 112.585ZM2581.98 0C2581.86 0.536826 2581.73 1.08962 2581.59 1.66055C2577.75 17.6708 2569.28 33.2867 2552.16 40.3057C2542.01 44.4684 2534.89 32.7766 2534.89 44.8684C2539.7 69.2776 2518.34 71.5171 2548.4 107.22C2554.15 117.047 2559.72 130.235 2563.34 134.683C2573.75 147.488 2574.01 173.466 2560.84 182.098C2557.02 184.599 2554.52 195.14 2549.83 202.761C2545.14 210.382 2533.7 213.171 2530.42 214.926C2523.87 218.434 2520.31 209.711 2520.31 204.907C2520.31 200.545 2491.53 212.161 2485.51 217.611C2479 223.503 2430.59 225.3 2420.48 221.459C2404.04 215.207 2411.65 214.614 2413.14 285.418C2413.89 321.239 2415.8 372.694 2415.74 380.959L2415.64 395.987H2425.4C2431.42 395.991 2437.01 398.153 2440.16 401.625C2446.61 408.753 2448.76 416.147 2444.19 424.707C2441.18 430.321 2438.98 431.022 2428.17 429.806C2418.58 428.722 2414.63 429.554 2411.08 433.472C2404.16 441.121 2396.04 434.841 2385.95 429.806C2377.13 425.406 2382.3 429.467 2362.15 444.653C2351 453.055 2337.74 463.364 2331.83 465.766C2267.11 492.076 2272.25 514.626 2280.83 512.911C2290.02 511.073 2318.31 505.156 2321 509.515C2321.87 510.926 2321.07 515.357 2319.21 519.443C2316.39 525.626 2317.02 530.504 2322.7 548.604C2328.34 566.613 2333.33 575.146 2351.77 597.987C2364.02 613.154 2374.04 627.737 2374.05 630.366C2374.06 633.006 2377.42 639.066 2381.47 643.878C2390.7 654.842 2391.03 660.765 2380.13 665.973C2374.21 668.801 2372.84 670.755 2375.12 673.039C2380.51 678.424 2378.59 686.759 2369.66 696.921C2364.94 702.306 2361.07 707.966 2361.07 709.539C2361.07 711.108 2359.68 713.747 2365.1 722.686C2371.58 733.36 2380.86 726.564 2369.13 754.963C2376.79 758.222 2385.45 762.821 2381.41 765.349C2375.84 768.82 2359.63 774.434 2356.18 778.231C2350.97 783.967 2353.83 787.337 2347.41 792.636C2327.4 809.168 2271.65 859.856 2268.42 865.81C2266.73 868.937 2263.41 897.067 2258.23 905.082C2250.33 917.274 2242.1 909.34 2233.62 911.523C2226.31 926.07 2185.34 929.928 2165.82 931.918C2158.59 937.983 2163.29 934.476 2156.24 960.992C2154.22 971.119 2150.94 1004.17 2146.31 1005.36C2139.79 1005.36 2110.96 1013.35 2110.44 1025.22C2089.57 1035.54 2091.57 1005.74 2079.49 996.331C2065.51 1009.46 2061.68 1030.14 2030.74 1020.48C2028.17 1023.64 2009.72 1030.71 2033.06 1040.7C2030.21 1048.6 2016.92 1032.58 2000.41 1070.31C1995.31 1081.97 1988 1062.26 1972.67 1080.6C1970.1 1093.34 1966.76 1089.95 1965.35 1104M355.298 1104C354.952 1097.69 352.754 1093.38 352.754 1087.86C352.754 1084.84 354.652 1070.71 352.754 1068.8C349.577 1065.63 347.074 1061.87 343.892 1058.69C340.288 1055.08 331.207 1053.44 332.446 1048.5C333.156 1045.65 336.293 1040.84 336.293 1034.54C336.293 1025.49 337.877 1018.95 329.852 1020.5C329.233 1013.08 328.664 1010.64 329.974 1008.95C329.816 1007.14 329.669 1005.19 329.776 1003.22C330.979 981.352 332.821 978.423 341.851 965.287C352.825 949.343 353.617 932.816 346.77 919.578C343.45 913.158 340.415 911.081 334.07 911.081C329.476 911.081 324.933 909.792 323.959 908.219C322.984 906.64 317.949 905.356 312.777 905.356C302.523 905.356 297.377 900.94 289.519 885.316C283.499 873.353 280.565 871.15 270.642 871.094C262.399 871.043 255.808 870.388 258.746 865.637C262.373 859.765 260.918 839.471 256.509 834.593C252.233 829.868 241.082 795.748 238.082 778.145C236.133 766.719 231.577 755.821 220.637 753.547C204.439 750.177 197.289 749.151 197.289 736.903C197.289 730.63 200.977 729.858 203.82 726.351C208.638 720.397 209.646 720.315 229.941 723.666C244.137 726.011 249.826 732.411 255.167 736.903C259.533 740.578 264.52 743.527 266.26 743.527C272.723 743.522 280.464 723.985 272.073 716.509C260.11 705.849 253.183 699.068 266.079 691.459C271.591 688.211 276.099 684.414 276.099 683.054C276.099 681.688 279.956 676.186 284.687 670.795C293.509 660.75 302.6 657.253 320.38 655.588C323.101 655.334 325.791 655.213 328.431 655.141C332.745 655.502 337.384 655.903 342.476 656.481C352.379 657.613 362.297 659.131 370.301 660.598C384.94 664.593 396.254 669.496 402.589 670.887L407.599 668.024C410.421 667.79 412.096 667.06 411.893 665.608L416.37 663.1L391.321 649.416C382.367 640.802 379.6 636.853 393.828 624.544C417.532 604.038 421.278 574.684 414.847 559.152C411.868 551.954 416.603 549.909 419.857 543.229C429.339 523.778 399.894 492.909 373.159 507.09L361.353 513.352L346.592 508.789C338.867 505.058 326.923 497.786 320.116 492.597C312.066 486.468 301.93 478.865 293.813 478.733C285.697 478.603 276.698 481.419 265.186 487.229C255.831 491.952 245.319 492.866 240.585 492.866C234.527 492.866 211.027 511.023 206.77 516.839C204.318 520.195 198.009 521.662 183.78 522.118C172.987 522.464 162.325 519.87 161.057 519.971C150.687 517.362 157.565 535.351 147.997 537.95C147.141 537.95 146.97 540.244 147.102 543.143C139.237 540.655 130.49 520.342 113.377 515.139C95.3569 499.901 106.169 491.849 112.392 489.467C122.989 482.757 128.702 502.552 144.508 499.575L132.521 472.65C130.326 468.404 121.723 451.681 119.102 441.519C116.48 431.353 112.631 421.068 110.514 418.705C108.398 416.343 99.3328 401.947 96.2009 394.642C89.4115 378.804 94.3691 392.621 73.8367 388.826C62.1145 386.659 56.6428 386.736 53.7977 389.094C49.3619 392.776 42.3898 390.039 34.6547 381.491C29.4413 375.732 32.5121 363.632 35.7282 346.693C37.6499 336.577 37.4144 336.236 21.8635 327.459C13.1619 322.546 5.24666 315.96 4.23963 312.788C1.63924 304.592 20.7148 271.105 36.623 255.981L49.5051 243.726L43.3324 235.317C39.9194 230.703 37.0708 225.037 37.0708 222.704C37.0708 217.889 50.1493 179.178 54.3358 171.623C55.8519 168.889 57.1107 164.65 57.1107 162.142C57.1107 158.675 58.9965 157.932 64.9834 159.19C75.2569 161.349 78.172 159.025 82.2485 145.055C86.5041 130.47 90.3967 116.07 100.945 116.07C110.831 116.074 121.885 138.529 135.207 165.897C145.171 186.368 150.091 190.265 162.76 187.637C167.087 186.742 182.787 186.517 175.374 152.838C165.652 96.6872 168.88 99.4394 179.131 112.223C185.598 116.464 186.74 116.288 196.932 109.361C202.902 105.309 209.428 102.028 211.425 102.028C213.42 102.028 214.996 99.7718 215.004 97.0172C215.009 94.2599 217.609 87.8192 220.729 82.7037C225.739 74.4885 227.816 73.4003 238.889 73.4003C247.091 73.4003 253.987 71.4192 258.748 67.6752C262.752 64.5256 269.256 61.9491 273.241 61.9491C278.662 61.9491 284.646 57.0879 296.859 42.6268C305.833 31.9995 314.817 22.2874 316.898 21.0686C319.081 19.786 325.228 21.2941 331.476 24.6467C337.43 27.8368 344.384 30.461 346.866 30.461C351.835 30.461 362.51 39.427 364.576 45.3099C365.556 48.0859 368.18 47.4113 374.773 42.6278C379.661 39.0869 386.427 36.1856 389.717 36.1856C393.006 36.1856 399.599 34.1882 404.386 31.7122C416.284 25.5597 419.705 27.7013 425.319 44.5937L430.151 59.0878L457.972 53.8983C475.56 53.9246 491.838 55.1475 494.203 56.6732C497.675 58.9173 497.259 59.5015 492.056 59.5355C484.305 59.5893 484.219 60.4234 490.625 74.1174C493.65 80.5947 501.776 83.9226 504.939 89.3228C508.273 95.031 533.703 119.532 526.673 115.356C526.115 115.197 540.074 121.419 536.962 131.816C532.937 145.276 526.13 165.445 541.079 167.509C542.576 166.179 549.931 157.144 550.205 143.177C550.495 128.148 543.155 112.94 545.013 112.94C554.245 112.942 579.98 128.942 581.873 136.467C582.741 139.931 586.98 144.566 591.355 146.755C595.725 148.945 601.644 152.6 604.415 154.896C611.527 160.784 622.526 154.434 629.729 140.314C632.769 134.36 636.49 129.49 638.048 129.49C639.606 129.486 644.753 125.794 649.499 121.26C657.519 113.592 659.833 112.963 682.238 112.581C705.963 112.177 706.536 112.292 712.836 120.811C716.353 125.577 720.916 129.49 723.033 129.49C728.586 129.486 730.576 122.262 726.88 115.354C723.779 109.565 724.226 109.469 744.504 109.81C766.985 107.327 787.243 113.924 794.775 116.34C797.222 119.617 799.47 124.155 800.592 128.325C804.201 141.737 815.302 155.13 837.448 159.813C846.473 161.723 854.609 164.431 855.518 165.896C858.173 170.192 868.223 169 868.223 164.376C868.223 162.052 871.096 153.126 874.573 144.606L883.877 133.872L894.612 143.174C910.814 159.723 919.58 160.975 946.229 150.689C964.213 143.748 959.345 135.18 962.329 107.661C964.304 89.483 962.837 87.7314 943.366 84.222C937.676 83.1977 930.712 79.7359 927.89 76.6188C925.067 73.5017 919.9 70.9816 916.438 70.9816C880.643 53.7643 935.113 51.1101 880.567 35.3794C876.385 34.171 883.572 27.7704 876.187 25.9836C877.867 25.9836 883.461 22.7635 888.618 18.8276C893.78 14.8933 899.825 11.6397 902.038 11.5818C904.251 11.5246 909.703 8.48404 914.114 4.87158L922.41 0" fill="url(#paint1_linear_227_32163)"/>
</g>
<defs>
<filter id="filter0_d_227_32163" x="0" y="0" width="2585.98" height="1112" filterUnits="userSpaceOnUse" color-interpolation-filters="sRGB">
<feFlood flood-opacity="0" result="BackgroundImageFix"/>
<feColorMatrix in="SourceAlpha" type="matrix" values="0 0 0 0 0 0 0 0 0 0 0 0 0 0 0 0 0 0 127 0" result="hardAlpha"/>
<feOffset dy="4"/>
<feGaussianBlur stdDeviation="2"/>
<feComposite in2="hardAlpha" operator="out"/>
<feColorMatrix type="matrix" values="0 0 0 0 0 0 0 0 0 0 0 0 0 0 0 0 0 0 0.25 0"/>
<feBlend mode="normal" in2="BackgroundImageFix" result="effect1_dropShadow_227_32163"/>
<feBlend mode="normal" in="SourceGraphic" in2="effect1_dropShadow_227_32163" result="shape"/>
</filter>
<linearGradient id="paint0_linear_227_32163" x1="908.383" y1="354.663" x2="686.632" y2="1050.01" gradientUnits="userSpaceOnUse">
<stop stop-color="#F4F8EC"/>
<stop offset="1" stop-color="#F0F4DA"/>
</linearGradient>
<linearGradient id="paint1_linear_227_32163" x1="908.383" y1="354.663" x2="686.632" y2="1050.01" gradientUnits="userSpaceOnUse">
<stop stop-color="#F4F8EC"/>
<stop offset="1" stop-color="#F0F4DA"/>
</linearGradient>
</defs>
</svg>
