<svg width="1014" height="435" viewBox="0 0 1014 435" fill="none" xmlns="http://www.w3.org/2000/svg">
<path fill-rule="evenodd" clip-rule="evenodd" d="M309.593 44.2831C312.809 46.3311 312.903 46.3602 311.034 45.7615C310.557 45.1204 310.05 44.6025 309.593 44.2831ZM138.176 434.237H771.461C772.013 428.709 773.326 430.043 774.34 425.033C780.369 417.818 783.242 425.57 785.249 420.986C791.741 406.144 796.972 412.445 798.09 409.339C788.912 405.412 796.17 402.631 797.178 401.387C809.348 405.186 810.854 397.05 816.354 391.887C821.104 395.589 820.317 407.31 828.529 403.251C828.732 398.584 840.07 395.439 842.638 395.439C844.459 394.972 845.748 381.971 846.543 377.988C849.314 367.558 847.467 368.938 850.308 366.552C857.987 365.769 874.105 364.252 876.98 358.53C880.312 357.672 883.552 360.792 886.657 355.996C888.697 352.844 890.001 341.779 890.666 340.55C891.937 338.208 913.863 318.271 921.737 311.768C924.26 309.684 923.136 308.358 925.183 306.102C926.54 304.609 932.919 302.401 935.107 301.035C936.699 300.041 933.293 298.232 930.28 296.95C934.894 285.78 931.24 288.453 928.695 284.255C926.56 280.739 927.109 279.701 927.109 279.084C927.109 278.465 928.631 276.239 930.488 274.12C933.999 270.123 934.754 266.845 932.636 264.727C931.737 263.828 932.276 263.06 934.606 261.948C938.891 259.899 938.763 257.569 935.133 253.257C933.54 251.364 932.216 248.981 932.213 247.942C932.208 246.908 928.269 241.172 923.452 235.207C916.197 226.223 914.236 222.866 912.016 215.783C909.782 208.663 909.534 206.745 910.642 204.313C911.375 202.706 911.691 200.963 911.347 200.408C910.289 198.693 899.161 201.021 895.549 201.744C892.171 202.418 890.152 193.549 915.606 183.2C917.93 182.255 923.148 178.201 927.533 174.896C935.459 168.923 933.424 167.325 936.892 169.056C940.863 171.036 944.058 173.507 946.779 170.498C948.174 168.957 949.73 168.63 953.501 169.056C957.752 169.534 958.616 169.258 959.8 167.05C961.599 163.683 960.752 160.775 958.215 157.971C956.979 156.606 954.777 155.756 952.409 155.754H948.574L948.61 149.843C948.636 146.592 947.885 126.353 947.59 112.264C947.005 84.4143 944.01 84.6476 950.474 87.1064C954.451 88.6175 973.494 87.9104 976.055 85.5929C978.423 83.4492 989.741 78.8805 989.741 80.5963C989.741 82.4859 991.143 85.9169 993.718 84.5371C995.01 83.8465 999.508 82.7499 1001.35 79.7519C1003.2 76.7544 1004.18 72.6085 1005.68 71.6246C1010.86 68.2296 1010.76 58.0117 1006.67 52.975C1005.24 51.2253 1003.05 46.0382 1000.79 42.1728C988.967 28.1299 997.368 27.249 995.477 17.6481C995.477 12.892 998.278 17.4908 1002.27 15.8535C1009 13.0927 1012.34 6.9503 1013.85 0.653145C1013.9 0.428582 1013.95 0.21115 1014 0H361.239L357.976 1.91614C356.241 3.33703 354.096 4.53297 353.226 4.55549C352.356 4.57824 349.978 5.85799 347.947 7.40548C345.919 8.95359 343.719 10.2202 343.058 10.2202C345.963 10.9229 343.136 13.4405 344.781 13.9158C366.235 20.1032 344.811 21.1472 358.89 27.9192C360.252 27.9192 362.284 28.9105 363.394 30.1365C364.504 31.3626 367.243 32.7242 369.481 33.1271C377.14 34.5075 377.717 35.1964 376.94 42.3463C375.766 53.1703 377.681 56.5405 370.607 59.2707C360.126 63.3162 356.678 62.8241 350.305 56.3147L346.083 52.656L342.423 56.8779C341.055 60.2291 339.925 63.7399 339.925 64.6541C339.925 66.4729 335.972 66.9418 334.928 65.2518C334.571 64.6758 331.371 63.6107 327.821 62.8594C319.11 61.0175 314.744 55.7495 313.324 50.4742C312.883 48.8339 311.998 47.0492 311.036 45.7601C308.073 44.8097 300.105 42.2151 291.263 43.1916C283.287 43.0574 283.111 43.0953 284.331 45.3724C285.785 48.0892 285.002 50.9308 282.818 50.9324C281.985 50.9324 280.19 49.3931 278.807 47.5186C276.329 44.1681 276.104 44.1227 266.772 44.2815C257.96 44.4318 257.049 44.6794 253.895 47.6953C252.028 49.4785 250.003 50.9308 249.39 50.9324C248.778 50.9324 247.314 52.8478 246.118 55.1899C243.285 60.7437 238.959 63.2411 236.162 60.9252C235.072 60.0224 232.744 58.5847 231.025 57.7233C229.304 56.8622 227.637 55.039 227.295 53.6768C226.551 50.7168 216.428 44.4237 212.797 44.4226C212.066 44.4226 214.953 50.4047 214.839 56.3157C214.731 61.8095 211.839 65.3635 211.25 65.8865C205.37 65.0747 208.047 57.1417 209.63 51.8472C210.854 47.7577 205.364 45.3107 205.583 45.373C208.349 47.0157 198.346 37.3786 197.035 35.1334C195.791 33.0093 192.594 31.7004 191.404 29.1526C188.885 23.7663 188.919 23.4383 191.967 23.4171C194.014 23.4038 194.178 23.174 192.812 22.2913C191.882 21.6912 185.479 21.2102 178.561 21.1999L167.618 23.2411L165.718 17.5401C163.509 10.8958 162.164 10.0534 157.484 12.4734C155.601 13.4473 153.008 14.2329 151.714 14.2329C150.42 14.2329 147.759 15.3741 145.837 16.7668C143.243 18.6483 142.211 18.9136 141.826 17.8218C141.013 15.5079 136.814 11.9811 134.86 11.9811C133.884 11.9811 131.148 10.9491 128.806 9.69429C126.349 8.3756 123.931 7.78222 123.072 8.28692C122.254 8.76627 118.72 12.5864 115.19 16.7664C110.387 22.4544 108.033 24.3665 105.901 24.3665C104.333 24.3665 101.775 25.3799 100.2 26.6187C98.3274 28.0913 95.6154 28.8706 92.3891 28.8706C88.0335 28.8706 87.2168 29.2986 85.2462 32.5299C84.0192 34.542 82.9964 37.0753 82.9944 38.1598C82.9914 39.2433 82.3715 40.1306 81.5864 40.1306C80.8012 40.1306 78.2343 41.4211 75.8862 43.0151C71.8773 45.7397 71.4281 45.8088 68.8844 44.1409C64.8523 39.1126 63.5829 38.0301 67.4067 60.1161C70.3224 73.363 64.1471 73.4512 62.4451 73.8034C57.4622 74.837 55.527 73.3042 51.6077 65.2524C46.368 54.4875 42.0198 45.6555 38.1316 45.654C33.9825 45.654 32.4514 51.3179 30.7775 57.0544C29.1742 62.5493 28.0276 63.4636 23.9866 62.6145C21.6318 62.1193 20.8901 62.4118 20.8901 63.7754C20.8901 64.7621 20.395 66.4292 19.7986 67.5047C18.1519 70.4761 13.0078 85.7025 13.0078 87.5961C13.0078 88.514 14.1282 90.7426 15.4706 92.5575L17.8986 95.865L12.8317 100.685C6.57449 106.634 -0.928561 119.805 0.0942528 123.029C0.49035 124.277 3.60367 126.867 7.02628 128.8C13.143 132.252 13.2355 132.386 12.4797 136.365C11.2147 143.028 10.0068 147.787 12.0574 150.052C15.0999 153.414 17.8422 154.491 19.587 153.043C20.706 152.115 22.8582 152.085 27.469 152.937C35.545 154.43 33.595 148.995 36.2655 155.225C37.4973 158.098 41.063 163.761 41.8954 164.69C42.7279 165.619 44.2418 169.664 45.273 173.663C46.3042 177.66 49.6879 184.238 50.5514 185.908L55.2661 196.498C49.0492 197.669 46.802 189.883 42.6341 192.523C40.1862 193.46 35.9335 196.627 43.0214 202.62C49.7526 204.666 53.193 212.656 56.2865 213.635C56.2346 212.495 56.3017 211.592 56.6387 211.592C60.4019 210.57 57.6964 203.494 61.7755 204.521C62.274 204.481 66.4678 205.501 70.7129 205.365C76.3095 205.186 78.7911 204.609 79.7556 203.289C81.4299 201.001 90.6735 193.859 93.0563 193.859C94.918 193.859 99.0527 193.5 102.733 191.642C107.26 189.357 110.8 188.249 113.992 188.301C117.185 188.352 121.172 191.343 124.338 193.753C127.016 195.795 131.713 198.655 134.752 200.122L140.558 201.917L145.202 199.454C155.717 193.876 167.299 206.018 163.569 213.669C162.29 216.296 160.427 217.101 161.599 219.932C164.128 226.041 162.655 237.587 153.331 245.652C147.735 250.494 148.823 252.047 152.345 255.435L162.198 260.818L160.437 261.804C160.517 262.375 159.858 262.662 158.748 262.754L156.777 263.88C154.286 263.333 149.835 261.405 144.078 259.833C140.929 259.256 137.028 258.66 133.133 258.214C131.13 257.987 129.306 257.829 127.609 257.687C126.57 257.715 125.512 257.763 124.442 257.863C117.448 258.518 113.873 259.893 110.403 263.844C108.542 265.965 107.025 268.129 107.025 268.666C107.025 269.201 105.252 270.694 103.084 271.972C98.0112 274.965 100.736 277.632 105.441 281.825C108.742 284.766 105.697 292.45 103.155 292.452C102.47 292.452 100.509 291.292 98.7918 289.847C96.6911 288.08 94.4534 285.562 88.8695 284.64C80.8871 283.322 80.4906 283.354 78.5953 285.696C77.4773 287.076 76.0264 287.379 76.0264 289.847C76.0264 294.664 78.8389 295.067 85.2101 296.393C89.5129 297.288 91.3052 301.574 92.0716 306.068C93.2517 312.992 97.6378 326.412 99.3197 328.271C101.054 330.19 101.626 338.172 100.199 340.482C99.0439 342.35 101.636 342.608 104.878 342.628C108.782 342.65 109.936 343.516 112.303 348.222C115.394 354.367 117.418 356.104 121.451 356.104C123.486 356.104 125.466 356.609 125.85 357.23C126.233 357.849 128.02 358.356 129.827 358.356C132.322 358.356 133.516 359.173 134.822 361.698C137.515 366.905 137.204 373.406 132.887 379.677C129.336 384.844 128.611 385.996 128.138 394.597C128.096 395.371 128.154 396.138 128.215 396.853C127.7 397.515 127.924 398.476 128.168 401.393C131.324 400.786 130.701 403.355 130.701 406.917C130.701 409.395 129.467 411.287 129.188 412.405C128.701 414.352 132.272 414.997 133.69 416.416C134.942 417.666 135.926 419.143 137.176 420.393C137.922 421.142 137.176 426.7 137.176 427.888C137.176 430.061 138.04 431.754 138.176 434.237Z" fill="url(#paint0_linear_2004_965)"/>
<defs>
<linearGradient id="paint0_linear_2004_965" x1="355.722" y1="139.5" x2="268.5" y2="413" gradientUnits="userSpaceOnUse">
<stop stop-color="#E0EAB8"/>
<stop offset="1" stop-color="white"/>
</linearGradient>
</defs>
</svg>
