<svg width="74" height="65" viewBox="0 0 74 65" fill="none" xmlns="http://www.w3.org/2000/svg">
<path d="M72.8087 45.4132C72.8087 44.8063 72.3164 44.3141 71.7093 44.3141C71.1024 44.3143 70.6104 44.8063 70.6104 45.4132C70.6104 46.0203 71.1024 46.5125 71.7093 46.5125V47.7039L71.5916 47.7008C70.4205 47.6414 69.4815 46.7025 69.4221 45.5311L69.419 45.4132C69.419 44.1483 70.4445 43.1229 71.7093 43.1229L71.8274 43.1259C73.0375 43.1873 74 44.1878 74 45.4132L73.997 45.5311C73.9356 46.7415 72.9348 47.7039 71.7093 47.7039V46.5125C72.3164 46.5125 72.8087 46.0203 72.8087 45.4132Z" fill="white"/>
<path d="M52.2596 21.5992C51.8886 20.9081 50.8699 20.9091 50.4975 21.5991C50.3661 21.8427 50.2316 22.0869 50.094 22.3313C47.1467 27.5729 45.6652 32.7797 44.9229 36.6819C44.6872 37.9209 44.5266 39.0243 44.4177 39.9505C44.4129 39.9909 44.444 40.0274 44.4851 40.0274H52.0614C53.2861 40.0274 54.258 39.0382 54.1841 37.8662L53.288 23.6762C53.2799 23.5453 53.244 23.4175 53.183 23.3013C53.0118 22.9759 52.836 22.6491 52.6537 22.3214C52.5198 22.0799 52.3883 21.8391 52.2596 21.5992Z" fill="#A1BB94"/>
<path d="M51.916 1.94335C51.8478 0.867436 50.9179 0.02808 49.7934 0.02808H44.4851C44.1858 0.02808 43.9012 0.0875362 43.6431 0.194399C43.6267 0.201256 43.6163 0.217249 43.616 0.234961C43.6157 0.268332 43.6147 0.313642 43.6132 0.37061C43.6104 0.484168 43.605 0.644366 43.5945 0.847777C43.5734 1.25471 43.5322 1.83605 43.4518 2.5687C43.2945 3.99382 42.9868 5.99473 42.3866 8.40299C42.3679 8.47783 42.3584 8.555 42.3584 8.6321V24.229C42.3584 25.3205 44.1828 25.6253 44.6182 24.6231C45.2559 23.1557 45.9892 21.6596 46.8329 20.1591C47.7303 18.563 48.491 16.9832 49.1364 15.4522C49.2299 15.2308 49.232 14.9824 49.1474 14.7578C48.0125 11.748 47.2821 9.02548 46.8123 6.76512C46.3929 4.74434 46.1807 3.09066 46.0732 1.92829C46.0199 1.34689 45.9924 0.887624 45.9786 0.566227C45.9711 0.405636 45.9681 0.279342 45.9662 0.189273C45.9652 0.144131 45.9646 0.107898 45.9643 0.0812767C45.9639 0.0681011 45.9639 0.0572525 45.9639 0.0486668V0.0484981C45.9639 0.0441242 45.9637 0.0402844 45.9637 0.0370445V0.0313283C45.9637 0.0304103 45.9639 0.0294299 47.8757 0.0294299C49.5107 0.0294299 49.7473 0.0288376 49.7814 0.0284597C49.7842 0.0282977 49.7873 0.0311663 49.7873 0.0340282C49.7877 0.0446659 49.7877 0.0643178 49.7882 0.0926669C49.7896 0.149851 49.792 0.242626 49.7974 0.368712C49.8084 0.620937 49.8313 1.00746 49.8778 1.51261C49.9711 2.5234 50.1597 4.00808 50.5416 5.84732C50.5584 5.9281 50.5755 6.00941 50.5931 6.09149C50.7682 6.9108 51.8406 6.90228 52.0023 6.0801C52.0412 5.88198 52.0778 5.68749 52.1128 5.49698C52.1264 5.42268 52.1305 5.34687 52.1258 5.27143L51.916 1.94335Z" fill="#A1BB94"/>
<path d="M29.9026 27.2835C29.5227 26.3723 28.2661 26.6586 28.2661 27.645V37.9888C28.2661 39.1142 29.2181 40.0269 30.3927 40.0269H32.1721C32.7383 40.0269 33.1789 39.5361 33.1008 38.9785C33.0004 38.2596 32.8707 37.4592 32.7024 36.5917C32.1923 33.9565 31.3362 30.7216 29.9026 27.2835Z" fill="#2E8656"/>
<path d="M38.1016 40.0269C39.276 40.0269 40.2281 39.1142 40.2281 37.9888V20.0185C40.2281 18.979 38.6636 18.655 38.1929 19.5833C37.0867 21.7661 35.755 24.0357 34.1512 26.3372C33.9708 26.5961 33.9298 26.9269 34.0407 27.222C35.2219 30.3629 35.9704 33.2887 36.4438 35.7335C36.6943 37.0268 36.8684 38.1891 36.9897 39.1822C37.048 39.6614 37.4543 40.0269 37.9401 40.0269H38.1016Z" fill="#2E8656"/>
<path d="M39.4987 0.52967C39.125 0.217075 38.6364 0.0277612 38.1016 0.0277612C34.5947 0.0277612 31.5776 -0.0366663 31.5776 0.0307775V0.0475254C31.5776 0.0561111 31.5774 0.0671774 31.5773 0.0805149C31.577 0.106974 31.5767 0.142988 31.5757 0.187752C31.5738 0.277497 31.57 0.403586 31.5632 0.563799C31.5492 0.884602 31.5228 1.34326 31.4702 1.9239C31.365 3.08513 31.1568 4.73732 30.745 6.75653C30.2789 9.04265 29.5504 11.8026 28.4133 14.8548C28.3292 15.081 28.3328 15.3309 28.4284 15.5524C29.0734 17.0476 29.8312 18.5891 30.7225 20.1464C30.8947 20.4471 31.0622 20.748 31.2252 21.0484C31.5738 21.6903 32.4916 21.7393 32.8719 21.1154C35.9944 15.9934 37.7071 11.2038 38.647 7.49738C39.2246 5.22114 39.5103 3.35417 39.6517 2.07252C39.6898 1.72618 39.7171 1.42292 39.7369 1.16594C39.7551 0.927054 39.6829 0.683997 39.4987 0.52967Z" fill="#2E8656"/>
<path d="M58.7959 21.7713C58.7959 22.7127 57.4021 23.0114 56.9786 22.1694C56.9213 22.0549 56.8858 21.922 56.8834 21.7937L56.4837 2.31937C56.4606 1.19394 57.3937 0.263559 58.5683 0.241474C58.6933 0.23899 58.7959 0.339362 58.7959 0.463774V21.7713ZM57.196 37.0211C57.1839 36.4358 57.9187 36.3381 58.0342 36.9123C58.1488 37.4828 58.246 38.0215 58.3288 38.5254C58.4441 39.2293 57.7227 39.6891 57.4141 39.0455C57.2956 38.7982 57.227 38.5244 57.2209 38.2354L57.196 37.0211ZM66.2757 0.0963114C67.4499 0.0742261 68.4204 0.968609 68.4435 2.09382L69.1805 38.0099C69.204 39.1354 68.2705 40.0657 67.0963 40.0876L63.5853 40.1539C63.055 40.164 62.6197 39.739 62.6197 39.2115V1.08973C62.6197 0.576154 63.0332 0.157287 63.5493 0.147568L66.2757 0.0963114Z" fill="#E0EAB8"/>
<path d="M9.92496 0.0267811C11.0993 0.0267811 12.0513 0.939251 12.0514 2.0649V23.9278C12.0514 25.0091 10.2872 25.3175 9.84321 24.3307C9.22277 22.9519 8.51588 21.5492 7.71006 20.1426C4.70139 14.8912 3.1963 9.8218 2.44481 6.07059C2.06957 4.19691 1.8836 2.65865 1.79143 1.60104C1.74553 1.07278 1.72285 0.665157 1.71178 0.396732C1.70649 0.262655 1.70379 0.162803 1.70266 0.100543C1.70249 0.0924978 1.708 0.0854746 1.71583 0.0835847C1.87621 0.0465959 2.04382 0.0267811 2.21602 0.0267811H9.92496ZM0.0893517 18.4838C0.0893517 17.4048 1.84192 17.0952 2.2867 18.0793C2.91799 19.4754 3.63979 20.9038 4.46537 22.3448C7.46756 27.5849 8.97589 32.7889 9.73176 36.6881C9.94834 37.8053 10.1019 38.8128 10.2116 39.6788C10.2343 39.8588 10.1073 40.0259 9.92496 40.0259H2.21602C1.04145 40.0259 0.0893517 39.1132 0.0893517 37.9878V18.4838Z" fill="#066658"/>
<path d="M24.7587 0.157062C25.5654 0.4466 26.14 1.19199 26.14 2.06638V6.09855C26.14 6.52719 25.5835 6.59214 25.4994 6.17149C25.1269 4.31061 24.9423 2.78246 24.8509 1.73225C24.8054 1.20766 24.7833 0.802838 24.7722 0.536357C24.7669 0.403198 24.7642 0.304314 24.7629 0.242594C24.7629 0.238598 24.7614 0.234773 24.7587 0.230993V0.157062ZM20.7202 0.02812C20.7593 0.0951318 20.7921 0.152864 20.8117 0.192498C20.874 0.317072 20.9242 0.555422 20.9523 0.708561C20.9523 0.712557 20.9526 0.716757 20.9528 0.720753C20.9664 1.05241 20.993 1.52673 21.045 2.1245C21.149 3.31985 21.3548 5.01388 21.7635 7.05696C22.212 9.29751 22.9061 11.9658 23.9807 14.8605C24.0644 15.0855 24.0609 15.3341 23.9668 15.5549C23.3317 17.0449 22.5905 18.5951 21.7245 20.1831C21.4723 20.646 21.2296 21.1068 20.9962 21.5651C20.5254 22.4903 18.9738 22.1669 18.9738 21.1299V0.600923C18.9738 0.285249 18.7164 0.0294067 18.3991 0.0294067C18.4166 0.0290287 18.4343 0.02812 18.452 0.02812H20.7202ZM15.1504 37.7798C15.1504 38.5484 14.3234 38.8267 14.2972 38.0589C14.295 37.9994 14.2958 37.9394 14.2993 37.8792L15.1504 22.8117V37.7798ZM25.0126 22.3075C25.3005 21.7794 26.14 21.9789 26.14 22.5793V37.9893C26.14 39.1147 25.1879 40.0274 24.0135 40.0274H20.2905C19.7205 40.0274 19.2788 39.5304 19.3633 38.97C19.458 38.3408 19.5759 37.65 19.7226 36.9056C20.4779 33.0769 21.9898 27.8512 25.0126 22.3075Z" fill="#41754F"/>
<path fill-rule="evenodd" clip-rule="evenodd" d="M46.1492 45.5599C45.0649 45.5866 44.174 46.0042 43.4755 46.8119C44.1978 45.9765 45.1263 45.5586 46.2611 45.5586L46.1492 45.5599ZM46.4058 46.8939C46.4081 46.8939 46.4106 46.8943 46.4131 46.8943C46.4096 46.8943 46.4062 46.8939 46.403 46.8938L46.4058 46.8939ZM42.7665 48.0125C42.9253 47.6041 43.1206 47.2538 43.352 46.961L43.2832 47.0503C43.0815 47.3241 42.9093 47.6451 42.7665 48.0125ZM42.2959 50.2398C42.261 50.644 42.2432 51.0764 42.2432 51.5367L42.2435 51.5746C42.2435 51.562 42.2433 51.5492 42.2433 51.5365C42.2433 51.0763 42.261 50.644 42.2959 50.2398ZM47.2809 47.0827C47.2815 47.0829 47.2821 47.0833 47.2827 47.0837C47.5713 47.2004 47.8429 47.4227 48.0968 47.75C48.3624 48.0655 48.5586 48.5387 48.6856 49.1696C48.8241 49.8007 48.8933 50.5899 48.8933 51.5367L48.891 51.8222C48.888 51.9849 48.882 52.143 48.8739 52.2965C48.8868 52.0544 48.8939 51.8011 48.8939 51.5365C48.8939 50.5897 48.8245 49.8009 48.686 49.17C48.559 48.5389 48.3624 48.0655 48.0968 47.75C47.8429 47.4227 47.5718 47.2007 47.283 47.0839C47.2823 47.0835 47.2817 47.0831 47.2809 47.0827ZM42.2477 51.926C42.2548 52.2375 42.2706 52.5352 42.2948 52.8193C42.2695 52.5225 42.2538 52.2108 42.2472 51.8841L42.2477 51.926ZM46.2611 47.2037C45.5231 47.2037 44.9691 47.502 44.5655 48.1148C44.1681 48.736 43.9416 49.854 43.9416 51.5367C43.9416 53.2189 44.1681 54.3369 44.5655 54.9579L44.6428 55.0692C45.039 55.6069 45.5692 55.869 46.2611 55.869C47.0239 55.869 47.5789 55.5443 47.9631 54.8663C48.362 54.1623 48.5807 53.0658 48.5807 51.5367C48.5807 50.6032 48.5123 49.8384 48.3803 49.237L48.3789 49.2313C48.257 48.6257 48.0755 48.2103 47.8576 47.9512L47.8536 47.9468L47.8497 47.9418C47.6187 47.6443 47.3888 47.4639 47.1655 47.3734L47.1606 47.3717L47.1556 47.3696C46.9156 47.2628 46.6201 47.2037 46.2611 47.2037ZM46.4123 56.178C46.3626 56.1805 46.3123 56.1816 46.2611 56.1819L46.2614 56.1821C46.3125 56.1821 46.3627 56.1805 46.4123 56.178ZM45.8223 57.4923C45.9292 57.5033 46.0382 57.5104 46.1492 57.513L46.2611 57.5142C46.1113 57.5142 45.965 57.5069 45.8223 57.4923ZM46.2611 45.2456C47.5252 45.2456 48.5713 45.7649 49.3783 46.781C50.209 47.8003 50.5917 49.4094 50.5917 51.5367C50.5917 53.6643 50.2087 55.2772 49.3794 56.3074L49.3798 56.3078C48.5719 57.3141 47.5252 57.8271 46.2611 57.8271C45.0061 57.8271 43.9713 57.3481 43.1817 56.3992L43.1061 56.3059C42.3009 55.2869 41.9306 53.6736 41.9306 51.5367C41.9306 49.3995 42.3009 47.786 43.1061 46.7671L43.1817 46.6736C43.9713 45.7249 45.0061 45.2456 46.2611 45.2456Z" fill="white"/>
<path fill-rule="evenodd" clip-rule="evenodd" d="M65.8019 45.473C65.327 45.8514 64.8521 46.2655 64.3774 46.7154L64.1756 46.9096C64.0417 47.0404 63.9049 47.1784 63.765 47.3231C63.9762 47.1046 64.1804 46.9021 64.3776 46.7156C64.9201 46.2015 65.4628 45.7339 66.0055 45.3132L65.8019 45.473ZM62.0638 49.2723C62.2406 49.0343 62.4288 48.8013 62.6285 48.5737C62.7098 48.4792 62.7903 48.3868 62.8702 48.2962C62.7903 48.3868 62.7096 48.4794 62.6281 48.5739L62.5105 48.7103C62.3543 48.8943 62.2054 49.0816 62.0638 49.2723ZM65.0529 49.1696C64.4757 49.1696 63.9387 49.2866 63.4422 49.5201C63.9388 49.2863 64.4757 49.17 65.053 49.17C65.0851 49.17 65.1169 49.17 65.1485 49.1707L65.0529 49.1696ZM64.689 50.4672L64.8349 50.4703L64.8424 50.4709C64.7919 50.4684 64.7407 50.4672 64.689 50.4672ZM64.0629 50.5337C64.0478 50.5369 64.0332 50.5406 64.0183 50.5442C64.055 50.5352 64.0922 50.5271 64.1297 50.5198L64.0629 50.5337ZM63.7175 50.6356C63.6817 50.6489 63.6463 50.6627 63.6112 50.6776L63.6737 50.6522C63.6882 50.6465 63.7028 50.6412 63.7175 50.6356ZM60.7564 54.7935C60.5729 54.3167 60.481 53.8037 60.481 53.2545L60.482 53.3635C60.4934 53.8715 60.585 54.3484 60.7564 54.7935ZM66.5054 51.1294C66.5709 51.1856 66.6353 51.2452 66.698 51.3086C67.2521 51.8696 67.5291 52.5415 67.5291 53.3244L67.5258 53.4702C67.5016 54.0076 67.3422 54.4906 67.0474 54.9198C67.3687 54.4524 67.5297 53.9207 67.5297 53.3244C67.5297 52.5415 67.2527 51.8695 66.6984 51.3085C66.6357 51.245 66.5711 51.1856 66.5054 51.1294ZM66.8818 55.1383C66.8244 55.2073 66.7631 55.2745 66.698 55.3404L66.5928 55.4424C66.5353 55.4955 66.4761 55.5456 66.4162 55.593C66.5132 55.5163 66.6077 55.4324 66.6984 55.3404C66.7635 55.2747 66.8244 55.2071 66.8818 55.1383ZM64.689 50.7802C64.044 50.7802 63.4898 50.996 63.014 51.4372L62.9201 51.5283C62.4233 52.0312 62.1791 52.6244 62.1791 53.3244C62.1791 54.0245 62.4233 54.6177 62.9201 55.1206L63.014 55.2118C63.4898 55.6532 64.044 55.8691 64.689 55.8691C65.39 55.8691 65.98 55.6224 66.4757 55.1206L66.5657 55.0252C67.0018 54.543 67.2165 53.9807 67.2165 53.3244C67.2165 52.6682 67.002 52.1056 66.5657 51.6237L66.4757 51.5283C65.98 51.0265 65.39 50.7802 64.689 50.7802ZM67.6682 56.252C67.6582 56.2621 67.648 56.2718 67.638 56.2817L67.6682 56.252ZM64.6149 57.513L64.7237 57.5142C64.6848 57.5142 64.6462 57.5136 64.6077 57.5127C64.6101 57.5127 64.6125 57.513 64.6149 57.513ZM67.7007 46.1899L67.286 46.4265C66.6823 46.7709 65.9878 47.3185 65.2013 48.08L65.2009 48.0796C64.8803 48.3947 64.6085 48.6707 64.3833 48.9082C64.6012 48.874 64.8245 48.857 65.0529 48.857C66.1947 48.857 67.1818 49.2995 67.999 50.1644L68.0747 50.2461C68.8421 51.0947 69.2275 52.1085 69.2275 53.2718C69.2275 54.5025 68.7774 55.574 67.8905 56.4718C67.0033 57.3698 65.943 57.8271 64.7237 57.8271C63.4742 57.8271 62.396 57.3789 61.5066 56.491L61.5051 56.4895C60.6167 55.5904 60.1678 54.5065 60.1678 53.2545C60.1678 52.4509 60.3789 51.6214 60.7875 50.7701L60.7881 50.7686C61.2045 49.9135 61.7392 49.1136 62.3911 48.3695L62.6288 48.0967C63.1778 47.4727 63.6889 46.9362 64.1621 46.4884L64.368 46.2954C64.8492 45.8498 65.331 45.4401 65.8135 45.0659L66.0017 44.92L67.7007 46.1899Z" fill="white"/>
<path fill-rule="evenodd" clip-rule="evenodd" d="M36.8144 46.8937C36.8747 46.8964 36.9339 46.9017 36.9924 46.909C36.9148 46.8993 36.836 46.8939 36.7556 46.8922L36.8144 46.8937ZM36.5958 45.5608C35.9016 45.5834 35.2785 45.7757 34.7264 46.1373C34.1493 46.5229 33.6989 47.0836 33.3757 47.8199L34.4838 48.4862V48.4859L33.3757 47.8199C33.6989 47.0836 34.1493 46.5229 34.7264 46.1373C35.3152 45.7516 35.985 45.5586 36.7356 45.5586L36.5958 45.5608ZM38.2767 47.557C38.7268 47.9895 38.9522 48.5095 38.9522 49.117L38.9478 49.2528C38.9352 49.4483 38.8956 49.6418 38.8289 49.8338C38.911 49.5974 38.9523 49.3587 38.9523 49.1174C38.9523 48.5095 38.727 47.9895 38.2767 47.557ZM38.7813 49.9594C38.7501 50.0353 38.7148 50.1112 38.675 50.1864L38.6028 50.3186C38.5628 50.3879 38.5167 50.4609 38.4654 50.5381C38.5504 50.4099 38.6209 50.2931 38.6752 50.1866C38.715 50.1114 38.7501 50.0353 38.7813 49.9594ZM37.9504 51.2246C37.8684 51.3244 37.781 51.4287 37.6877 51.5367L32.6653 57.3739H32.6657L37.6882 51.5364C37.7814 51.4284 37.8687 51.3242 37.9504 51.2246ZM36.7356 45.2456C37.862 45.2456 38.8061 45.6186 39.5404 46.3749C40.2807 47.1248 40.6504 48.0518 40.6504 49.1349C40.6502 50.2003 40.1066 51.3227 39.1032 52.4937L39.1025 52.4944L36.2572 55.7989H40.7022V57.6869H31.9837L37.4507 51.3324L37.4512 51.3317L37.6235 51.1293C38.0069 50.6707 38.2605 50.3102 38.3965 50.0439L38.3984 50.0407L38.4553 49.9245C38.5795 49.654 38.6396 49.3856 38.6396 49.117C38.6394 48.6297 38.4737 48.2131 38.1311 47.8536L38.0542 47.7769C37.6728 47.3909 37.227 47.2037 36.7005 47.2037C36.2769 47.2037 35.9146 47.3188 35.602 47.5437C35.2859 47.7711 35.0038 48.123 34.7661 48.621L34.6179 48.9316L32.9785 47.9464L33.0892 47.6942C33.4324 46.9122 33.9182 46.3006 34.5524 45.8769L34.5548 45.8754L34.6766 45.799C35.2898 45.429 35.9788 45.2456 36.7356 45.2456Z" fill="white"/>
<path fill-rule="evenodd" clip-rule="evenodd" d="M55.2423 46.8937C55.3042 46.8966 55.3654 46.9019 55.4255 46.9095C55.3463 46.8997 55.2655 46.8939 55.1831 46.8922L55.2423 46.8937ZM55.0236 45.5608C54.3295 45.5834 53.7065 45.7757 53.1545 46.1373C52.5773 46.5229 52.1268 47.0836 51.8035 47.8199L52.9119 48.4862V48.4859L51.8038 47.8199C52.1271 47.0836 52.5773 46.5229 53.1545 46.1373C53.7433 45.7516 54.413 45.5586 55.1634 45.5586L55.0236 45.5608ZM56.4761 47.3524C56.5546 47.4145 56.6308 47.4826 56.7045 47.557C57.1546 47.9895 57.38 48.5095 57.38 49.117L57.3758 49.2528C57.3556 49.5685 57.2647 49.8797 57.103 50.1864L57.0308 50.3186C56.9916 50.3867 56.9464 50.4583 56.8963 50.5339C56.9802 50.4072 57.0495 50.2919 57.1032 50.1866C57.288 49.8361 57.3804 49.4795 57.3804 49.1174C57.3804 48.5095 57.1552 47.9895 56.7049 47.557C56.6312 47.4826 56.5548 47.4145 56.4761 47.3524ZM56.1157 51.5367L51.0935 57.3739L56.1163 51.5364C56.1635 51.4816 56.2092 51.4275 56.2536 51.3749C56.209 51.4277 56.1631 51.4818 56.1157 51.5367ZM55.1634 45.2456C56.2888 45.2456 57.2322 45.6182 57.9663 46.3729L58.1012 46.5156C58.7527 47.2399 59.0784 48.1188 59.0784 49.1349C59.0783 50.2003 58.5344 51.3227 57.5311 52.4937L57.5307 52.4944L54.6851 55.7989H59.1303V57.6869H50.4116L55.8787 51.3324L55.8791 51.3317L56.0513 51.1293C56.4348 50.6707 56.6883 50.3102 56.8243 50.0439L56.8262 50.0407L56.8836 49.9245C57.008 49.654 57.0672 49.3854 57.0672 49.117C57.0672 48.5972 56.8786 48.1579 56.4879 47.7826L56.4848 47.7799L56.4822 47.7769C56.1008 47.3909 55.6551 47.2037 55.1287 47.2037C54.7049 47.2037 54.3424 47.3188 54.0298 47.5437C53.7138 47.7711 53.432 48.1232 53.1943 48.621L53.0457 48.9316L51.4065 47.9464L51.5172 47.6942C51.8604 46.9122 52.3464 46.3006 52.9807 45.8769L52.9832 45.8754L53.1046 45.799C53.7178 45.429 54.4068 45.2456 55.1634 45.2456Z" fill="white"/>
<path d="M8.98773 57.3117H7.24661L2.2818 51.347H4.00575C4.72981 51.347 5.31575 51.1515 5.76399 50.7608C6.22383 50.3701 6.4536 49.8529 6.4536 49.2094C6.4536 48.5657 6.22383 48.0485 5.76399 47.6578C5.31575 47.2671 4.72981 47.0717 4.00575 47.0717H1.76461V57.3117H0.385601V45.8304H4.12633C5.26413 45.8304 6.16633 46.1524 6.83288 46.7959C7.49938 47.4279 7.83277 48.2325 7.83277 49.2094C7.83277 50.1057 7.5455 50.8585 6.97079 51.4677C6.39625 52.0767 5.68364 52.3813 4.83327 52.3813L8.98773 57.3117Z" fill="white"/>
<path d="M17.4106 57.3117H10.6528V45.8304H17.4106V47.0717H12.032V50.8815H17.2037V52.1226H12.032V56.0705H17.4106V57.3117Z" fill="white"/>
<path d="M27.1263 54.0016C27.1263 54.9901 26.7471 55.8119 25.9885 56.4668C25.2299 57.1219 24.2933 57.4496 23.1786 57.4496C22.0868 57.4496 21.1732 57.1393 20.4377 56.5187C19.7137 55.8866 19.3229 55.1223 19.2654 54.2258L20.6101 53.9327C20.6446 54.5994 20.9031 55.1338 21.3858 55.5361C21.88 55.9382 22.4948 56.1394 23.2303 56.1394C23.9658 56.1394 24.5634 55.9439 25.0233 55.5532C25.4944 55.1511 25.73 54.6396 25.73 54.019C25.73 53.4673 25.5232 53.0364 25.1094 52.7261C24.7071 52.4044 23.9946 52.1226 22.9717 51.8813C21.7765 51.6056 20.9261 51.2264 20.4204 50.7437C19.9262 50.2609 19.6791 49.6403 19.6791 48.8817C19.6791 47.9624 20.0354 47.1982 20.748 46.589C21.4605 45.98 22.3282 45.6754 23.3509 45.6754C24.3509 45.6754 25.1726 45.9398 25.8161 46.4684C26.4598 46.9856 26.8448 47.6464 26.9713 48.4508L25.6266 48.7438C25.5345 48.2038 25.2761 47.7784 24.8509 47.4683C24.4255 47.158 23.9083 47.0027 23.2993 47.0027C22.6556 47.0027 22.1213 47.1751 21.6961 47.5199C21.2824 47.8533 21.0755 48.2785 21.0755 48.7957C21.0755 49.2439 21.2593 49.6058 21.6271 49.8816C22.0064 50.1461 22.673 50.3932 23.6268 50.6229C24.9025 50.9332 25.8047 51.3584 26.3333 51.8986C26.8619 52.4272 27.1263 53.1282 27.1263 54.0016Z" fill="white"/>
<path d="M17.7077 47.3688H12.3292V50.5842H17.5007V52.4198H12.3292V55.7732H17.7077V57.6086H10.3554V45.5333H17.7077V47.3688ZM6.15644 49.2094C6.15644 48.6463 5.95983 48.2145 5.57142 47.8843L5.57007 47.883L5.56872 47.8819C5.18582 47.5479 4.67419 47.3691 4.00575 47.3688H2.06176V51.0497H4.00575V51.347H2.2818L7.24661 57.3117H8.98773L4.83327 52.3813C5.65712 52.3813 6.35148 52.0954 6.91647 51.5239L6.97079 51.4677C7.5274 50.8775 7.81445 50.1526 7.83179 49.2929L7.83276 49.2094C7.83276 48.2325 7.49938 47.4279 6.83288 46.7959C6.18706 46.1724 5.32017 45.851 4.23221 45.8314L4.12632 45.8304V45.5333C5.32244 45.5333 6.3052 45.8733 7.03936 46.5822C7.7678 47.2738 8.12991 48.1575 8.12991 49.2094C8.12991 50.1455 7.83676 50.9513 7.2451 51.6085L7.18678 51.6715C6.69497 52.1929 6.10633 52.5128 5.43043 52.6288L9.62685 57.6086H7.10719L2.06176 51.5472V57.6086H0.0882301V45.5333H4.12632V45.8304H0.385597V57.3117H1.7646V47.0717H4.00575C4.72981 47.0717 5.31574 47.2671 5.76398 47.6578C6.22383 48.0485 6.45359 48.5657 6.45359 49.2094L6.45284 49.2692C6.4389 49.8851 6.20936 50.3823 5.76398 50.7608C5.32984 51.1393 4.7662 51.3346 4.07319 51.3464L4.00575 51.347V51.0497C4.67419 51.0497 5.18582 50.8707 5.56872 50.5368L5.57007 50.5354L5.57142 50.5343C5.95983 50.2042 6.15644 49.7723 6.15644 49.2094ZM17.4106 56.0704H12.032V52.1226H17.2037V50.8815H12.032V47.0717H17.4106V45.8304H10.6528V57.3117H17.4106V56.0704ZM20.9067 53.9175C20.9372 54.5057 21.1603 54.96 21.5735 55.3054L21.6142 55.338C22.0407 55.6692 22.5731 55.842 23.2303 55.842V56.1394L23.1616 56.1388C22.4564 56.1266 21.8645 55.9256 21.3858 55.5361C20.9031 55.1338 20.6446 54.5994 20.6101 53.9327L19.2654 54.2259C19.3229 55.1223 19.7137 55.8866 20.4377 56.5186C21.1502 57.1199 22.0299 57.4298 23.0768 57.4485L23.1786 57.4496C24.2586 57.4496 25.1713 57.1422 25.9169 56.5272L25.9885 56.4669C26.7234 55.8323 27.1021 55.0412 27.125 54.0938L27.1263 54.0017C27.1263 53.1282 26.8619 52.4272 26.3333 51.8986C25.8047 51.3584 24.9025 50.9332 23.6268 50.6229C22.7326 50.4074 22.0907 50.1768 21.7014 49.9308L21.6271 49.8817C21.2824 49.6232 21.0991 49.2886 21.0776 48.8785L21.0755 48.7956C21.0755 48.2947 21.2696 47.8798 21.6578 47.5514L21.6962 47.5199C22.1213 47.1751 22.6556 47.0027 23.2993 47.0027L23.4125 47.0045C23.9727 47.0227 24.4522 47.1772 24.8509 47.4683C25.2761 47.7784 25.5346 48.2038 25.6266 48.7439L26.9713 48.4509C26.8488 47.6716 26.4834 47.0269 25.8758 46.5172L25.8161 46.4684C25.1926 45.9561 24.4021 45.6922 23.4443 45.676L23.3509 45.6754C22.3282 45.6754 21.4605 45.98 20.7481 46.589L20.6821 46.6465C20.0135 47.246 19.6792 47.9912 19.6792 48.8818L19.6798 48.9525C19.6946 49.6788 19.9417 50.276 20.4204 50.7436C20.9261 51.2264 21.7765 51.6057 22.9717 51.8813C23.9946 52.1226 24.7071 52.4044 25.1094 52.7261C25.5232 53.0365 25.73 53.4674 25.73 54.019L25.7293 54.0767C25.715 54.6715 25.4797 55.1635 25.0233 55.5532L24.9797 55.5892C24.5259 55.9559 23.9428 56.1394 23.2303 56.1394V55.842C23.9114 55.842 24.4358 55.6624 24.8307 55.3267C25.2353 54.9812 25.4327 54.5524 25.4327 54.0188C25.4327 53.5826 25.2847 53.2567 24.9915 53.0117L24.9311 52.9639L24.9273 52.961L24.9237 52.9581C24.576 52.68 23.919 52.4103 22.9035 52.1706C21.691 51.8908 20.7783 51.4963 20.215 50.9585L20.2139 50.9574L20.2126 50.9562C19.6553 50.4118 19.3818 49.7117 19.3818 48.8818C19.3818 47.8735 19.7776 47.0273 20.5547 46.3631L20.6276 46.3023C21.3849 45.6836 22.2981 45.378 23.3509 45.378C24.404 45.378 25.2957 45.6575 26.0022 46.2366L26.0672 46.2897C26.7288 46.8448 27.1309 47.5535 27.2647 48.4046L27.3082 48.6815L25.3858 49.1005L25.3334 48.7938C25.254 48.3265 25.0353 47.9708 24.6754 47.7083C24.3087 47.4407 23.8555 47.2999 23.2991 47.2999C22.7113 47.2999 22.2464 47.4561 21.8832 47.7508L21.8824 47.7514C21.5365 48.0301 21.3726 48.3712 21.3726 48.7955C21.3726 49.1456 21.5089 49.4195 21.8011 49.6403C22.1118 49.8556 22.6745 50.0765 23.5222 50.291L23.6965 50.3339L23.6971 50.3341L23.8175 50.364C25.0504 50.6764 25.9748 51.1088 26.5434 51.6883L26.5983 51.7445C27.1549 52.331 27.4235 53.0932 27.4235 54.0017C27.4235 55.0442 27.0313 55.9245 26.2586 56.6246L26.1828 56.6918C25.3641 57.3989 24.3562 57.7466 23.1786 57.7466C22.0266 57.7466 21.0422 57.4176 20.2459 56.7457L20.2421 56.7425C19.4629 56.0624 19.0317 55.2261 18.9688 54.2449L18.9522 53.9898L20.8886 53.5677L20.9067 53.9175Z" fill="white"/>
<path d="M2.40767 64.5228H1.92039L0.530749 62.8655H1.01328C1.21593 62.8655 1.37998 62.8112 1.50531 62.7026C1.63409 62.594 1.69846 62.4504 1.69846 62.2715C1.69846 62.0926 1.63409 61.949 1.50531 61.8404C1.37998 61.7318 1.21593 61.6776 1.01328 61.6776H0.385979V64.5228H0V61.3328H1.04697C1.36551 61.3328 1.61789 61.4221 1.80457 61.601C1.99108 61.7766 2.08439 62.0001 2.08439 62.2715C2.08439 62.5207 2.00404 62.7298 1.84307 62.899C1.68226 63.0683 1.48285 63.153 1.24488 63.153L2.40767 64.5228Z" fill="white"/>
<path d="M4.70104 64.5228H2.80959V61.3328H4.70104V61.6776H3.19557V62.7361H4.6431V63.0809H3.19557V64.1778H4.70104V64.5228Z" fill="white"/>
<path d="M8.39356 62.9421C8.39356 63.3925 8.24728 63.7755 7.9545 64.0918C7.66497 64.4046 7.29027 64.5611 6.83021 64.5611C6.3736 64.5611 5.98444 64.4015 5.66266 64.082C5.34418 63.7628 5.18494 63.378 5.18494 62.9278C5.18494 62.4775 5.34591 62.0927 5.66741 61.7735C5.98919 61.454 6.37684 61.2944 6.83021 61.2944C7.3514 61.2944 7.77275 61.4892 8.09452 61.8788L7.80498 62.1182C7.52511 61.8117 7.20015 61.6584 6.83021 61.6584C6.47971 61.6584 6.18212 61.7813 5.93773 62.0272C5.69641 62.2731 5.57583 62.5733 5.57583 62.9278C5.57583 63.2822 5.69641 63.5824 5.93773 63.8283C6.18212 64.0741 6.47971 64.1971 6.83021 64.1971C7.16489 64.1971 7.44303 64.09 7.66497 63.8761C7.89014 63.659 8.00267 63.3972 8.00267 63.0905H6.83993V62.7457H8.39356V62.9421Z" fill="white"/>
<path d="M9.41901 64.5228H9.03304V61.3328H9.41901V64.5228Z" fill="white"/>
<path d="M12.5881 63.833C12.8325 63.5871 12.9548 63.2854 12.9548 62.9278C12.9548 62.57 12.8325 62.2698 12.5881 62.0273C12.3469 61.7814 12.0509 61.6583 11.7004 61.6583C11.3497 61.6583 11.0522 61.7814 10.8078 62.0273C10.5664 62.2698 10.4458 62.57 10.4458 62.9278C10.4458 63.2854 10.5664 63.5871 10.8078 63.833C11.0522 64.0757 11.3497 64.1971 11.7004 64.1971C12.0509 64.1971 12.3469 64.0757 12.5881 63.833ZM12.8632 61.7734C13.1847 62.0894 13.3457 62.4743 13.3457 62.9278C13.3457 63.3812 13.1847 63.7675 12.8632 64.087C12.5447 64.403 12.157 64.5611 11.7004 64.5611C11.2436 64.5611 10.8544 64.403 10.5327 64.087C10.2142 63.7675 10.0549 63.3812 10.0549 62.9278C10.0549 62.4743 10.2142 62.0894 10.5327 61.7734C10.8544 61.4541 11.2436 61.2945 11.7004 61.2945C12.157 61.2945 12.5447 61.4541 12.8632 61.7734Z" fill="white"/>
<path d="M16.5597 64.6281L14.3209 62.1902V64.5228H13.9349V61.2274L16.1738 63.6653V61.3327H16.5597V64.6281Z" fill="white"/>
<path d="M18.9295 63.148L18.4422 62.099L17.9547 63.148H18.9295ZM19.9861 64.5228H19.5615L19.0886 63.493H17.7957L17.3227 64.5228H16.8981L18.4422 61.2273L19.9861 64.5228Z" fill="white"/>
<path d="M22.2135 64.5228H20.3221V61.3328H20.7082V64.1778H22.2135V64.5228Z" fill="white"/>
<path d="M54.2201 63.6031C54.2201 63.8776 54.114 64.106 53.9016 64.2879C53.6893 64.4701 53.4272 64.5611 53.1152 64.5611C52.8094 64.5611 52.554 64.4748 52.3481 64.3024C52.1454 64.1268 52.0361 63.9144 52.0199 63.6654L52.3963 63.5839C52.4058 63.7692 52.4784 63.9176 52.6134 64.0295C52.7518 64.1411 52.9238 64.1971 53.1297 64.1971C53.3356 64.1971 53.5029 64.1428 53.6315 64.0342C53.7633 63.9224 53.8294 63.7803 53.8294 63.6079C53.8294 63.4545 53.7713 63.3349 53.6556 63.2486C53.5428 63.1593 53.3434 63.081 53.0573 63.0139C52.7226 62.9373 52.4847 62.832 52.3431 62.6979C52.2048 62.5636 52.1357 62.3912 52.1357 62.1805C52.1357 61.9251 52.2355 61.7127 52.4348 61.5435C52.6342 61.3741 52.8771 61.2896 53.1634 61.2896C53.4432 61.2896 53.6731 61.3631 53.8534 61.51C54.0336 61.6536 54.1412 61.8372 54.1766 62.0607L53.8002 62.1422C53.7745 61.9921 53.7023 61.874 53.5831 61.7877C53.4642 61.7016 53.3194 61.6584 53.1491 61.6584C52.9689 61.6584 52.8194 61.7064 52.7001 61.8022C52.5843 61.8948 52.5266 62.0129 52.5266 62.1565C52.5266 62.2811 52.578 62.3817 52.6811 62.4583C52.787 62.5318 52.9735 62.6004 53.2406 62.6644C53.5977 62.7505 53.8501 62.8686 53.9982 63.0187C54.1462 63.1656 54.2201 63.3604 54.2201 63.6031Z" fill="white"/>
<path d="M57.3964 63.2391C57.3964 63.6382 57.2743 63.9592 57.0297 64.2018C56.7853 64.4413 56.4862 64.5611 56.1323 64.5611C55.7785 64.5611 55.4793 64.4413 55.2348 64.2018C54.9904 63.9592 54.8682 63.6382 54.8682 63.2391V61.3326H55.2541V63.2103C55.2541 63.5073 55.3362 63.7467 55.5002 63.9289C55.6642 64.1078 55.8749 64.1971 56.1323 64.1971C56.3896 64.1971 56.6003 64.1078 56.7643 63.9289C56.9283 63.7467 57.0104 63.5073 57.0104 63.2103V61.3326H57.3964V63.2391Z" fill="white"/>
<path d="M61.9553 64.5228H61.5499L60.8214 62.2908L59.8901 64.6281L58.959 62.2908L58.2303 64.5228H57.825L58.9251 61.2274L59.8901 63.6461L60.8552 61.2274L61.9553 64.5228Z" fill="white"/>
<path d="M66.1643 64.5228H65.759L65.0305 62.2908L64.0992 64.6281L63.168 62.2908L62.4392 64.5228H62.034L63.1341 61.2274L64.0992 63.6461L65.0642 61.2274L66.1643 64.5228Z" fill="white"/>
<path d="M67.0488 64.5228H66.6629V61.3328H67.0488V64.5228Z" fill="white"/>
<path d="M69.7788 61.6776H68.8572V64.5228H68.4713V61.6776H67.5497V61.3326H69.7788V61.6776Z" fill="white"/>
<path d="M46.8266 61.7047C46.8183 61.7329 46.8073 61.7675 46.7959 61.7961L46.7957 61.7959L46.2134 63.3818H47.4438L46.8569 61.7957L46.8566 61.7952C46.8502 61.7735 46.8414 61.7494 46.8336 61.7266C46.8311 61.7191 46.8287 61.7117 46.8266 61.7047ZM36.2673 61.6079C35.921 61.6079 35.6299 61.7416 35.4251 61.9731C35.2205 62.2045 35.1019 62.5345 35.1019 62.9278C35.1019 63.3212 35.2205 63.6513 35.4251 63.8828C35.6299 64.114 35.921 64.2478 36.2673 64.2478C36.6136 64.2478 36.9055 64.1131 37.1114 63.8812C37.3171 63.649 37.4368 63.3191 37.4368 62.9278C37.4368 62.5345 37.3169 62.2045 37.1114 61.9731C36.9055 61.7416 36.6136 61.6079 36.2673 61.6079ZM31.2209 61.6079C30.8748 61.6079 30.5837 61.7416 30.3791 61.9731C30.1745 62.2045 30.0558 62.5345 30.0558 62.9278C30.0558 63.3212 30.1745 63.6513 30.3791 63.8828C30.5837 64.114 30.8748 64.2478 31.2209 64.2478C31.5673 64.2478 31.8597 64.1131 32.0652 63.8812C32.2711 63.649 32.3909 63.3191 32.3909 62.9278C32.3909 62.5345 32.2711 62.2045 32.0652 61.9731C31.8597 61.7416 31.5674 61.6079 31.2209 61.6079ZM48.9865 61.3364V64.2081H50.44V64.5194H48.6486V61.3364H48.9865ZM47.0321 61.3364L47.0344 61.3427L48.2095 64.5061L48.2145 64.5194H47.8621L47.8596 64.5129L47.5529 63.6799H46.109L45.8019 64.5129L45.7994 64.5194H45.4559L45.4607 64.5061L46.6227 61.3427L46.625 61.3364H47.0321ZM42.0375 64.5194H41.6998V61.3364H42.0375V64.5194ZM33.4114 61.3364V64.2081H34.8651V64.5194H33.0735V61.3364H33.4114ZM26.2157 61.3364V61.6475H24.6428V62.7676H26.0698V63.0747H24.6428V64.2081H26.2201V64.5194H24.3049V61.3364H26.2157ZM44.1276 61.2833C44.8121 61.2835 45.3512 61.6971 45.4803 62.3295L45.4826 62.3413H45.1228L45.1209 62.3341C44.9896 61.8836 44.605 61.6079 44.1141 61.6079C43.7701 61.6079 43.4834 61.7393 43.2828 61.9695C43.0818 62.1998 42.9665 62.5299 42.9665 62.9278C42.9665 63.3235 43.0818 63.6525 43.2828 63.8824C43.4834 64.112 43.7701 64.2432 44.1141 64.2432C44.6098 64.2432 45.0029 63.9759 45.1384 63.5565L45.1408 63.5498H45.5007L45.4979 63.562C45.3506 64.1634 44.794 64.568 44.1097 64.568C43.6653 64.568 43.2917 64.4023 43.0291 64.114C42.7664 63.8258 42.6153 63.4159 42.6153 62.9278C42.6153 62.4398 42.7685 62.0285 43.0344 61.7393C43.3003 61.45 43.6786 61.2833 44.1276 61.2833ZM27.9431 61.2833C28.6273 61.2835 29.1667 61.6971 29.2958 62.3295L29.2979 62.3413H28.9384L28.9361 62.3341C28.8051 61.8836 28.4203 61.6079 27.9296 61.6079C27.5855 61.6079 27.2989 61.7393 27.0983 61.9695C26.8973 62.1998 26.782 62.5299 26.782 62.9278C26.782 63.3235 26.8973 63.6525 27.0983 63.8824C27.2989 64.112 27.5855 64.2432 27.9296 64.2432C28.4253 64.2432 28.8186 63.9759 28.9541 63.5565L28.9561 63.5498H29.3162L29.3131 63.562C29.1663 64.1634 28.6094 64.568 27.9252 64.568C27.4808 64.5678 27.107 64.4023 26.8443 64.114C26.5818 63.8258 26.4308 63.4159 26.4308 62.9278C26.4308 62.4398 26.5839 62.0285 26.8499 61.7393C27.1158 61.45 27.4941 61.2833 27.9431 61.2833ZM39.7031 61.2833C40.3739 61.2833 40.8957 61.6656 41.0205 62.2453L41.0232 62.2573H40.6589L40.6567 62.2504C40.5258 61.8226 40.1593 61.6035 39.6986 61.6035C39.3369 61.6035 39.0424 61.7372 38.8384 61.9706C38.6344 62.2043 38.5201 62.5388 38.5201 62.9412C38.5201 63.3499 38.641 63.6776 38.8495 63.903C39.0576 64.1283 39.3542 64.2521 39.7074 64.2521C39.9711 64.2521 40.2303 64.1883 40.4235 64.0312C40.6164 63.8744 40.7446 63.6233 40.7446 63.2459V63.0924H39.6006V62.7897H41.0649V64.5238H40.794L40.7934 64.5145L40.7643 64.043C40.586 64.3463 40.1941 64.5723 39.6945 64.5723C39.2434 64.5723 38.8618 64.4101 38.593 64.1247C38.3244 63.8393 38.1692 63.4315 38.1692 62.9412C38.1692 62.4554 38.3242 62.0407 38.594 61.7477C38.8637 61.4545 39.2477 61.2835 39.7031 61.2833ZM36.2673 61.2789C36.714 61.2789 37.0933 61.449 37.3607 61.7405C37.6284 62.0319 37.7836 62.4442 37.7836 62.9278C37.7836 63.4094 37.6272 63.8205 37.3592 64.1114C37.091 64.4023 36.7115 64.5723 36.2673 64.5723C35.8206 64.5723 35.4411 64.4023 35.1735 64.1114C34.906 63.8205 34.7508 63.4092 34.7508 62.9278C34.7508 62.4463 34.9072 62.034 35.1752 61.742C35.4434 61.4499 35.8227 61.2789 36.2673 61.2789ZM31.2209 61.2789C31.6676 61.2789 32.0471 61.449 32.3145 61.7405C32.582 62.0319 32.7374 62.4442 32.7374 62.9278C32.7374 63.4094 32.5809 63.8205 32.3128 64.1114C32.0446 64.4023 31.6655 64.5723 31.2209 64.5723C30.7744 64.5723 30.3951 64.4023 30.1275 64.1114C29.8598 63.8205 29.7046 63.4092 29.7046 62.9278C29.7046 62.4464 29.861 62.034 30.1292 61.742C30.3971 61.4499 30.7767 61.2789 31.2209 61.2789Z" fill="white"/>
<path d="M46.2658 63.3453H47.3912L46.8262 61.8188L46.2658 63.3453ZM47.4965 63.4186H46.1608L46.778 61.7375C46.783 61.7227 46.7875 61.7078 46.7913 61.6945L46.825 61.5769L46.8759 61.7368C46.8816 61.7531 46.8871 61.7695 46.8917 61.7848L47.4965 63.4186ZM31.2209 61.6447C30.8922 61.6447 30.6106 61.7667 30.4066 61.9974C30.201 62.2298 30.0924 62.5515 30.0924 62.9279C30.0924 63.3041 30.201 63.6261 30.4066 63.8585C30.6106 64.0891 30.8922 64.2111 31.2209 64.2111C31.5499 64.2111 31.8323 64.0886 32.0378 63.8567C32.2449 63.6234 32.3542 63.3022 32.3542 62.9279C32.3542 62.5519 32.2449 62.2301 32.0378 61.9974C31.8328 61.7667 31.5503 61.6447 31.2209 61.6447ZM31.2209 64.2844C30.8706 64.2844 30.57 64.1539 30.3517 63.9071C30.1342 63.6609 30.0191 63.3224 30.0191 62.9279C30.0191 62.5334 30.1342 62.1947 30.3517 61.9488C30.5698 61.7019 30.8704 61.5714 31.2209 61.5714C31.5718 61.5714 31.8732 61.7019 32.0926 61.9488C32.3117 62.1951 32.4275 62.5338 32.4275 62.9279C32.4275 63.3205 32.3117 63.6584 32.0926 63.9055C31.8761 64.1497 31.5665 64.2844 31.2209 64.2844ZM36.2673 61.6447C35.9383 61.6447 35.6566 61.7667 35.4526 61.9974C35.247 62.2298 35.1385 62.5515 35.1385 62.9279C35.1385 63.3041 35.247 63.6261 35.4526 63.8585C35.6568 64.0891 35.9383 64.2111 36.2673 64.2111C36.5959 64.2111 36.8782 64.0886 37.0838 63.8567C37.2906 63.6236 37.4002 63.3024 37.4002 62.9279C37.4002 62.5519 37.2906 62.2301 37.084 61.9974C36.8786 61.7667 36.5963 61.6447 36.2673 61.6447ZM36.2673 64.2844C35.9168 64.2844 35.616 64.1539 35.3977 63.9071C35.1802 63.6609 35.0653 63.3224 35.0653 62.9279C35.0653 62.5334 35.1802 62.1947 35.3977 61.9488C35.616 61.7019 35.9166 61.5714 36.2673 61.5714C36.6178 61.5714 36.919 61.7019 37.1386 61.9488C37.3577 62.1951 37.4733 62.5338 37.4733 62.9279C37.4733 63.3205 37.3577 63.6587 37.1386 63.9055C36.9188 64.1533 36.6174 64.2844 36.2673 64.2844ZM24.3415 64.4827H26.1833V64.2446H24.6062V63.038H26.033V62.8043H24.6062V61.611H26.1791V61.3729H24.3415V64.4827ZM26.2567 64.5559H24.2683V61.2998H26.2523V61.6844H24.6794V62.7311H26.1062V63.1113H24.6794V64.1714H26.2567V64.5559ZM33.1101 64.4827H34.8283V64.2446H33.3748V61.3729H33.1101V64.4827ZM34.9017 64.5559H33.0369V61.2998H33.448V64.1714H34.9017V64.5559ZM41.7364 64.4827H42.001V61.3731H41.7364V64.4827ZM42.0741 64.5559H41.6631V61.2996H42.0741V64.5559ZM47.8874 64.4827H48.1618L47.0064 61.3729H46.6507L45.5083 64.4827H45.7739L46.0833 63.6434H47.5785L47.8874 64.4827ZM48.2673 64.5559H47.8377L47.8284 64.5334L47.5274 63.7165H46.1343L45.8274 64.5496L45.7994 64.5559H45.4038L45.4263 64.4938L46.597 61.306L46.625 61.2998H47.0586L47.069 61.331L48.2673 64.5559ZM48.6852 64.4827H50.4035V64.2446H48.9498V61.3729H48.6852V64.4827ZM50.4766 64.5559H48.6119V61.2998H49.0231V64.1714H50.4766V64.5559ZM27.9429 61.32C27.5126 61.32 27.1438 61.4737 26.8767 61.7642C26.6089 62.0555 26.4674 62.458 26.4674 62.9279C26.4674 63.3979 26.6072 63.7994 26.8714 64.0894C27.1348 64.3785 27.4993 64.5313 27.9252 64.5313C28.5784 64.5313 29.1139 64.153 29.269 63.5864H28.9825C28.8316 64.0173 28.4313 64.2799 27.9296 64.2799C27.581 64.2799 27.284 64.1507 27.0705 63.9065C26.8577 63.663 26.7453 63.3247 26.7453 62.9279C26.7453 62.5292 26.8577 62.1894 27.0705 61.9454C27.2838 61.7007 27.5808 61.5714 27.9296 61.5714C28.43 61.5714 28.8251 61.8518 28.9655 62.3048H29.2529C29.1158 61.7055 28.6053 61.32 27.9429 61.32ZM27.9252 64.6044C27.4781 64.6044 27.095 64.4435 26.8173 64.1389C26.5405 63.835 26.3942 63.4163 26.3942 62.9279C26.3942 62.4393 26.5422 62.0197 26.8228 61.7145C27.1042 61.4085 27.4914 61.2468 27.9429 61.2468C28.6422 61.2468 29.2004 61.6788 29.3316 62.3222L29.3421 62.3779H28.9114L28.9034 62.3522C28.7754 61.9127 28.4032 61.6447 27.9296 61.6447C27.6027 61.6447 27.3248 61.7653 27.1257 61.9937C26.9247 62.224 26.8186 62.5471 26.8186 62.9279C26.8186 63.3066 26.9247 63.6284 27.1257 63.8583C27.3248 64.0861 27.6029 64.2067 27.9296 64.2067C28.4083 64.2067 28.7874 63.9531 28.919 63.5453L28.9274 63.52L28.9562 63.5131H29.3627L29.3488 63.5706C29.1977 64.189 28.6255 64.6044 27.9252 64.6044ZM44.1277 61.32C43.6971 61.32 43.3285 61.4737 43.0612 61.7642C42.7934 62.0555 42.6519 62.458 42.6519 62.9279C42.6519 63.3976 42.7917 63.7994 43.0561 64.0894C43.3194 64.3785 43.6838 64.5313 44.1097 64.5313C44.7629 64.5313 45.2982 64.153 45.4535 63.5864H45.1672C45.0163 64.0169 44.6161 64.2799 44.1141 64.2799C43.7657 64.2799 43.4686 64.1507 43.2552 63.9065C43.0424 63.663 42.93 63.3247 42.93 62.9279C42.93 62.5292 43.0424 62.1894 43.2552 61.9454C43.4686 61.7007 43.7655 61.5714 44.1141 61.5714C44.6146 61.5714 45.0098 61.8518 45.1502 62.3048H45.4375C45.3005 61.7057 44.7898 61.32 44.1277 61.32ZM44.1097 64.6044C43.6627 64.6044 43.2796 64.4435 43.0018 64.1389C42.725 63.835 42.5788 63.4163 42.5788 62.9279C42.5788 62.4393 42.7269 62.0197 43.0074 61.7145C43.2887 61.4085 43.676 61.2468 44.1277 61.2468C44.8268 61.2468 45.3849 61.6788 45.5162 62.3222L45.5264 62.3779H45.0948L45.0874 62.3511C44.9599 61.9127 44.5877 61.6447 44.1141 61.6447C43.7873 61.6447 43.5095 61.7653 43.3104 61.9937C43.1095 62.224 43.0031 62.5471 43.0031 62.9279C43.0031 63.3066 43.1095 63.6284 43.3104 63.8583C43.5095 64.0861 43.7874 64.2067 44.1141 64.2067C44.5926 64.2067 44.9718 63.9531 45.1036 63.5453L45.1117 63.52L45.1409 63.5131H45.5474L45.5333 63.5706C45.382 64.189 44.8098 64.6044 44.1097 64.6044ZM31.2209 61.3156C30.8013 61.3156 30.4232 61.4758 30.1561 61.7668C29.8886 62.0581 29.7412 62.4703 29.7412 62.9279C29.7412 63.3855 29.8881 63.797 30.1544 64.0865C30.4209 64.3763 30.7995 64.5357 31.2209 64.5357C31.6406 64.5357 32.0189 64.3763 32.2858 64.0865C32.5535 63.796 32.7009 63.3845 32.7009 62.9279C32.7009 62.4686 32.5542 62.0556 32.2875 61.7653C32.0176 61.471 31.6486 61.3156 31.2209 61.3156ZM31.2209 64.609C30.779 64.609 30.3811 64.441 30.1004 64.1362C29.8216 63.8329 29.668 63.4037 29.668 62.9279C29.668 62.4521 29.8221 62.0219 30.1022 61.7171C30.3832 61.411 30.7805 61.2422 31.2209 61.2422C31.6632 61.2422 32.0614 61.4104 32.3416 61.7158C32.6205 62.0197 32.7742 62.4501 32.7742 62.9279C32.7742 63.403 32.6199 63.8322 32.3397 64.1362C32.0587 64.4412 31.6614 64.609 31.2209 64.609ZM36.2673 61.3156C35.8477 61.3156 35.4693 61.4758 35.2021 61.7668C34.9346 62.0583 34.7874 62.4705 34.7874 62.9279C34.7874 63.3853 34.934 63.7967 35.2003 64.0865C35.4669 64.3763 35.8457 64.5357 36.2673 64.5357C36.687 64.5357 37.0651 64.3763 37.3322 64.0865C37.5996 63.7962 37.7471 63.3847 37.7471 62.9279C37.7471 62.4684 37.6002 62.0555 37.3337 61.7653C37.0638 61.471 36.695 61.3156 36.2673 61.3156ZM36.2673 64.609C35.825 64.609 35.427 64.441 35.1465 64.1362C34.8676 63.8328 34.714 63.4037 34.714 62.9279C34.714 62.4522 34.8683 62.0223 35.1482 61.7173C35.4295 61.411 35.8269 61.2422 36.2673 61.2422C36.7097 61.2422 37.1076 61.4104 37.3878 61.7158C37.6667 62.0194 37.8202 62.45 37.8202 62.9279C37.8202 63.4032 37.6661 63.8324 37.3861 64.1362C37.1049 64.4412 36.7075 64.609 36.2673 64.609ZM39.703 61.32C39.2676 61.32 38.8933 61.4765 38.6209 61.7723C38.3532 62.0635 38.2058 62.4783 38.2058 62.9413C38.2058 63.4114 38.3488 63.8118 38.6197 64.0996C38.8883 64.3848 39.26 64.5357 39.6943 64.5357C40.1494 64.5357 40.5471 64.3399 40.7327 64.0246L40.7934 63.9212L40.8283 64.4871H41.0283V62.8264H39.6372V63.0559H40.7812V63.2458C40.7812 63.6053 40.6687 63.8793 40.4468 64.0596C40.2624 64.2096 40.0069 64.2888 39.7074 64.2888C39.3468 64.2888 39.0409 64.164 38.8224 63.928C38.6007 63.6881 38.4835 63.347 38.4835 62.9413C38.4835 62.5357 38.5967 62.1919 38.8108 61.9467C39.028 61.6983 39.3348 61.5668 39.6987 61.5668C40.1915 61.5668 40.55 61.805 40.6858 62.2208H40.9773C40.8434 61.6723 40.3471 61.32 39.703 61.32ZM39.6943 64.609C39.2392 64.609 38.8491 64.4501 38.5664 64.1497C38.2826 63.8484 38.1325 63.4304 38.1325 62.9413C38.1325 62.4601 38.2867 62.0273 38.567 61.7228C38.8494 61.4157 39.2529 61.2468 39.703 61.2468C40.3955 61.2468 40.9268 61.6358 41.0565 62.2378L41.0685 62.294H40.6317L40.6239 62.2682C40.5009 61.8665 40.1645 61.6402 39.6987 61.6402C39.3568 61.6402 39.0687 61.7628 38.866 61.9949C38.6637 62.2265 38.5567 62.5538 38.5567 62.9413C38.5567 63.3281 38.6671 63.6522 38.8761 63.8781C39.0805 64.0989 39.3678 64.2154 39.7074 64.2154C39.9042 64.2154 40.1842 64.1787 40.4004 64.0029C40.6045 63.837 40.7079 63.5823 40.7079 63.2458V63.1291H39.5638V62.753H41.1015V64.5604H40.7595L40.7342 64.153C40.5178 64.4366 40.1302 64.609 39.6943 64.609Z" fill="#292929"/>
</svg>
