<svg width="316" height="279" viewBox="0 0 316 279" fill="none" xmlns="http://www.w3.org/2000/svg">
<path fill-rule="evenodd" clip-rule="evenodd" d="M210.502 197.491C216.275 197.491 221.045 199.864 224.715 204.487C228.507 209.135 230.243 216.474 230.243 226.161C230.243 235.848 228.507 243.212 224.715 247.908C221.021 252.507 216.251 254.831 210.502 254.831C204.753 254.831 200.056 252.654 196.46 248.324L196.118 247.908C192.448 243.26 190.76 235.897 190.76 226.161C190.76 216.425 192.448 209.062 196.118 204.414L196.46 203.998C200.056 199.668 204.778 197.491 210.502 197.491ZM210.502 206.42C207.126 206.42 204.606 207.79 202.772 210.578C200.961 213.416 199.934 218.504 199.934 226.185C199.934 233.867 200.961 238.955 202.772 241.793L203.114 242.306C204.924 244.753 207.346 245.951 210.502 245.951C213.976 245.951 216.52 244.459 218.257 241.377C220.067 238.172 221.07 233.157 221.07 226.185C221.07 221.929 220.752 218.431 220.165 215.691C219.602 212.902 218.77 211.019 217.792 209.82C216.936 208.719 215.933 207.716 214.661 207.178C213.34 206.591 211.994 206.395 210.551 206.395L210.502 206.42Z" fill="white"/>
<path fill-rule="evenodd" clip-rule="evenodd" d="M308.231 201.798L306.347 202.874C303.583 204.44 300.427 206.935 296.855 210.409C296.806 210.409 293.479 213.809 293.137 214.176C294.14 214.029 295.143 213.931 296.195 213.931C301.405 213.931 305.907 215.937 309.625 219.9L309.967 220.267C313.466 224.132 315.227 228.756 315.227 234.064C315.227 239.666 313.172 244.559 309.136 248.644C305.099 252.729 300.256 254.833 294.703 254.833C289.15 254.833 284.086 252.802 280.025 248.742C276.135 245.659 273.909 238.81 273.909 233.991C273.909 230.321 274.863 226.554 276.723 222.664C278.753 218.628 281.052 215.13 284.037 211.73L285.113 210.482C287.608 207.644 289.957 205.198 292.11 203.143L293.039 202.262C295.241 200.232 297.418 198.373 299.62 196.661L300.476 196L308.231 201.798ZM294.507 222.713C291.571 222.713 289.052 223.692 286.875 225.698C284.355 228.12 283.058 230.762 283.058 234.309C283.058 237.489 284.184 240.204 286.434 242.504C288.758 244.754 291.204 245.904 294.507 245.904C297.809 245.904 300.402 244.779 302.653 242.504C304.904 240.106 306.029 237.66 306.029 234.309C306.029 230.957 304.904 228.511 302.653 226.114C300.402 223.814 297.712 222.713 294.507 222.713Z" fill="white"/>
<path fill-rule="evenodd" clip-rule="evenodd" d="M167.056 197.491C172.193 197.491 176.499 199.179 179.85 202.628C183.226 206.053 184.914 210.285 184.914 215.202C184.914 220.119 182.443 225.183 177.869 230.515L164.904 245.584H185.159V254.195H145.407L170.334 225.231L171.117 224.302C172.854 222.223 174.028 220.559 174.64 219.36L174.909 218.822C175.471 217.599 175.741 216.376 175.741 215.153C175.741 212.927 174.982 211.019 173.417 209.404L173.074 209.062C171.337 207.3 169.307 206.444 166.909 206.444C164.977 206.444 163.338 206.958 161.895 207.985C160.451 209.013 159.179 210.627 158.078 212.902L157.393 214.321L149.908 209.82L150.422 208.67C151.987 205.099 154.213 202.31 157.1 200.377L157.663 200.01C160.451 198.322 163.607 197.491 167.056 197.491Z" fill="white"/>
<path fill-rule="evenodd" clip-rule="evenodd" d="M251.086 197.491C256.223 197.491 260.528 199.179 263.855 202.628L264.467 203.288C267.427 206.591 268.919 210.603 268.919 215.226C268.919 221.587 261.874 230.491 261.874 230.54L248.909 245.609H269.164V254.22H229.412L254.339 225.256L255.122 224.326C256.859 222.247 258.033 220.584 258.645 219.385L258.914 218.847C259.476 217.624 259.746 216.4 259.746 215.177C259.746 212.804 258.889 210.798 257.104 209.086C254.975 207.423 253.948 206.444 250.915 206.444C248.982 206.444 247.318 206.958 245.9 207.985C244.456 209.013 243.184 210.627 242.083 212.902L241.398 214.321L233.913 209.82L234.427 208.67C235.992 205.099 238.218 202.31 241.105 200.377L241.668 200.01C244.456 198.322 247.612 197.491 251.061 197.491H251.086Z" fill="white"/>
<path d="M94.9154 237.023C95.0622 239.714 96.0652 241.769 97.9488 243.359L98.1445 243.506C102.328 246.906 108.664 246.564 112.798 243.457C114.632 241.891 115.538 239.934 115.538 237.488C115.538 235.506 114.853 234.014 113.532 232.889L113.263 232.669C110.89 230.81 106.902 229.733 104.016 229.048C98.487 227.776 94.3284 225.966 91.7598 223.52C89.1178 220.902 87.968 217.771 87.968 214.053C87.968 209.454 89.7783 205.588 93.3254 202.58C97.0682 199.448 101.202 198.078 106.07 198.078C110.939 198.078 114.926 199.35 118.155 201.992C121.335 204.61 123.268 207.766 123.904 211.875L124.1 213.147L115.342 215.056L115.097 213.661C114.73 211.533 113.727 209.918 112.088 208.72C110.425 207.497 108.346 206.86 105.826 206.86C103.6 206.812 101.031 207.448 99.3677 208.915C97.8021 210.187 97.0437 211.753 97.0437 213.686C97.0437 215.276 97.6553 216.523 99.0008 217.526C100.42 218.505 102.988 219.508 106.853 220.486L108.199 220.829C113.825 222.248 118.033 224.229 120.626 226.871C123.512 229.831 124.638 233.329 124.638 237.414C124.638 242.16 122.852 246.172 119.329 249.377L118.987 249.695C115.244 252.924 110.669 254.514 105.288 254.514C99.9059 254.514 95.5515 253.022 91.9065 249.939C88.3594 246.833 86.378 243.016 86.1089 238.54L86.0355 237.366L94.8665 235.433L94.9399 237.023H94.9154ZM18.4204 198.812C23.8756 198.812 28.3523 200.353 31.7037 203.582C35.0306 206.738 36.6696 210.775 36.6696 215.569C36.6696 219.826 35.3242 223.52 32.6333 226.504L32.3642 226.798C30.1136 229.17 27.4472 230.638 24.3649 231.152L43.4948 253.853H31.9973L9.00227 226.211V253.853H0V198.812H18.4204ZM25.0009 221.612C26.8601 220.07 27.6674 217.918 27.6674 215.569C27.6674 213.001 26.7623 211.044 25.0009 209.527C23.0195 207.766 20.4508 207.179 17.8578 207.179H9.00227V223.96H17.8578C20.4508 223.96 22.9705 223.373 24.9764 221.612H25.0009ZM80.3357 207.179H55.824V221.832H79.4061V230.198H55.824V245.487H80.3357V253.853H46.8217V198.812H80.3357V207.179Z" fill="white"/>
<path d="M10.1031 278.539H8.04823L2.22608 271.323H4.25649C5.11269 271.323 5.79768 271.078 6.31139 270.613C6.84957 270.149 7.11863 269.513 7.11863 268.73C7.11863 267.947 6.84957 267.311 6.31139 266.846C5.77321 266.381 5.08823 266.137 4.25649 266.137H1.61451V278.539H0V264.62H4.40326C5.74872 264.62 6.80062 265.011 7.58343 265.794C8.36624 266.552 8.75767 267.531 8.75767 268.73C8.75767 269.806 8.41518 270.736 7.75469 271.47C7.06973 272.203 6.238 272.57 5.23503 272.57L10.1031 278.539Z" fill="white"/>
<path d="M19.7169 278.539H11.7909V264.644H19.7169V266.136H13.4055V270.759H19.4722V272.252H13.4055V277.046H19.7169V278.539Z" fill="white"/>
<path d="M35.2264 271.663C35.2264 273.62 34.6149 275.308 33.3917 276.678C32.1686 278.048 30.603 278.733 28.6704 278.733C26.7379 278.733 25.1233 278.048 23.7779 276.654C22.4324 275.259 21.7719 273.571 21.7719 271.614C21.7719 269.657 22.4569 267.969 23.8023 266.575C25.1478 265.181 26.7868 264.496 28.6704 264.496C30.8476 264.496 32.6334 265.352 33.9788 267.04L32.7557 268.092C31.5815 266.746 30.2116 266.086 28.6704 266.086C27.2027 266.086 25.9551 266.624 24.9276 267.7C23.9247 268.777 23.4109 270.073 23.4109 271.639C23.4109 273.204 23.9247 274.501 24.9276 275.577C25.9551 276.654 27.2027 277.192 28.6704 277.192C30.1382 277.192 31.239 276.727 32.1686 275.798C33.1226 274.843 33.5874 273.718 33.5874 272.373H28.7193V270.88H35.2264V271.737V271.663Z" fill="white"/>
<path d="M39.5318 278.539H37.8928V264.644H39.5318V278.539Z" fill="white"/>
<path d="M53.9648 266.551C55.3103 267.921 55.9952 269.609 55.9952 271.59C55.9952 273.572 55.3103 275.26 53.9648 276.654C52.6194 278.024 51.0048 278.734 49.0967 278.734C47.1886 278.734 45.5496 278.049 44.2042 276.654C42.8587 275.26 42.1982 273.572 42.1982 271.59C42.1982 269.609 42.8587 267.945 44.2042 266.551C45.5496 265.157 47.1886 264.472 49.0967 264.472C51.0048 264.472 52.6438 265.157 53.9648 266.551ZM52.8151 275.529C53.8425 274.453 54.3562 273.132 54.3562 271.59C54.3562 270.049 53.8425 268.728 52.8151 267.652C51.8121 266.576 50.5645 266.037 49.0967 266.037C47.629 266.037 46.3814 266.576 45.3539 267.652C44.3509 268.704 43.8372 270.025 43.8372 271.59C43.8372 273.156 44.3509 274.477 45.3539 275.529C46.3814 276.581 47.629 277.119 49.0967 277.119C50.5645 277.119 51.8121 276.581 52.8151 275.529Z" fill="white"/>
<path d="M69.4743 279L60.0806 268.383V278.535H58.466V264.176L67.8597 274.817V264.64H69.4743V279Z" fill="white"/>
<path d="M83.8583 278.535H82.0725L80.091 274.034H74.6603L72.6788 278.535H70.893L77.3756 264.176L83.8583 278.535ZM79.4305 272.542L77.3756 267.967L75.3208 272.542H79.406H79.4305Z" fill="white"/>
<path d="M93.203 278.539H85.2771V264.644H86.8916V277.046H93.203V278.539Z" fill="white"/>
<path d="M112.039 278.539H103.013V264.644H112.039V266.136H104.627V270.759H111.795V272.252H104.627V277.046H112.039V278.539Z" fill="white"/>
<path d="M113.874 271.249C113.874 269.83 114.192 268.558 114.803 267.433C115.415 266.283 116.271 265.403 117.323 264.767C118.4 264.13 119.598 263.812 120.895 263.812C122.436 263.812 123.781 264.204 124.931 264.962C126.081 265.721 126.913 266.821 127.451 268.216H125.249C124.858 267.335 124.295 266.675 123.537 266.185C122.803 265.721 121.922 265.476 120.895 265.476C119.867 265.476 119.036 265.721 118.253 266.185C117.47 266.65 116.858 267.335 116.418 268.216C115.978 269.072 115.758 270.099 115.758 271.274C115.758 272.448 115.978 273.451 116.418 274.331C116.858 275.188 117.47 275.873 118.253 276.337C119.036 276.802 119.916 277.047 120.895 277.047C121.873 277.047 122.803 276.827 123.537 276.362C124.271 275.897 124.858 275.212 125.249 274.331H127.451C126.913 275.726 126.081 276.802 124.931 277.561C123.781 278.319 122.436 278.686 120.895 278.686C119.574 278.686 118.4 278.368 117.323 277.756C116.247 277.12 115.415 276.24 114.803 275.114C114.192 273.989 113.874 272.717 113.874 271.298V271.249Z" fill="white"/>
<path d="M140.881 266.551C142.226 267.921 142.911 269.609 142.911 271.59C142.911 273.572 142.226 275.26 140.881 276.654C139.536 278.024 137.921 278.734 136.013 278.734C134.105 278.734 132.466 278.049 131.12 276.654C129.775 275.26 129.114 273.572 129.114 271.59C129.114 269.609 129.775 267.945 131.12 266.551C132.466 265.157 134.105 264.472 136.013 264.472C137.921 264.472 139.56 265.157 140.881 266.551ZM139.731 275.529C140.759 274.453 141.272 273.132 141.272 271.59C141.272 270.049 140.759 268.728 139.731 267.652C138.728 266.576 137.481 266.037 136.013 266.037C134.545 266.037 133.298 266.576 132.27 267.652C131.267 268.704 130.753 270.025 130.753 271.59C130.753 273.156 131.267 274.477 132.27 275.529C133.298 276.581 134.545 277.119 136.013 277.119C137.481 277.119 138.728 276.581 139.731 275.529Z" fill="white"/>
<path d="M153.308 278.539H145.382V264.644H146.997V277.046H153.308V278.539Z" fill="white"/>
<path d="M165.735 266.551C167.081 267.921 167.766 269.609 167.766 271.59C167.766 273.572 167.081 275.26 165.735 276.654C164.39 278.024 162.775 278.734 160.867 278.734C158.959 278.734 157.32 278.049 155.975 276.654C154.629 275.26 153.969 273.572 153.969 271.59C153.969 269.609 154.629 267.945 155.975 266.551C157.32 265.157 158.959 264.472 160.867 264.472C162.775 264.472 164.414 265.157 165.735 266.551ZM164.586 275.529C165.613 274.453 166.127 273.132 166.127 271.59C166.127 270.049 165.613 268.728 164.586 267.652C163.583 266.576 162.335 266.037 160.867 266.037C159.399 266.037 158.152 266.576 157.124 267.652C156.121 268.704 155.608 270.025 155.608 271.59C155.608 273.156 156.121 274.477 157.124 275.529C158.152 276.581 159.399 277.119 160.867 277.119C162.335 277.119 163.583 276.581 164.586 275.529Z" fill="white"/>
<path d="M182.737 271.663C182.737 273.62 182.125 275.308 180.902 276.678C179.679 278.048 178.113 278.733 176.181 278.733C174.248 278.733 172.633 278.048 171.288 276.654C169.943 275.259 169.282 273.571 169.282 271.614C169.282 269.657 169.967 267.969 171.313 266.575C172.658 265.181 174.297 264.496 176.181 264.496C178.358 264.496 180.144 265.352 181.489 267.04L180.266 268.092C179.092 266.746 177.722 266.086 176.181 266.086C174.713 266.086 173.465 266.624 172.438 267.7C171.435 268.777 170.921 270.073 170.921 271.639C170.921 273.204 171.435 274.501 172.438 275.577C173.465 276.654 174.713 277.192 176.181 277.192C177.648 277.192 178.749 276.727 179.679 275.798C180.633 274.843 181.098 273.718 181.098 272.373H176.23V270.88H182.761V271.737L182.737 271.663Z" fill="white"/>
<path d="M187.042 278.539H185.403V264.644H187.042V278.539Z" fill="white"/>
<path d="M189.513 271.249C189.513 269.83 189.831 268.558 190.442 267.433C191.054 266.283 191.91 265.403 192.962 264.767C194.038 264.13 195.237 263.812 196.534 263.812C198.075 263.812 199.42 264.204 200.57 264.962C201.72 265.721 202.551 266.821 203.09 268.216H200.888C200.497 267.335 199.934 266.675 199.176 266.185C198.442 265.721 197.561 265.476 196.534 265.476C195.506 265.476 194.675 265.721 193.892 266.185C193.109 266.65 192.497 267.335 192.057 268.216C191.617 269.072 191.396 270.099 191.396 271.274C191.396 272.448 191.617 273.451 192.057 274.331C192.497 275.188 193.109 275.873 193.892 276.337C194.675 276.802 195.555 277.047 196.534 277.047C197.512 277.047 198.442 276.827 199.176 276.362C199.909 275.897 200.497 275.212 200.888 274.331H203.09C202.551 275.726 201.72 276.802 200.57 277.561C199.42 278.319 198.075 278.686 196.534 278.686C195.213 278.686 194.038 278.368 192.962 277.756C191.886 277.12 191.054 276.24 190.442 275.114C189.831 273.989 189.513 272.717 189.513 271.298V271.249Z" fill="white"/>
<path d="M216.642 278.535H214.856L212.875 274.034H207.444L205.463 278.535H203.677L210.159 264.176L216.642 278.535ZM212.214 272.542L210.159 267.967L208.105 272.542H212.19H212.214Z" fill="white"/>
<path d="M225.987 278.539H218.061V264.644H219.676V277.046H225.987V278.539Z" fill="white"/>
<path d="M240.885 278.686C239.955 278.686 239.123 278.515 238.365 278.197C237.631 277.854 237.068 277.365 236.653 276.778C236.237 276.166 236.017 275.457 235.992 274.674H237.949C238.022 275.359 238.292 275.946 238.756 276.411C239.246 276.876 239.955 277.096 240.86 277.096C241.765 277.096 242.426 276.876 242.915 276.435C243.429 275.97 243.673 275.383 243.673 274.674C243.673 274.111 243.527 273.671 243.233 273.304C242.939 272.962 242.573 272.692 242.108 272.521C241.667 272.35 241.056 272.154 240.297 271.934C239.368 271.689 238.61 271.445 238.047 271.176C237.484 270.931 237.02 270.54 236.604 270.002C236.212 269.463 236.016 268.729 236.016 267.824C236.016 267.042 236.212 266.332 236.604 265.721C236.995 265.109 237.533 264.644 238.243 264.302C238.952 263.959 239.784 263.812 240.689 263.812C242.01 263.812 243.086 264.155 243.918 264.84C244.774 265.525 245.239 266.43 245.361 267.555H243.331C243.258 266.993 242.988 266.503 242.475 266.088C241.985 265.647 241.3 265.427 240.493 265.427C239.735 265.427 239.099 265.647 238.61 266.063C238.12 266.479 237.876 267.042 237.876 267.775C237.876 268.314 238.022 268.73 238.292 269.072C238.585 269.414 238.952 269.659 239.368 269.855C239.808 270.026 240.395 270.222 241.178 270.442C242.108 270.711 242.866 270.98 243.429 271.225C243.991 271.469 244.481 271.861 244.896 272.423C245.312 272.962 245.508 273.671 245.508 274.601C245.508 275.31 245.337 275.97 244.97 276.606C244.603 277.243 244.065 277.732 243.355 278.123C242.646 278.515 241.79 278.71 240.836 278.71L240.885 278.686Z" fill="white"/>
<path d="M258.669 272.961C258.669 274.698 258.155 276.092 257.128 277.169C256.101 278.221 254.853 278.734 253.361 278.734C251.869 278.734 250.621 278.221 249.594 277.169C248.566 276.117 248.052 274.722 248.052 272.961V264.644H249.667V272.839C249.667 274.135 250.009 275.187 250.694 275.97C251.379 276.753 252.26 277.144 253.336 277.144C254.413 277.144 255.293 276.753 255.978 275.97C256.663 275.187 257.006 274.135 257.006 272.839V264.644H258.62V272.961H258.669Z" fill="white"/>
<path d="M277.799 278.535H276.111L273.053 268.799L269.139 279L265.225 268.799L262.167 278.535H260.479L265.103 264.176L269.139 274.719L273.2 264.176L277.799 278.535Z" fill="white"/>
<path d="M295.461 278.535H293.773L290.715 268.799L286.801 279L282.887 268.799L279.829 278.535H278.141L282.765 264.176L286.801 274.719L290.862 264.176L295.461 278.535Z" fill="white"/>
<path d="M299.179 278.539H297.565V264.644H299.179V278.539Z" fill="white"/>
<path d="M310.628 266.136H306.763V278.539H305.148V266.136H301.283V264.644H310.628V266.136Z" fill="white"/>
<path d="M236.034 97.6554C234.356 94.5306 229.747 94.535 228.062 97.6546C227.467 98.7562 226.858 99.8602 226.236 100.965C212.902 124.664 206.199 148.205 202.84 165.848C201.774 171.45 201.048 176.438 200.555 180.626C200.533 180.808 200.674 180.974 200.86 180.974H235.137C240.678 180.974 245.075 176.501 244.741 171.202L240.687 107.046C240.65 106.454 240.488 105.876 240.212 105.351C239.437 103.88 238.642 102.402 237.817 100.92C237.211 99.8284 236.616 98.7398 236.034 97.6554Z" fill="#A1BB94"/>
<path d="M234.48 8.78635C234.171 3.92188 229.964 0.126953 224.876 0.126953H200.86C199.506 0.126953 198.218 0.395769 197.05 0.87892C196.976 0.909926 196.929 0.982233 196.928 1.06231C196.926 1.21319 196.922 1.41805 196.915 1.67561C196.902 2.18904 196.878 2.91333 196.831 3.833C196.735 5.67283 196.549 8.30121 196.185 11.6137C195.473 18.057 194.081 27.1036 191.365 37.9919C191.281 38.3303 191.238 38.6792 191.238 39.0278V109.545C191.238 114.48 199.492 115.858 201.462 111.327C204.347 104.693 207.665 97.9282 211.482 91.1441C215.542 83.9276 218.984 76.7851 221.904 69.863C222.327 68.8623 222.336 67.739 221.953 66.7236C216.819 53.1156 213.514 40.8064 211.389 30.5867C209.491 21.4503 208.531 13.9736 208.045 8.71826C207.803 6.08961 207.679 4.01316 207.617 2.56004C207.583 1.83398 207.569 1.26297 207.561 0.855746C207.556 0.651646 207.554 0.487828 207.552 0.367468C207.55 0.307898 207.55 0.258849 207.55 0.220031V0.219268C207.55 0.199493 207.549 0.182132 207.549 0.167484V0.14164C207.549 0.137489 207.55 0.133057 216.2 0.133057C223.597 0.133057 224.667 0.130379 224.822 0.12867C224.835 0.127937 224.848 0.140907 224.848 0.153847C224.85 0.201942 224.85 0.290793 224.853 0.418966C224.859 0.677509 224.87 1.09697 224.894 1.66703C224.944 2.8074 225.047 4.55495 225.258 6.83886C225.68 11.4089 226.533 18.1215 228.261 26.4371C228.337 26.8023 228.415 27.17 228.494 27.5411C229.286 31.2454 234.138 31.2068 234.87 27.4896C235.046 26.5938 235.211 25.7145 235.37 24.8532C235.431 24.5172 235.45 24.1745 235.428 23.8334L234.48 8.78635Z" fill="#A1BB94"/>
<path d="M134.884 123.355C133.166 119.235 127.48 120.53 127.48 124.989V171.756C127.48 176.844 131.787 180.971 137.102 180.971H145.152C147.714 180.971 149.707 178.752 149.354 176.231C148.9 172.981 148.313 169.362 147.551 165.44C145.244 153.526 141.37 138.9 134.884 123.355Z" fill="#2E8656"/>
<path d="M171.979 180.971C177.292 180.971 181.6 176.845 181.6 171.756V90.5085C181.6 85.8086 174.521 84.3436 172.392 88.5405C167.387 98.4099 161.362 108.671 154.106 119.077C153.29 120.247 153.105 121.743 153.606 123.077C158.95 137.278 162.337 150.506 164.478 161.56C165.612 167.407 166.399 172.662 166.949 177.152C167.212 179.319 169.051 180.971 171.248 180.971H171.979Z" fill="#2E8656"/>
<path d="M178.3 2.39477C176.609 0.981447 174.398 0.125515 171.979 0.125515C156.113 0.125515 142.462 -0.165777 142.462 0.139153V0.214874C142.462 0.253692 142.462 0.303725 142.461 0.364027C142.46 0.483655 142.458 0.646481 142.454 0.848872C142.445 1.25463 142.428 1.82471 142.397 2.54907C142.334 3.9995 142.214 6.07319 141.976 8.69841C141.501 13.9486 140.559 21.4186 138.695 30.5479C136.586 40.884 133.291 53.3622 128.146 67.1621C127.765 68.1846 127.782 69.3145 128.214 70.3162C131.133 77.0762 134.561 84.0455 138.594 91.0865C139.373 92.4464 140.13 93.8065 140.868 95.1647C142.445 98.067 146.598 98.2884 148.318 95.4679C162.445 72.3101 170.194 50.6552 174.447 33.8975C177.06 23.606 178.353 15.165 178.992 9.37037C179.164 7.80446 179.288 6.43336 179.377 5.2715C179.46 4.19143 179.133 3.09252 178.3 2.39477Z" fill="#2E8656"/>
<path d="M265.606 98.433C265.606 102.689 259.3 104.04 257.384 100.233C257.125 99.7155 256.964 99.1144 256.953 98.5345L255.145 10.4863C255.041 5.39799 259.262 1.19151 264.576 1.09166C265.142 1.08043 265.606 1.53423 265.606 2.09673V98.433ZM258.368 167.381C258.313 164.735 261.637 164.293 262.16 166.889C262.679 169.469 263.118 171.904 263.493 174.182C264.015 177.365 260.751 179.444 259.354 176.534C258.818 175.416 258.508 174.178 258.481 172.871L258.368 167.381ZM299.447 0.435343C304.759 0.33549 309.151 4.37921 309.255 9.46657L312.589 171.852C312.695 176.94 308.472 181.147 303.16 181.246L287.275 181.545C284.875 181.591 282.906 179.669 282.906 177.285V4.92683C282.906 2.60483 284.777 0.711029 287.112 0.667084L299.447 0.435343Z" fill="#E0EAB8"/>
<path d="M44.4993 0.121155C49.8124 0.121155 54.1193 4.24665 54.12 9.33597V108.184C54.12 113.072 46.1383 114.466 44.1294 110.005C41.3223 103.771 38.1242 97.429 34.4784 91.0695C20.8663 67.3267 14.0568 44.4068 10.6568 27.4467C8.95912 18.9753 8.11774 12.0205 7.70071 7.23876C7.49305 4.85035 7.39045 3.00741 7.34036 1.79379C7.31642 1.1876 7.30421 0.736144 7.29908 0.454652C7.29835 0.418276 7.32326 0.386522 7.35869 0.377977C8.08427 0.210742 8.84259 0.121155 9.62168 0.121155H44.4993ZM0 83.5695C0 78.6911 7.92914 77.2918 9.94147 81.741C12.7976 88.0532 16.0633 94.5111 19.7984 101.026C33.3812 124.718 40.2054 148.246 43.6252 165.876C44.6051 170.927 45.2999 175.482 45.7963 179.397C45.8989 180.211 45.3241 180.967 44.4993 180.967H9.62168C4.30757 180.967 0 176.84 0 171.752V83.5695Z" fill="#066658"/>
<path d="M111.612 0.710235C115.262 2.01931 117.861 5.3894 117.861 9.34274V27.5731C117.861 29.5111 115.343 29.8048 114.963 27.9029C113.278 19.4894 112.442 12.5803 112.029 7.83203C111.823 5.46022 111.723 3.62994 111.673 2.42512C111.649 1.82307 111.637 1.376 111.63 1.09695C111.63 1.07888 111.624 1.06159 111.612 1.0445V0.710235ZM93.3404 0.127258C93.517 0.430235 93.6653 0.691253 93.754 0.870451C94.0359 1.43368 94.2634 2.51132 94.3902 3.20369C94.3902 3.22176 94.3919 3.24075 94.3926 3.25882C94.4539 4.75832 94.5746 6.90285 94.8099 9.60547C95.2804 15.01 96.2112 22.6691 98.0606 31.9063C100.09 42.0364 103.23 54.1002 108.092 67.188C108.47 68.2051 108.455 69.3292 108.029 70.3275C105.155 77.0642 101.802 84.0732 97.884 91.2528C96.7428 93.3456 95.6449 95.429 94.589 97.5013C92.4587 101.684 85.4389 100.222 85.4389 95.5333V2.71704C85.4389 1.2898 84.2745 0.133076 82.8387 0.133076C82.9179 0.131367 82.998 0.127258 83.0782 0.127258H93.3404ZM68.1407 170.812C68.1407 174.287 64.3994 175.545 64.2804 172.073C64.2709 171.804 64.2743 171.533 64.2899 171.261L68.1407 103.137V170.812ZM112.76 100.858C114.063 98.4701 117.861 99.3719 117.861 102.087V171.759C117.861 176.847 113.553 180.974 108.24 180.974H91.396C88.8174 180.974 86.8187 178.727 87.2013 176.193C87.6298 173.348 88.1631 170.225 88.8269 166.859C92.244 149.549 99.0845 125.922 112.76 100.858Z" fill="#41754F"/>
</svg>
