<?xml version="1.0" encoding="UTF-8"?>
<!DOCTYPE svg PUBLIC "-//W3C//DTD SVG 1.1//EN" "http://www.w3.org/Graphics/SVG/1.1/DTD/svg11.dtd">
<svg xmlns="http://www.w3.org/2000/svg" version="1.1" width="3240px" height="4056px" style="shape-rendering:geometricPrecision; text-rendering:geometricPrecision; image-rendering:optimizeQuality; fill-rule:evenodd; clip-rule:evenodd" xmlns:xlink="http://www.w3.org/1999/xlink">
<g><path style="opacity:1" fill="#fefefe" d="M -0.5,-0.5 C 200.5,-0.5 401.5,-0.5 602.5,-0.5C 614.363,32.587 626.53,65.587 639,98.5C 651.915,141.55 649.915,183.883 633,225.5C 513.594,503.982 382.594,776.982 240,1044.5C 176.884,1159.06 115.551,1274.72 56,1391.5C 41.7402,1415.59 22.9068,1435.26 -0.5,1450.5C -0.5,966.833 -0.5,483.167 -0.5,-0.5 Z"/></g>
<g><path style="opacity:1" fill="#eeeeee" d="M 602.5,-0.5 C 604.167,-0.5 605.833,-0.5 607.5,-0.5C 619.891,34.5027 632.391,69.5027 645,104.5C 655.352,144.171 653.352,183.171 639,221.5C 518.851,502.466 386.851,777.799 243,1047.5C 180.217,1161.39 119.217,1276.39 60,1392.5C 45.0987,1418.57 24.932,1439.57 -0.5,1455.5C -0.5,1453.83 -0.5,1452.17 -0.5,1450.5C 22.9068,1435.26 41.7402,1415.59 56,1391.5C 115.551,1274.72 176.884,1159.06 240,1044.5C 382.594,776.982 513.594,503.982 633,225.5C 649.915,183.883 651.915,141.55 639,98.5C 626.53,65.587 614.363,32.587 602.5,-0.5 Z"/></g>
<g><path style="opacity:1" fill="#fefefe" d="M 607.5,-0.5 C 675.5,-0.5 743.5,-0.5 811.5,-0.5C 782.212,56.144 753.379,113.144 725,170.5C 717.563,189.547 708.896,207.88 699,225.5C 685.597,256.683 671.597,287.683 657,318.5C 644.41,347.938 632.41,377.604 621,407.5C 614.642,419.895 609.642,432.895 606,446.5C 600.59,461.728 594.59,476.728 588,491.5C 582.098,510.776 575.432,529.776 568,548.5C 558.603,581.69 548.603,614.69 538,647.5C 530.868,677.284 523.201,706.951 515,736.5C 507.331,776.896 499.665,817.229 492,857.5C 489.296,877.754 487.296,898.088 486,918.5C 485.333,920.5 484.667,922.5 484,924.5C 483.667,932.167 483.333,939.833 483,947.5C 482.333,949.5 481.667,951.5 481,953.5C 480.667,966.167 480.333,978.833 480,991.5C 479.529,993.246 478.862,994.913 478,996.5C 477.333,1039.83 477.333,1083.17 478,1126.5C 478.862,1128.09 479.529,1129.75 480,1131.5C 480.333,1144.17 480.667,1156.83 481,1169.5C 481.667,1171.5 482.333,1173.5 483,1175.5C 483.333,1183.17 483.667,1190.83 484,1198.5C 484.667,1200.5 485.333,1202.5 486,1204.5C 487.433,1223.24 489.433,1241.9 492,1260.5C 504.726,1323.82 521.393,1386.15 542,1447.5C 550.255,1467.27 557.922,1487.27 565,1507.5C 576.724,1534.37 589.391,1560.7 603,1586.5C 604.773,1592.71 607.106,1598.71 610,1604.5C 625.639,1631.77 641.306,1659.1 657,1686.5C 666.997,1699.82 675.997,1713.82 684,1728.5C 685.667,1730.17 687.333,1731.83 689,1733.5C 696.356,1745 703.856,1756.34 711.5,1767.5C 455.385,2271.36 243.218,2793.02 75,3332.5C 49.0832,3417.07 23.9166,3501.74 -0.5,3586.5C -0.5,2876.17 -0.5,2165.83 -0.5,1455.5C 24.932,1439.57 45.0987,1418.57 60,1392.5C 119.217,1276.39 180.217,1161.39 243,1047.5C 386.851,777.799 518.851,502.466 639,221.5C 653.352,183.171 655.352,144.171 645,104.5C 632.391,69.5027 619.891,34.5027 607.5,-0.5 Z"/></g>
<g><path style="opacity:0.263" fill="#778a77" d="M 3239.5,1411.5 C 3239.5,1412.17 3239.5,1412.83 3239.5,1413.5C 3238.17,1412.83 3238.17,1412.17 3239.5,1411.5 Z"/></g>
<g><path style="opacity:1" fill="#eeeeee" d="M 711.5,1767.5 C 712.833,1768.17 713.833,1769.17 714.5,1770.5C 457.47,2275.83 244.97,2798.83 77,3339.5C 50.4128,3426.75 24.5794,3514.08 -0.5,3601.5C -0.5,3596.5 -0.5,3591.5 -0.5,3586.5C 23.9166,3501.74 49.0832,3417.07 75,3332.5C 243.218,2793.02 455.385,2271.36 711.5,1767.5 Z"/></g>
<g><path style="opacity:1" fill="#fefefe" d="M 714.5,1770.5 C 720.15,1779.78 726.316,1788.78 733,1797.5C 739.333,1804.83 745.667,1812.17 752,1819.5C 764.496,1837.34 778.496,1854 794,1869.5C 800.551,1879.06 808.218,1887.72 817,1895.5C 818.586,1897.67 819.92,1900 821,1902.5C 853.833,1935.33 886.667,1968.17 919.5,2001C 922.433,2002.27 925.099,2003.94 927.5,2006C 940.691,2018.1 953.691,2030.44 966.5,2043C 973.833,2048.33 981.167,2053.67 988.5,2059C 997.77,2067.96 1007.77,2075.96 1018.5,2083C 1021.83,2086.33 1025.17,2089.67 1028.5,2093C 1037.05,2097.77 1045.05,2103.27 1052.5,2109.5C 1052.5,2758.17 1052.5,3406.83 1052.5,4055.5C 701.5,4055.5 350.5,4055.5 -0.5,4055.5C -0.5,3904.17 -0.5,3752.83 -0.5,3601.5C 24.5794,3514.08 50.4128,3426.75 77,3339.5C 244.97,2798.83 457.47,2275.83 714.5,1770.5 Z"/></g>
<g><path style="opacity:1" fill="#fefefe" d="M 3239.5,2044.5 C 3239.5,2714.83 3239.5,3385.17 3239.5,4055.5C 3171.17,4055.5 3102.83,4055.5 3034.5,4055.5C 2926.86,3513.42 2775.7,2983.75 2581,2466.5C 2575.43,2450.28 2572.26,2433.61 2571.5,2416.5C 2598.53,2405.99 2624.86,2393.82 2650.5,2380C 2656.66,2378.92 2661.99,2376.25 2666.5,2372C 2680.52,2366.49 2694.18,2360.16 2707.5,2353C 2708.98,2351.43 2710.65,2350.09 2712.5,2349C 2742.35,2334.44 2771.68,2319.11 2800.5,2303C 2813.36,2294.07 2827.02,2286.4 2841.5,2280C 2847.5,2276 2853.5,2272 2859.5,2268C 2879.42,2257.54 2899.09,2246.88 2918.5,2236C 2928.18,2228.16 2938.84,2221.82 2950.5,2217C 2965.79,2205.74 2982.12,2196.07 2999.5,2188C 3007.82,2181.84 3016.49,2176.17 3025.5,2171C 3028.17,2170 3030.83,2169 3033.5,2168C 3048.81,2157.67 3064.81,2148.34 3081.5,2140C 3083.87,2137.29 3086.54,2134.96 3089.5,2133C 3104.48,2126.52 3118.48,2118.52 3131.5,2109C 3163.39,2091.56 3195.06,2073.89 3226.5,2056C 3230.52,2051.79 3234.85,2047.96 3239.5,2044.5 Z"/></g>
<g><path style="opacity:1" fill="#ededed" d="M 1052.5,2109.5 C 1053.83,2110.5 1055.17,2111.5 1056.5,2112.5C 1056.5,2760.17 1056.5,3407.83 1056.5,4055.5C 1055.17,4055.5 1053.83,4055.5 1052.5,4055.5C 1052.5,3406.83 1052.5,2758.17 1052.5,2109.5 Z"/></g>
<g><path style="opacity:1" fill="#fefefe" d="M 1056.5,2112.5 C 1072.14,2124.32 1087.8,2136.16 1103.5,2148C 1111.73,2151.28 1118.73,2156.28 1124.5,2163C 1127.83,2164.67 1131.17,2166.33 1134.5,2168C 1154.82,2182.16 1175.49,2195.83 1196.5,2209C 1223.83,2225 1251.17,2241 1278.5,2257C 1327.76,2283.13 1377.43,2308.46 1427.5,2333C 1445.34,2339.59 1462.68,2347.26 1479.5,2356C 1508.73,2368.11 1538.06,2379.95 1567.5,2391.5C 1507.88,2420.36 1474.38,2468.03 1467,2534.5C 1466.5,3041.5 1466.33,3548.5 1466.5,4055.5C 1329.83,4055.5 1193.17,4055.5 1056.5,4055.5C 1056.5,3407.83 1056.5,2760.17 1056.5,2112.5 Z"/></g>
<g><path style="opacity:1" fill="#eeeeee" d="M 1567.5,2391.5 C 1569.79,2391.59 1571.79,2392.26 1573.5,2393.5C 1512.32,2420.92 1478.15,2468.25 1471,2535.5C 1470.5,3042.17 1470.33,3548.83 1470.5,4055.5C 1469.17,4055.5 1467.83,4055.5 1466.5,4055.5C 1466.33,3548.5 1466.5,3041.5 1467,2534.5C 1474.38,2468.03 1507.88,2420.36 1567.5,2391.5 Z"/></g>
<g><path style="opacity:1" fill="#fefefe" d="M 1573.5,2393.5 C 1596.45,2401.97 1619.45,2410.47 1642.5,2419C 1669.63,2427.74 1696.63,2436.74 1723.5,2446C 1737.03,2449.31 1750.36,2453.14 1763.5,2457.5C 1767.56,2464.62 1771.4,2471.96 1775,2479.5C 1987.51,2989.86 2152.67,3515.19 2270.5,4055.5C 2003.83,4055.5 1737.17,4055.5 1470.5,4055.5C 1470.33,3548.83 1470.5,3042.17 1471,2535.5C 1478.15,2468.25 1512.32,2420.92 1573.5,2393.5 Z"/></g>
<g><path style="opacity:1" fill="#eeeeee" d="M 2571.5,2416.5 C 2572.26,2433.61 2575.43,2450.28 2581,2466.5C 2775.7,2983.75 2926.86,3513.42 3034.5,4055.5C 3033.17,4055.5 3031.83,4055.5 3030.5,4055.5C 2922.59,3514.94 2771.76,2986.6 2578,2470.5C 2572,2453.69 2568.5,2436.35 2567.5,2418.5C 2568.83,2417.83 2570.17,2417.17 2571.5,2416.5 Z"/></g>
<g><path style="opacity:1" fill="#fefefe" d="M 2567.5,2418.5 C 2568.5,2436.35 2572,2453.69 2578,2470.5C 2771.76,2986.6 2922.59,3514.94 3030.5,4055.5C 2778.83,4055.5 2527.17,4055.5 2275.5,4055.5C 2165.51,3553.68 2015.01,3064.34 1824,2587.5C 1809.53,2551.75 1794.86,2516.09 1780,2480.5C 1776.41,2472.98 1772.58,2465.65 1768.5,2458.5C 1815.22,2471.51 1862.22,2483.68 1909.5,2495C 1945,2502.73 1980.67,2509.39 2016.5,2515C 2023.68,2514.94 2030.68,2515.94 2037.5,2518C 2095.5,2521.31 2153.5,2521.31 2211.5,2518C 2213.5,2517.33 2215.5,2516.67 2217.5,2516C 2229.5,2514.67 2241.5,2513.33 2253.5,2512C 2255.25,2511.53 2256.91,2510.86 2258.5,2510C 2274.5,2507.67 2290.5,2505.33 2306.5,2503C 2396.31,2483.34 2483.31,2455.17 2567.5,2418.5 Z"/></g>
<g><path style="opacity:1" fill="#eeeeee" d="M 1763.5,2457.5 C 1765.41,2457.22 1767.08,2457.55 1768.5,2458.5C 1772.58,2465.65 1776.41,2472.98 1780,2480.5C 1794.86,2516.09 1809.53,2551.75 1824,2587.5C 2015.01,3064.34 2165.51,3553.68 2275.5,4055.5C 2273.83,4055.5 2272.17,4055.5 2270.5,4055.5C 2152.67,3515.19 1987.51,2989.86 1775,2479.5C 1771.4,2471.96 1767.56,2464.62 1763.5,2457.5 Z"/></g>
</svg>
