<svg width="405" height="201" viewBox="0 0 405 201" fill="none" xmlns="http://www.w3.org/2000/svg">
<mask id="mask0_227_32042" style="mask-type:alpha" maskUnits="userSpaceOnUse" x="0" y="0" width="405" height="201">
<rect width="405" height="201" rx="12" fill="white"/>
</mask>
<g mask="url(#mask0_227_32042)">
<path d="M421.5 617.154C421.094 617.164 420.689 617.172 420.282 617.172H416.394C404.947 617.172 395.369 608.561 393.992 597.261C391.07 573.331 386.876 545.313 380.838 514.15C369.428 455.23 351.392 384.719 322.923 309.025C320.39 302.289 321.219 294.763 325.139 288.752L325.528 288.175C363.491 233.692 395.123 179.953 421.5 128.21V617.154Z" stroke="#EDEDED"/>
<path d="M275.8 -346.037C283.929 -346.12 295.651 -346.079 310.017 -345.986C338.745 -345.802 378.039 -345.414 420.282 -345.414C420.689 -345.414 421.095 -345.408 421.5 -345.398V-124.417C397.226 -42.2125 357.833 56.9088 293.87 161.832C284.924 176.509 263.298 175.388 255.071 160.236C251.141 152.999 247.102 145.75 242.952 138.5C221.49 101.002 203.244 63.8834 187.713 27.8828C185.462 22.6665 185.374 16.7788 187.359 11.4482C214.76 -62.1072 232.316 -128.622 243.551 -183.713C253.475 -232.379 258.496 -272.197 261.03 -300.186C262.298 -314.183 262.937 -325.241 263.269 -332.976C263.434 -336.84 263.529 -339.879 263.574 -342.046C263.597 -343.13 263.605 -343.999 263.611 -344.638V-344.639C263.614 -344.955 263.617 -345.224 263.618 -345.432V-345.541C263.718 -345.563 263.852 -345.589 264.024 -345.613C264.555 -345.688 265.36 -345.754 266.433 -345.811C268.574 -345.923 271.734 -345.996 275.8 -346.037Z" stroke="#EDEDED"/>
<path d="M105.386 191.044C108.726 184.918 115.266 182.996 121.011 184.372C126.754 185.748 131.607 190.396 131.607 197.356V568.585C131.607 595.403 108.913 617.182 80.876 617.182H-8.81055C-11.1496 617.182 -13.3953 616.824 -15.5 616.168V511.827C4.40734 423.335 40.3901 310.246 105.386 191.044ZM1.27148 -345.403C1.91389 -344.296 2.47276 -343.306 2.89941 -342.508L3.30469 -341.727C4.02544 -340.285 4.69092 -338.157 5.2627 -335.904C5.82872 -333.674 6.29413 -331.354 6.62988 -329.521L6.64355 -329.195C6.97025 -321.201 7.61384 -309.771 8.86719 -295.359C11.3728 -266.549 16.3381 -225.721 26.1904 -176.483C36.9959 -122.488 53.7241 -58.1781 79.6201 11.584C81.5894 16.8912 81.509 22.7434 79.293 27.9424C63.9984 63.8236 46.1484 101.154 25.2979 139.392C19.2164 150.546 13.3688 161.651 7.74707 172.696C3.03006 181.964 -6.29166 185.927 -15.5 185.524V-345.403H1.27148ZM99.3369 -342.082C118.236 -335.005 131.606 -317.394 131.607 -296.807V-199.67C131.607 -194.762 128.447 -192.002 125.093 -191.615C121.744 -191.229 118.125 -193.199 117.163 -198.006C108.195 -242.82 103.749 -279.613 101.55 -304.897C100.452 -317.527 99.9186 -327.266 99.6562 -333.679C99.5257 -336.884 99.4633 -339.266 99.4336 -340.748L99.4189 -340.9C99.4029 -340.988 99.3735 -341.07 99.3369 -341.147V-342.082Z" stroke="#EDEDED"/>
</g>
</svg>
