<svg width="685" height="253" viewBox="0 0 685 253" fill="none" xmlns="http://www.w3.org/2000/svg">
<path d="M260.416 107.54C258.574 104.095 253.5 104.095 251.658 107.54C250.992 108.742 250.326 109.971 249.659 111.169C235.003 137.253 227.633 163.147 223.922 182.554C222.747 188.722 221.945 194.219 221.415 198.811C221.415 199.028 221.545 199.186 221.735 199.186H259.43C265.513 199.186 270.349 194.273 269.998 188.429L265.539 117.846C265.486 117.202 265.329 116.563 265.008 115.978C264.153 114.348 263.27 112.718 262.365 111.092C261.699 109.89 261.056 108.687 260.416 107.485V107.54Z" fill="#9FB992"/>
<path d="M221.735 0.225098C220.239 0.225098 218.826 0.51763 217.542 1.05357C217.465 1.0804 217.412 1.16202 217.412 1.26558V1.93153C217.412 2.49468 217.358 3.29594 217.303 4.30809C217.196 6.33883 216.984 9.22074 216.584 12.8774C215.809 19.9777 214.261 29.9099 211.27 41.8959C211.19 42.2701 211.135 42.6438 211.135 43.0449V120.646C211.135 126.068 220.212 127.59 222.374 122.597C225.552 115.312 229.209 107.864 233.4 100.385C237.859 92.4565 241.649 84.5815 244.856 76.9759C245.306 75.8768 245.333 74.6262 244.905 73.5309C239.244 58.5561 235.616 45.0215 233.292 33.7555C231.213 23.688 230.146 15.4656 229.61 9.70337C229.344 6.81619 229.209 4.52013 229.127 2.92214C229.1 2.12051 229.078 1.50409 229.078 1.05357V0.517605V0.360408V0.305597C226.628 0.278763 224.179 0.251932 221.735 0.225098Z" fill="#9ABC90"/>
<path d="M149.176 135.839C147.279 131.301 141.034 132.741 141.034 137.626V189.095C141.034 194.702 145.757 199.241 151.607 199.241H160.467C163.272 199.241 165.488 196.813 165.087 194.034C164.578 190.459 163.939 186.48 163.11 182.157C160.576 169.05 156.303 152.953 149.176 135.839Z" fill="#2E8456"/>
<path d="M189.968 199.24C195.812 199.24 200.54 194.701 200.54 189.094V99.6916C200.54 94.5137 192.747 92.9108 190.423 97.5309C184.922 108.395 178.303 119.688 170.319 131.138C169.414 132.42 169.225 134.079 169.76 135.547C175.632 151.161 179.37 165.735 181.719 177.883C182.976 184.317 183.826 190.108 184.444 195.047C184.737 197.425 186.767 199.24 189.167 199.24H189.968Z" fill="#2E8456"/>
<path d="M196.935 2.73336C195.066 1.18375 192.635 0.225286 189.991 0.225286C172.535 0.225286 157.532 -0.09484 157.532 0.225286V0.301984V0.464127V1.00009C157.532 1.45439 157.505 2.06703 157.478 2.86867C157.397 4.46665 157.266 6.73588 157.022 9.62155C156.491 15.3857 155.474 23.6066 153.421 33.6752C151.098 45.0437 147.468 58.7679 141.809 73.9601C141.381 75.0807 141.408 76.3329 141.89 77.4267C145.092 84.8739 148.855 92.5368 153.314 100.282C154.168 101.776 154.997 103.271 155.822 104.767C157.559 107.968 162.124 108.206 164.021 105.112C179.553 79.6154 188.073 55.8055 192.742 37.3576C195.624 26.0379 197.042 16.7501 197.736 10.3695C197.92 8.63131 198.055 7.13688 198.164 5.85789C198.244 4.65562 197.893 3.45335 196.988 2.67855L196.935 2.73336Z" fill="#008851"/>
<path d="M292.933 108.395C292.933 113.069 285.991 114.564 283.884 110.372C283.59 109.809 283.429 109.143 283.402 108.504L281.43 11.6253C281.321 6.01455 285.968 1.39935 291.786 1.29201C292.399 1.29201 292.906 1.77353 292.906 2.38619V108.395H292.933ZM284.978 184.264C284.923 181.355 288.585 180.874 289.142 183.733C289.705 186.56 290.183 189.257 290.61 191.765C291.2 195.263 287.593 197.561 286.072 194.354C285.486 193.129 285.14 191.765 285.113 190.325L284.978 184.291V184.264ZM330.147 0.571244C335.993 0.463906 340.823 4.92603 340.932 10.5046L344.593 189.176C344.696 194.782 340.054 199.402 334.231 199.509L316.775 199.83C314.132 199.884 311.966 197.771 311.966 195.129V5.48352C311.966 2.92214 314.025 0.83771 316.586 0.788198L330.147 0.517578V0.571244Z" fill="#DEEAB2"/>
<path d="M49.7893 0.225098C55.6377 0.225098 60.3614 4.76391 60.3614 10.3693V119.125C60.3614 124.492 51.5762 126.04 49.3618 121.129C46.2679 114.266 42.7696 107.301 38.7353 100.309C23.7601 74.1704 16.286 48.9693 12.5488 30.3109C10.6802 20.9947 9.74745 13.3317 9.29278 8.07326C9.05429 5.4567 8.94582 3.42634 8.89215 2.09368C8.86531 1.42734 8.86531 0.918239 8.83848 0.626082C8.83848 0.599247 8.86531 0.544438 8.89215 0.544438C9.69378 0.360375 10.5219 0.251931 11.3734 0.251931H49.736L49.7893 0.225098ZM0.85498 92.0593C0.85498 86.6923 9.58531 85.1443 11.8009 90.0558C14.9522 96.995 18.5273 104.095 22.6383 111.277C37.5916 137.36 45.0925 163.227 48.8297 182.634C49.8978 188.19 50.6714 193.206 51.2036 197.505C51.3109 198.411 50.6983 199.24 49.7893 199.24H11.4271C5.58279 199.24 0.85498 194.701 0.85498 189.094V92.0593Z" fill="#003932"/>
<path d="M124.856 111.065C126.298 108.449 130.462 109.436 130.462 112.425V189.095C130.462 194.702 125.739 199.241 119.89 199.241H101.362C98.535 199.241 96.3191 196.759 96.7469 193.981C97.2292 190.86 97.8139 187.417 98.535 183.706C102.299 164.642 109.8 138.671 124.856 111.065Z" fill="#41754F"/>
<path d="M75.792 188.028C75.792 191.847 71.681 193.232 71.5457 189.415V188.537L75.792 113.573V188.028Z" fill="#41754F"/>
<path d="M103.501 0.225244C103.69 0.544614 103.847 0.837902 103.956 1.05371C104.276 1.66637 104.513 2.86862 104.648 3.61545V3.66875C104.725 5.32191 104.834 7.67279 105.099 10.662C105.608 16.6148 106.652 25.0258 108.679 35.1968C110.922 46.3544 114.365 59.6231 119.705 74.0137C120.133 75.1343 120.106 76.3597 119.625 77.4535C116.472 84.8776 112.762 92.592 108.467 100.493C107.211 102.79 106.009 105.086 104.834 107.382C102.483 111.97 94.7698 110.372 94.7698 105.216V3.07916C95.3148 2.44873 96.3995 1.35986 98.12 0.656863C100.529 -0.333751 102.686 0.040425 103.501 0.225244Z" fill="#2C774B"/>
<path d="M123.601 0.864746C127.603 2.30588 130.462 6.01471 130.462 10.3695V30.4142C130.462 32.5534 127.683 32.8739 127.283 30.7884C125.442 21.5274 124.509 13.9177 124.055 8.71291C123.839 6.09635 123.708 4.09773 123.654 2.76016C123.627 2.09383 123.627 1.61156 123.601 1.29219V1.23738V0.864746Z" fill="#41754F"/>
<path d="M258.71 10.0496C258.363 4.68268 253.744 0.522949 248.138 0.522949C248.11 0.5358 248.083 0.553528 248.056 0.57167C248.056 0.57167 248.083 0.571679 248.083 0.599647V0.895587C248.083 1.18926 248.083 1.64356 248.138 2.25622C248.192 3.51215 248.3 5.43066 248.539 7.94215C248.993 12.9583 249.952 20.356 251.847 29.5096C251.929 29.9103 252.009 30.3113 252.118 30.7388C252.996 34.8229 258.309 34.7692 259.138 30.6851C259.322 29.6997 259.511 28.7363 259.695 27.7763C259.75 27.4025 259.777 27.0299 259.75 26.6557L258.71 10.1044V10.0496Z" fill="#9FB992"/>
<path d="M395.791 43.3873H400.285C413.68 43.3873 420.38 38.6009 420.38 29.0194C420.38 20.0457 413.86 15.5605 400.83 15.5605H395.791V43.3873ZM413.397 53.4371L442.415 90.8037H425.112L398.34 54.9137H395.791V90.8037H381.644V3.12549H398.218C410.604 3.12549 419.547 5.30403 425.054 9.65388C431.122 14.5026 434.157 20.901 434.157 28.8486C434.157 35.058 432.257 40.3981 428.452 44.8639C424.648 49.331 419.628 52.1898 413.397 53.4371Z" fill="black" stroke="black" stroke-width="0.755906" stroke-miterlimit="22.9256" stroke-linecap="round" stroke-linejoin="round"/>
<path d="M395.791 43.3873H400.285C413.68 43.3873 420.38 38.6009 420.38 29.0194C420.38 20.0457 413.86 15.5605 400.83 15.5605H395.791V43.3873ZM413.397 53.4371L442.415 90.8037H425.112L398.34 54.9137H395.791V90.8037H381.644V3.12549H398.218C410.604 3.12549 419.547 5.30403 425.054 9.65388C431.122 14.5026 434.157 20.901 434.157 28.8486C434.157 35.058 432.257 40.3981 428.452 44.8639C424.648 49.331 419.628 52.1898 413.397 53.4371Z" fill="black" stroke="black" stroke-width="0.666709" stroke-miterlimit="10"/>
<path d="M506.357 15.5605H468.778V36.6291H505.263V49.0656H468.778V78.3672H506.357V90.8037H454.631V3.12549H506.357V15.5605Z" fill="black" stroke="black" stroke-width="0.755906" stroke-miterlimit="22.9256" stroke-linecap="round" stroke-linejoin="round"/>
<path d="M506.357 15.5605H468.778V36.6291H505.263V49.0656H468.778V78.3672H506.357V90.8037H454.631V3.12549H506.357V15.5605Z" fill="black" stroke="black" stroke-width="0.666709" stroke-miterlimit="10"/>
<path d="M576.071 16.1867L564.598 22.548C562.45 19.0637 560.406 16.7945 558.465 15.7313C556.44 14.5199 553.832 13.9175 550.635 13.9175C546.709 13.9175 543.449 14.9576 540.86 17.0367C538.266 19.0814 536.975 21.6572 536.975 24.764C536.975 29.042 540.373 32.4855 547.172 35.0968L556.52 38.6719C564.13 41.5537 569.694 45.0612 573.216 49.2081C576.737 53.3561 578.497 58.4384 578.497 64.4536C578.497 72.5187 575.624 79.1824 569.879 84.4461C564.089 89.7454 556.907 92.3975 548.325 92.3975C540.189 92.3975 533.471 90.146 528.172 85.6393C522.949 81.1315 519.693 74.7921 518.396 66.6158L532.724 63.6625C533.373 68.8125 534.502 72.3694 536.123 74.3374C539.037 78.1245 543.287 80.0146 548.87 80.0146C553.284 80.0146 556.948 78.6324 559.861 75.873C562.774 73.1083 564.233 69.6051 564.233 65.3637C564.233 63.6625 563.977 62.0989 563.472 60.6808C562.968 59.2578 562.176 57.952 561.103 56.7599C560.033 55.5705 558.645 54.4537 556.948 53.4098C555.246 52.3693 553.225 51.3737 550.874 50.4281L541.832 46.9082C529 41.8372 522.584 34.418 522.584 24.6464C522.584 18.0591 525.277 12.5531 530.662 8.12194C536.043 3.65606 542.742 1.42236 550.752 1.42236C561.563 1.42236 570.001 6.34367 576.071 16.1867Z" fill="black" stroke="black" stroke-width="0.755906" stroke-miterlimit="22.9256" stroke-linecap="round" stroke-linejoin="round"/>
<path d="M576.071 16.1867L564.598 22.548C562.45 19.0637 560.406 16.7945 558.465 15.7313C556.44 14.5199 553.832 13.9175 550.635 13.9175C546.709 13.9175 543.449 14.9576 540.86 17.0367C538.266 19.0814 536.975 21.6572 536.975 24.764C536.975 29.042 540.373 32.4855 547.172 35.0968L556.52 38.6719C564.13 41.5537 569.694 45.0612 573.216 49.2081C576.737 53.3561 578.497 58.4384 578.497 64.4536C578.497 72.5187 575.624 79.1824 569.879 84.4461C564.089 89.7454 556.907 92.3975 548.325 92.3975C540.189 92.3975 533.471 90.146 528.172 85.6393C522.949 81.1315 519.693 74.7921 518.396 66.6158L532.724 63.6625C533.373 68.8125 534.502 72.3694 536.123 74.3374C539.037 78.1245 543.287 80.0146 548.87 80.0146C553.284 80.0146 556.948 78.6324 559.861 75.873C562.774 73.1083 564.233 69.6051 564.233 65.3637C564.233 63.6625 563.977 62.0989 563.472 60.6808C562.968 59.2578 562.176 57.952 561.103 56.7599C560.033 55.5705 558.645 54.4537 556.948 53.4098C555.246 52.3693 553.225 51.3737 550.874 50.4281L541.832 46.9082C529 41.8372 522.584 34.418 522.584 24.6464C522.584 18.0591 525.277 12.5531 530.662 8.12194C536.043 3.65606 542.742 1.42236 550.752 1.42236C561.563 1.42236 570.001 6.34367 576.071 16.1867Z" fill="black" stroke="black" stroke-width="0.666709" stroke-miterlimit="10"/>
<path d="M601.528 50.4871V39.9244H628.242V15.3945H639.471V39.9244H666.186V50.4871H639.471V75.0181H628.242V50.4871H601.528Z" fill="black" stroke="black" stroke-width="0.755906" stroke-miterlimit="22.9256" stroke-linecap="round" stroke-linejoin="round"/>
<path d="M601.528 50.4871V39.9244H628.242V15.3945H639.471V39.9244H666.186V50.4871H639.471V75.0181H628.242V50.4871H601.528Z" fill="black" stroke="black" stroke-width="0.666709" stroke-miterlimit="10"/>
<path d="M433.37 121.737H395.791V142.804H432.276V155.24H395.791V184.543H433.37V196.98H381.644V109.3H433.37V121.737Z" fill="#2E8456"/>
<path d="M433.37 121.737H395.791V142.804H432.276V155.24H395.791V184.543H433.37V196.98H381.644V109.3H433.37V121.737Z" stroke="#008851" stroke-width="0.666709" stroke-miterlimit="10"/>
<path d="M469.692 151.153L443.892 109.3H459.98L477.887 138.999L496.708 109.3H512.917L485.901 151.153L514.255 196.98H498.405L477.643 163.418L456.275 196.98H440.245L469.692 151.153Z" fill="#2E8456"/>
<path d="M469.692 151.153L443.892 109.3H459.98L477.887 138.999L496.708 109.3H512.917L485.901 151.153L514.255 196.98H498.405L477.643 163.418L456.275 196.98H440.245L469.692 151.153Z" stroke="#008851" stroke-width="0.666709" stroke-miterlimit="10"/>
<path d="M539.158 149.108H544.44C557.434 149.108 563.927 144.434 563.927 135.082C563.927 126.032 557.227 121.507 543.832 121.507H539.158V149.108ZM539.158 161.373V196.98H525.011V109.3H541.041C548.893 109.3 554.822 109.81 558.83 110.832C562.874 111.853 566.44 113.785 569.514 116.627C574.895 121.548 577.587 127.757 577.587 135.253C577.587 143.277 574.715 149.64 568.965 154.33C563.219 159.027 555.467 161.373 545.713 161.373H539.158Z" fill="#2E8456"/>
<path d="M539.158 149.108H544.44C557.434 149.108 563.927 144.434 563.927 135.082C563.927 126.032 557.227 121.507 543.832 121.507H539.158V149.108ZM539.158 161.373V196.98H525.011V109.3H541.041C548.893 109.3 554.822 109.81 558.83 110.832C562.874 111.853 566.44 113.785 569.514 116.627C574.895 121.548 577.587 127.757 577.587 135.253C577.587 143.277 574.715 149.64 568.965 154.33C563.219 159.027 555.467 161.373 545.713 161.373H539.158Z" stroke="#008851" stroke-width="0.666709" stroke-miterlimit="10"/>
<path d="M599.885 152.912C599.885 162.607 603.365 170.572 610.326 176.822C617.246 183.067 625.239 186.191 634.307 186.191C644.141 186.191 652.439 183.012 659.197 176.651C665.956 170.216 669.337 162.378 669.337 153.142C669.337 143.79 665.996 135.951 659.319 129.63C652.682 123.272 644.465 120.089 634.672 120.089C624.92 120.089 616.68 123.272 609.961 129.63C603.244 135.916 599.885 143.673 599.885 152.912ZM585.62 152.741C585.62 140.4 590.456 129.801 600.129 120.939C609.758 112.083 621.334 107.652 634.852 107.652C648.211 107.652 659.665 112.12 669.216 121.056C678.806 129.989 683.607 140.725 683.607 153.254C683.607 165.862 678.788 176.556 669.157 185.34C659.481 194.16 647.805 198.569 634.127 198.569C622.024 198.569 611.155 194.652 601.524 186.817C590.92 178.145 585.62 166.79 585.62 152.741Z" fill="#2E8456"/>
<path d="M599.885 152.912C599.885 162.607 603.365 170.572 610.326 176.822C617.246 183.067 625.239 186.191 634.307 186.191C644.141 186.191 652.439 183.012 659.197 176.651C665.956 170.216 669.337 162.378 669.337 153.142C669.337 143.79 665.996 135.951 659.319 129.63C652.682 123.272 644.465 120.089 634.672 120.089C624.92 120.089 616.68 123.272 609.961 129.63C603.244 135.916 599.885 143.673 599.885 152.912ZM585.62 152.741C585.62 140.4 590.456 129.801 600.129 120.939C609.758 112.083 621.334 107.652 634.852 107.652C648.211 107.652 659.665 112.12 669.216 121.056C678.806 129.989 683.607 140.725 683.607 153.254C683.607 165.862 678.788 176.556 669.157 185.34C659.481 194.16 647.805 198.569 634.127 198.569C622.024 198.569 611.155 194.652 601.524 186.817C590.92 178.145 585.62 166.79 585.62 152.741Z" stroke="#008851" stroke-width="0.666709" stroke-miterlimit="10"/>
<path d="M3.552 239.047H4.68284C8.04586 239.047 9.72548 237.845 9.72548 235.44C9.72548 233.184 8.09046 232.058 4.81663 232.058H3.552V239.047ZM7.97329 241.573L15.2583 250.952H10.9138L4.1915 241.942H3.552V250.952H0V228.939H4.15937C7.27106 228.939 9.51761 229.484 10.8998 230.578C12.4226 231.793 13.1883 233.401 13.1883 235.396C13.1883 236.958 12.7109 238.294 11.7562 239.416C10.7962 240.542 9.5365 241.258 7.97329 241.573Z" fill="black"/>
<path d="M31.3145 232.059H21.8774V237.35H31.0401V240.47H21.8774V247.828H31.3145V250.952H18.3254V228.934H31.3145V232.059Z" fill="black"/>
<path d="M47.6144 239.488H57.3399V240.218C57.3399 241.871 57.1331 243.334 56.7147 244.607C56.3088 245.788 55.6247 246.891 54.656 247.917C52.4722 250.218 49.6897 251.367 46.3176 251.367C43.026 251.367 40.2027 250.254 37.8568 248.03C35.5112 245.797 34.3369 243.113 34.3369 239.988C34.3369 236.796 35.529 234.085 37.9207 231.861C40.3063 229.628 43.215 228.512 46.6366 228.512C48.4784 228.512 50.1939 228.863 51.793 229.565C53.3147 230.267 54.814 231.411 56.2858 232.986L53.7561 235.256C51.8289 232.847 49.4739 231.645 46.7005 231.645C44.2106 231.645 42.1212 232.45 40.4325 234.053C38.7491 235.635 37.9067 237.611 37.9067 239.988C37.9067 242.443 38.8436 244.459 40.7247 246.048C42.481 247.521 44.3867 248.259 46.439 248.259C48.1862 248.259 49.7574 247.706 51.1486 246.602C52.5448 245.491 53.3196 244.162 53.4817 242.614H47.6144V239.488Z" fill="black"/>
<path d="M64.8906 250.952H61.3386V228.934H64.8906V250.952Z" fill="black"/>
<path d="M72.4866 239.885C72.4866 242.32 73.3608 244.32 75.1118 245.886C76.8451 247.457 78.8539 248.241 81.1322 248.241C83.5995 248.241 85.6835 247.44 87.3813 245.847C89.0787 244.23 89.9249 242.261 89.9249 239.944C89.9249 237.593 89.0877 235.625 87.4081 234.041C85.7425 232.441 83.6796 231.645 81.2214 231.645C78.7723 231.645 76.706 232.441 75.0173 234.041C73.3286 235.616 72.4866 237.566 72.4866 239.885ZM68.9077 239.839C68.9077 236.741 70.1187 234.08 72.55 231.857C74.9674 229.632 77.8724 228.521 81.2675 228.521C84.6219 228.521 87.4985 229.641 89.8943 231.888C92.3026 234.13 93.5102 236.823 93.5102 239.971C93.5102 243.136 92.2988 245.824 89.8803 248.026C87.4489 250.241 84.5183 251.348 81.0823 251.348C78.0474 251.348 75.3186 250.366 72.9012 248.399C70.2362 246.219 68.9077 243.37 68.9077 239.839Z" fill="black"/>
<path d="M97.5073 250.952V227.439L114.671 244.238V228.934H118.225V252.293L101.061 235.539V250.952H97.5073Z" fill="black"/>
<path d="M135.955 242.482L132.466 234.995L128.806 242.482H135.955ZM137.405 245.608H127.329L124.703 250.952H120.881L132.525 227.552L143.759 250.952H139.872L137.405 245.608Z" fill="black"/>
<path d="M149.787 228.934V247.828H156.707V250.952H146.235V228.934H149.787Z" fill="black"/>
<path d="M181.76 232.059H172.323V237.35H181.486V240.47H172.323V247.828H181.76V250.952H168.77V228.934H181.76V232.059Z" fill="black"/>
<path d="M203.351 230.118V234.053C201.297 232.446 199.172 231.645 196.979 231.645C194.561 231.645 192.521 232.455 190.864 234.08C189.199 235.697 188.365 237.674 188.365 240.015C188.365 242.325 189.199 244.274 190.864 245.859C192.53 247.448 194.575 248.241 196.992 248.241C198.244 248.241 199.307 248.052 200.18 247.669C200.666 247.48 201.171 247.224 201.697 246.899C202.22 246.58 202.77 246.188 203.351 245.733V249.737C201.32 250.813 199.181 251.348 196.947 251.348C193.584 251.348 190.711 250.25 188.334 248.057C185.965 245.842 184.781 243.171 184.781 240.042C184.781 237.236 185.772 234.739 187.757 232.541C190.194 229.853 193.35 228.506 197.222 228.506C199.334 228.506 201.378 229.042 203.351 230.118Z" fill="black"/>
<path d="M209.617 239.885C209.617 242.32 210.492 244.32 212.243 245.886C213.976 247.457 215.985 248.241 218.263 248.241C220.73 248.241 222.815 247.44 224.512 245.847C226.21 244.23 227.056 242.261 227.056 239.944C227.056 237.593 226.218 235.625 224.539 234.041C222.873 232.441 220.811 231.645 218.352 231.645C215.903 231.645 213.837 232.441 212.148 234.041C210.46 235.616 209.617 237.566 209.617 239.885ZM206.038 239.839C206.038 236.741 207.25 234.08 209.681 231.857C212.098 229.632 215.003 228.521 218.399 228.521C221.752 228.521 224.629 229.641 227.025 231.888C229.434 234.13 230.641 236.823 230.641 239.971C230.641 243.136 229.43 245.824 227.011 248.026C224.58 250.241 221.649 251.348 218.213 251.348C215.178 251.348 212.45 250.366 210.032 248.399C207.367 246.219 206.038 243.37 206.038 239.839Z" fill="black"/>
<path d="M238.187 228.934V247.828H245.107V250.952H234.635V228.934H238.187Z" fill="black"/>
<path d="M249.456 239.885C249.456 242.32 250.331 244.32 252.082 245.886C253.815 247.457 255.823 248.241 258.101 248.241C260.569 248.241 262.654 247.44 264.351 245.847C266.049 244.23 266.895 242.261 266.895 239.944C266.895 237.593 266.057 235.625 264.378 234.041C262.712 232.441 260.65 231.645 258.192 231.645C255.742 231.645 253.676 232.441 251.987 234.041C250.299 235.616 249.456 237.566 249.456 239.885ZM245.877 239.839C245.877 236.741 247.089 234.08 249.52 231.857C251.938 229.632 254.841 228.521 258.236 228.521C261.592 228.521 264.469 229.641 266.864 231.888C269.273 234.13 270.479 236.823 270.479 239.971C270.479 243.136 269.267 245.824 266.85 248.026C264.419 250.241 261.487 251.348 258.052 251.348C255.017 251.348 252.289 250.366 249.871 248.399C247.205 246.219 245.877 243.37 245.877 239.839Z" fill="black"/>
<path d="M286.581 239.488H296.307V240.218C296.307 241.871 296.098 243.334 295.68 244.607C295.275 245.788 294.591 246.891 293.622 247.917C291.439 250.218 288.657 251.367 285.284 251.367C281.992 251.367 279.17 250.254 276.824 248.03C274.478 245.797 273.302 243.113 273.302 239.988C273.302 236.796 274.495 234.085 276.886 231.861C279.273 229.628 282.181 228.512 285.603 228.512C287.445 228.512 289.16 228.863 290.758 229.565C292.281 230.267 293.781 231.411 295.253 232.986L292.723 235.256C290.795 232.847 288.441 231.645 285.667 231.645C283.177 231.645 281.088 232.45 279.399 234.053C277.716 235.635 276.873 237.611 276.873 239.988C276.873 242.443 277.81 244.459 279.692 246.048C281.448 247.521 283.352 248.259 285.405 248.259C287.153 248.259 288.724 247.706 290.115 246.602C291.512 245.491 292.285 244.162 292.447 242.614H286.581V239.488Z" fill="black"/>
<path d="M303.857 250.952H300.304V228.934H303.857V250.952Z" fill="black"/>
<path d="M326.438 230.118V234.053C324.384 232.446 322.259 231.645 320.067 231.645C317.648 231.645 315.608 232.455 313.952 234.08C312.286 235.697 311.453 237.674 311.453 240.015C311.453 242.325 312.286 244.274 313.952 245.859C315.617 247.448 317.662 248.241 320.079 248.241C321.332 248.241 322.395 248.052 323.268 247.669C323.754 247.48 324.258 247.224 324.785 246.899C325.307 246.58 325.856 246.188 326.438 245.733V249.737C324.407 250.813 322.268 251.348 320.035 251.348C316.671 251.348 313.799 250.25 311.421 248.057C309.053 245.842 307.869 243.171 307.869 240.042C307.869 237.236 308.859 234.739 310.845 232.541C313.28 229.853 316.437 228.506 320.309 228.506C322.422 228.506 324.465 229.042 326.438 230.118Z" fill="black"/>
<path d="M343.394 242.482L339.905 234.995L336.244 242.482H343.394ZM344.844 245.608H334.768L332.142 250.952H328.319L339.963 227.552L351.198 250.952H347.311L344.844 245.608Z" fill="black"/>
<path d="M357.222 228.934V247.828H364.142V250.952H353.67V228.934H357.222Z" fill="black"/>
<path d="M389.514 232.217L386.632 233.815C386.092 232.936 385.583 232.37 385.093 232.105C384.589 231.798 383.932 231.645 383.13 231.645C382.143 231.645 381.324 231.907 380.672 232.428C380.024 232.942 379.699 233.59 379.699 234.369C379.699 235.445 380.554 236.31 382.261 236.962L384.607 237.863C386.516 238.588 387.916 239.466 388.798 240.51C389.681 241.55 390.122 242.824 390.122 244.338C390.122 246.36 389.402 248.034 387.961 249.354C386.507 250.687 384.701 251.353 382.549 251.353C380.505 251.353 378.821 250.786 377.489 249.655C376.178 248.525 375.358 246.932 375.034 244.878L378.632 244.135C378.794 245.432 379.078 246.323 379.482 246.819C380.216 247.769 381.283 248.241 382.684 248.241C383.791 248.241 384.715 247.895 385.444 247.201C386.178 246.508 386.543 245.63 386.543 244.563C386.543 244.135 386.479 243.743 386.354 243.387C386.222 243.032 386.025 242.703 385.759 242.406C385.489 242.104 385.143 241.825 384.715 241.565C384.286 241.303 383.778 241.05 383.189 240.811L380.919 239.93C377.695 238.656 376.083 236.796 376.083 234.342C376.083 232.685 376.758 231.303 378.114 230.19C379.464 229.069 381.144 228.512 383.157 228.512C385.872 228.512 387.993 229.745 389.514 232.217Z" fill="black"/>
<path d="M397.492 228.934V242.195C397.492 244.085 397.822 245.473 398.484 246.346C399.469 247.607 400.857 248.241 402.649 248.241C404.444 248.241 405.836 247.607 406.822 246.346C407.485 245.5 407.813 244.117 407.813 242.195V228.934H411.366V243.109C411.366 245.427 410.591 247.336 409.047 248.841C407.309 250.511 405.175 251.348 402.649 251.348C400.118 251.348 397.989 250.511 396.26 248.841C394.715 247.336 393.94 245.427 393.94 243.109V228.934H397.492Z" fill="black"/>
<path d="M415.714 250.952L420.668 227.283L428.75 244.392L437.116 227.283L441.569 250.952H437.926L435.652 237.665L428.687 251.965L421.92 237.646L419.389 250.952H415.714Z" fill="black"/>
<path d="M445.262 250.952L450.214 227.283L458.297 244.392L466.662 227.283L471.115 250.952H467.472L465.199 237.665L458.233 251.965L451.466 237.646L448.935 250.952H445.262Z" fill="black"/>
<path d="M479.179 250.952H475.627V228.934H479.179V250.952Z" fill="black"/>
<path d="M490.863 232.059V250.952H487.312V232.059H481.898V228.934H496.257V232.059H490.863Z" fill="black"/>
<path d="M521.116 232.059H511.679V237.35H520.842V240.47H511.679V247.828H521.116V250.952H508.126V228.934H521.116V232.059Z" fill="black"/>
<path d="M530.234 239.443L523.754 228.934H527.794L532.292 236.39L537.019 228.934H541.089L534.304 239.443L541.423 250.952H537.447L532.233 242.523L526.866 250.952H522.841L530.234 239.443Z" fill="black"/>
<path d="M547.676 238.931H549.005C552.265 238.931 553.895 237.755 553.895 235.409C553.895 233.136 552.215 232.001 548.852 232.001H547.676V238.931ZM547.676 242.01V250.952H544.125V228.934H548.15C550.122 228.934 551.613 229.066 552.616 229.322C553.634 229.579 554.525 230.06 555.3 230.776C556.65 232.01 557.327 233.567 557.327 235.45C557.327 237.466 556.606 239.066 555.161 240.245C553.72 241.421 551.775 242.01 549.326 242.01H547.676Z" fill="black"/>
<path d="M562.924 239.885C562.924 242.32 563.796 244.32 565.548 245.886C567.281 247.457 569.29 248.241 571.568 248.241C574.035 248.241 576.119 247.44 577.817 245.847C579.514 244.23 580.362 242.261 580.362 239.944C580.362 237.593 579.523 235.625 577.845 234.041C576.178 232.441 574.117 231.645 571.657 231.645C569.208 231.645 567.142 232.441 565.453 234.041C563.765 235.616 562.924 237.566 562.924 239.885ZM559.343 239.839C559.343 236.741 560.555 234.08 562.986 231.857C565.403 229.632 568.308 228.521 571.703 228.521C575.057 228.521 577.934 229.641 580.33 231.888C582.739 234.13 583.946 236.823 583.946 239.971C583.946 243.136 582.735 245.824 580.316 248.026C577.884 250.241 574.954 251.348 571.518 251.348C568.483 251.348 565.756 250.366 563.337 248.399C560.672 246.219 559.343 243.37 559.343 239.839Z" fill="black"/>
<path d="M602.109 247.827H610.875V250.952H595.067L603.235 241.695C604.04 240.776 604.712 239.974 605.257 239.299C605.802 238.629 606.215 238.061 606.499 237.601C607.079 236.711 607.368 235.909 607.368 235.193C607.368 234.165 606.981 233.307 606.211 232.612C605.437 231.919 604.482 231.572 603.342 231.572C600.966 231.572 599.605 232.888 599.259 235.521H595.724C596.292 230.884 598.795 228.565 603.235 228.565C605.382 228.565 607.179 229.2 608.634 230.474C610.096 231.748 610.83 233.328 610.83 235.211C610.83 236.404 610.488 237.58 609.808 238.732C609.462 239.331 608.958 240.042 608.29 240.861C607.624 241.686 606.783 242.658 605.765 243.779L602.109 247.827Z" fill="black"/>
<path d="M617.909 239.817C617.909 242.261 618.36 244.288 619.264 245.904C620.169 247.494 621.322 248.287 622.726 248.287C624.118 248.287 625.271 247.494 626.185 245.904C627.102 244.329 627.558 242.338 627.558 239.93C627.558 237.525 627.102 235.53 626.185 233.941C625.271 232.365 624.118 231.577 622.726 231.577C621.344 231.577 620.196 232.365 619.282 233.941C618.368 235.512 617.909 237.471 617.909 239.817ZM614.419 239.803C614.419 236.296 615.293 233.496 617.04 231.406C618.607 229.515 620.497 228.565 622.726 228.565C624.95 228.565 626.846 229.515 628.413 231.406C630.16 233.496 631.033 236.345 631.033 239.947C631.033 243.54 630.16 246.381 628.413 248.471C626.846 250.366 624.956 251.308 622.74 251.308C620.524 251.308 618.625 250.366 617.04 248.471C615.293 246.381 614.419 243.492 614.419 239.803Z" fill="black"/>
<path d="M639.71 247.827H648.477V250.952H632.668L640.836 241.695C641.642 240.776 642.312 239.974 642.857 239.299C643.402 238.629 643.817 238.061 644.1 237.601C644.681 236.711 644.97 235.909 644.97 235.193C644.97 234.165 644.582 233.307 643.812 232.612C643.037 231.919 642.083 231.572 640.944 231.572C638.566 231.572 637.207 232.888 636.86 235.521H633.326C633.892 230.884 636.397 228.565 640.836 228.565C642.984 228.565 644.781 229.2 646.234 230.474C647.698 231.748 648.432 233.328 648.432 235.211C648.432 236.404 648.089 237.58 647.41 238.732C647.063 239.331 646.559 240.042 645.892 240.861C645.226 241.686 644.384 242.658 643.366 243.779L639.71 247.827Z" fill="black"/>
<path d="M664.775 244.18C664.775 243.009 664.344 242.023 663.479 241.212C662.606 240.398 661.553 239.988 660.322 239.988C659.084 239.988 658.031 240.393 657.171 241.199C656.307 242.01 655.874 242.986 655.874 244.135C655.874 245.287 656.307 246.265 657.171 247.075C658.031 247.881 659.089 248.287 660.342 248.287C661.562 248.287 662.601 247.881 663.466 247.075C664.339 246.256 664.775 245.293 664.775 244.18ZM662.948 228.168L665.556 229.992L659.927 237.151C660.233 237.111 660.494 237.083 660.705 237.065C660.922 237.048 661.088 237.035 661.209 237.035C663.119 237.035 664.772 237.719 666.163 239.087C667.545 240.439 668.238 242.063 668.238 243.964C668.238 245.98 667.463 247.71 665.919 249.155C664.383 250.592 662.538 251.308 660.386 251.308C658.252 251.308 656.384 250.601 654.776 249.187C653.199 247.769 652.412 246.089 652.412 244.153C652.412 242.411 653.181 240.569 654.717 238.619L662.948 228.168Z" fill="black"/>
<path d="M679.535 230.803C678.833 230.803 678.238 231.015 677.752 231.442C677.276 231.875 677.037 232.397 677.037 233.027C677.037 233.694 677.28 234.256 677.766 234.725C678.258 235.188 678.833 235.423 679.504 235.423C680.197 235.423 680.774 235.188 681.241 234.725C681.733 234.256 681.977 233.694 681.977 233.027C681.977 232.411 681.738 231.888 681.261 231.46C680.792 231.023 680.215 230.803 679.535 230.803ZM679.567 228.606C680.837 228.606 681.931 229.038 682.845 229.907C683.76 230.758 684.218 231.789 684.218 233C684.218 234.216 683.754 235.256 682.827 236.121C681.913 236.976 680.805 237.404 679.504 237.404C678.203 237.404 677.091 236.976 676.168 236.121C675.254 235.256 674.795 234.221 674.795 233.013C674.795 231.766 675.258 230.726 676.181 229.889C677.109 229.034 678.234 228.606 679.567 228.606Z" fill="black"/>
</svg>
