<svg width="182" height="55" viewBox="0 0 182 55" fill="none" xmlns="http://www.w3.org/2000/svg">
<g clip-path="url(#clip0_263_21911)">
<path d="M88.7966 3.3808H93.4733V18.1119C93.4733 20.7079 92.6837 22.7002 91.0438 24.0284C87.3389 26.7452 82.3586 26.7452 78.6536 24.0284C77.0138 22.7002 76.2242 20.7079 76.2242 18.1119V3.3808H80.9009V18.1119C80.9009 19.6212 81.2653 20.6475 81.9941 21.3117C83.6948 22.6399 86.1242 22.6399 87.8248 21.3117C88.5537 20.6475 88.8573 19.5608 88.8573 18.1119L88.7966 3.3808ZM103.738 12.3764C102.584 12.316 101.43 12.9198 100.883 13.9461V25.7189H96.3886V9.11626H100.579L100.701 10.9878C101.855 9.53887 103.677 8.69365 105.499 8.75402C106.896 8.69365 108.293 9.17663 109.325 10.1426C110.297 11.1086 110.783 12.7387 110.783 15.0932V25.6585H106.289V15.1536C106.289 14.0669 106.046 13.3424 105.621 12.9801C105.135 12.5575 104.467 12.316 103.738 12.3764ZM113.82 4.82976C113.82 4.22603 114.063 3.6223 114.488 3.19968C115.521 2.35446 117.1 2.35446 118.132 3.19968C118.557 3.6223 118.861 4.22603 118.8 4.82976C118.8 5.43349 118.557 6.03723 118.132 6.45984C117.1 7.30506 115.521 7.30506 114.488 6.45984C114.063 6.03723 113.82 5.43349 113.82 4.82976ZM118.618 9.11626V25.7189H114.124V9.11626H118.618ZM130.219 25.6585C129.368 25.9604 128.457 26.0811 127.546 26.0811C126.271 26.1415 125.056 25.7189 124.024 24.934C123.173 24.2096 122.748 22.9417 122.748 21.1305V12.3764H120.258V9.11626H122.748V5.01088H127.243V9.11626H130.097V12.3764H127.243V20.7079C127.182 21.1909 127.303 21.7343 127.668 22.0965C128.032 22.338 128.518 22.4587 128.943 22.4587C129.186 22.4587 129.429 22.4587 129.672 22.3984C129.915 22.3984 130.097 22.338 130.219 22.338V25.6585ZM146.375 23.0625C145.707 23.9077 144.917 24.6322 143.945 25.1152C142.67 25.7793 141.273 26.0811 139.876 26.0811C137.264 26.0811 135.199 25.2963 133.741 23.7266C132.284 22.1569 131.494 20.1646 131.555 18.0515V17.4478C131.434 15.214 132.223 12.9801 133.681 11.2897C135.138 9.65962 137.203 8.75402 139.39 8.87477C141.819 8.87477 143.642 9.59925 144.856 11.1086C146.071 12.6179 146.739 14.6102 146.739 17.0252V18.8967H136.11C136.232 19.8627 136.657 20.8287 137.386 21.4928C138.115 22.1569 139.147 22.5191 140.18 22.4587C141.759 22.5191 143.277 21.855 144.188 20.5872L146.375 23.0625ZM139.329 12.3764C138.479 12.316 137.689 12.6783 137.143 13.3424C136.596 14.0669 136.232 14.9121 136.11 15.8177H142.305V15.4554C142.305 14.6706 142.062 13.8857 141.576 13.2216C141.03 12.6179 140.18 12.316 139.329 12.3764ZM159.19 25.7793L158.947 24.0284C158.461 24.6322 157.854 25.1755 157.125 25.5378C156.396 25.9 155.546 26.0811 154.696 26.0811C152.752 26.1415 150.93 25.2359 149.897 23.6662C148.683 21.855 148.075 19.7419 148.197 17.6289V17.327C148.197 14.7913 148.743 12.7387 149.897 11.169C150.991 9.59925 152.813 8.75402 154.756 8.81439C156.335 8.75402 157.793 9.41813 158.765 10.6256V2.17334H163.259V25.7793H159.19ZM152.63 17.6289C152.57 18.776 152.813 19.9834 153.359 21.0098C153.845 21.9154 154.817 22.5191 155.85 22.3984C157.064 22.4587 158.218 21.7946 158.765 20.7079V14.1272C158.279 13.0405 157.125 12.316 155.85 12.3764C154.817 12.316 153.845 12.8594 153.359 13.8254C152.813 14.9121 152.57 16.1196 152.63 17.327V17.6289ZM94.688 30.1261V52.5246H90.0721L81.0223 37.7332V52.5246H76.3457V30.1261H81.0223L90.0721 44.9176V30.1261H94.688ZM107.746 52.5246C107.503 52.0416 107.382 51.5586 107.321 51.0153C106.835 51.5586 106.289 51.9812 105.621 52.2831C104.831 52.6454 103.981 52.8265 103.07 52.8265C101.612 52.8868 100.154 52.3435 99.061 51.4379C97.9678 50.5323 97.4212 49.2645 97.4212 47.8759C97.3604 46.3062 98.0893 44.7365 99.3647 43.8309C100.64 42.8649 102.584 42.3819 105.135 42.3819H107.139V41.4159C107.2 40.7518 106.957 40.0877 106.532 39.5444C106.046 39.0614 105.378 38.8199 104.649 38.8803C103.07 38.8803 102.28 39.5444 102.28 40.8726H97.7856C97.7856 39.4236 98.5144 38.035 99.7291 37.1294C101.248 36.0427 103.07 35.4994 104.892 35.5597C106.592 35.4994 108.293 35.9823 109.69 37.0087C110.965 37.9747 111.573 39.4236 111.573 41.4159V48.4192C111.573 49.2041 111.633 49.9286 111.755 50.7134C111.876 51.2568 111.998 51.7398 112.241 52.2227V52.5246H107.746ZM104.041 49.4456C104.71 49.4456 105.378 49.2645 105.985 48.9626C106.471 48.7211 106.835 48.2985 107.139 47.8759V44.978H105.317C104.406 44.9176 103.434 45.1591 102.705 45.7024C102.159 46.1854 101.855 46.8495 101.855 47.5136C101.855 48.057 102.037 48.54 102.402 48.9022C102.887 49.2645 103.495 49.4456 104.041 49.4456ZM123.052 52.4039C122.627 52.5246 122.262 52.6454 121.837 52.7057C121.351 52.7661 120.865 52.8265 120.379 52.8265C119.104 52.8868 117.889 52.4642 116.857 51.6794C116.006 50.9549 115.581 49.6871 115.581 47.8759V39.1218H113.091V35.8616H115.581V31.7562H120.076V35.8616H122.93V39.1218H120.076V47.4533C120.015 47.9362 120.137 48.4796 120.501 48.8418C120.865 49.0833 121.351 49.2041 121.776 49.2041C122.019 49.2041 122.262 49.2041 122.505 49.1437C122.748 49.1437 122.93 49.0833 123.052 49.0833V52.4039ZM124.935 31.5751C124.935 30.9714 125.178 30.3676 125.603 29.945C126.635 29.0998 128.214 29.0998 129.247 29.945C130.158 30.8506 130.158 32.2996 129.247 33.2655C128.214 34.1108 126.635 34.1108 125.603 33.2655C125.117 32.7826 124.874 32.1788 124.935 31.5751ZM129.672 35.8616V52.5246H125.178V35.8616H129.672ZM132.223 44.3742V44.0724C132.162 41.8989 132.891 39.7255 134.288 38.035C135.685 36.405 137.629 35.6201 140.119 35.6201C142.67 35.6201 144.613 36.405 146.01 38.035C147.407 39.7255 148.136 41.8989 148.075 44.0724V44.3742C148.136 46.5477 147.407 48.7211 146.01 50.4115C144.613 52.0416 142.67 52.8265 140.18 52.8265C137.629 52.8265 135.685 52.0416 134.288 50.4115C132.891 48.7211 132.162 46.5477 132.223 44.3742ZM136.718 44.012V44.3139C136.657 45.5213 136.961 46.7288 137.507 47.7551C138.479 49.2041 140.483 49.6267 141.941 48.6607C142.305 48.4192 142.609 48.1174 142.852 47.7551C143.399 46.6684 143.642 45.5213 143.642 44.3139V44.012C143.702 42.8045 143.399 41.6574 142.852 40.5707C142.305 39.6047 141.273 39.001 140.18 39.1218C139.086 39.0614 138.054 39.6047 137.507 40.5707C136.961 41.6574 136.657 42.8649 136.718 44.012ZM157.672 39.1821C156.518 39.1218 155.364 39.7255 154.817 40.8122V52.5246H150.323V35.8616H154.513L154.696 37.7935C155.85 36.3446 157.611 35.4994 159.494 35.5597C160.951 35.4994 162.348 35.9823 163.381 36.9483C164.353 37.9143 164.838 39.5444 164.838 41.8989V52.5246H160.344V41.8989C160.344 40.8122 160.101 40.0877 159.676 39.7255C159.069 39.3029 158.34 39.1218 157.672 39.1821ZM176.864 47.8759C176.864 47.3929 176.621 46.9099 176.196 46.6684C175.346 46.1854 174.374 45.8836 173.463 45.7628C171.945 45.4609 170.487 44.9176 169.212 44.0724C168.118 43.3479 167.45 42.08 167.511 40.7518C167.511 39.3632 168.179 38.035 169.272 37.1294C170.487 36.1031 172.066 35.5597 174.192 35.5597C176.318 35.5597 178.079 36.0427 179.354 37.0691C180.569 37.9747 181.237 39.4236 181.237 40.933H176.743C176.743 40.3292 176.561 39.7859 176.135 39.3632C175.589 38.9406 174.921 38.6991 174.192 38.7595C173.585 38.6991 172.977 38.8803 172.431 39.2425C172.066 39.5444 171.823 40.0274 171.823 40.5103C171.823 40.9933 172.066 41.4763 172.491 41.7178C173.22 42.1404 174.07 42.3819 174.921 42.5027C176.5 42.8045 178.018 43.3479 179.415 44.1327C180.63 44.8572 181.237 46.0647 181.237 47.6948C181.237 49.1437 180.508 50.4719 179.354 51.3171C178.079 52.2831 176.378 52.7661 174.192 52.7661C171.884 52.7661 170.062 52.1624 168.847 50.9549C167.693 49.9889 167.025 48.6003 166.964 47.1514H171.216C171.216 47.8759 171.58 48.6003 172.188 49.023C172.795 49.3852 173.524 49.6267 174.313 49.5663C175.953 49.6871 176.864 49.0833 176.864 47.8759Z" fill="#071C44"/>
<path d="M52.4765 50.1702C50.7151 51.0154 48.7715 51.2569 46.828 50.8343C45.4918 50.5324 44.2771 50.1098 43.0623 49.5665L40.3899 48.4797C38.082 47.7553 35.5918 47.6949 33.223 48.2986H32.9801C30.6114 47.6345 28.1212 47.6949 25.8132 48.4797C24.9022 48.7816 24.0519 49.2042 23.1408 49.5665C21.9261 50.1098 20.6506 50.5928 19.3752 50.8947C17.4923 51.3173 15.488 51.0758 13.7267 50.2306L13.4837 50.1098C13.423 50.1098 13.423 50.1098 13.423 50.1702C14.577 51.3777 16.0954 52.2229 17.6745 52.6455C18.7678 52.9474 19.9218 53.0077 21.015 52.887C22.7157 52.6455 24.3555 52.0418 25.7525 51.0758L28.3034 49.3853C29.2752 48.7816 30.4292 48.5401 31.5224 48.7816C32.1298 48.842 31.6439 49.1438 31.5832 49.2042C30.0648 49.9287 28.6071 50.8343 27.2709 51.8606C26.3598 52.5247 24.72 54.0944 24.72 54.0944L25.9347 55.1208L27.2709 53.6718C28.9108 51.9814 30.7936 50.5324 32.8586 49.3853C33.0408 49.2646 33.223 49.2646 33.4053 49.3853C35.4703 50.5324 37.3531 51.9814 38.993 53.6718L40.3292 55.1208L41.5439 54.0944L38.993 51.8606C37.6568 50.8343 36.1991 49.9287 34.6807 49.2042C34.5592 49.1438 34.1341 48.842 34.7415 48.7816C35.8347 48.5401 36.9887 48.7816 37.9605 49.3853L40.5114 51.0758C41.9083 52.0418 43.5482 52.6455 45.2488 52.887C46.3421 53.0077 47.4961 52.9474 48.5893 52.6455C50.1685 52.1625 51.6869 51.3173 52.8409 50.1702C52.8409 50.1702 52.7801 50.1098 52.7194 50.1098L52.4765 50.1702ZM58.4286 44.9177C57.639 45.5215 56.7887 45.9441 55.8777 46.2459C54.6022 46.6082 53.2053 46.8497 51.8691 46.8497C50.1077 46.91 48.4071 47.0308 46.6458 47.2723C46.5243 47.2723 46.4636 47.2723 46.5243 47.2119C48.0427 46.6082 49.2574 45.4007 49.9255 43.9517L51.6262 40.5105C51.6262 40.4501 51.6262 40.4501 51.6262 40.3897C51.5047 40.4501 49.8041 41.8991 49.0145 42.6235L46.1599 45.4007C44.8844 46.4874 43.366 47.2723 41.7261 47.6949H41.6654L41.6047 47.7553L44.8844 48.5401C46.2814 48.9627 47.739 49.2042 49.1967 49.325C52.9016 49.6872 56.4851 47.9968 58.5501 44.9781C58.5501 44.9177 58.4894 44.9177 58.4286 44.9177ZM63.7734 36.8277C62.9231 37.8541 61.8906 38.7597 60.7366 39.4841C59.7648 40.1482 58.7323 40.6916 57.639 41.1746C56.2421 41.7179 54.9666 42.5028 53.8127 43.4084L53.5697 43.5895C53.509 43.5895 53.509 43.5895 53.509 43.5291C53.509 43.4688 55.3311 41.6576 55.8777 37.8541C55.9384 36.4655 56.1814 35.1373 56.4851 33.809C56.4851 33.7487 56.4851 33.7487 56.4851 33.6883C55.2096 35.258 54.2378 37.0088 53.5697 38.8804L52.4765 41.9594C52.0513 43.348 51.2617 44.6159 50.2292 45.6422L50.1077 45.7629V45.8233C50.2292 45.8233 50.3507 45.7629 50.4722 45.7629L53.9949 45.0385C55.9384 44.7366 57.7605 43.9517 59.3397 42.8047C60.9795 41.6576 62.255 40.0879 63.1661 38.337C63.409 37.8541 63.5912 37.3711 63.7734 36.8881C63.8949 36.7673 63.8342 36.7673 63.7734 36.8277ZM66.0814 27.7717C65.5348 29.4018 64.563 30.9111 63.2875 32.1186C61.8299 33.5072 60.4937 35.0769 59.2789 36.6466C59.2789 36.707 59.1575 36.6466 59.2182 36.5862C59.7041 34.9561 59.8256 33.2053 59.5826 31.4545C59.3397 30.0055 58.7323 28.4358 58.5501 26.685L58.4894 26.6246C58.4894 26.685 58.4286 26.7454 58.4286 26.8058C58.0642 27.9528 57.8213 29.0999 57.6998 30.3074C57.639 31.7564 57.882 33.6279 57.7605 35.0769C57.639 36.7673 57.5176 38.5182 56.728 40.0275C56.728 40.0879 56.728 40.0879 56.728 40.1482L60.3722 37.9144C61.8906 36.9485 63.166 35.741 64.1986 34.292C65.5348 32.4205 66.2029 30.247 66.2029 27.9528C66.2029 27.8925 66.2029 27.7717 66.2029 27.7114C66.1421 27.7114 66.0814 27.7717 66.0814 27.7717Z" fill="#009EDB"/>
<path d="M62.1946 28.7377C62.2553 28.7377 62.2553 28.7377 62.1946 28.7377C62.1946 28.2547 62.1946 27.7717 62.1339 27.2888C62.0124 25.5983 60.9799 24.2097 60.0688 22.7608C59.4615 21.8552 58.9148 20.8892 58.4289 19.8629C58.4289 19.8629 58.3682 19.8025 58.3075 19.8025C58.3075 19.9232 58.3075 20.4666 58.3682 20.7685C58.6719 23.1834 59.2793 25.5983 60.1903 27.8925C60.7369 29.3414 60.9191 30.8508 60.7977 32.3601C60.7977 32.4809 60.7977 32.4809 60.8584 32.5412C61.405 31.7564 62.4983 30.6697 63.1664 29.8244C63.8345 28.9792 67.4787 24.8738 65.7173 19.1987C65.6566 18.9573 65.5351 18.7158 65.4136 18.4743L65.3529 18.5346C65.3529 22.64 63.3486 24.3908 62.559 27.168C62.3768 27.8321 62.2553 28.3151 62.1946 28.7377ZM62.2553 20.2855L61.8909 19.3195L61.648 18.7761C61.0406 17.6894 60.1903 16.7234 59.1578 15.999C58.3075 15.2745 57.5786 14.4896 56.9713 13.584C56.9713 13.584 56.9105 13.584 56.8498 13.584H56.7891C56.8498 13.7652 57.3964 15.5764 57.7608 16.4216C58.3682 17.5687 59.097 18.7158 59.9473 19.6817L60.1296 19.9232C61.1621 21.3118 61.9517 22.8211 62.4983 24.4512C62.4983 24.5116 62.559 24.5116 62.559 24.5116L63.5915 21.3722C63.9559 20.2855 64.2596 19.1384 64.5026 17.9913C64.867 15.2745 64.0167 11.8332 62.4375 9.90127C62.4375 9.90127 62.3768 9.96165 62.3768 10.022L62.4375 10.2635L62.559 10.6258C62.8627 12.0747 62.9234 13.6444 62.6198 15.0934C62.3768 16.2405 62.3161 17.4479 62.3161 18.6554C62.3161 18.8365 62.4375 20.3458 62.4375 20.4062C62.4375 20.4666 62.3768 20.4062 62.3161 20.4062M57.3964 5.13179C57.8823 5.61477 58.3075 6.15813 58.5504 6.82224C58.9756 7.84858 59.097 9.35791 59.4007 10.505L59.9473 12.4973C59.9473 12.5577 59.8866 12.6181 59.8259 12.5577C58.9148 11.471 57.8216 10.5654 56.5461 9.8409C55.6958 9.35791 55.0277 8.69381 54.4203 7.96933L54.1167 7.54672C54.1167 7.54672 54.0559 7.48634 53.9952 7.54672C53.9952 7.60709 53.9952 7.66746 53.9952 7.72784C54.2989 9.05605 54.9062 10.3239 55.878 11.3502C56.6676 12.0747 57.5179 12.7388 58.3075 13.4029C59.34 14.2481 60.3118 15.2745 61.2228 16.3008C61.2228 16.3008 61.2836 16.3612 61.2836 16.3008V15.3349L61.3443 12.4369V11.471C61.3443 10.505 61.1621 9.47866 60.7977 8.57306C60.1903 7.06373 59.0363 5.85627 57.6394 5.13179C57.5786 5.07141 57.4572 5.07141 57.3357 5.01104C57.3357 5.01104 57.3357 5.07141 57.3964 5.13179ZM51.1406 2.29425C51.9909 3.0791 52.7197 3.9847 53.3878 4.95067C53.9952 5.91664 54.6633 6.76186 55.5136 7.54672C56.0602 8.09008 57.7001 9.35791 58.1253 9.72015C58.0645 9.23717 57.275 5.79589 55.1492 4.10544C53.9345 3.13947 52.4768 2.41499 50.9584 2.05275C50.9584 2.11313 50.9584 2.11313 50.9584 2.1735L51.1406 2.29425ZM17.1282 49.325C18.5252 49.2042 19.9828 48.9627 21.319 48.5401L24.5988 47.7553H24.6595C24.6595 47.7553 24.6595 47.6949 24.5988 47.6949H24.5381C22.8982 47.2723 21.3798 46.4874 20.0436 45.4007L17.189 42.6839L14.5773 40.4501V40.5709C14.8203 40.9331 15.7313 42.9254 16.2779 44.0121C16.946 45.5215 18.1608 46.6686 19.6792 47.2723C19.7399 47.3327 19.6792 47.3327 19.5577 47.3327C17.8571 47.0912 16.0957 46.9704 14.3344 46.9101C12.9982 46.9101 11.6012 46.6686 10.3258 46.3063C9.41472 46.0045 8.56441 45.5818 7.77484 44.9781C7.71411 44.9781 7.71411 44.9781 7.65337 44.9781C8.8681 46.6686 10.5687 47.9968 12.5123 48.7213C14.0307 49.2042 15.5491 49.3854 17.1282 49.325ZM15.7313 45.763C15.8528 45.763 15.9135 45.8233 16.0957 45.8233V45.763L15.9742 45.6422C14.9417 44.6159 14.2129 43.348 13.727 41.9595L12.6337 38.8804C11.9656 37.0089 10.9939 35.258 9.7184 33.6883C9.7184 33.7487 9.7184 33.7487 9.7184 33.8091C10.0828 35.1373 10.265 36.4655 10.3865 37.8541C10.9331 41.5972 12.7552 43.4084 12.7552 43.4688C12.7552 43.5292 12.7552 43.5895 12.6945 43.5292L12.4515 43.348C11.2975 42.4424 10.0221 41.6576 8.62515 41.1142C7.5319 40.6312 6.49938 40.0879 5.5276 39.4238C4.37361 38.6993 3.34109 37.7937 2.49078 36.7674H2.43004C2.61225 37.2503 2.79446 37.7333 3.03741 38.2163C3.94845 39.9671 5.28465 41.5368 6.92453 42.6839C8.50368 43.8914 10.3258 44.6763 12.2693 44.9177C13.4233 45.2196 14.5773 45.5215 15.7313 45.763ZM5.95275 37.9144L9.59693 40.1483C9.59693 40.1483 9.65767 40.0879 9.65767 40.0275C8.8681 38.4578 8.74662 36.7674 8.62515 35.0769C8.50368 33.5676 8.74662 31.7564 8.68589 30.3074C8.56441 29.1 8.32147 27.8925 7.95705 26.7454C7.95705 26.685 7.89631 26.6247 7.89631 26.5643L7.83558 26.6247C7.71411 28.3755 7.04601 29.9452 6.80306 31.3941C6.56012 33.0846 6.68159 34.8354 7.16748 36.5259C7.22822 36.5862 7.10674 36.6466 7.10674 36.5862C5.89202 34.9562 4.55582 33.4468 3.09814 32.0582C1.82268 30.8508 0.8509 29.4018 0.304273 27.7717C0.304273 27.7717 0.243536 27.7114 0.1828 27.7114C0.122064 27.7114 0.1828 27.8321 0.1828 27.9529C0.1828 30.1867 0.8509 32.4205 2.1871 34.2921C3.15888 35.6806 4.43434 36.9485 5.95275 37.9144ZM5.28465 32.6016C5.34539 32.5412 5.34539 32.5412 5.34539 32.4205C5.22392 30.9112 5.40613 29.3414 6.01349 27.9529C6.8638 25.6587 7.47116 23.3041 7.83558 20.8288C7.83558 20.527 7.89631 19.9836 7.89631 19.8629C7.83558 19.8629 7.83558 19.8629 7.83558 19.9232C7.34969 20.9496 6.80306 21.9155 6.1957 22.8211C5.22392 24.1494 4.25213 25.5983 4.13066 27.2888C4.06993 27.7717 4.06993 28.2547 4.13066 28.7377C4.13066 28.7377 4.13066 28.7981 4.06993 28.7981C4.06993 28.7981 4.06993 28.7981 4.06993 28.7377L3.64477 27.2888C2.79446 24.5116 0.8509 22.7608 0.8509 18.6554L0.790163 18.595C0.668691 18.8365 0.607954 19.078 0.486482 19.3195C-1.27487 24.9946 2.30857 29.1 3.03741 29.9452C3.76624 30.7904 4.73803 31.8168 5.28465 32.6016ZM2.73373 21.3118L3.76624 24.4512C3.76624 24.4512 3.82698 24.4512 3.82698 24.3908C4.37361 22.7608 5.22392 21.2514 6.1957 19.8629L6.37791 19.6214C7.22822 18.595 7.95705 17.5083 8.56441 16.3612C8.92883 15.516 9.47546 13.7048 9.5362 13.5237H9.47546C9.41472 13.5237 9.41472 13.5237 9.35399 13.5237C8.74662 14.4293 8.01779 15.2141 7.16748 15.9386C6.13496 16.6631 5.22392 17.629 4.61655 18.7761C4.55582 18.9573 4.43434 19.1384 4.37361 19.3195L4.00919 20.3458C4.00919 20.3458 3.94845 20.4666 3.94845 20.3458C3.94845 20.2251 4.06993 18.8365 4.06993 18.595C4.06993 17.3876 3.94845 16.1801 3.70551 15.033C3.40183 13.5237 3.46256 12.0143 3.76624 10.5654C3.76624 10.4446 3.82698 10.3239 3.88772 10.2031C3.88772 10.1428 3.94845 10.022 3.94845 9.96165C3.94845 9.90127 3.94845 9.90127 3.88772 9.8409C2.30857 11.7728 1.39753 15.2745 1.76194 17.9309C2.06563 19.078 2.36931 20.2251 2.73373 21.3118ZM4.92023 12.4973L4.98097 15.3952V16.3008H5.04171C5.89202 15.2141 6.8638 14.2481 7.89631 13.3425L10.3258 11.2899C11.2975 10.2635 11.9049 8.99567 12.2086 7.66746C12.2086 7.60709 12.2086 7.54672 12.2086 7.48634H12.1479L11.8442 7.90896C11.2975 8.63343 10.5687 9.29754 9.77914 9.78053C8.32147 10.6861 7.34969 11.3502 6.49938 12.4973C6.43864 12.5577 6.37791 12.5577 6.43864 12.4369L6.98527 10.4446C7.28895 9.29754 7.41042 7.78821 7.83558 6.76186C8.07852 6.15813 8.50368 5.5544 8.98957 5.07141C8.98957 5.01104 8.98957 5.01104 8.98957 4.95067C8.8681 4.95067 8.80736 5.01104 8.68589 5.07141C7.16748 5.85627 6.07422 7.1241 5.46686 8.57306C5.10244 9.47866 4.8595 10.4446 4.92023 11.471V12.4973ZM8.13926 9.65978L10.8117 7.48634C11.6012 6.70149 12.3301 5.85627 12.9374 4.8903C13.5448 3.92432 14.3344 3.01872 15.1847 2.23387L15.3669 2.05275C15.3669 1.99238 15.3669 1.99238 15.3669 1.93201C13.8485 2.29425 12.3908 2.95835 11.1761 3.9847C8.92883 5.73552 8.2 9.17679 8.13926 9.65978ZM32.5553 28.3755C32.7375 28.134 32.3123 27.9529 32.1908 28.3755C32.0694 28.7981 32.3731 28.6773 32.5553 28.3755ZM37.1712 17.7498C36.989 17.6894 36.3209 18.4743 36.4424 18.595C36.7461 18.4139 36.989 18.112 37.1712 17.7498ZM37.2927 17.629C37.4142 17.6894 37.8393 17.4479 37.7786 17.3876C37.7179 17.3272 37.1712 17.0857 37.1712 17.2064C37.1712 17.4479 37.232 17.5687 37.2927 17.629ZM45.4921 25.1153C45.7351 25.055 45.6743 24.6927 45.4921 24.6927C45.3099 24.6927 45.067 24.9946 45.1277 24.9946C45.1884 24.9946 45.3706 25.1757 45.4921 25.1153ZM42.516 17.0857C42.3338 17.0857 42.2731 17.2668 42.4553 17.3876C42.6375 17.4479 42.759 17.3876 42.8804 17.3272C43.0019 17.2668 43.1234 17.1461 43.1234 16.9649C43.1234 16.7838 42.8804 16.5423 43.0019 16.4216C43.1234 16.3008 43.3056 16.482 43.4271 16.4216C43.5485 16.3612 43.6093 16.2405 43.6093 16.1197C43.6093 15.999 43.5485 15.6367 43.3056 15.6367C43.0627 15.6367 42.8197 16.1197 42.8197 16.1197C42.759 16.2405 42.759 16.4216 42.8197 16.5423C42.8804 16.7838 42.8197 17.0857 42.516 17.0857Z" fill="#009EDB"/>
<path d="M46.5248 17.146C46.5248 17.2667 46.8284 18.0516 46.8892 18.2327C46.9499 18.4138 47.0107 19.0779 47.1321 19.0175C47.2536 18.9571 47.2536 18.5949 47.1929 18.4138C47.1321 17.9912 47.0106 17.5082 46.8892 17.146C46.8284 16.9045 46.4033 15.9989 46.2818 16.0592C46.1603 16.1196 46.464 16.663 46.5248 16.9045C46.5855 17.146 46.464 17.0252 46.5248 17.146ZM44.399 6.88251C44.5812 6.94288 44.5812 6.58064 44.2775 6.33915C43.9738 6.09765 43.4879 6.2184 43.6094 6.33915C43.8524 6.52027 44.0953 6.76176 44.399 6.88251ZM35.2885 4.28646C34.8634 4.04497 35.2278 3.68273 34.9241 3.44123C34.5597 3.32049 34.1953 3.38086 33.9523 3.62235C33.6487 3.98459 34.3168 3.86385 34.499 3.98459C34.6812 4.10534 35.2885 4.52795 35.3493 4.46758C35.41 4.4072 35.3493 4.28646 35.2885 4.28646ZM37.718 3.07899C37.1714 2.8375 35.1671 2.8375 35.2278 3.38086C35.2885 3.92422 36.3818 3.38086 36.6855 3.38086C36.9892 3.38086 38.2039 3.32049 37.718 3.07899ZM32.191 26.3831C32.0695 26.3227 31.8873 26.4434 31.8266 26.3227C31.7658 26.2019 31.6444 26.2623 31.6444 26.3227C31.6444 26.3831 31.5836 26.5038 31.7051 26.6245C31.8266 26.7453 32.0695 26.7453 32.191 26.6245C32.2517 26.5642 32.2517 26.4434 32.191 26.3831ZM31.037 22.338C31.2192 22.338 31.2192 22.2173 31.2799 22.2173C31.3407 22.2173 31.2799 22.338 31.4621 22.338C31.6444 22.338 31.8266 21.9154 31.2799 21.9154C30.8548 21.9154 30.9155 22.338 31.037 22.338ZM31.7658 22.821C31.4621 22.7607 31.5229 22.9418 31.2799 22.9418C30.9155 23.0022 31.2192 22.7003 31.0977 22.5795C31.037 22.5192 30.8548 22.821 30.7941 23.0022C30.7941 23.1229 30.7941 23.3644 30.9155 23.4248L32.0695 23.5455C32.3125 23.5455 32.0695 22.8814 31.7658 22.821ZM28.0002 26.7453C28.1217 26.7453 28.1824 26.3831 28.1217 26.2019C28.0609 26.0208 27.6965 26.1416 27.6965 26.2623C27.6965 26.3831 27.9394 26.7453 28.0002 26.7453ZM23.1413 26.7453C23.1413 26.6245 23.1413 26.1416 23.0198 26.0208C22.8983 25.9001 22.8983 26.0812 22.8376 26.0812C22.7769 26.0812 22.7769 25.8397 22.7161 25.8397C22.6554 25.8397 22.7161 26.2019 22.8376 26.4434C22.9591 26.6849 23.1413 27.0472 23.1413 26.7453ZM23.0198 25.6586C23.1413 25.2963 23.202 24.9341 23.202 24.5719C23.202 24.27 23.0198 24.0285 22.9591 24.0285C22.8983 24.0285 22.9591 24.2096 23.0198 24.5115C23.0198 24.8133 22.8983 25.1152 22.8376 25.4171C22.8376 25.4775 22.9591 25.7793 23.0198 25.6586Z" fill="#009EDB"/>
<path d="M16.8245 39.1822C25.8742 48.1778 40.4509 48.1778 49.5006 39.1822C58.5503 30.1866 58.5503 15.697 49.5006 6.70142C40.4509 -2.29419 25.8742 -2.29419 16.8245 6.70142C7.77474 15.697 7.77474 30.247 16.8245 39.1822ZM11.0545 23.4248H14.5772C14.6379 25.236 14.9416 26.9868 15.4883 28.6773C15.306 28.6169 15.1238 28.5565 14.9416 28.4358C14.6987 28.315 14.5165 28.4961 14.4557 28.4961C14.2128 28.4961 13.9091 28.315 13.9091 28.4961C13.9091 28.6773 14.1521 28.5565 14.1521 28.6773C14.1521 28.798 13.5447 28.798 13.484 28.5565C13.4232 28.315 13.3017 28.0735 13.241 28.3754C13.1803 28.6773 12.9373 28.6169 12.8159 28.6773C12.7551 28.7376 12.6944 28.8584 12.6944 28.9791C12.6944 29.0999 12.3907 29.0395 12.3907 29.2206C12.3907 29.4017 12.5729 29.4621 12.6336 29.6432C12.6944 29.8244 12.8766 29.9451 12.7551 30.0055C12.6336 30.0659 12.6944 29.9451 12.5729 30.0055C12.4514 30.0659 13.1195 31.877 13.241 31.8167C13.3625 31.7563 13.0588 31.2129 13.0588 30.9714C13.0588 30.73 13.1195 30.6696 13.3017 30.5488C13.484 30.4281 13.9698 31.2733 14.1521 31.1526C14.3343 31.0318 14.0913 30.9111 14.2735 30.8507C14.4557 30.7903 15.0024 31.6356 15.1846 31.3941C15.306 31.2129 15.4275 31.5148 15.4275 31.5752C15.6097 31.877 15.9134 31.877 16.0956 32.2393C16.2778 32.6015 16.703 33.2656 17.0067 33.2656C17.3103 33.2656 17.1281 32.9638 17.2496 32.9638C17.3711 32.9638 17.4926 33.3864 17.6748 33.6279C17.7962 33.809 17.9784 33.9297 18.2214 33.9901C18.6465 34.5335 19.1324 35.0768 19.6183 35.6202L17.1281 38.0955C13.3017 34.2316 11.1152 28.9791 11.0545 23.4248ZM31.1582 18.4138L30.9153 18.5346C30.5509 18.7157 30.2472 18.8968 30.0042 19.1383L27.514 16.663C28.9717 15.3952 30.7938 14.6103 32.6766 14.5499V18.0516C32.2515 18.112 31.8263 18.1723 31.4012 18.3534C31.5226 18.112 31.7656 17.8705 31.7656 17.8705C31.7656 17.8705 31.3404 18.112 31.1582 18.4138ZM29.2754 24.1493C29.2754 24.2097 29.2754 24.27 29.2754 24.27C29.2754 24.1493 29.2147 24.0889 29.1539 23.9682C29.0932 23.9078 29.0325 23.8474 28.9717 23.8474C28.911 23.8474 28.8502 23.8474 28.7895 23.8474H28.668L28.5466 23.9078H27.6963C27.5748 23.9078 27.514 23.9078 27.514 23.8474C27.4533 23.6059 27.8177 23.787 28.0607 23.0626C28.1214 23.0022 28.1214 22.8814 28.1821 22.8211L28.2429 22.7003L28.3036 22.6399L28.3644 22.5796C28.4858 22.4588 28.6073 22.4588 28.7288 22.4588H28.8502L28.9717 22.5796L29.1539 22.9418C29.2147 23.0022 29.2754 23.0022 29.2754 23.0626C29.3969 23.1229 29.4576 23.1833 29.5183 23.2437L29.5791 23.3041V23.3644C29.6398 23.4248 29.6398 23.4248 29.7006 23.4248H29.7613C29.822 23.4248 29.822 23.4248 29.8828 23.4248H29.9435C30.065 23.3644 30.065 23.4248 30.1257 23.4248V23.4852C30.1257 23.5455 30.1257 23.5455 30.065 23.6059C30.065 23.6663 30.0042 23.6663 30.0042 23.7267C29.9435 23.787 29.8828 23.8474 29.822 23.8474C29.7006 23.8474 29.5791 23.787 29.5183 23.787C29.4576 23.787 29.3969 23.787 29.3969 23.8474V24.1493M22.7159 29.9451C22.5337 29.6432 22.4729 29.2206 22.4729 28.8584C22.4729 28.4961 22.3515 28.1339 22.1693 27.832C22.1085 27.5905 22.0478 27.3491 22.0478 27.1076C22.0478 26.685 21.6834 26.8057 21.6834 26.685C21.6834 26.5642 21.987 26.685 21.987 26.5642C21.987 26.4435 21.6226 25.9605 21.3189 25.8397C21.0153 25.719 21.1367 25.5379 21.1367 25.3567C21.1367 25.1756 21.1367 24.9945 21.0153 24.8738C20.9545 24.6323 21.0153 24.2096 21.3189 24.2096C21.4404 24.2096 21.6226 24.3304 21.8048 24.2096C21.987 24.0889 21.8656 23.7267 21.8656 23.4248H23.5662C23.5662 23.6663 23.6269 23.9682 23.6269 24.2096C23.5055 24.27 23.4447 24.3908 23.5055 24.4511C23.5662 24.5115 23.6269 24.5719 23.6877 24.5115C23.9913 26.2623 24.7809 27.8924 25.9956 29.2206L23.5055 31.6959C23.3232 31.5148 23.141 31.2733 22.9588 31.0318C22.9588 30.9715 22.9588 30.9111 22.9588 30.8507C22.9588 30.4281 22.6551 30.1866 22.5337 29.8244M20.3472 25.719C20.165 24.9945 20.1042 24.2097 20.0435 23.4248H21.5012C21.3797 23.6059 21.076 23.787 21.0153 23.9682C20.9545 24.1493 20.5901 24.753 20.8331 24.9945C21.3797 25.5982 20.7116 25.8397 20.3472 25.719ZM20.6508 34.6542L20.3472 34.9561C20.2257 34.8353 20.0435 34.6542 19.922 34.5335C20.165 34.4127 20.4079 34.4731 20.6508 34.6542ZM24.4165 19.1383C24.3558 19.1383 24.3558 19.1987 24.295 19.1987C24.1128 19.3798 23.6269 19.3194 23.6877 19.5005C23.7484 19.6817 25.0239 19.0779 25.0239 19.1987C25.0239 19.3194 24.4772 19.5005 24.1128 19.6817C23.7484 19.8628 23.6269 20.1646 23.0196 20.1646C22.7159 20.1646 22.5944 20.4061 22.4729 20.5873C22.2907 20.8287 22.1693 21.0702 22.0478 21.3117C22.0478 21.674 21.987 22.0362 21.8048 22.3985H20.0435C20.165 19.3194 21.3797 16.3611 23.5055 14.0669L25.9956 16.5423C25.3883 17.3875 24.8417 18.2327 24.4165 19.1383ZM26.7245 17.3271L28.911 19.5005C28.8502 19.5005 28.7895 19.5005 28.668 19.5005C28.4251 19.5005 28.4251 19.3194 28.2429 19.3194C27.8785 19.3798 27.8177 19.5005 27.757 19.4402C27.514 19.1987 27.2104 19.0176 26.8459 18.8364C26.4208 18.7157 25.9956 18.7157 25.6312 18.8968C25.5705 18.8968 25.5705 18.9572 25.5097 18.9572C25.9349 18.4138 26.3601 17.8705 26.7245 17.3271ZM23.6877 21.7343C23.6877 21.9758 23.6269 22.2173 23.6269 22.4588H22.3515C22.2907 22.2777 22.3515 22.0966 22.4729 21.9155C22.5944 21.674 22.8981 21.5532 23.2018 21.6136C23.3232 21.6136 23.5055 21.674 23.6877 21.7343ZM24.7809 24.5719L24.9024 24.753C25.0239 24.8738 25.1453 24.9945 25.2668 24.9341C25.3883 24.8738 25.692 24.9341 25.7527 24.9341C25.9349 24.9945 26.0564 25.1152 26.1778 25.236C26.2993 25.4171 26.5423 25.2964 26.7245 25.4171C26.9067 25.5379 27.0889 25.6586 26.8459 25.7794C26.603 25.9001 27.0889 26.1416 27.1496 26.1416C27.2104 26.1416 27.2711 26.0208 27.2711 25.8397C27.2711 25.7794 27.3926 25.5379 27.5748 25.5982C27.757 25.6586 28.3036 26.3227 28.4858 26.0812C28.668 25.8397 28.5466 25.5379 28.6073 25.4171C28.6073 25.3567 28.668 25.2964 28.7288 25.2964C28.911 25.5982 29.0325 25.8397 29.2754 26.0812L26.7852 28.5565C25.7527 27.4698 25.0239 26.0812 24.7809 24.5719ZM26.7245 15.9385L24.295 13.4632C26.603 11.3502 29.5791 10.1427 32.6766 10.0219V13.5236C30.4901 13.584 28.4251 14.4292 26.7245 15.9385ZM23.5662 12.7387L21.076 10.2634C24.2343 7.30515 28.3644 5.6147 32.6766 5.49395V8.9956C29.2754 9.11635 25.9956 10.4446 23.5662 12.7387ZM22.8373 13.4028C20.5294 15.8781 19.1932 19.0779 19.0717 22.4588H15.549C15.6705 18.1723 17.3711 14.0669 20.3472 10.9275L22.8373 13.4028ZM19.0717 23.4248C19.0717 24.0889 19.1324 24.6926 19.2539 25.3567C19.1932 25.3567 19.1932 25.1756 19.011 25.236C18.8288 25.2964 18.1607 26.4435 17.857 26.9264C17.614 27.3491 17.9784 28.2547 17.614 28.5565C17.2496 28.6773 16.8852 28.7376 16.5208 28.7376H16.46C15.8527 27.0472 15.549 25.2964 15.4883 23.5455L19.0717 23.4248ZM32.6159 44.9177C27.0889 44.7969 21.8048 42.6235 17.857 38.82L20.3472 36.3447C23.6877 39.4841 28.0607 41.2953 32.6159 41.416V44.9177ZM32.6159 40.45C28.3036 40.3293 24.1735 38.6388 21.0153 35.6806L21.4404 35.2579C21.5012 35.3183 21.6226 35.3787 21.7441 35.4391C21.987 35.5598 22.2907 35.6202 22.5944 35.5598C22.8374 35.4994 23.3232 35.0768 23.6269 35.0768C23.9306 35.0768 24.4165 35.1976 24.7202 35.0165C25.0239 34.8353 24.538 34.2316 24.3558 33.9297C24.295 33.8694 24.295 33.809 24.2343 33.7486C26.603 35.7409 29.6398 36.888 32.7374 36.9484L32.6159 40.45ZM32.6159 35.9221C29.5183 35.8013 26.5423 34.5938 24.2343 32.4808L26.7245 30.0055C27.8785 31.0318 29.2754 31.8167 30.8545 32.1789C30.3079 32.4204 30.065 32.7826 30.1257 33.0845C30.1864 33.3864 29.7613 33.5675 29.7613 33.9297C29.7613 34.292 30.2472 34.5335 30.3079 34.8957C30.3687 35.0768 30.7938 35.3787 31.1582 35.6202C31.6441 35.7409 32.13 35.8013 32.5552 35.7409L32.6159 35.9221ZM32.4944 31.0922C32.3122 30.9714 32.1907 31.2129 31.9478 31.3337C30.2472 31.0922 28.7288 30.3677 27.4533 29.281L29.9435 26.8057C30.7331 27.4094 31.6441 27.832 32.6159 27.8924C32.6159 28.0132 32.7374 28.1339 32.7374 28.3754C32.7374 28.6169 32.5552 28.7376 32.6159 28.8584C32.6766 28.9791 33.2233 28.8584 33.284 28.6773C33.3447 28.4961 33.1018 28.3754 33.0411 28.1943C32.9803 28.0735 32.9803 28.0132 32.9196 27.8924H33.1018C33.284 27.8924 33.4662 27.8924 33.6484 27.832C33.7092 27.832 33.7699 27.7717 33.7699 27.7113C33.7699 27.6509 33.8306 27.5905 33.8306 27.5302C33.8306 27.4698 33.8914 27.4698 33.8914 27.4094L33.9521 27.4698C34.0128 27.5905 34.1343 27.9528 34.2558 27.8924C34.3773 27.832 34.438 27.2887 34.3773 27.1679C34.2558 26.9868 34.2558 26.8057 34.3773 26.6246C34.3773 26.5642 34.438 26.202 34.5595 26.2623C34.6809 26.3227 34.5595 26.6246 34.5595 26.7453C34.5595 26.9264 34.6809 27.1679 34.8631 27.0472C34.9846 26.9868 35.1061 26.8057 35.2276 26.8661C35.349 26.9264 34.9239 27.0472 34.8631 27.1679C34.8024 27.2887 35.0454 27.3491 34.9846 27.4094C34.9239 27.4698 34.8631 27.4094 34.8024 27.4698C34.7417 27.5302 34.9239 27.8924 34.8024 27.9528C34.6809 28.0132 34.2558 28.1339 34.1343 28.1943C34.0128 28.2547 33.8914 28.1339 33.9521 28.0735C34.0128 28.0132 33.9521 27.7717 33.8306 27.7717C33.7092 27.7717 33.7092 27.832 33.7092 27.9528C33.7092 28.0735 33.8306 28.2547 33.8306 28.315C33.8306 28.3754 33.6484 28.4358 33.5269 28.4961C33.4055 28.6773 33.2233 28.8584 33.0411 28.9791C32.8588 29.0999 32.4944 29.0999 32.4944 29.2206C32.4944 29.3414 32.6766 29.3414 32.7374 29.4017C32.8588 29.5829 32.9196 29.8244 32.6766 29.9451C32.4337 30.0659 32.13 29.764 32.0085 29.8244C31.8871 29.8847 31.8263 30.1866 31.7656 30.5488C31.7049 30.9111 32.4337 31.0318 32.7981 30.8507C33.0411 30.73 32.9803 30.3677 33.2233 30.247C33.4662 30.1262 33.4055 29.8847 33.6484 29.9451C33.8914 30.0055 33.8306 29.764 34.0736 29.764C34.3165 29.764 34.3165 29.9451 34.6202 30.0055C35.1061 30.1262 35.1061 30.4885 35.1668 30.3073C35.2276 30.1262 35.2883 30.0055 34.9239 29.8847C34.5595 29.764 34.3773 29.3414 34.6809 29.4621C35.0454 29.6432 35.349 29.6432 35.4098 29.8244C35.4705 30.0055 35.8349 29.9451 35.8957 30.1262C35.9564 30.4281 36.1993 30.1262 36.0171 29.9451C35.8349 29.764 35.8957 29.7036 36.0171 29.5829C36.1386 29.4621 36.1993 29.6432 36.3816 29.4017C36.5638 29.1603 36.3208 29.2206 36.2601 29.0999C36.1993 28.9791 36.2601 28.315 36.503 28.4358C36.746 28.5565 36.9889 28.3754 36.8674 28.315C36.746 28.2547 36.9282 27.8924 36.9889 27.8924C37.0497 27.8924 36.9889 28.1339 37.0497 28.1943C37.1104 28.2547 37.7178 28.0132 37.7785 28.315C37.8392 28.6169 37.3533 28.798 37.2319 28.798C36.9889 28.798 36.8067 29.0395 36.6245 29.281C36.4423 29.5225 36.2601 29.5829 36.3816 29.8244C36.503 30.0659 36.746 30.0055 36.9889 29.8847C37.2319 29.764 37.4141 29.5829 37.5355 29.5225C37.7785 29.4017 37.9607 30.1262 37.8392 30.247C37.7178 30.3677 37.4748 30.4281 37.3533 30.5488C36.9889 30.73 36.6245 30.9111 36.1993 30.9111C35.9564 30.9715 35.9564 31.0318 35.8957 31.2733C35.8349 31.5148 34.7417 31.3337 34.4987 31.3337C34.2558 31.3337 34.6809 30.7903 34.3165 30.8507C33.9521 30.9111 33.5877 30.9715 33.2233 31.0318C33.1625 31.0318 32.7981 31.3337 32.4944 31.0922ZM35.7135 36.7069C36.0171 36.8277 36.3208 37.0691 36.503 37.3106C36.6852 37.6125 36.746 37.7332 36.6245 38.0351C36.3208 38.5785 36.4423 38.9407 37.0497 39.1218C37.4141 39.2426 37.5355 39.6048 37.7785 39.8463C36.4423 40.2085 35.0454 40.3897 33.6484 40.45V36.9484C34.3165 36.888 35.0454 36.8277 35.7135 36.7069ZM33.6484 35.9824V35.5598C34.438 35.4391 34.2558 35.9221 34.8024 35.7409C34.9846 35.6806 35.1668 35.7409 35.2883 35.8617C34.7417 35.8617 34.195 35.9221 33.6484 35.9824ZM33.6484 44.978V41.416C35.4705 41.3556 37.2926 41.0538 39.054 40.45C39.1147 40.5104 39.1754 40.5104 39.2362 40.5104C39.4791 40.5104 39.722 40.3897 39.9043 40.2689C40.5116 40.0274 41.0583 39.7256 41.5441 39.3633C43.1233 38.5785 44.6417 37.4918 45.9172 36.2843L48.4073 38.7596C44.4595 42.6235 39.1754 44.7969 33.6484 44.978ZM43.4877 13.4028L44.338 12.5576C44.581 12.7991 44.8239 12.9802 45.1883 13.0406C45.492 13.101 45.6135 13.2217 45.6742 13.5236C45.7349 13.8255 46.0386 13.9462 46.3423 14.0066C46.646 14.0669 46.8282 14.4292 47.0711 14.4292C47.3141 14.4292 48.1037 15.5159 48.4073 15.8781C48.5896 16.0593 48.8325 16.3611 49.0147 16.1196C49.1969 15.8781 49.1969 15.9385 49.3184 15.8781C50.2294 17.9308 50.7761 20.225 50.8368 22.4588H47.3141C47.3141 21.674 47.1926 20.8891 47.0104 20.1043C47.1319 19.8628 47.1926 19.6213 47.1926 19.3194C47.1926 19.0779 46.9497 18.9572 46.7675 19.1383C46.646 18.6553 46.4638 18.2327 46.2816 17.8101C46.2208 17.5686 46.1601 17.2667 46.0994 17.0252C46.0994 16.9649 45.9779 16.9045 45.8564 16.7837C45.7349 16.5422 45.6742 16.3611 45.5527 16.18C45.7349 16.0593 45.7957 15.7574 45.5527 15.8178C45.1883 15.8781 45.4313 15.6367 45.3098 15.5159C45.1883 15.3952 45.1883 15.5159 45.1276 15.5763C44.6417 14.8518 44.1558 14.1877 43.5484 13.5236C43.5484 13.5236 43.5484 13.5236 43.5484 13.4632C43.427 13.4632 43.427 13.4028 43.4877 13.4028ZM45.6135 33.8694C45.492 33.6279 45.4313 33.326 45.3098 33.0845C45.2491 32.843 44.7632 32.843 44.7632 32.9638C44.7632 33.2053 44.7632 33.4468 44.7024 33.6882V33.7486L43.427 32.4808C45.7349 30.0055 47.0711 26.8057 47.1926 23.4248H50.7153C50.5939 27.7113 48.8932 31.8167 45.9172 34.8957L45.7349 34.7146C45.7957 34.4731 45.7349 34.1712 45.6135 33.8694ZM42.6981 36.2843C42.8803 35.9824 43.2448 35.4391 43.427 35.1372C43.6092 34.8353 42.9411 34.4127 42.5767 34.292C42.2122 34.1712 42.2122 33.9901 42.2122 33.6882C42.3944 33.5675 42.5767 33.3864 42.7589 33.2053L45.2491 35.6806C44.3987 36.4654 43.5484 37.1295 42.5767 37.7332C42.5159 37.6125 42.9411 37.1899 43.0625 37.0088C43.184 36.8277 42.5767 36.5862 42.6981 36.2843ZM44.2165 21.8551C43.9129 21.4325 44.338 21.3721 44.7632 21.191C45.0061 21.0702 45.3098 21.2514 45.3098 21.1306C45.3098 21.0099 45.4313 20.7684 45.5527 20.708C45.6742 20.6476 45.8564 20.5269 45.9172 20.4061C45.9172 20.5269 45.9779 20.6476 45.9779 20.7684C45.8564 21.0099 45.7957 21.191 45.7957 21.4325C45.7957 21.6136 45.7957 21.8551 45.9779 21.4325C45.9779 21.3721 46.0386 21.3721 46.0386 21.3117C46.1601 21.7343 46.1601 22.0966 46.1601 22.4588H43.5484C43.5484 22.4588 43.5484 22.4588 43.5484 22.3985C43.7306 22.0966 44.3988 22.157 44.2165 21.8551ZM44.7024 16.9045C44.7024 16.9045 44.7024 16.9649 44.6417 16.9649C44.581 17.0252 44.2773 16.5423 44.2773 16.9045C44.2773 17.2667 44.3987 17.3875 44.6417 17.4478C44.8846 17.5082 44.7632 17.629 44.9454 17.6893C45.0061 17.6893 45.1276 17.7497 45.1883 17.8101C45.492 18.4742 45.6742 19.1383 45.8564 19.8628C45.7349 19.9232 45.6742 19.9835 45.6135 20.0439C45.492 20.1646 45.5527 20.4061 45.4313 20.5873C45.2491 20.8891 45.1883 21.0702 44.7024 20.9495C44.3987 20.8288 44.6417 20.4665 44.7024 20.1646C44.7632 19.8628 44.8846 19.9232 44.8846 19.742C44.8846 19.5609 44.2773 18.8968 43.9736 19.1383C43.6699 19.3798 43.7306 19.6213 43.4877 19.8628C43.3662 19.9835 43.2448 19.9835 43.0625 19.8628C42.8803 19.742 42.8196 19.6213 42.8803 19.5005C42.9411 19.3798 42.4552 18.8364 42.273 18.5949C42.03 18.2931 41.6656 18.112 41.3012 18.112C40.9975 17.5686 40.5724 17.0252 40.1472 16.5423L42.6374 14.0669C43.4877 14.9725 44.1558 15.8781 44.7024 16.9045ZM40.5116 18.5949L40.3902 18.7761C40.3294 18.8968 40.0257 18.6553 39.965 18.7157C39.9043 18.7761 40.3901 19.3798 39.9043 19.1987C39.4184 19.0176 39.7221 19.0176 39.7221 18.8364C39.7221 18.6553 39.2969 18.5346 39.5398 18.4138C39.7828 18.2931 39.5398 18.112 39.7828 18.0516C40.0257 17.9912 39.965 17.7497 39.6613 17.6893C39.3576 17.629 39.4184 18.3534 39.2362 18.2327C39.0539 18.1723 38.8717 18.1723 38.6895 18.1723L39.5398 17.3271C39.6613 17.3875 39.722 17.3875 39.8435 17.3875C39.965 17.8705 40.2687 18.2327 40.5116 18.5949ZM39.5398 30.8507C39.9043 30.9111 40.3294 30.9714 40.6938 31.0922C40.9368 31.2129 41.119 31.4544 41.3012 31.1526C41.6656 30.6092 41.9086 30.0055 42.03 29.3414C42.1515 28.4358 41.9693 28.1339 41.8478 28.1339C41.7263 28.1339 41.4834 28.3754 41.2405 28.3754C41.119 28.3754 41.119 28.6169 41.119 28.798C41.119 28.9791 40.876 29.1603 40.8153 29.0395C40.7546 28.9188 40.6331 28.9791 40.6938 29.0999C40.7546 29.2206 40.2079 29.1603 39.965 29.0395C39.6006 28.8584 40.3901 28.8584 40.7546 28.5565C41.0582 28.315 41.3619 28.0132 41.6656 27.7113C41.8478 27.4094 41.8478 27.0472 42.1515 26.8057C42.4552 26.5642 42.9411 26.6246 43.0018 26.2623C43.0625 25.9001 43.1233 25.9605 43.3055 26.0208C43.4877 26.0812 45.1883 25.9605 45.1883 25.4171C45.1883 25.1756 44.8239 24.8738 44.4595 24.8134C44.2165 24.8134 44.1558 24.3304 44.0343 24.0889C43.9129 23.8474 43.7914 23.6059 43.6092 23.3644H46.1601C46.0386 26.4435 44.8239 29.4017 42.6981 31.6959L42.6374 31.6356V31.3941C42.6981 30.9111 42.3337 30.1262 42.2122 30.247C42.0908 30.3677 42.2122 30.3677 41.8478 30.9111C41.7263 31.0922 41.5441 31.3941 41.3012 31.3941C41.0582 31.3941 41.0582 31.2733 40.6938 31.3337C40.3902 31.3941 40.0257 31.3941 39.7221 31.3337C39.1754 31.1526 38.6288 30.9111 38.0822 30.5488C38.1429 30.4885 38.3251 30.6092 38.3251 30.4281C38.3251 30.247 39.2969 30.7903 39.5398 30.8507ZM49.0754 38.1559L46.5853 35.6806C49.7435 32.36 51.5656 28.0132 51.6871 23.4852H55.2705C55.1491 28.9791 52.9626 34.1712 49.0754 38.1559ZM55.2705 22.4588H51.6871C51.6264 19.8628 51.019 17.3271 49.865 14.9725L49.9258 14.9122C50.1687 14.6707 48.7718 12.8595 48.5288 12.6784C48.2859 12.4972 48.0429 12.1954 47.7392 11.8935C47.2534 11.4105 46.7675 10.8672 46.403 10.3238L49.0147 7.72776C52.9626 11.7124 55.1491 16.9649 55.2705 22.4588ZM33.6484 0.965963C39.1754 1.08671 44.4595 3.26014 48.4681 7.06366L46.0386 9.47859C45.9172 9.41821 45.7957 9.35784 45.8564 9.23709C45.9779 9.05597 45.6742 9.05597 45.6135 8.57299C45.492 8.09 45.1276 7.66739 44.7024 7.4259C44.3987 7.24478 44.2165 7.00328 43.9129 6.88254C43.6092 6.76179 43.0018 6.39955 42.6981 6.5203C42.5159 6.58067 42.273 6.64104 42.0908 6.64104C39.4791 5.25246 36.6245 4.52798 33.7092 4.46761L33.6484 0.965963ZM33.6484 5.49395C36.2601 5.55433 38.7503 6.21843 41.119 7.36552C41.1797 7.72776 41.3619 8.15037 41.6049 8.45224C41.7263 8.75411 41.9086 8.9956 42.0908 9.29747C42.273 9.47859 42.1515 9.84082 42.2122 10.1427C42.2122 10.2634 42.3337 10.3842 42.3945 10.5049C42.3945 10.686 42.3945 10.8068 42.3945 10.9879C42.3945 11.0483 42.6374 11.0483 42.8196 10.9275C43.0018 10.8068 43.1233 10.5653 43.3662 10.6257C43.6092 10.686 43.9129 11.169 44.0951 11.4709L42.9411 12.618C42.8196 12.3765 42.6981 12.0746 42.7589 12.0746C42.8196 12.0746 42.9411 12.135 43.0018 12.135C43.2448 12.135 42.8196 11.9539 42.8196 11.8935C42.6374 11.7124 42.6374 11.4709 42.3945 11.2898C42.1515 11.1087 41.7871 11.2294 41.6656 10.9879C41.4227 10.5653 41.119 10.2031 40.6938 9.9012C40.6331 9.9012 41.1797 10.5653 40.9975 10.686C40.8153 10.8068 40.1472 10.2634 40.0865 10.3842C40.0257 10.5049 40.8153 10.8068 41.0582 11.0483C41.1797 11.169 41.4227 11.5313 41.6656 11.8331C39.3576 10.0823 36.5638 9.11635 33.6484 8.9956V5.49395ZM33.6484 9.96157C36.746 10.0823 39.722 11.2898 42.03 13.4028L39.5398 15.8781C37.9 14.4292 35.8349 13.584 33.6484 13.4632V9.96157ZM33.6484 14.4896C35.592 14.6103 37.4141 15.3348 38.811 16.6026L38.6895 16.7234L38.5681 16.663C38.2644 16.5423 37.657 17.146 37.7785 17.2064C37.9 17.2667 38.1429 16.9649 38.2644 17.0252H38.3251L37.2926 18.112C36.9889 18.2327 36.6852 18.4742 36.6852 18.6553C36.6852 18.6553 36.6852 18.6553 36.6852 18.7157L36.3208 19.0779L36.1386 18.8968C35.8349 18.6553 35.5312 18.4742 35.1668 18.3534C35.349 18.2327 35.4098 18.0516 35.4705 17.8101C35.4705 17.4478 35.349 17.5686 35.1668 17.7497C34.9846 17.9308 34.8024 17.9912 34.6809 18.1723C34.3773 18.0516 34.0128 17.9912 33.7092 17.9912V14.4896H33.6484ZM33.2233 18.9572C33.284 19.0779 33.2233 19.1987 33.1625 19.259C33.0411 19.3798 32.6766 18.9572 32.6159 19.3194C32.4944 19.6817 32.8588 19.5005 32.8588 19.5609C33.0411 19.8024 33.284 19.9232 33.5877 19.9835C33.8306 19.9835 34.195 19.9835 34.195 20.225C34.195 20.3458 34.4987 20.3458 34.5595 20.4665C34.5595 20.6476 34.7417 20.9495 34.8631 20.8891C34.9846 20.8287 35.1668 20.9495 35.2276 21.0702C35.2883 21.191 35.2276 21.2514 35.1668 21.3721C34.9846 21.5532 35.349 21.4929 35.4098 21.8551C35.4705 22.2173 35.1061 21.9758 35.0454 22.2173C34.9239 22.3985 34.8024 22.5192 34.6809 22.7003C34.6202 22.7607 34.7417 22.8814 34.8024 22.8211C34.8631 22.7607 34.9846 22.5796 35.1668 22.5796C35.349 22.5796 35.5312 23.2437 35.7135 23.3041C35.8957 23.3644 35.8349 23.6059 35.8957 23.6663C35.9564 23.7267 35.592 23.6663 35.6527 23.787C35.7135 23.9078 36.0779 23.9682 36.0779 24.1493C36.0171 24.3304 35.8957 24.5115 35.6527 24.5115C35.4705 24.5115 35.1668 24.0889 35.1668 24.2096C35.1668 24.3304 35.2883 24.6926 35.4705 24.6926C35.6527 24.6926 36.0779 24.5115 35.8957 24.753C35.7135 24.9945 35.7742 25.3567 35.6527 25.3567C35.5312 25.3567 35.4705 25.3567 35.592 25.5379C35.6527 25.719 35.592 25.9001 35.4705 26.0812C35.349 26.202 35.0454 26.0812 35.0454 26.0208C35.0454 25.9605 35.4098 25.9605 35.4098 25.7794C35.4098 25.5982 35.2276 25.5379 34.8631 25.6586C34.6809 25.719 34.6202 25.5982 34.4987 25.5982C34.3773 25.5982 34.0128 26.0208 34.0128 26.0812C34.0128 26.1416 34.0128 26.2623 34.0128 26.3831C34.0128 26.6246 33.9521 26.8057 33.8306 26.9868C33.5877 27.0472 33.4055 27.0472 33.1625 27.0472C32.1907 27.0472 31.219 26.6246 30.4901 26.0208C30.6116 25.9605 30.7938 25.9001 30.976 25.9001C31.1582 25.9605 31.219 25.8397 31.3404 25.7794C31.4619 25.719 31.7656 25.9001 31.9478 25.7794C32.13 25.6586 32.5552 24.8738 32.4944 24.6926C32.4337 24.5115 32.9196 24.2097 32.8588 24.1493C32.7981 24.0889 32.7374 24.2097 32.7374 24.1493C32.7374 24.0889 32.8588 24.0889 32.7374 23.8474C32.6159 23.6059 32.4337 23.7267 32.3122 23.7267C32.13 23.6059 31.8263 23.5455 31.7656 23.6059C31.7049 23.6663 31.5226 23.4852 31.4619 23.5455C31.4012 23.5455 31.2797 23.6059 31.2797 23.7267C31.219 23.8474 31.3404 23.9682 31.3404 24.0889C31.2797 24.3304 30.9153 24.5115 30.9153 24.6926C30.9153 24.8738 30.7331 24.753 30.6723 24.8134C30.6116 24.8738 30.6723 24.9945 30.5509 24.9945C30.4294 24.9945 30.2472 25.2964 30.1257 25.5379C29.9435 25.2964 29.7613 24.9945 29.5791 24.753C29.7006 24.6926 29.822 24.6323 29.8828 24.6926C30.065 24.8134 30.7938 23.5455 30.6723 23.1833C30.5509 22.8211 30.3687 23.0626 30.1864 23.1229C30.0042 23.1833 30.0042 23.0022 30.065 22.9418C30.1257 22.8814 30.9153 22.8814 30.4901 22.6399C30.3079 22.5192 29.822 22.5192 29.8828 22.3381C29.9435 22.157 30.1864 22.3381 30.2472 22.3381C30.5509 22.4588 30.7331 21.8551 30.9153 21.8551C31.219 21.8551 31.0975 21.2514 30.7938 21.4325C30.4901 21.6136 30.3687 21.5532 30.2472 21.7343C30.1257 21.9155 29.822 22.157 29.822 21.9155C29.822 21.7947 30.4901 21.4325 30.6116 21.2514C30.7331 21.1306 30.8545 20.9495 30.9153 20.7684C30.976 20.5873 31.8263 20.4665 32.0085 20.3458C32.13 20.225 32.2515 20.0439 32.2515 19.8628C32.2515 19.6817 32.0085 19.742 31.9478 19.6213C31.8871 19.5005 32.2515 19.6213 32.2515 19.4402C32.2515 19.259 31.9478 19.4402 31.8263 19.3194C31.8263 19.259 31.8263 19.259 31.8871 19.1987C32.4337 19.0176 32.7981 18.9572 33.2233 18.9572H33.3447H33.2233ZM32.6766 0.965963V4.46761C28.1214 4.58836 23.7484 6.39955 20.4079 9.53896L17.9177 7.06366C21.8656 3.26014 27.1496 1.08671 32.6766 0.965963ZM17.1281 7.78814L19.6183 10.2634C16.46 13.584 14.6379 17.9308 14.5165 22.4588H10.9938C11.176 16.9649 13.3625 11.7124 17.1281 7.78814Z" fill="#009EDB"/>
</g>
<defs>
<clipPath id="clip0_263_21911">
<rect width="181.176" height="55" fill="white"/>
</clipPath>
</defs>
</svg>
