<svg width="159" height="49" viewBox="0 0 159 49" fill="none" xmlns="http://www.w3.org/2000/svg">
<g clip-path="url(#clip0_176_21509)">
<path d="M77.9277 2.96702H82.0319V15.895C82.0319 18.1733 81.339 19.9217 79.8999 21.0873C76.6484 23.4716 72.2777 23.4716 69.0262 21.0873C67.5871 19.9217 66.8942 18.1733 66.8942 15.895V2.96702H70.9984V15.895C70.9984 17.2195 71.3182 18.1203 71.9579 18.7031C73.4503 19.8687 75.5824 19.8687 77.0749 18.7031C77.7145 18.1203 77.981 17.1666 77.981 15.895L77.9277 2.96702ZM91.04 10.8615C90.0273 10.8086 89.0145 11.3384 88.5348 12.2391V22.5709H84.5904V8.00044H88.2683L88.3749 9.64292C89.3876 8.37132 90.9867 7.62955 92.5858 7.68254C93.8117 7.62955 95.0377 8.05342 95.9438 8.90116C96.7966 9.74889 97.223 11.1794 97.223 13.2458V22.5179H93.2787V13.2988C93.2787 12.3451 93.0655 11.7093 92.6924 11.3914C92.2659 11.0205 91.6796 10.8086 91.04 10.8615ZM99.8881 4.23862C99.8881 3.70878 100.101 3.17895 100.474 2.80807C101.381 2.0663 102.766 2.0663 103.673 2.80807C104.046 3.17895 104.312 3.70878 104.259 4.23862C104.259 4.76845 104.046 5.29829 103.673 5.66917C102.766 6.41094 101.381 6.41094 100.474 5.66917C100.101 5.29829 99.8881 4.76845 99.8881 4.23862ZM104.099 8.00044V22.5709H100.155V8.00044H104.099ZM114.28 22.5179C113.533 22.7828 112.734 22.8888 111.934 22.8888C110.815 22.9418 109.749 22.5709 108.843 21.8821C108.097 21.2463 107.724 20.1336 107.724 18.5441V10.8615H105.538V8.00044H107.724V4.39757H111.668V8.00044H114.173V10.8615H111.668V18.1732C111.615 18.5971 111.721 19.074 112.041 19.3919C112.361 19.6038 112.787 19.7098 113.16 19.7098C113.374 19.7098 113.587 19.7098 113.8 19.6568C114.013 19.6568 114.173 19.6038 114.28 19.6038V22.5179ZM128.458 20.2396C127.872 20.9814 127.179 21.6172 126.326 22.041C125.207 22.6239 123.981 22.8888 122.755 22.8888C120.463 22.8888 118.65 22.2 117.371 20.8224C116.092 19.4449 115.399 17.6964 115.452 15.842V15.3121C115.346 13.3518 116.039 11.3914 117.318 9.90784C118.597 8.47729 120.409 7.68254 122.328 7.78851C124.46 7.78851 126.059 8.42431 127.125 9.74889C128.192 11.0735 128.778 12.8219 128.778 14.9413V16.5837H119.45C119.557 17.4315 119.93 18.2792 120.569 18.862C121.209 19.4449 122.115 19.7628 123.021 19.7098C124.407 19.7628 125.74 19.1799 126.539 18.0673L128.458 20.2396ZM122.275 10.8615C121.529 10.8086 120.836 11.1265 120.356 11.7093C119.876 12.3451 119.557 13.0868 119.45 13.8816H124.887V13.5637C124.887 12.8749 124.674 12.1861 124.247 11.6033C123.767 11.0735 123.021 10.8086 122.275 10.8615ZM139.705 22.6239L139.492 21.0873C139.065 21.6172 138.532 22.094 137.893 22.4119C137.253 22.7298 136.507 22.8888 135.76 22.8888C134.055 22.9418 132.456 22.147 131.55 20.7694C130.484 19.1799 129.95 17.3255 130.057 15.4711V15.2062C130.057 12.9809 130.537 11.1794 131.55 9.80187C132.509 8.42431 134.108 7.68254 135.814 7.73552C137.2 7.68254 138.479 8.26536 139.332 9.32502V1.90735H143.276V22.6239H139.705ZM133.948 15.4711C133.895 16.4778 134.108 17.5374 134.588 18.4382C135.014 19.2329 135.867 19.7628 136.773 19.6568C137.839 19.7098 138.852 19.1269 139.332 18.1732V12.3981C138.905 11.4444 137.893 10.8086 136.773 10.8615C135.867 10.8086 135.014 11.2854 134.588 12.1331C134.108 13.0868 133.895 14.1465 133.948 15.2062V15.4711ZM83.098 26.4387V46.0955H79.047L71.105 33.1146V46.0955H67.0008V26.4387H71.105L79.047 39.4196V26.4387H83.098ZM94.5579 46.0955C94.3447 45.6716 94.2381 45.2478 94.1848 44.7709C93.7584 45.2478 93.2787 45.6186 92.6924 45.8836C91.9994 46.2015 91.2532 46.3604 90.4537 46.3604C89.1744 46.4134 87.8952 45.9365 86.9357 45.1418C85.9763 44.347 85.4966 43.2344 85.4966 42.0158C85.4433 40.6382 86.0829 39.2606 87.2023 38.4659C88.3216 37.6182 90.0273 37.1943 92.2659 37.1943H94.0249V36.3466C94.0782 35.7637 93.865 35.1809 93.4919 34.7041C93.0655 34.2802 92.4792 34.0683 91.8395 34.1213C90.4537 34.1213 89.7607 34.7041 89.7607 35.8697H85.8164C85.8164 34.5981 86.456 33.3795 87.5221 32.5847C88.8546 31.631 90.4537 31.1542 92.0527 31.2072C93.5452 31.1542 95.0377 31.578 96.2636 32.4788C97.3829 33.3265 97.916 34.5981 97.916 36.3466V42.4926C97.916 43.1814 97.9693 43.8172 98.0759 44.506C98.1825 44.9828 98.2891 45.4067 98.5023 45.8306V46.0955H94.5579ZM91.3065 43.3933C91.8928 43.3933 92.4792 43.2344 93.0122 42.9695C93.4386 42.7575 93.7584 42.3867 94.0249 42.0158V39.4726H92.4258C91.6263 39.4196 90.7735 39.6315 90.1339 40.1084C89.6541 40.5322 89.3876 41.1151 89.3876 41.6979C89.3876 42.1747 89.5475 42.5986 89.8674 42.9165C90.2938 43.2344 90.8268 43.3933 91.3065 43.3933ZM107.99 45.9895C107.617 46.0955 107.297 46.2015 106.924 46.2544C106.498 46.3074 106.071 46.3604 105.645 46.3604C104.525 46.4134 103.459 46.0425 102.553 45.3537C101.807 44.7179 101.434 43.6053 101.434 42.0158V34.3332H99.2485V31.4721H101.434V27.8692H105.378V31.4721H107.883V34.3332H105.378V41.6449C105.325 42.0688 105.432 42.5456 105.751 42.8635C106.071 43.0754 106.498 43.1814 106.871 43.1814C107.084 43.1814 107.297 43.1814 107.51 43.1284C107.724 43.1284 107.883 43.0754 107.99 43.0754V45.9895ZM109.642 27.7103C109.642 27.1804 109.856 26.6506 110.229 26.2797C111.135 25.5379 112.521 25.5379 113.427 26.2797C114.226 27.0745 114.226 28.3461 113.427 29.1938C112.521 29.9356 111.135 29.9356 110.229 29.1938C109.802 28.7699 109.589 28.2401 109.642 27.7103ZM113.8 31.4721V46.0955H109.856V31.4721H113.8ZM116.039 38.9427V38.6778C115.985 36.7704 116.625 34.863 117.851 33.3795C119.077 31.9489 120.783 31.2601 122.968 31.2601C125.207 31.2601 126.912 31.9489 128.138 33.3795C129.364 34.863 130.004 36.7704 129.95 38.6778V38.9427C130.004 40.8501 129.364 42.7575 128.138 44.2411C126.912 45.6716 125.207 46.3604 123.021 46.3604C120.783 46.3604 119.077 45.6716 117.851 44.2411C116.625 42.7575 115.985 40.8501 116.039 38.9427ZM119.983 38.6248V38.8898C119.93 39.9494 120.196 41.0091 120.676 41.9098C121.529 43.1814 123.288 43.5523 124.567 42.7046C124.887 42.4926 125.153 42.2277 125.367 41.9098C125.846 40.9561 126.059 39.9494 126.059 38.8898V38.6248C126.113 37.5652 125.846 36.5585 125.367 35.6048C124.887 34.757 123.981 34.2272 123.021 34.3332C122.062 34.2802 121.156 34.757 120.676 35.6048C120.196 36.5585 119.93 37.6182 119.983 38.6248ZM138.372 34.3862C137.359 34.3332 136.347 34.863 135.867 35.8167V46.0955H131.923V31.4721H135.601L135.76 33.1675C136.773 31.8959 138.319 31.1542 139.971 31.2072C141.251 31.1542 142.476 31.578 143.383 32.4258C144.235 33.2735 144.662 34.7041 144.662 36.7704V46.0955H140.718V36.7704C140.718 35.8167 140.504 35.1809 140.131 34.863C139.598 34.4921 138.959 34.3332 138.372 34.3862ZM155.216 42.0158C155.216 41.5919 155.002 41.168 154.629 40.9561C153.883 40.5322 153.03 40.2673 152.231 40.1614C150.898 39.8964 149.619 39.4196 148.5 38.6778C147.54 38.042 146.954 36.9294 147.007 35.7637C147.007 34.5451 147.593 33.3795 148.553 32.5847C149.619 31.684 151.005 31.2072 152.87 31.2072C154.736 31.2072 156.282 31.631 157.401 32.5317C158.467 33.3265 159.053 34.5981 159.053 35.9227H155.109C155.109 35.3929 154.949 34.916 154.576 34.5451C154.096 34.1742 153.51 33.9623 152.87 34.0153C152.337 33.9623 151.804 34.1213 151.325 34.4392C151.005 34.7041 150.792 35.1279 150.792 35.5518C150.792 35.9757 151.005 36.3995 151.378 36.6115C152.018 36.9824 152.764 37.1943 153.51 37.3003C154.896 37.5652 156.228 38.042 157.454 38.7308C158.52 39.3666 159.053 40.4263 159.053 41.8568C159.053 43.1284 158.414 44.2941 157.401 45.0358C156.282 45.8836 154.789 46.3074 152.87 46.3074C150.845 46.3074 149.246 45.7776 148.18 44.7179C147.167 43.8702 146.581 42.6516 146.527 41.38H150.259C150.259 42.0158 150.578 42.6516 151.111 43.0225C151.644 43.3404 152.284 43.5523 152.977 43.4993C154.416 43.6053 155.216 43.0754 155.216 42.0158Z" fill="white"/>
<path d="M46.0534 44.0288C44.5076 44.7706 42.8019 44.9825 41.0963 44.6116C39.9236 44.3467 38.8576 43.9758 37.7915 43.499L35.4463 42.5453C33.4208 41.9095 31.2354 41.8565 29.1566 42.3863H28.9434C26.8646 41.8035 24.6792 41.8565 22.6538 42.5453C21.8542 42.8102 21.108 43.1811 20.3085 43.499C19.2424 43.9758 18.1231 44.3997 17.0038 44.6646C15.3514 45.0355 13.5924 44.8236 12.0467 44.0818L11.8335 43.9758C11.7802 43.9758 11.7802 43.9758 11.7802 44.0288C12.7929 45.0885 14.1254 45.8302 15.5113 46.2011C16.4707 46.466 17.4835 46.519 18.4429 46.4131C19.9354 46.2011 21.3745 45.6713 22.6005 44.8236L24.8391 43.34C25.692 42.8102 26.7047 42.5983 27.6642 42.8102C28.1972 42.8632 27.7708 43.1281 27.7175 43.1811C26.3849 43.8169 25.1057 44.6116 23.933 45.5124C23.1335 46.0952 21.6943 47.4727 21.6943 47.4727L22.7604 48.3735L23.933 47.1019C25.3722 45.6183 27.0245 44.3467 28.8368 43.34C28.9967 43.2341 29.1566 43.2341 29.3165 43.34C31.1288 44.3467 32.7812 45.6183 34.2203 47.1019L35.393 48.3735L36.459 47.4727L34.2203 45.5124C33.0477 44.6116 31.7684 43.8169 30.4359 43.1811C30.3293 43.1281 29.9561 42.8632 30.4892 42.8102C31.4486 42.5983 32.4613 42.8102 33.3142 43.34L35.5529 44.8236C36.7788 45.6713 38.218 46.2011 39.7104 46.4131C40.6699 46.519 41.6826 46.466 42.642 46.2011C44.0279 45.7773 45.3604 45.0355 46.3732 44.0288C46.3732 44.0288 46.3199 43.9758 46.2666 43.9758L46.0534 44.0288ZM51.277 39.4193C50.584 39.9491 49.8378 40.32 49.0383 40.5849C47.9189 40.9028 46.693 41.1147 45.5203 41.1147C43.9746 41.1677 42.4821 41.2737 40.9364 41.4856C40.8298 41.4856 40.7765 41.4856 40.8298 41.4326C42.1623 40.9028 43.2284 39.8431 43.8147 38.5715L45.3071 35.5515C45.3071 35.4985 45.3071 35.4985 45.3071 35.4455C45.2005 35.4985 43.7081 36.7701 43.0151 37.4059L40.51 39.8431C39.3906 40.7968 38.0581 41.4856 36.6189 41.8565H36.5656L36.5123 41.9095L39.3906 42.5983C40.6166 42.9691 41.8958 43.1811 43.1751 43.287C46.4265 43.6049 49.5713 42.1214 51.3836 39.4722C51.3836 39.4193 51.3303 39.4193 51.277 39.4193ZM55.9675 32.3195C55.2213 33.2202 54.3152 34.015 53.3024 34.6508C52.4496 35.2336 51.5435 35.7104 50.584 36.1343C49.3581 36.6111 48.2387 37.2999 47.226 38.0947L47.0128 38.2536C46.9595 38.2536 46.9595 38.2536 46.9595 38.2006C46.9595 38.1477 48.5586 36.5582 49.0383 33.2202C49.0916 32.0016 49.3048 30.836 49.5713 29.6703C49.5713 29.6173 49.5713 29.6173 49.5713 29.5644C48.452 30.9419 47.5991 32.4784 47.0128 34.1209L46.0534 36.8231C45.6802 38.0417 44.9873 39.1543 44.0812 40.0551L43.9746 40.161V40.214C44.0812 40.214 44.1878 40.161 44.2944 40.161L47.3859 39.5252C49.0916 39.2603 50.6906 38.5715 52.0765 37.5648C53.5156 36.5582 54.635 35.1806 55.4345 33.6441C55.6477 33.2202 55.8076 32.7963 55.9675 32.3725C56.0741 32.2665 56.0208 32.2665 55.9675 32.3195ZM57.993 24.372C57.5133 25.8025 56.6605 27.1271 55.5411 28.1868C54.2619 29.4054 53.0892 30.783 52.0232 32.1605C52.0232 32.2135 51.9166 32.1605 51.9699 32.1076C52.3963 30.677 52.5029 29.1405 52.2897 27.604C52.0765 26.3324 51.5435 24.9548 51.3836 23.4183L51.3303 23.3653C51.3303 23.4183 51.277 23.4713 51.277 23.5242C50.9571 24.5309 50.7439 25.5376 50.6373 26.5973C50.584 27.8689 50.7972 29.5114 50.6906 30.783C50.584 32.2665 50.4774 33.803 49.7845 35.1276C49.7845 35.1806 49.7845 35.1806 49.7845 35.2336L52.9826 33.2732C54.3152 32.4255 55.4345 31.3658 56.3407 30.0942C57.5133 28.4517 58.0996 26.5443 58.0996 24.5309C58.0996 24.4779 58.0996 24.372 58.0996 24.319C58.0463 24.319 57.993 24.372 57.993 24.372Z" fill="white"/>
<path d="M54.5818 25.2201C54.6351 25.2201 54.6351 25.2201 54.5818 25.2201C54.5818 24.7962 54.5818 24.3723 54.5285 23.9485C54.4219 22.4649 53.5158 21.2463 52.7163 19.9747C52.1833 19.18 51.7035 18.3322 51.2771 17.4315C51.2771 17.4315 51.2238 17.3785 51.1705 17.3785C51.1705 17.4845 51.1705 17.9613 51.2238 18.2263C51.4903 20.3456 52.0233 22.4649 52.8229 24.4783C53.3026 25.7499 53.4625 27.0745 53.3559 28.3991C53.3559 28.505 53.3559 28.505 53.4092 28.558C53.8889 27.8692 54.8484 26.9155 55.4347 26.1738C56.021 25.432 59.2191 21.8291 57.6734 16.8487C57.6201 16.6368 57.5135 16.4248 57.4068 16.2129L57.3535 16.2659C57.3535 19.8687 55.5946 21.4053 54.9017 23.8425C54.7417 24.4253 54.6351 24.8492 54.5818 25.2201ZM54.6351 17.8024L54.3153 16.9547L54.1021 16.4778C53.5691 15.5241 52.8229 14.6764 51.9167 14.0406C51.1705 13.4048 50.5309 12.716 49.9979 11.9212C49.9979 11.9212 49.9446 11.9212 49.8913 11.9212H49.838C49.8913 12.0802 50.371 13.6697 50.6908 14.4114C51.2238 15.4181 51.8634 16.4248 52.6097 17.2726L52.7696 17.4845C53.6757 18.7031 54.3686 20.0277 54.8484 21.4582C54.8484 21.5112 54.9017 21.5112 54.9017 21.5112L55.8078 18.7561C56.1276 17.8024 56.3941 16.7957 56.6073 15.789C56.9271 13.4048 56.1809 10.3847 54.7951 8.68924C54.7951 8.68924 54.7417 8.74223 54.7417 8.79521L54.7951 9.00714L54.9017 9.32504C55.1682 10.5966 55.2215 11.9742 54.955 13.2458C54.7417 14.2525 54.6884 15.3122 54.6884 16.3718C54.6884 16.5308 54.7951 17.8554 54.7951 17.9084C54.7951 17.9613 54.7417 17.9084 54.6884 17.9084M50.371 4.50355C50.7974 4.92742 51.1705 5.40427 51.3837 5.98709C51.7568 6.88781 51.8634 8.21239 52.1299 9.21908L52.6097 10.9675C52.6097 11.0205 52.5564 11.0735 52.5031 11.0205C51.7035 10.0668 50.7441 9.27206 49.6247 8.63626C48.8785 8.21239 48.2922 7.62957 47.7592 6.99377L47.4927 6.62289C47.4927 6.62289 47.4394 6.56991 47.3861 6.62289C47.3861 6.67587 47.3861 6.72886 47.3861 6.78184C47.6526 7.94747 48.1856 9.06013 49.0384 9.96084C49.7314 10.5966 50.4776 11.1795 51.1705 11.7623C52.0766 12.504 52.9295 13.4048 53.729 14.3055C53.729 14.3055 53.7823 14.3585 53.7823 14.3055V13.4577L53.8356 10.9145V10.0668C53.8356 9.21908 53.6757 8.31836 53.3559 7.52361C52.8229 6.19902 51.8101 5.13936 50.5842 4.50355C50.5309 4.45057 50.4243 4.45057 50.3177 4.39759C50.3177 4.39759 50.3177 4.45057 50.371 4.50355ZM44.8809 2.01333C45.6271 2.70212 46.2667 3.49687 46.853 4.3446C47.3861 5.19234 47.9724 5.93411 48.7186 6.62289C49.1983 7.09974 50.6375 8.21239 51.0106 8.53029C50.9573 8.10643 50.2644 5.08637 48.3988 3.60284C47.3328 2.7551 46.0535 2.1193 44.721 1.8014C44.721 1.85438 44.721 1.85438 44.721 1.90737L44.8809 2.01333ZM15.0317 43.2874C16.2577 43.1814 17.5369 42.9695 18.7096 42.5986L21.5879 41.9098H21.6412C21.6412 41.9098 21.6412 41.8568 21.5879 41.8568H21.5346C20.0954 41.486 18.7629 40.7972 17.5902 39.8435L15.085 37.4592L12.793 35.4988V35.6048C13.0062 35.9227 13.8058 37.6712 14.2855 38.6249C14.8718 39.9494 15.9379 40.9561 17.2704 41.486C17.3237 41.5389 17.2704 41.5389 17.1638 41.5389C15.6713 41.327 14.1256 41.221 12.5798 41.1681C11.4072 41.1681 10.1812 40.9561 9.0619 40.6382C8.26236 40.3733 7.51614 40.0024 6.82321 39.4726C6.76991 39.4726 6.76991 39.4726 6.71661 39.4726C7.78265 40.9561 9.2751 42.1218 10.9808 42.7576C12.3133 43.1814 13.6459 43.3404 15.0317 43.2874ZM13.8058 40.1614C13.9124 40.1614 13.9657 40.2144 14.1256 40.2144V40.1614L14.019 40.0554C13.1129 39.1547 12.4732 38.042 12.0468 36.8234L11.0874 34.1213C10.501 32.4788 9.64822 30.9423 8.52888 29.5647C8.52888 29.6177 8.52888 29.6177 8.52888 29.6707C8.84869 30.8363 9.00859 32.0019 9.1152 33.2206C9.59492 36.5055 11.194 38.095 11.194 38.148C11.194 38.201 11.194 38.254 11.1407 38.201L10.9275 38.042C9.91473 37.2473 8.79539 36.5585 7.56944 36.0817C6.61 35.6578 5.70387 35.1809 4.85103 34.5981C3.8383 33.9623 2.93216 33.1676 2.18593 32.2669H2.13263C2.29254 32.6907 2.45244 33.1146 2.66565 33.5385C3.46518 35.075 4.63783 36.4525 6.07698 37.4592C7.46283 38.5189 9.0619 39.2077 10.7676 39.4196C11.7803 39.6845 12.793 39.9494 13.8058 40.1614ZM5.22415 33.2735L8.42227 35.2339C8.42227 35.2339 8.47557 35.1809 8.47557 35.128C7.78265 33.7504 7.67604 32.2668 7.56944 30.7833C7.46283 29.4587 7.67604 27.8692 7.62274 26.5976C7.51614 25.538 7.30293 24.4783 6.98312 23.4716C6.98312 23.4186 6.92981 23.3656 6.92981 23.3127L6.87651 23.3656C6.76991 24.9022 6.18359 26.2797 5.97038 27.5513C5.75717 29.0349 5.86377 30.5714 6.29019 32.0549C6.34349 32.1079 6.23689 32.1609 6.23689 32.1079C5.17085 30.6773 3.9982 29.3528 2.71895 28.1341C1.59961 27.0745 0.746776 25.8029 0.267058 24.3723C0.267058 24.3723 0.213756 24.3193 0.160454 24.3193C0.107152 24.3193 0.160454 24.4253 0.160454 24.5313C0.160454 26.4917 0.746776 28.452 1.91942 30.0945C2.77225 31.3132 3.8916 32.4258 5.22415 33.2735ZM4.63783 28.611C4.69113 28.558 4.69113 28.558 4.69113 28.452C4.58452 27.1275 4.74443 25.7499 5.27745 24.5313C6.02368 22.5179 6.5567 20.4516 6.87651 18.2792C6.87651 18.0143 6.92981 17.5375 6.92981 17.4315C6.87651 17.4315 6.87651 17.4315 6.87651 17.4845C6.4501 18.3852 5.97038 19.2329 5.43736 20.0277C4.58452 21.1933 3.73169 22.4649 3.62509 23.9485C3.57178 24.3723 3.57178 24.7962 3.62509 25.2201C3.62509 25.2201 3.62509 25.273 3.57178 25.273C3.57178 25.273 3.57178 25.273 3.57178 25.2201L3.19867 23.9485C2.45244 21.5112 0.746776 19.9747 0.746776 16.3718L0.693474 16.3188C0.58687 16.5308 0.533568 16.7427 0.426964 16.9547C-1.1188 21.9351 2.02603 25.538 2.66565 26.2797C3.30527 27.0215 4.15811 27.9222 4.63783 28.611ZM2.39914 18.7031L3.30527 21.4582C3.30527 21.4582 3.35858 21.4582 3.35858 21.4053C3.83829 19.9747 4.58452 18.6501 5.43736 17.4315L5.59726 17.2196C6.34349 16.3189 6.98312 15.3651 7.51614 14.3585C7.83595 13.6167 8.31567 12.0272 8.36897 11.8682H8.31567C8.26237 11.8682 8.26236 11.8682 8.20906 11.8682C7.67604 12.663 7.03642 13.3518 6.29019 13.9876C5.38405 14.6234 4.58452 15.4711 4.0515 16.4778C3.9982 16.6368 3.8916 16.7957 3.83829 16.9547L3.51848 17.8554C3.51848 17.8554 3.46518 17.9613 3.46518 17.8554C3.46518 17.7494 3.57178 16.5308 3.57178 16.3188C3.57178 15.2592 3.46518 14.1995 3.25197 13.1928C2.98546 11.8682 3.03876 10.5437 3.30527 9.27206C3.30527 9.16609 3.35858 9.06013 3.41188 8.95416C3.41188 8.90118 3.46518 8.79521 3.46518 8.74223C3.46518 8.68924 3.46518 8.68924 3.41188 8.63626C2.02603 10.3317 1.22649 13.4048 1.54631 15.736C1.81282 16.7427 2.07933 17.7494 2.39914 18.7031ZM4.31801 10.9675L4.37132 13.5107V14.3055H4.42462C5.17085 13.3518 6.02368 12.504 6.92981 11.7093L9.0619 9.90786C9.91473 9.00714 10.4477 7.89449 10.7143 6.72886C10.7143 6.67587 10.7143 6.62289 10.7143 6.56991H10.661L10.3944 6.94079C9.91473 7.57659 9.2751 8.15941 8.58218 8.58328C7.30293 9.37803 6.4501 9.96084 5.70387 10.9675C5.65056 11.0205 5.59726 11.0205 5.65056 10.9145L6.13028 9.16609C6.39679 8.15941 6.5034 6.83482 6.87651 5.93411C7.08972 5.40427 7.46283 4.87444 7.88925 4.45057C7.88925 4.39759 7.88925 4.39759 7.88925 4.3446C7.78265 4.3446 7.72934 4.39759 7.62274 4.45057C6.29019 5.13935 5.33075 6.25201 4.79773 7.52361C4.47792 8.31836 4.26471 9.16609 4.31801 10.0668V10.9675ZM7.14302 8.47731L9.48831 6.56991C10.1812 5.88112 10.8209 5.13936 11.3539 4.29162C11.8869 3.44389 12.5798 2.64914 13.3261 1.96035L13.486 1.8014C13.486 1.74842 13.486 1.74842 13.486 1.69543C12.1534 2.01333 10.8742 2.59615 9.80812 3.49687C7.83595 5.03339 7.19632 8.05344 7.14302 8.47731ZM28.5704 24.9022C28.7303 24.6902 28.3572 24.5313 28.2506 24.9022C28.144 25.273 28.4105 25.1671 28.5704 24.9022ZM32.6214 15.5771C32.4615 15.5241 31.8752 16.2129 31.9818 16.3188C32.2483 16.1599 32.4615 15.895 32.6214 15.5771ZM32.728 15.4711C32.8346 15.5241 33.2077 15.3122 33.1544 15.2592C33.1011 15.2062 32.6214 14.9943 32.6214 15.1002C32.6214 15.3122 32.6747 15.4181 32.728 15.4711ZM39.9238 22.0411C40.137 21.9881 40.0837 21.6702 39.9238 21.6702C39.7639 21.6702 39.5507 21.9351 39.604 21.9351C39.6573 21.9351 39.8172 22.094 39.9238 22.0411ZM37.312 14.9943C37.1521 14.9943 37.0988 15.1532 37.2587 15.2592C37.4186 15.3122 37.5252 15.2592 37.6318 15.2062C37.7384 15.1532 37.845 15.0472 37.845 14.8883C37.845 14.7293 37.6318 14.5174 37.7384 14.4114C37.845 14.3055 38.0049 14.4644 38.1115 14.4114C38.2181 14.3585 38.2714 14.2525 38.2714 14.1465C38.2714 14.0406 38.2181 13.7227 38.0049 13.7227C37.7917 13.7227 37.5785 14.1465 37.5785 14.1465C37.5252 14.2525 37.5252 14.4114 37.5785 14.5174C37.6318 14.7293 37.5785 14.9943 37.312 14.9943Z" fill="white"/>
<path d="M40.83 15.0475C40.83 15.1534 41.0965 15.8422 41.1498 16.0012C41.2031 16.1601 41.2564 16.7429 41.363 16.69C41.4696 16.637 41.4696 16.3191 41.4163 16.1601C41.363 15.7892 41.2564 15.3654 41.1498 15.0475C41.0965 14.8355 40.7234 14.0408 40.6168 14.0938C40.5102 14.1468 40.7767 14.6236 40.83 14.8355C40.8833 15.0475 40.7767 14.9415 40.83 15.0475ZM38.9644 6.0403C39.1243 6.09329 39.1243 5.77538 38.8578 5.56345C38.5913 5.35152 38.1649 5.45748 38.2715 5.56345C38.4847 5.7224 38.6979 5.93433 38.9644 6.0403ZM30.9691 3.76202C30.596 3.55008 30.9158 3.23218 30.6493 3.02025C30.3295 2.91428 30.0097 2.96727 29.7965 3.1792C29.53 3.4971 30.1163 3.39113 30.2762 3.4971C30.4361 3.60307 30.9691 3.97395 31.0224 3.92097C31.0757 3.86798 31.0224 3.76202 30.9691 3.76202ZM33.1012 2.70235C32.6215 2.49042 30.8625 2.49042 30.9158 2.96727C30.9691 3.44412 31.9285 2.96727 32.1951 2.96727C32.4616 2.96727 33.5276 2.91428 33.1012 2.70235ZM28.2507 23.1539C28.1441 23.101 27.9842 23.2069 27.9309 23.1009C27.8776 22.995 27.771 23.048 27.771 23.1009C27.771 23.1539 27.7177 23.2599 27.8243 23.3659C27.9309 23.4718 28.1441 23.4718 28.2507 23.3659C28.304 23.3129 28.304 23.2069 28.2507 23.1539ZM27.238 19.604C27.3979 19.604 27.3979 19.4981 27.4512 19.4981C27.5045 19.4981 27.4512 19.604 27.6111 19.604C27.771 19.604 27.9309 19.2332 27.4512 19.2332C27.0781 19.2332 27.1314 19.604 27.238 19.604ZM27.8776 20.0279C27.6111 19.9749 27.6644 20.1339 27.4512 20.1339C27.1314 20.1869 27.3979 19.9219 27.2913 19.816C27.238 19.763 27.0781 20.0279 27.0248 20.1869C27.0248 20.2928 27.0248 20.5048 27.1314 20.5577L28.1441 20.6637C28.3573 20.6637 28.1441 20.0809 27.8776 20.0279ZM24.5729 23.4718C24.6795 23.4718 24.7328 23.1539 24.6795 22.995C24.6262 22.836 24.3064 22.942 24.3064 23.048C24.3064 23.1539 24.5196 23.4718 24.5729 23.4718ZM20.3087 23.4718C20.3087 23.3659 20.3087 22.942 20.2021 22.836C20.0955 22.7301 20.0955 22.889 20.0422 22.889C19.9889 22.889 19.9889 22.6771 19.9356 22.6771C19.8823 22.6771 19.9356 22.995 20.0422 23.2069C20.1488 23.4188 20.3087 23.7367 20.3087 23.4718ZM20.2021 22.5181C20.3087 22.2002 20.362 21.8823 20.362 21.5644C20.362 21.2995 20.2021 21.0876 20.1488 21.0876C20.0955 21.0876 20.1488 21.2465 20.2021 21.5114C20.2021 21.7764 20.0955 22.0413 20.0422 22.3062C20.0422 22.3592 20.1488 22.6241 20.2021 22.5181Z" fill="white"/>
<path d="M14.7651 34.3862C22.7071 42.2807 35.4996 42.2807 43.4416 34.3862C51.3836 26.4916 51.3836 13.7756 43.4416 5.8811C35.4996 -2.01343 22.7071 -2.01343 14.7651 5.8811C6.82309 13.7756 6.82309 26.5446 14.7651 34.3862ZM9.7014 20.5575H12.7929C12.8462 22.147 13.1127 23.6835 13.5925 25.167C13.4325 25.1141 13.2726 25.0611 13.1127 24.9551C12.8995 24.8491 12.7396 25.0081 12.6863 25.0081C12.4731 25.0081 12.2066 24.8491 12.2066 25.0081C12.2066 25.167 12.4198 25.0611 12.4198 25.167C12.4198 25.273 11.8868 25.273 11.8335 25.0611C11.7802 24.8491 11.6736 24.6372 11.6203 24.9021C11.567 25.167 11.3538 25.1141 11.2472 25.167C11.1939 25.22 11.1406 25.326 11.1406 25.432C11.1406 25.5379 10.874 25.4849 10.874 25.6439C10.874 25.8028 11.034 25.8558 11.0873 26.0148C11.1406 26.1737 11.3005 26.2797 11.1939 26.3327C11.0873 26.3857 11.1406 26.2797 11.034 26.3327C10.9273 26.3857 11.5137 27.9752 11.6203 27.9222C11.7269 27.8692 11.4604 27.3923 11.4604 27.1804C11.4604 26.9685 11.5137 26.9155 11.6736 26.8095C11.8335 26.7036 12.2599 27.4453 12.4198 27.3394C12.5797 27.2334 12.3665 27.1274 12.5264 27.0744C12.6863 27.0215 13.166 27.7632 13.3259 27.5513C13.4325 27.3923 13.5391 27.6573 13.5391 27.7103C13.6991 27.9752 13.9656 27.9752 14.1255 28.2931C14.2854 28.611 14.6585 29.1938 14.925 29.1938C15.1915 29.1938 15.0316 28.9289 15.1382 28.9289C15.2448 28.9289 15.3514 29.2998 15.5113 29.5117C15.6179 29.6706 15.7778 29.7766 15.991 29.8296C16.3642 30.3064 16.7906 30.7833 17.217 31.2601L15.0316 33.4325C11.6736 30.0415 9.7547 25.432 9.7014 20.5575ZM27.3444 16.1599L27.1312 16.2658C26.8114 16.4248 26.5448 16.5837 26.3316 16.7957L24.1463 14.6234C25.4255 13.5107 27.0246 12.8219 28.6769 12.7689V15.842C28.3038 15.895 27.9307 15.9479 27.5576 16.1069C27.6642 15.895 27.8774 15.683 27.8774 15.683C27.8774 15.683 27.5043 15.895 27.3444 16.1599ZM25.692 21.1933C25.692 21.2463 25.692 21.2993 25.692 21.2993C25.692 21.1933 25.6387 21.1403 25.5854 21.0343C25.5321 20.9814 25.4788 20.9284 25.4255 20.9284C25.3722 20.9284 25.3189 20.9284 25.2656 20.9284H25.159L25.0524 20.9814H24.3062C24.1996 20.9814 24.1463 20.9814 24.1463 20.9284C24.093 20.7164 24.4128 20.8754 24.626 20.2396C24.6793 20.1866 24.6793 20.0806 24.7326 20.0277L24.7859 19.9217L24.8392 19.8687L24.8925 19.8157C24.9991 19.7098 25.1057 19.7098 25.2123 19.7098H25.3189L25.4255 19.8157L25.5854 20.1336C25.6387 20.1866 25.692 20.1866 25.692 20.2396C25.7986 20.2926 25.8519 20.3456 25.9052 20.3985L25.9585 20.4515V20.5045C26.0118 20.5575 26.0118 20.5575 26.0651 20.5575H26.1184C26.1717 20.5575 26.1717 20.5575 26.225 20.5575H26.2783C26.3849 20.5045 26.3849 20.5575 26.4382 20.5575V20.6105C26.4382 20.6635 26.4382 20.6635 26.3849 20.7164C26.3849 20.7694 26.3316 20.7694 26.3316 20.8224C26.2783 20.8754 26.225 20.9284 26.1717 20.9284C26.0651 20.9284 25.9585 20.8754 25.9052 20.8754C25.8519 20.8754 25.7986 20.8754 25.7986 20.9284V21.1933M19.9354 26.2797C19.7755 26.0148 19.7222 25.6439 19.7222 25.326C19.7222 25.0081 19.6156 24.6902 19.4557 24.4253C19.4024 24.2133 19.3491 24.0014 19.3491 23.7895C19.3491 23.4186 19.0293 23.5246 19.0293 23.4186C19.0293 23.3126 19.2958 23.4186 19.2958 23.3126C19.2958 23.2067 18.976 22.7828 18.7094 22.6768C18.4429 22.5709 18.5495 22.4119 18.5495 22.253C18.5495 22.094 18.5495 21.9351 18.4429 21.8291C18.3896 21.6172 18.4429 21.2463 18.7094 21.2463C18.8161 21.2463 18.976 21.3522 19.1359 21.2463C19.2958 21.1403 19.1892 20.8224 19.1892 20.5575H20.6816C20.6816 20.7694 20.7349 21.0343 20.7349 21.2463C20.6283 21.2993 20.575 21.4052 20.6283 21.4582C20.6816 21.5112 20.7349 21.5642 20.7882 21.5112C21.0547 23.0477 21.7477 24.4783 22.8137 25.6439L20.6283 27.8162C20.4684 27.6573 20.3085 27.4453 20.1486 27.2334C20.1486 27.1804 20.1486 27.1274 20.1486 27.0744C20.1486 26.7036 19.8821 26.4916 19.7755 26.1737M17.8566 22.5709C17.6967 21.9351 17.6434 21.2463 17.5901 20.5575H18.8694C18.7628 20.7164 18.4962 20.8754 18.4429 21.0343C18.3896 21.1933 18.0698 21.7231 18.283 21.9351C18.7627 22.4649 18.1764 22.6768 17.8566 22.5709ZM18.1231 30.4124L17.8566 30.6773C17.75 30.5714 17.5901 30.4124 17.4835 30.3064C17.6967 30.2005 17.9099 30.2535 18.1231 30.4124ZM21.4279 16.7957C21.3745 16.7957 21.3745 16.8487 21.3212 16.8487C21.1613 17.0076 20.7349 16.9546 20.7882 17.1136C20.8415 17.2725 21.9609 16.7427 21.9609 16.8487C21.9609 16.9546 21.4812 17.1136 21.1613 17.2725C20.8415 17.4315 20.7349 17.6964 20.2019 17.6964C19.9354 17.6964 19.8288 17.9083 19.7222 18.0673C19.5623 18.2792 19.4557 18.4911 19.3491 18.7031C19.3491 19.021 19.2958 19.3389 19.1359 19.6568H17.5901C17.6967 16.9546 18.7627 14.3584 20.6283 12.3451L22.8137 14.5174C22.2807 15.2592 21.801 16.0009 21.4279 16.7957ZM23.4533 15.2062L25.3722 17.1136C25.3189 17.1136 25.2656 17.1136 25.159 17.1136C24.9458 17.1136 24.9458 16.9546 24.7859 16.9546C24.4661 17.0076 24.4128 17.1136 24.3595 17.0606C24.1463 16.8487 23.8797 16.6897 23.5599 16.5308C23.1868 16.4248 22.8137 16.4248 22.4939 16.5837C22.4406 16.5837 22.4406 16.6367 22.3873 16.6367C22.7604 16.1599 23.1335 15.683 23.4533 15.2062ZM20.7882 19.074C20.7882 19.2859 20.7349 19.4978 20.7349 19.7098H19.6156C19.5623 19.5508 19.6156 19.3919 19.7222 19.2329C19.8288 19.021 20.0953 18.915 20.3618 18.968C20.4684 18.968 20.6283 19.021 20.7882 19.074ZM21.7477 21.5642L21.8543 21.7231C21.9609 21.8291 22.0675 21.9351 22.1741 21.8821C22.2807 21.8291 22.5472 21.8821 22.6005 21.8821C22.7604 21.9351 22.867 22.041 22.9736 22.147C23.0802 22.3059 23.2934 22.2 23.4533 22.3059C23.6132 22.4119 23.7731 22.5179 23.5599 22.6238C23.3467 22.7298 23.7731 22.9417 23.8264 22.9417C23.8797 22.9417 23.933 22.8358 23.933 22.6768C23.933 22.6238 24.0397 22.4119 24.1996 22.4649C24.3595 22.5179 24.8392 23.1007 24.9991 22.8888C25.159 22.6768 25.0524 22.4119 25.1057 22.3059C25.1057 22.253 25.159 22.2 25.2123 22.2C25.3722 22.4649 25.4788 22.6768 25.692 22.8888L23.5066 25.0611C22.6005 24.1074 21.9609 22.8888 21.7477 21.5642ZM23.4533 13.9876L21.3212 11.8152C23.3467 9.96082 25.9585 8.90115 28.6769 8.79518V11.8682C26.7581 11.9212 24.9458 12.663 23.4533 13.9876ZM20.6816 11.1794L18.4962 9.00712C21.2679 6.41093 24.8925 4.9274 28.6769 4.82143V7.89447C25.692 8.00043 22.8137 9.16607 20.6816 11.1794ZM20.042 11.7623C18.0165 13.9346 16.8439 16.7427 16.7373 19.7098H13.6458C13.7524 15.9479 15.2448 12.3451 17.8566 9.58993L20.042 11.7623ZM16.7373 20.5575C16.7373 21.1403 16.7906 21.6701 16.8972 22.253C16.8439 22.253 16.8439 22.094 16.684 22.147C16.5241 22.2 15.9377 23.2067 15.6712 23.6305C15.458 24.0014 15.7778 24.7962 15.458 25.0611C15.1382 25.167 14.8184 25.22 14.4986 25.22H14.4453C13.9123 23.7365 13.6458 22.2 13.5925 20.6635L16.7373 20.5575ZM28.6236 39.4196C23.7731 39.3136 19.1359 37.4062 15.6712 34.0683L17.8566 31.8959C20.7882 34.6511 24.626 36.2406 28.6236 36.3465V39.4196ZM28.6236 35.4988C24.8392 35.3928 21.2146 33.9093 18.4429 31.3131L18.8161 30.9422C18.8694 30.9952 18.976 31.0482 19.0826 31.1012C19.2958 31.2072 19.5623 31.2601 19.8288 31.2072C20.042 31.1542 20.4684 30.7833 20.7349 30.7833C21.0014 30.7833 21.4279 30.8893 21.6944 30.7303C21.9609 30.5714 21.5345 30.0415 21.3745 29.7766C21.3212 29.7236 21.3212 29.6706 21.2679 29.6177C23.3467 31.3661 26.0118 32.3728 28.7302 32.4258L28.6236 35.4988ZM28.6236 31.5251C25.9052 31.4191 23.2934 30.3594 21.2679 28.505L23.4533 26.3327C24.4661 27.2334 25.692 27.9222 27.0779 28.2401C26.5982 28.452 26.3849 28.7699 26.4382 29.0348C26.4915 29.2998 26.1184 29.4587 26.1184 29.7766C26.1184 30.0945 26.5448 30.3064 26.5982 30.6243C26.6515 30.7833 27.0246 31.0482 27.3444 31.2601C27.7708 31.3661 28.1972 31.4191 28.5703 31.3661L28.6236 31.5251ZM28.517 27.2864C28.3571 27.1804 28.2505 27.3924 28.0373 27.4983C26.5448 27.2864 25.2123 26.6506 24.093 25.6969L26.2783 23.5246C26.9713 24.0544 27.7708 24.4253 28.6236 24.4783C28.6236 24.5842 28.7302 24.6902 28.7302 24.9021C28.7302 25.1141 28.5703 25.22 28.6236 25.326C28.6769 25.432 29.1566 25.326 29.2099 25.167C29.2633 25.0081 29.05 24.9021 28.9967 24.7432C28.9434 24.6372 28.9434 24.5842 28.8901 24.4783H29.05C29.2099 24.4783 29.3699 24.4783 29.5298 24.4253C29.5831 24.4253 29.6364 24.3723 29.6364 24.3193C29.6364 24.2663 29.6897 24.2133 29.6897 24.1604C29.6897 24.1074 29.743 24.1074 29.743 24.0544L29.7963 24.1074C29.8496 24.2133 29.9562 24.5312 30.0628 24.4783C30.1694 24.4253 30.2227 23.9484 30.1694 23.8425C30.0628 23.6835 30.0628 23.5246 30.1694 23.3656C30.1694 23.3126 30.2227 22.9947 30.3293 23.0477C30.4359 23.1007 30.3293 23.3656 30.3293 23.4716C30.3293 23.6305 30.4359 23.8425 30.5958 23.7365C30.7024 23.6835 30.809 23.5246 30.9156 23.5775C31.0222 23.6305 30.6491 23.7365 30.5958 23.8425C30.5425 23.9484 30.7557 24.0014 30.7024 24.0544C30.6491 24.1074 30.5958 24.0544 30.5425 24.1074C30.4892 24.1604 30.6491 24.4783 30.5425 24.5312C30.4359 24.5842 30.0628 24.6902 29.9562 24.7432C29.8496 24.7962 29.743 24.6902 29.7963 24.6372C29.8496 24.5842 29.7963 24.3723 29.6897 24.3723C29.5831 24.3723 29.5831 24.4253 29.5831 24.5312C29.5831 24.6372 29.6897 24.7962 29.6897 24.8491C29.6897 24.9021 29.5298 24.9551 29.4232 25.0081C29.3166 25.167 29.1566 25.326 28.9967 25.432C28.8368 25.5379 28.517 25.5379 28.517 25.6439C28.517 25.7499 28.6769 25.7499 28.7302 25.8028C28.8368 25.9618 28.8901 26.1737 28.6769 26.2797C28.4637 26.3857 28.1972 26.1208 28.0906 26.1737C27.984 26.2267 27.9307 26.4916 27.8774 26.8095C27.8241 27.1274 28.4637 27.2334 28.7835 27.0744C28.9967 26.9685 28.9434 26.6506 29.1566 26.5446C29.3699 26.4386 29.3166 26.2267 29.5298 26.2797C29.743 26.3327 29.6897 26.1207 29.9029 26.1207C30.1161 26.1207 30.1161 26.2797 30.3826 26.3327C30.809 26.4387 30.809 26.7565 30.8623 26.5976C30.9156 26.4387 30.9689 26.3327 30.6491 26.2267C30.3293 26.1207 30.1694 25.7499 30.4359 25.8558C30.7557 26.0148 31.0222 26.0148 31.0755 26.1737C31.1288 26.3327 31.4486 26.2797 31.5019 26.4387C31.5552 26.7036 31.7684 26.4386 31.6085 26.2797C31.4486 26.1207 31.5019 26.0678 31.6085 25.9618C31.7151 25.8558 31.7684 26.0148 31.9284 25.8028C32.0883 25.5909 31.8751 25.6439 31.8218 25.5379C31.7684 25.432 31.8217 24.8491 32.035 24.9551C32.2482 25.0611 32.4614 24.9021 32.3548 24.8491C32.2482 24.7962 32.4081 24.4783 32.4614 24.4783C32.5147 24.4783 32.4614 24.6902 32.5147 24.7432C32.568 24.7962 33.101 24.5842 33.1543 24.8491C33.2076 25.1141 32.7812 25.273 32.6746 25.273C32.4614 25.273 32.3015 25.4849 32.1416 25.6969C31.9817 25.9088 31.8218 25.9618 31.9284 26.1737C32.035 26.3857 32.2482 26.3327 32.4614 26.2267C32.6746 26.1207 32.8345 25.9618 32.9411 25.9088C33.1543 25.8028 33.3142 26.4386 33.2076 26.5446C33.101 26.6506 32.8878 26.7036 32.7812 26.8095C32.4614 26.9685 32.1416 27.1274 31.7684 27.1274C31.5552 27.1804 31.5552 27.2334 31.5019 27.4453C31.4486 27.6573 30.4892 27.4983 30.276 27.4983C30.0628 27.4983 30.4359 27.0215 30.1161 27.0744C29.7963 27.1274 29.4765 27.1804 29.1566 27.2334C29.1033 27.2334 28.7835 27.4983 28.517 27.2864ZM31.342 32.2138C31.6085 32.3198 31.8751 32.5317 32.035 32.7437C32.1949 33.0086 32.2482 33.1146 32.1416 33.3795C31.8751 33.8563 31.9817 34.1742 32.5147 34.3332C32.8345 34.4391 32.9411 34.757 33.1543 34.969C31.9817 35.2869 30.7557 35.4458 29.5298 35.4988V32.4258C30.1161 32.3728 30.7557 32.3198 31.342 32.2138ZM29.5298 31.578V31.2072C30.2227 31.1012 30.0628 31.5251 30.5425 31.3661C30.7024 31.3131 30.8623 31.3661 30.9689 31.4721C30.4892 31.4721 30.0095 31.5251 29.5298 31.578ZM29.5298 39.4726V36.3465C31.1288 36.2936 32.7279 36.0286 34.2736 35.4988C34.3269 35.5518 34.3802 35.5518 34.4335 35.5518C34.6468 35.5518 34.86 35.4458 35.0199 35.3399C35.5529 35.1279 36.0326 34.863 36.459 34.5451C37.8449 33.8563 39.1774 32.9026 40.2968 31.843L42.4822 34.0153C39.0175 37.4062 34.3802 39.3136 29.5298 39.4726ZM38.1647 11.7623L38.9109 11.0205C39.1241 11.2324 39.3373 11.3914 39.6572 11.4444C39.9237 11.4973 40.0303 11.6033 40.0836 11.8682C40.1369 12.1331 40.4034 12.2391 40.6699 12.2921C40.9364 12.3451 41.0963 12.663 41.3095 12.663C41.5227 12.663 42.2156 13.6167 42.4822 13.9346C42.6421 14.0935 42.8553 14.3584 43.0152 14.1465C43.1751 13.9346 43.1751 13.9876 43.2817 13.9346C44.0812 15.736 44.5609 17.7494 44.6142 19.7098H41.5227C41.5227 19.021 41.4161 18.3322 41.2562 17.6434C41.3628 17.4315 41.4161 17.2195 41.4161 16.9546C41.4161 16.7427 41.2029 16.6367 41.043 16.7957C40.9364 16.3718 40.7765 16.0009 40.6166 15.63C40.5633 15.4181 40.51 15.1532 40.4567 14.9413C40.4567 14.8883 40.3501 14.8353 40.2435 14.7293C40.1369 14.5174 40.0836 14.3584 39.977 14.1995C40.1369 14.0935 40.1902 13.8286 39.977 13.8816C39.6572 13.9346 39.8704 13.7226 39.7638 13.6167C39.6572 13.5107 39.6572 13.6167 39.6038 13.6697C39.1774 13.0339 38.751 12.451 38.218 11.8682C38.218 11.8682 38.218 11.8682 38.218 11.8152C38.1114 11.8152 38.1114 11.7623 38.1647 11.7623ZM40.0303 29.7236C39.9237 29.5117 39.8704 29.2468 39.7638 29.0348C39.7105 28.8229 39.284 28.8229 39.284 28.9289C39.284 29.1408 39.284 29.3527 39.2307 29.5647V29.6177L38.1114 28.505C40.1369 26.3327 41.3095 23.5246 41.4161 20.5575H44.5076C44.401 24.3193 42.9086 27.9222 40.2968 30.6243L40.1369 30.4654C40.1902 30.2535 40.1369 29.9885 40.0303 29.7236ZM37.4718 31.843C37.6317 31.578 37.9515 31.1012 38.1114 30.8363C38.2713 30.5714 37.685 30.2005 37.3652 30.0945C37.0453 29.9885 37.0454 29.8296 37.0454 29.5647C37.2053 29.4587 37.3652 29.2998 37.5251 29.1408L39.7105 31.3131C38.9642 32.0019 38.218 32.5847 37.3652 33.1146C37.3119 33.0086 37.685 32.6377 37.7916 32.4788C37.8982 32.3198 37.3652 32.1079 37.4718 31.843ZM38.8043 19.1799C38.5378 18.809 38.9109 18.7561 39.284 18.5971C39.4972 18.4911 39.7638 18.6501 39.7638 18.5441C39.7638 18.4382 39.8704 18.2262 39.977 18.1732C40.0836 18.1203 40.2435 18.0143 40.2968 17.9083C40.2968 18.0143 40.3501 18.1203 40.3501 18.2262C40.2435 18.4382 40.1902 18.5971 40.1902 18.809C40.1902 18.968 40.1902 19.1799 40.3501 18.809C40.3501 18.7561 40.4034 18.7561 40.4034 18.7031C40.51 19.074 40.51 19.3919 40.51 19.7098H38.218C38.218 19.7098 38.218 19.7098 38.218 19.6568C38.3779 19.3919 38.9642 19.4448 38.8043 19.1799ZM39.2307 14.8353C39.2307 14.8353 39.2307 14.8883 39.1774 14.8883C39.1241 14.9413 38.8576 14.5174 38.8576 14.8353C38.8576 15.1532 38.9642 15.2592 39.1774 15.3121C39.3906 15.3651 39.284 15.4711 39.4439 15.5241C39.4972 15.5241 39.6038 15.5771 39.6572 15.63C39.9237 16.2129 40.0836 16.7957 40.2435 17.4315C40.1369 17.4845 40.0836 17.5374 40.0303 17.5904C39.9237 17.6964 39.977 17.9083 39.8704 18.0673C39.7105 18.3322 39.6572 18.4911 39.2307 18.3852C38.9642 18.2792 39.1774 17.9613 39.2307 17.6964C39.284 17.4315 39.3906 17.4845 39.3906 17.3255C39.3906 17.1666 38.8576 16.5837 38.5911 16.7957C38.3246 17.0076 38.3779 17.2195 38.1647 17.4315C38.0581 17.5374 37.9515 17.5374 37.7916 17.4315C37.6317 17.3255 37.5784 17.2195 37.6317 17.1136C37.685 17.0076 37.2586 16.5308 37.0987 16.3188C36.8854 16.0539 36.5656 15.895 36.2458 15.895C35.9793 15.4181 35.6062 14.9413 35.2331 14.5174L37.4185 12.3451C38.1647 13.1398 38.751 13.9346 39.2307 14.8353ZM35.5529 16.3188L35.4463 16.4778C35.393 16.5837 35.1265 16.3718 35.0732 16.4248C35.0199 16.4778 35.4463 17.0076 35.0199 16.8487C34.5935 16.6897 34.86 16.6897 34.86 16.5308C34.86 16.3718 34.4869 16.2658 34.7001 16.1599C34.9133 16.0539 34.7001 15.895 34.9133 15.842C35.1265 15.789 35.0732 15.5771 34.8067 15.5241C34.5402 15.4711 34.5935 16.1069 34.4335 16.0009C34.2736 15.9479 34.1137 15.9479 33.9538 15.9479L34.7001 15.2062C34.8067 15.2592 34.86 15.2592 34.9666 15.2592C35.0732 15.683 35.3397 16.0009 35.5529 16.3188ZM34.7001 27.0744C35.0199 27.1274 35.393 27.1804 35.7128 27.2864C35.926 27.3923 36.0859 27.6043 36.2458 27.3394C36.5656 26.8625 36.7788 26.3327 36.8854 25.7499C36.992 24.9551 36.8321 24.6902 36.7255 24.6902C36.6189 24.6902 36.4057 24.9021 36.1925 24.9021C36.0859 24.9021 36.0859 25.1141 36.0859 25.273C36.0859 25.432 35.8727 25.5909 35.8194 25.4849C35.7661 25.379 35.6595 25.432 35.7128 25.5379C35.7661 25.6439 35.2864 25.5909 35.0732 25.4849C34.7534 25.326 35.4463 25.326 35.7661 25.0611C36.0326 24.8491 36.2991 24.5842 36.5656 24.3193C36.7255 24.0544 36.7255 23.7365 36.9921 23.5246C37.2586 23.3126 37.685 23.3656 37.7383 23.0477C37.7916 22.7298 37.8449 22.7828 38.0048 22.8358C38.1647 22.8888 39.6572 22.7828 39.6572 22.3059C39.6572 22.094 39.3373 21.8291 39.0175 21.7761C38.8043 21.7761 38.751 21.3522 38.6444 21.1403C38.5378 20.9284 38.4312 20.7164 38.2713 20.5045H40.51C40.4034 23.2067 39.3373 25.8028 37.4718 27.8162L37.4185 27.7632V27.5513C37.4718 27.1274 37.152 26.4386 37.0454 26.5446C36.9387 26.6506 37.0454 26.6506 36.7255 27.1274C36.6189 27.2864 36.459 27.5513 36.2458 27.5513C36.0326 27.5513 36.0326 27.4453 35.7128 27.4983C35.4463 27.5513 35.1265 27.5513 34.86 27.4983C34.3802 27.3394 33.9005 27.1274 33.4208 26.8095C33.4741 26.7565 33.634 26.8625 33.634 26.7036C33.634 26.5446 34.4869 27.0215 34.7001 27.0744ZM43.0685 33.4854L40.8831 31.3131C43.6548 28.399 45.2539 24.5842 45.3605 20.6105H48.5053C48.3987 25.432 46.4798 29.9885 43.0685 33.4854ZM48.5053 19.7098H45.3605C45.3072 17.4315 44.7741 15.2062 43.7614 13.1398L43.8147 13.0868C44.0279 12.8749 42.802 11.2854 42.5888 11.1265C42.3756 10.9675 42.1623 10.7026 41.8958 10.4377C41.4694 10.0138 41.043 9.53695 40.7232 9.0601L43.0152 6.78182C46.4798 10.2787 48.3987 14.8883 48.5053 19.7098ZM29.5298 0.847676C34.3802 0.953643 39.0175 2.86104 42.5355 6.199L40.4034 8.31833C40.2968 8.26535 40.1902 8.21237 40.2435 8.1064C40.3501 7.94745 40.0836 7.94745 40.0303 7.52358C39.9237 7.09972 39.6038 6.72883 39.2307 6.5169C38.9642 6.35795 38.8043 6.14601 38.5378 6.04005C38.2713 5.93408 37.7383 5.61618 37.4718 5.72215C37.3119 5.77513 37.0987 5.82811 36.9387 5.82811C34.6468 4.6095 32.1416 3.9737 29.5831 3.92071L29.5298 0.847676ZM29.5298 4.82143C31.8218 4.87441 34.0071 5.45723 36.0859 6.46391C36.1392 6.78182 36.2991 7.1527 36.5123 7.41761C36.6189 7.68253 36.7788 7.89447 36.9387 8.15938C37.0987 8.31833 36.992 8.63623 37.0454 8.90115C37.0454 9.00712 37.152 9.11308 37.2053 9.21905C37.2053 9.378 37.2053 9.48397 37.2053 9.64292C37.2053 9.6959 37.4185 9.6959 37.5784 9.58993C37.7383 9.48397 37.8449 9.27203 38.0581 9.32502C38.2713 9.378 38.5378 9.80187 38.6977 10.0668L37.685 11.0735C37.5784 10.8615 37.4718 10.5966 37.5251 10.5966C37.5784 10.5966 37.685 10.6496 37.7383 10.6496C37.9515 10.6496 37.5784 10.4907 37.5784 10.4377C37.4185 10.2787 37.4185 10.0668 37.2053 9.90783C36.9921 9.74888 36.6722 9.85485 36.5656 9.64292C36.3524 9.27203 36.0859 8.95413 35.7128 8.68922C35.6595 8.68922 36.1392 9.27203 35.9793 9.378C35.8194 9.48397 35.2331 9.00712 35.1798 9.11308C35.1265 9.21905 35.8194 9.48397 36.0326 9.6959C36.1392 9.80187 36.3524 10.1198 36.5656 10.3847C34.5402 8.84817 32.0883 8.00043 29.5298 7.89447V4.82143ZM29.5298 8.7422C32.2482 8.84817 34.86 9.90783 36.8854 11.7623L34.7001 13.9346C33.2609 12.663 31.4486 11.9212 29.5298 11.8152V8.7422ZM29.5298 12.716C31.2354 12.8219 32.8345 13.4577 34.0604 14.5704L33.9538 14.6763L33.8472 14.6234C33.5807 14.5174 33.0477 15.0472 33.1543 15.1002C33.2609 15.1532 33.4741 14.8883 33.5807 14.9413H33.634L32.7279 15.895C32.4614 16.0009 32.1949 16.2129 32.1949 16.3718C32.1949 16.3718 32.1949 16.3718 32.1949 16.4248L31.8751 16.7427L31.7151 16.5837C31.4486 16.3718 31.1821 16.2129 30.8623 16.1069C31.0222 16.0009 31.0755 15.842 31.1288 15.63C31.1288 15.3121 31.0222 15.4181 30.8623 15.5771C30.7024 15.736 30.5425 15.789 30.4359 15.9479C30.1694 15.842 29.8496 15.789 29.5831 15.789V12.716H29.5298ZM29.1566 16.6367C29.21 16.7427 29.1566 16.8487 29.1033 16.9016C28.9967 17.0076 28.6769 16.6367 28.6236 16.9546C28.517 17.2725 28.8368 17.1136 28.8368 17.1666C28.9967 17.3785 29.2099 17.4845 29.4765 17.5374C29.6897 17.5374 30.0095 17.5374 30.0095 17.7494C30.0095 17.8553 30.276 17.8553 30.3293 17.9613C30.3293 18.1203 30.4892 18.3852 30.5958 18.3322C30.7024 18.2792 30.8623 18.3852 30.9156 18.4911C30.9689 18.5971 30.9156 18.6501 30.8623 18.7561C30.7024 18.915 31.0222 18.862 31.0755 19.1799C31.1288 19.4978 30.809 19.2859 30.7557 19.4978C30.6491 19.6568 30.5425 19.7627 30.4359 19.9217C30.3826 19.9747 30.4892 20.0806 30.5425 20.0277C30.5958 19.9747 30.7024 19.8157 30.8623 19.8157C31.0222 19.8157 31.1821 20.3985 31.342 20.4515C31.5019 20.5045 31.4486 20.7164 31.5019 20.7694C31.5552 20.8224 31.2354 20.7694 31.2887 20.8754C31.342 20.9814 31.6618 21.0343 31.6618 21.1933C31.6085 21.3522 31.5019 21.5112 31.2887 21.5112C31.1288 21.5112 30.8623 21.1403 30.8623 21.2463C30.8623 21.3522 30.9689 21.6701 31.1288 21.6701C31.2887 21.6701 31.6618 21.5112 31.5019 21.7231C31.342 21.9351 31.3953 22.253 31.2887 22.253C31.1821 22.253 31.1288 22.253 31.2354 22.4119C31.2887 22.5709 31.2354 22.7298 31.1288 22.8888C31.0222 22.9947 30.7557 22.8888 30.7557 22.8358C30.7557 22.7828 31.0755 22.7828 31.0755 22.6238C31.0755 22.4649 30.9156 22.4119 30.5958 22.5179C30.4359 22.5709 30.3826 22.4649 30.276 22.4649C30.1694 22.4649 29.8496 22.8358 29.8496 22.8888C29.8496 22.9417 29.8496 23.0477 29.8496 23.1537C29.8496 23.3656 29.7963 23.5246 29.6897 23.6835C29.4765 23.7365 29.3166 23.7365 29.1033 23.7365C28.2505 23.7365 27.3977 23.3656 26.7581 22.8358C26.8647 22.7828 27.0246 22.7298 27.1845 22.7298C27.3444 22.7828 27.3977 22.6768 27.5043 22.6238C27.6109 22.5709 27.8774 22.7298 28.0373 22.6238C28.1972 22.5179 28.5703 21.8291 28.517 21.6701C28.4637 21.5112 28.8901 21.2463 28.8368 21.1933C28.7835 21.1403 28.7302 21.2463 28.7302 21.1933C28.7302 21.1403 28.8368 21.1403 28.7302 20.9284C28.6236 20.7164 28.4637 20.8224 28.3571 20.8224C28.1972 20.7164 27.9307 20.6635 27.8774 20.7164C27.8241 20.7694 27.6642 20.6105 27.6109 20.6635C27.5576 20.6635 27.451 20.7164 27.451 20.8224C27.3977 20.9284 27.5043 21.0343 27.5043 21.1403C27.451 21.3522 27.1312 21.5112 27.1312 21.6701C27.1312 21.8291 26.9713 21.7231 26.918 21.7761C26.8647 21.8291 26.918 21.9351 26.8114 21.9351C26.7048 21.9351 26.5448 22.2 26.4382 22.4119C26.2783 22.2 26.1184 21.9351 25.9585 21.7231C26.0651 21.6701 26.1717 21.6172 26.225 21.6701C26.3849 21.7761 27.0246 20.6635 26.918 20.3456C26.8114 20.0277 26.6515 20.2396 26.4915 20.2926C26.3316 20.3456 26.3316 20.1866 26.3849 20.1336C26.4382 20.0806 27.1312 20.0806 26.7581 19.8687C26.5982 19.7627 26.1717 19.7627 26.225 19.6038C26.2783 19.4448 26.4915 19.6038 26.5448 19.6038C26.8114 19.7098 26.9713 19.1799 27.1312 19.1799C27.3977 19.1799 27.2911 18.6501 27.0246 18.809C26.7581 18.968 26.6515 18.915 26.5448 19.074C26.4382 19.2329 26.1717 19.4448 26.1717 19.2329C26.1717 19.1269 26.7581 18.809 26.8647 18.6501C26.9713 18.5441 27.0779 18.3852 27.1312 18.2262C27.1845 18.0673 27.9307 17.9613 28.0906 17.8553C28.1972 17.7494 28.3038 17.5904 28.3038 17.4315C28.3038 17.2725 28.0906 17.3255 28.0373 17.2195C27.984 17.1136 28.3038 17.2195 28.3038 17.0606C28.3038 16.9016 28.0373 17.0606 27.9307 16.9546C27.9307 16.9016 27.9307 16.9016 27.984 16.8487C28.4637 16.6897 28.7835 16.6367 29.1566 16.6367H29.2633H29.1566ZM28.6769 0.847676V3.92071C24.6793 4.02668 20.8415 5.61618 17.9099 8.37132L15.7245 6.199C19.1892 2.86104 23.8264 0.953643 28.6769 0.847676ZM15.0316 6.8348L17.217 9.00712C14.4453 11.9212 12.8462 15.736 12.7396 19.7098H9.6481C9.80801 14.8883 11.7269 10.2787 15.0316 6.8348Z" fill="white"/>
</g>
<defs>
<clipPath id="clip0_176_21509">
<rect width="159" height="48.2679" fill="white"/>
</clipPath>
</defs>
</svg>
