<svg width="169" height="122" viewBox="0 0 169 122" fill="none" xmlns="http://www.w3.org/2000/svg">
<rect width="167" height="122" rx="12" fill="#FAFAFA"/>
<mask id="mask0_3003_3223" style="mask-type:alpha" maskUnits="userSpaceOnUse" x="2" y="0" width="167" height="122">
<rect x="2" width="167" height="122" rx="12" fill="#D9D9D9"/>
</mask>
<g mask="url(#mask0_3003_3223)">
</g>
<path d="M95.7644 30.76C92.7514 29.2585 88.6199 28.6776 85.3365 30.0659C78.5243 33.0099 76.1089 40.36 76.0469 47.2056C76.1784 51.08 77.215 54.5976 79.1815 57.6794C80.4537 56.6899 81.0315 55.2646 81.649 53.9502C82.5764 51.6363 83.0774 49.165 83.0303 46.4819C83.246 41.421 85.1729 35.8431 90.2244 33.6646C94.1103 32.232 98.0285 33.901 100.682 36.941C103.893 40.781 105.203 46.2776 103.799 51.24C102.929 55.0086 100.079 59.373 96.0273 60.4117C94.0632 60.9631 91.7594 60.6554 90.0285 59.7077C89.0067 61.3176 87.6775 62.861 86.1103 63.9957V64.0302C89.0588 65.357 92.9993 65.1231 95.8065 63.5748C90.5963 67.4468 82.4574 68.4806 76.2825 65.9157C74.75 65.293 73.2546 64.5077 71.8733 63.5231C75.1021 65.3348 80.1586 65.8296 83.551 63.7742C89.0737 60.4905 91.3105 54.4917 91.6503 48.5323C91.871 44.1016 90.7055 40.0917 88.5455 36.6259C87.2237 37.6671 86.6038 39.1539 85.9987 40.5545C85.0018 43.0406 84.6273 45.7631 84.6645 48.6357C84.2826 53.3348 82.3061 58.4548 77.6911 60.5693C74.3209 62.0019 70.5441 60.7293 67.97 58.2308C63.7369 54.1348 62.4275 47.3262 64.4039 41.7803C65.3909 38.4573 68.1857 34.7354 71.7642 33.8911C73.6588 33.325 75.9725 33.6745 77.6861 34.5902C78.6806 33.0246 80.0718 31.469 81.6242 30.3933V30.3514C78.8145 29.0813 74.802 29.256 72.0692 30.7108C76.8727 27.2696 84.1412 26.0831 90.0533 28.0007C92.0595 28.6579 93.9938 29.5145 95.7669 30.76H95.7644Z" fill="#1D3A58"/>
<path d="M29.3709 88.983V89.1061C29.604 88.983 29.8718 88.9116 30.2909 88.9116C31.2383 88.9116 31.8979 89.9332 31.8979 91.0581C31.8979 92.3799 31.3449 93.2833 30.343 93.2833C29.8694 93.2833 29.609 93.2292 29.3709 93.0519V94.7627H29.6387V94.9227H27.7615V94.7627H28.0293V89.1405H27.7615V88.9805H29.3709V88.983ZM29.8446 93.0421C30.4075 93.0421 30.5513 92.6064 30.5513 91.0556C30.5513 89.6722 30.41 89.1405 29.7925 89.1405C29.6511 89.1405 29.5073 89.2045 29.3734 89.2759V92.8402C29.5247 92.9535 29.6958 93.0445 29.847 93.0445L29.8446 93.0421Z" fill="#1D3A58"/>
<path d="M36.2031 90.7826H33.7728V92.1561C33.7728 92.9807 33.9067 93.1777 34.3084 93.1777C35.1119 93.1777 35.6401 92.6361 35.8534 91.9986C35.8906 91.9075 35.9352 91.8657 35.9774 91.8657C36.0146 91.8657 36.0493 91.9075 36.0493 91.9715C36.0493 91.9986 36.0394 92.0232 36.0319 92.0601C35.8534 92.646 35.283 93.3549 34.3084 93.3549C33.0487 93.3549 32.4138 92.2374 32.4138 91.1198C32.4138 90.0023 33.0487 88.8872 34.3084 88.8872C35.7195 88.8872 36.1584 90.118 36.2031 90.7851V90.7826ZM33.7753 89.7094V90.5955H34.8218V89.7364C34.8218 89.4706 34.8119 89.0644 34.3134 89.0644C33.8149 89.0644 33.7777 89.4534 33.7777 89.7118L33.7753 89.7094Z" fill="#1D3A58"/>
<path d="M39.3748 91.0112C40.2328 91.0211 40.8131 91.4198 40.8131 92.4118C40.8131 92.8894 40.8577 92.9509 40.9917 92.9509C41.1429 92.9509 41.2496 92.8623 41.3835 92.6408C41.4108 92.5965 41.4281 92.5891 41.4554 92.5891C41.4728 92.5891 41.4926 92.6063 41.4926 92.6309C41.4926 92.658 41.4827 92.6752 41.4752 92.7023C41.2967 93.1109 41.0016 93.2709 40.4114 93.2709C39.7418 93.2709 39.4913 92.978 39.4913 92.0918C39.4913 91.3189 39.2954 91.1269 38.9284 91.1269H38.606V93.0346H38.8738V93.1946H36.9966V93.0346H37.2644V89.1405H36.9966V88.9805H38.8738V89.1405H38.606V90.9694H38.9458C39.4641 90.9694 39.8658 90.738 39.9997 90.1005C40.1237 89.5146 40.2775 88.9214 40.8404 88.9214C41.1528 88.9214 41.3041 89.1257 41.3041 89.3029C41.3041 89.4629 41.1975 89.6131 40.9917 89.6131C40.7858 89.6131 40.6519 89.4802 40.6519 89.3202C40.6519 89.1602 40.7412 89.074 40.8131 89.0543C40.823 89.0543 40.8305 89.0445 40.8305 89.0445C40.8305 89.0371 40.8205 89.0371 40.8131 89.0371C40.4114 89.0371 40.2502 89.5762 40.1435 90.1349C40.0543 90.5682 39.8212 90.9497 39.3748 91.0112Z" fill="#1D3A58"/>
<path d="M41.9785 91.1024C41.9785 90.0045 42.658 88.9116 44.0145 88.9116C45.371 88.9116 46.0505 90.0045 46.0505 91.1024C46.0505 92.2002 45.371 93.2907 44.0145 93.2907C42.658 93.2907 41.9785 92.2002 41.9785 91.1024ZM44.017 89.0716C43.4094 89.0716 43.1961 89.399 43.1961 90.4205V91.8925C43.1961 92.7516 43.3747 93.1332 44.017 93.1332C44.6593 93.1332 44.8304 92.7516 44.8304 91.8925V90.4205C44.8304 89.4088 44.6171 89.0716 44.017 89.0716Z" fill="#1D3A58"/>
<path d="M48.5353 88.9829V89.1405H48.3121V90.8684H49.4007V89.1405H49.1676V88.9829H51.0077V89.1405H50.7399V93.0346H51.035V93.1921H49.1775V93.0346H49.4007V91.0309H48.3121V93.0346H48.5353V93.1921H46.7026V93.0346H46.9705V89.1405H46.7026V88.9829H48.5353Z" fill="#1D3A58"/>
<path d="M54.0432 88.9906C53.2298 88.9906 53.0513 89.3721 53.0513 90.4355V91.7746C53.0513 92.8306 53.2397 93.1678 53.9887 93.1678C54.8541 93.1678 55.1765 92.4318 55.3724 91.8041C55.3997 91.7327 55.4344 91.6884 55.4791 91.6884C55.5163 91.6884 55.5336 91.7253 55.5336 91.8041V93.153C55.5336 93.222 55.5237 93.249 55.4964 93.249C55.4691 93.249 55.4518 93.2318 55.4245 93.1949L55.1815 92.8478C55.0575 92.9733 54.6458 93.3253 53.9837 93.3253C52.5107 93.3253 51.7766 92.2004 51.7766 91.0829C51.7766 89.9653 52.5082 88.8306 53.9911 88.8306C54.4921 88.8306 54.8839 89.0373 55.0451 89.1678L55.2683 88.9463C55.3055 88.9093 55.3402 88.8946 55.3749 88.8946C55.4096 88.8946 55.4369 88.9364 55.4369 89.0078V90.1426C55.4369 90.1869 55.4096 90.2066 55.3923 90.2066C55.3551 90.2066 55.3203 90.1795 55.3104 90.1426C55.1765 89.6823 54.7921 88.9906 54.0333 88.9906H54.0432Z" fill="#1D3A58"/>
<path d="M58.9633 93.0346H59.3204V93.1946H57.2646V93.0346H57.6217V89.1405H57.4084C57.0588 89.1405 56.6744 89.3275 56.4884 90.1866H56.3545L56.4537 89.1134C56.4537 89.042 56.4983 88.9805 56.6149 88.9805H59.9553C60.0966 88.9805 60.1437 89.042 60.1437 89.1134L60.2429 90.1866H60.109C59.9205 89.3275 59.5362 89.1405 59.189 89.1405H58.9658V93.0346H58.9633Z" fill="#1D3A58"/>
<path d="M62.4448 88.983V89.1061C62.678 88.983 62.9458 88.9116 63.3649 88.9116C64.3122 88.9116 64.9718 89.9332 64.9718 91.0581C64.9718 92.3799 64.4188 93.2833 63.417 93.2833C62.9433 93.2833 62.6854 93.2292 62.4448 93.0519V94.7627H62.7127V94.9227H60.8379V94.7627H61.1057V89.1405H60.8379V88.9805H62.4448V88.983ZM62.9185 93.0421C63.4814 93.0421 63.6253 92.6064 63.6253 91.0556C63.6253 89.6722 63.4814 89.1405 62.8664 89.1405C62.7226 89.1405 62.5812 89.2045 62.4473 89.2759V92.8402C62.5986 92.9535 62.7697 93.0445 62.921 93.0445L62.9185 93.0421Z" fill="#1D3A58"/>
<path d="M67.5164 88.9829V89.1158H67.1593L68.6051 91.7694L69.8747 89.1158H69.5176V88.9829H70.4724V89.1158H70.1153L68.2207 92.9805C67.7669 93.9208 66.9609 94.9497 66.0954 94.9497C65.5672 94.9497 65.3267 94.6371 65.3267 94.3269C65.3267 94.0438 65.5325 93.7706 65.9169 93.7706C66.3013 93.7706 66.4699 94.0094 66.4699 94.2555C66.4699 94.4771 66.3732 94.6198 66.2021 94.7183C66.9708 94.6469 67.6677 93.5934 67.9429 93.0444L65.7284 89.1158H65.3713V88.9829H67.5139H67.5164Z" fill="#1D3A58"/>
<path d="M73.4829 91.0112C74.3409 91.0211 74.9212 91.4198 74.9212 92.4118C74.9212 92.8894 74.9659 92.9509 75.0998 92.9509C75.251 92.9509 75.3577 92.8623 75.4941 92.6408C75.5213 92.5965 75.5387 92.5891 75.566 92.5891C75.5833 92.5891 75.6032 92.6063 75.6032 92.6309C75.6032 92.658 75.5933 92.6752 75.5858 92.7023C75.4073 93.1109 75.1122 93.2709 74.522 93.2709C73.8524 93.2709 73.6019 92.978 73.6019 92.0918C73.6019 91.3189 73.406 91.1269 73.039 91.1269H72.7166V93.0346H72.9844V93.1946H71.1072V93.0346H71.375V89.1405H71.1072V88.9805H72.9844V89.1405H72.7166V90.9694H73.0564C73.5746 90.9694 73.9764 90.738 74.1103 90.1005C74.2343 89.5146 74.388 88.9214 74.951 88.9214C75.2634 88.9214 75.4147 89.1257 75.4147 89.3029C75.4147 89.4629 75.3081 89.6131 75.1022 89.6131C74.8964 89.6131 74.7625 89.4802 74.7625 89.3202C74.7625 89.1602 74.8518 89.074 74.9237 89.0543C74.9336 89.0543 74.9411 89.0445 74.9411 89.0445C74.9411 89.0371 74.9311 89.0371 74.9237 89.0371C74.522 89.0371 74.3608 89.5762 74.2541 90.1349C74.1649 90.5682 73.9317 90.9497 73.4854 91.0112H73.4829Z" fill="#1D3A58"/>
<path d="M81.1357 93.0346V94.7725H80.9745C80.9745 93.6722 80.3223 93.1922 79.6354 93.1922H76.3223V93.0322H76.5901V89.138H76.3223V88.978H78.1524V89.138H77.9292V93.0322H79.0452V89.138H78.8245V88.978H80.6546V89.138H80.3868V93.0322H81.1357V93.0346Z" fill="#1D3A58"/>
<path d="M83.8934 88.9829V89.1405H83.6703V92.2174L84.806 89.5491V89.1405H84.5729V88.9829H86.4031V89.1405H86.1427V93.0346H86.4303V93.1921H84.5804V93.0346H84.806V89.9577L83.6703 92.5989V93.0346H83.8934V93.1921H82.0435V93.0346H82.3311V89.1405H82.0435V88.9829H83.8934Z" fill="#1D3A58"/>
<path d="M89.1258 88.9829V89.1405H88.9051V92.2174L90.0384 89.5491V89.1405H89.8053V88.9829H91.6355V89.1405H91.3775V93.0346H91.6627V93.1921H89.8152V93.0346H90.0384V89.9577L88.9051 92.5989V93.0346H89.1258V93.1921H87.2783V93.0346H87.5635V89.1405H87.2783V88.9829H89.1258Z" fill="#1D3A58"/>
<path d="M97.307 88.9829V89.1405H97.0838V92.2174L98.2196 89.5491V89.1405H97.9865V88.9829H99.8166V89.1405H99.5563V93.0346H99.8439V93.1921H97.9939V93.0346H98.2196V89.9577L97.0838 92.5989V93.0346H97.307V93.1921H95.457V93.0346H95.7447V89.1405H95.457V88.9829H97.307Z" fill="#1D3A58"/>
<path d="M105.119 88.983V89.1061C105.352 88.983 105.62 88.9116 106.039 88.9116C106.986 88.9116 107.648 89.9332 107.648 91.0581C107.648 92.3799 107.095 93.2833 106.093 93.2833C105.62 93.2833 105.362 93.2292 105.121 93.0519V94.7627H105.391V94.9227H103.517V94.7627H103.784V89.1405H103.517V88.9805H105.124L105.119 88.983ZM105.595 93.0421C106.158 93.0421 106.301 92.6064 106.301 91.0556C106.301 89.6722 106.158 89.1405 105.54 89.1405C105.396 89.1405 105.255 89.2045 105.121 89.2759V92.8402C105.272 92.9535 105.443 93.0445 105.595 93.0445V93.0421Z" fill="#1D3A58"/>
<path d="M109.917 88.8745C111.167 88.8745 111.668 89.3816 111.668 90.3637V92.4388C111.668 92.6604 111.675 92.9434 111.963 92.9434C112.141 92.9434 112.179 92.6973 112.186 92.5914C112.186 92.5201 112.213 92.4954 112.248 92.4954C112.293 92.4954 112.31 92.5324 112.31 92.6013C112.31 92.7514 112.273 93.3102 111.407 93.3102C110.748 93.3102 110.542 93.0173 110.46 92.8056C110.291 93.0247 109.942 93.3102 109.424 93.3102C108.575 93.3102 108.154 92.6628 108.154 91.9884C108.154 91.3139 108.61 90.5877 109.513 90.5877H110.415V89.7976C110.415 89.2413 110.316 89.0099 109.924 89.0099C109.476 89.0099 109.327 89.1428 109.327 89.2413C109.327 89.2782 109.354 89.3127 109.389 89.3299C109.513 89.3914 109.577 89.5441 109.577 89.6942C109.577 90.0117 109.344 90.1644 109.104 90.1644C108.846 90.1644 108.63 89.9699 108.63 89.677C108.63 89.1379 109.265 88.8794 109.917 88.8794V88.8745ZM110.418 92.5028V90.7674H110.078C109.642 90.7674 109.463 91.3951 109.463 91.9884C109.463 92.5201 109.607 93.0271 109.82 93.0271C110.034 93.0271 110.42 92.6899 110.42 92.5028H110.418Z" fill="#1D3A58"/>
<path d="M113.066 90.1524C113.049 90.2139 113.022 90.2434 112.995 90.2434C112.967 90.2434 112.942 90.2164 112.942 90.1721V89.0274C112.942 88.9733 112.97 88.9561 112.985 88.9561C113.012 88.9561 113.022 88.9659 113.049 88.993L113.225 89.2219C113.433 89.0275 113.726 88.8945 114.165 88.8945C115.075 88.8945 115.621 89.2933 115.621 90.0391C115.621 90.785 114.897 91.0139 114.512 91.0139C114.869 91.0508 115.683 91.3438 115.683 92.097C115.683 92.9216 115.031 93.3573 114.13 93.3573C113.29 93.3573 112.637 93.0176 112.637 92.5155C112.637 92.1782 112.888 92.001 113.128 92.001C113.369 92.001 113.61 92.1684 113.61 92.4982C113.61 92.7985 113.404 92.9487 113.198 92.9487C113.136 92.9487 113.084 92.9413 113.029 92.9118C113.27 93.0816 113.538 93.1948 114.048 93.1948C114.559 93.1948 114.639 92.8133 114.639 92.1142C114.639 91.4151 114.47 91.0755 113.994 91.0755H113.466C113.414 91.0755 113.376 91.0385 113.376 91.0115C113.376 90.9745 113.414 90.9401 113.466 90.9401H113.994C114.468 90.9401 114.577 90.5782 114.577 89.8767C114.577 89.3278 114.485 89.0521 114.13 89.0521C113.523 89.0521 113.21 89.3622 113.066 90.1499V90.1524Z" fill="#1D3A58"/>
<path d="M120.427 89.9922C120.427 90.7208 119.75 90.8513 119.202 90.8783C119.668 90.9325 120.496 91.1368 120.496 92.0131C120.496 92.8894 119.916 93.1922 119.075 93.1922H116.449V93.0322H116.806V89.138H116.449V88.978H118.8C119.683 88.978 120.424 89.2365 120.424 89.9897L120.427 89.9922ZM118.148 93.0346H118.584C118.986 93.0346 119.12 92.8746 119.12 92.3946V91.6759C119.12 91.2057 118.994 90.9743 118.584 90.9743H118.148V93.0322V93.0346ZM118.148 90.8168H118.522C118.897 90.8168 119.051 90.6297 119.051 90.2925V89.6451C119.051 89.298 118.872 89.138 118.46 89.138H118.148V90.8143V90.8168Z" fill="#1D3A58"/>
<path d="M123.058 88.9829V89.1405H122.835V92.2174L123.971 89.5491V89.1405H123.737V88.9829H125.568V89.1405H125.307V93.0346H125.595V93.1921H123.745V93.0346H123.971V89.9577L122.835 92.5989V93.0346H123.058V93.1921H121.21V93.0346H121.496V89.1405H121.21V88.9829H123.058Z" fill="#1D3A58"/>
<path d="M128.809 93.0346H129.166V93.1946H127.11V93.0346H127.467V89.1405H127.251C126.902 89.1405 126.517 89.3275 126.331 90.1866H126.198L126.294 89.1134C126.294 89.042 126.339 88.9805 126.455 88.9805H129.796C129.94 88.9805 129.982 89.042 129.982 89.1134L130.081 90.1866H129.945C129.759 89.3275 129.374 89.1405 129.027 89.1405H128.804V93.0346H128.809Z" fill="#1D3A58"/>
<path d="M132.655 88.9829V89.1405H132.434V92.2174L133.568 89.5491V89.1405H133.337V88.9829H135.167V89.1405H134.909V93.0346H135.194V93.1921H133.347V93.0346H133.568V89.9577L132.434 92.5989V93.0346H132.655V93.1921H130.81V93.0346H131.093V89.1405H130.81V88.9829H132.655Z" fill="#1D3A58"/>
<path d="M136.229 90.0291C136.229 89.3743 136.729 88.9829 137.615 88.9829H140.09V89.1429H139.819V93.0371H140.09V93.1971H138.212V93.0371H138.483V91.1294H138.16C137.796 91.1294 137.597 91.3238 137.597 92.0943C137.597 92.9805 137.347 93.2734 136.68 93.2734C136.189 93.2734 135.795 93.1134 135.616 92.7048C135.606 92.6777 135.599 92.6629 135.599 92.6334C135.599 92.6063 135.616 92.5915 135.636 92.5915C135.663 92.5915 135.678 92.5989 135.705 92.6432C135.842 92.8648 135.948 92.9534 136.1 92.9534C136.233 92.9534 136.278 92.8918 136.278 92.5546C136.278 91.4198 136.628 91.1614 137.26 91.0383C136.573 90.9398 136.231 90.6223 136.231 90.0266L136.229 90.0291ZM138.141 89.1405C137.756 89.1405 137.486 89.4161 137.486 90.0463C137.486 90.6765 137.702 90.9694 138.141 90.9694H138.48V89.1405H138.141Z" fill="#1D3A58"/>
<path d="M39.8162 76.4117C39.7591 76.4117 39.712 76.3649 39.7021 76.2616C39.5409 75.2449 39.0796 74.248 37.986 74.248H36.6023V77.9773H37.5248C38.0778 77.9773 38.4126 77.2905 38.482 76.616C38.4944 76.5249 38.539 76.4782 38.5986 76.4782C38.6581 76.4782 38.7151 76.5348 38.7151 76.6603V79.5059C38.7151 79.6339 38.6457 79.688 38.5886 79.688C38.5415 79.688 38.4845 79.6437 38.4845 79.5748C38.4274 78.7871 38.0803 78.1889 37.5272 78.1889H36.6047V82.3637H38.172C39.3599 82.3637 39.7616 81.2659 39.9699 80.2369C40.0046 80.0548 40.084 79.9613 40.1534 79.9613C40.2229 79.9613 40.2923 80.0523 40.2923 80.2246V82.1791C40.2923 82.4868 40.2229 82.5902 39.9798 82.5902H33.9538V82.3613H34.5291V74.2406H33.929V74.0117H39.6203C39.8385 74.0117 39.9327 74.1151 39.9327 74.2973V76.2419C39.9327 76.3453 39.8757 76.4019 39.8162 76.4019V76.4117Z" fill="#1D3A58"/>
<path d="M46.4174 78.4697C46.4174 79.4075 45.542 79.5798 44.8378 79.6143C45.4379 79.6832 46.5092 79.9466 46.5092 81.0789C46.5092 82.2112 45.7603 82.5977 44.6766 82.5977H41.2891V82.3909H41.7503V77.3694H41.2891V77.1626H44.3195C45.4602 77.1626 46.4174 77.4924 46.4174 78.4647V78.4697ZM43.4788 82.3934H44.0442C44.5625 82.3934 44.7361 82.1866 44.7361 81.5712V80.6432C44.7361 80.0377 44.5749 79.7398 44.0442 79.7398H43.4788V82.3934ZM43.4788 79.5331H43.9624C44.4459 79.5331 44.6418 79.2943 44.6418 78.8586V78.0241C44.6418 77.5761 44.4112 77.3718 43.8805 77.3718H43.4763V79.5331H43.4788Z" fill="#1D3A58"/>
<path d="M49.458 77.1677V77.3277C49.758 77.1677 50.1027 77.0767 50.6458 77.0767C51.8684 77.0767 52.719 78.3936 52.719 79.8459C52.719 81.5493 52.0048 82.716 50.7128 82.716C50.1027 82.716 49.768 82.6471 49.458 82.4182V84.6262H49.8027V84.833H47.3823V84.6262H47.7295V77.3745H47.3823V77.1677H49.458ZM50.068 82.4034C50.7946 82.4034 50.9781 81.8447 50.9781 79.8434C50.9781 78.0588 50.7946 77.372 49.9986 77.372C49.8151 77.372 49.6291 77.4533 49.458 77.5444V82.1425C49.6539 82.2902 49.8721 82.4034 50.068 82.4034Z" fill="#1D3A58"/>
<path d="M53.3389 79.9C53.3389 78.4822 54.2143 77.0767 55.9651 77.0767C57.7158 77.0767 58.5912 78.4822 58.5912 79.9C58.5912 81.3179 57.7158 82.7259 55.9651 82.7259C54.2143 82.7259 53.3389 81.3179 53.3389 79.9ZM55.9675 77.281C55.1839 77.281 54.9061 77.7044 54.9061 79.0188V80.9167C54.9061 82.0244 55.1368 82.5191 55.9675 82.5191C56.7983 82.5191 57.0165 82.0244 57.0165 80.9167V79.0188C57.0165 77.7142 56.7388 77.281 55.9675 77.281Z" fill="#1D3A58"/>
<path d="M61.8672 82.5976H59.5039V82.3933H59.8486V77.3718H59.5039V77.1675H65.0811V77.3718H64.7364V82.3933H65.1159V82.5976H62.7203V82.3933H63.008V77.3718H61.5796V82.3933H61.8672V82.5976Z" fill="#1D3A58"/>
<path d="M70.9806 79.4888H67.846V81.2611C67.846 82.3269 68.0196 82.578 68.5379 82.578C69.5745 82.578 70.254 81.8814 70.5317 81.0568C70.5788 80.9435 70.6359 80.8869 70.6929 80.8869C70.74 80.8869 70.7846 80.9435 70.7846 81.0248C70.7846 81.0592 70.7722 81.0937 70.7623 81.138C70.5317 81.8937 69.7952 82.8094 68.5379 82.8094C66.9136 82.8094 66.0952 81.3669 66.0952 79.9245C66.0952 78.482 66.9136 77.042 68.5379 77.042C70.3581 77.042 70.9235 78.6321 70.9806 79.4912V79.4888ZM67.846 78.1054V79.2475H69.1951V78.1398C69.1951 77.7952 69.1827 77.2709 68.5379 77.2709C67.8931 77.2709 67.846 77.7731 67.846 78.1054Z" fill="#1D3A58"/>
<path d="M75.5907 75.0261C75.5907 74.7652 75.8089 74.5806 76.0643 74.5806C76.3396 74.5806 76.5702 74.7972 76.5702 75.1172C76.5702 75.7916 75.6378 76.2864 74.8542 76.2864C74.0705 76.2864 73.148 75.7916 73.148 75.1172C73.148 74.8563 73.2968 74.6027 73.644 74.6027C73.9564 74.6027 74.1276 74.8095 74.1276 75.0507C74.1276 75.3707 73.8498 75.5061 73.6539 75.5529C73.9887 75.8507 74.4251 76.0009 74.8641 76.0009C75.303 76.0009 75.7296 75.8507 76.0619 75.5529C75.8783 75.4938 75.5882 75.3707 75.5882 75.0261H75.5907ZM74.3805 77.1676V77.3744H74.0928V81.3424L75.556 77.8987V77.372H75.2559V77.1652H77.6192V77.372H77.2844V82.3935H77.6539V82.6003H75.2683V82.3935H75.556V78.4255L74.0928 81.8323V82.3935H74.3805V82.6003H71.9949V82.3935H72.3644V77.372H71.9949V77.1652H74.3805V77.1676Z" fill="#1D3A58"/>
<path d="M81.5027 77.1774C80.4537 77.1774 80.2231 77.6697 80.2231 79.0408V80.7688C80.2231 82.1325 80.4661 82.5657 81.4333 82.5657C82.5517 82.5657 82.9658 81.6156 83.2188 80.8057C83.2535 80.7147 83.3006 80.6556 83.3577 80.6556C83.4048 80.6556 83.4271 80.7024 83.4271 80.8057V82.5436C83.4271 82.6347 83.4147 82.6691 83.38 82.6691C83.3453 82.6691 83.3229 82.647 83.2882 82.6002L82.9782 82.1547C82.8171 82.3147 82.2864 82.7725 81.4333 82.7725C79.5312 82.7725 78.5889 81.3202 78.5889 79.8802C78.5889 78.4402 79.5337 76.9756 81.4457 76.9756C82.0904 76.9756 82.5988 77.2365 82.8046 77.4088L83.0923 77.1233C83.1394 77.079 83.1841 77.0568 83.2312 77.0568C83.2783 77.0568 83.3105 77.1134 83.3105 77.2045V78.6691C83.3105 78.7282 83.2758 78.7504 83.2535 78.7504C83.2064 78.7504 83.1618 78.7159 83.1494 78.6691C82.9758 78.0759 82.4798 77.1824 81.5027 77.1824V77.1774Z" fill="#1D3A58"/>
<path d="M87.757 79.7867C88.863 79.799 89.6144 80.3135 89.6144 81.5935C89.6144 82.2113 89.6714 82.2901 89.845 82.2901C90.0409 82.2901 90.1773 82.1769 90.3509 81.8913C90.3881 81.8323 90.4104 81.8224 90.4427 81.8224C90.465 81.8224 90.4898 81.847 90.4898 81.8815C90.4898 81.9159 90.4774 81.9381 90.465 81.9726C90.2344 82.4993 89.855 82.7036 89.0936 82.7036C88.2282 82.7036 87.9083 82.327 87.9083 81.1849C87.9083 80.1879 87.6553 79.9393 87.1816 79.9393H86.7675V82.3959H87.1147V82.6027H84.6943V82.3959H85.039V77.3744H84.6943V77.1676H87.1147V77.3744H86.7675V79.7301H87.2064C87.876 79.7301 88.3918 79.4322 88.5654 78.6101C88.7266 77.8544 88.92 77.0889 89.6491 77.0889C90.0509 77.0889 90.2493 77.3523 90.2493 77.5812C90.2493 77.7879 90.1104 77.9799 89.8475 77.9799C89.5846 77.9799 89.4086 77.8076 89.4086 77.6033C89.4086 77.399 89.5251 77.2833 89.6169 77.2612C89.6293 77.2612 89.6392 77.2489 89.6392 77.2489C89.6392 77.2366 89.6268 77.2366 89.6169 77.2366C89.0961 77.2366 88.8903 77.9356 88.7514 78.6544C88.6349 79.2156 88.3348 79.7055 87.7595 79.7867H87.757Z" fill="#1D3A58"/>
<path d="M93.7731 77.1675V77.3718H93.4854V81.3398L94.9461 77.8986V77.3718H94.6485V77.1675H97.0093V77.3718H96.6745V82.3933H97.044V82.5976H94.6584V82.3933H94.9461V78.4253L93.4854 81.8321V82.3933H93.7731V82.5976H91.3875V82.3933H91.7545V77.3718H91.3875V77.1675H93.7731Z" fill="#1D3A58"/>
<path d="M101.733 75.0261C101.733 74.7652 101.954 74.5806 102.207 74.5806C102.485 74.5806 102.713 74.7972 102.713 75.1172C102.713 75.7916 101.781 76.2864 100.997 76.2864C100.213 76.2864 99.2908 75.7916 99.2908 75.1172C99.2908 74.8563 99.4421 74.6027 99.7868 74.6027C100.097 74.6027 100.27 74.8095 100.27 75.0507C100.27 75.3707 99.9926 75.5061 99.7967 75.5529C100.131 75.8507 100.568 76.0009 101.007 76.0009C101.446 76.0009 101.872 75.8507 102.205 75.5529C102.021 75.4938 101.731 75.3707 101.731 75.0261H101.733ZM100.526 77.1676V77.3744H100.238V81.3424L101.701 77.8987V77.372H101.401V77.1652H103.762V77.372H103.43V82.3935H103.799V82.6003H101.414V82.3935H101.701V78.4255L100.238 81.8323V82.3935H100.526V82.6003H98.1401V82.3935H98.5096V77.372H98.1401V77.1652H100.526V77.1676Z" fill="#1D3A58"/>
<path d="M114.686 73.7805C114.733 73.7239 114.778 73.6895 114.8 73.6895C114.86 73.6895 114.882 73.7682 114.882 73.8839C114.882 74.4673 114.559 75.1861 113.962 75.4027C113.582 75.5405 113.178 75.5405 112.717 75.5528C110.527 75.6119 109.525 76.1707 109.525 78.7799C109.88 77.783 110.758 77.0741 111.956 77.0741C113.719 77.0741 114.847 78.2064 114.847 79.8975C114.847 81.8642 113.337 82.7676 111.988 82.7676C110.639 82.7676 109.153 81.9898 109.153 78.9251C109.153 75.8605 110.12 74.4648 112.102 74.4082C113.047 74.3861 114.235 74.3171 114.683 73.7781L114.686 73.7805ZM110.917 80.7024C110.917 81.9011 111.147 82.5436 111.931 82.5436C112.714 82.5436 112.933 81.9258 112.933 80.6901V78.8242C112.933 77.8642 112.714 77.2808 111.931 77.2808C111.147 77.2808 110.917 77.8765 110.917 78.8242V80.6999V80.7024Z" fill="#1D3A58"/>
<path d="M117.877 77.0298C119.492 77.0298 120.137 77.6821 120.137 78.9522V81.6279C120.137 81.9135 120.149 82.2802 120.516 82.2802C120.747 82.2802 120.791 81.9602 120.804 81.8224C120.804 81.7313 120.838 81.6969 120.883 81.6969C120.943 81.6969 120.965 81.7412 120.965 81.8347C120.965 82.0292 120.92 82.7504 119.802 82.7504C118.949 82.7504 118.686 82.3738 118.582 82.0981C118.361 82.3836 117.912 82.7504 117.245 82.7504C116.149 82.7504 115.608 81.9159 115.608 81.0446C115.608 80.1732 116.196 79.2378 117.359 79.2378H118.522V78.2212C118.522 77.4999 118.396 77.2021 117.887 77.2021C117.312 77.2021 117.116 77.3744 117.116 77.4999C117.116 77.5467 117.153 77.591 117.198 77.6132C117.359 77.6944 117.441 77.8889 117.441 78.0833C117.441 78.4969 117.141 78.6913 116.828 78.6913C116.496 78.6913 116.218 78.4402 116.218 78.0612C116.218 77.3646 117.037 77.0322 117.877 77.0322V77.0298ZM118.522 81.7067V79.4642H118.083C117.52 79.4642 117.29 80.2741 117.29 81.0421C117.29 81.7289 117.473 82.3812 117.751 82.3812C118.029 82.3812 118.522 81.9479 118.522 81.7067Z" fill="#1D3A58"/>
<path d="M123.97 77.1675V77.3718H123.683V79.6019H125.091V77.3718H124.791V77.1675H127.162V77.3718H126.82V82.3933H127.199V82.5976H124.801V82.3933H125.091V79.8087H123.683V82.3933H123.97V82.5976H121.61V82.3933H121.957V77.3718H121.61V77.1675H123.97Z" fill="#1D3A58"/>
<path d="M131.403 79.7867C132.509 79.799 133.258 80.3135 133.258 81.5935C133.258 82.2113 133.317 82.2901 133.488 82.2901C133.684 82.2901 133.821 82.1769 133.994 81.8913C134.029 81.8323 134.054 81.8224 134.086 81.8224C134.108 81.8224 134.131 81.847 134.131 81.8815C134.131 81.9159 134.118 81.9381 134.108 81.9726C133.878 82.4993 133.498 82.7036 132.737 82.7036C131.871 82.7036 131.552 82.327 131.552 81.1849C131.552 80.1879 131.299 79.9393 130.825 79.9393H130.411V82.3959H130.758V82.6027H128.338V82.3959H128.685V77.3744H128.338V77.1676H130.758V77.3744H130.411V79.7301H130.847C131.517 79.7301 132.035 79.4322 132.209 78.6101C132.37 77.8544 132.563 77.0889 133.292 77.0889C133.694 77.0889 133.893 77.3523 133.893 77.5812C133.893 77.7879 133.754 77.9799 133.491 77.9799C133.228 77.9799 133.052 77.8076 133.052 77.6033C133.052 77.399 133.166 77.2833 133.26 77.2612C133.273 77.2612 133.285 77.2489 133.285 77.2489C133.285 77.2366 133.273 77.2366 133.26 77.2366C132.742 77.2366 132.536 77.9356 132.395 78.6544C132.281 79.2156 131.981 79.7055 131.403 79.7867Z" fill="#1D3A58"/>
</svg>
