<svg width="167" height="122" viewBox="0 0 167 122" fill="none" xmlns="http://www.w3.org/2000/svg">
<rect width="167" height="122" rx="12" fill="#FAFAFA"/>
<mask id="mask0_3006_5715" style="mask-type:alpha" maskUnits="userSpaceOnUse" x="0" y="0" width="167" height="122">
<rect width="167" height="122" rx="12" fill="#D9D9D9"/>
</mask>
<g mask="url(#mask0_3006_5715)">
</g>
<g clip-path="url(#clip0_3006_5715)">
<path d="M45.645 36.3818V59.4201L28.3191 36.3818H25.5227V64.4198H28.5099V41.3732L45.7861 64.4198H48.5908V36.3818H45.645Z" fill="#03296A"/>
<path d="M63.0208 61.4304C69.2276 61.4304 74.0901 56.7048 74.0901 50.4012C74.0901 44.0977 69.2359 39.3804 63.0208 39.3804H58.3574V61.4387L63.0208 61.4221V61.4304ZM55.4116 36.374H63.0706C70.8125 36.266 77.1686 42.4533 77.2848 50.1936C77.3927 57.9423 71.2108 64.3039 63.4772 64.4202C63.4689 64.4202 63.4606 64.4202 63.4523 64.4202H55.4282V36.374H55.4116Z" fill="#03296A"/>
<path d="M81.658 50.401C81.658 42.4531 88.0971 36 96.0465 36C101.224 36 106.004 38.7822 108.56 43.2919L105.996 44.7453C102.884 39.2639 95.9137 37.3454 90.4288 40.4598C84.9522 43.5742 83.0354 50.5505 86.1471 56.0402C88.1718 59.6031 91.9473 61.8122 96.0465 61.8205C100.162 61.862 103.971 59.6612 105.996 56.0734L108.56 57.5268C104.643 64.4449 95.8556 66.87 88.9518 62.9417C84.446 60.3837 81.658 55.5917 81.6663 50.4093" fill="#03296A"/>
<path d="M32.2026 75.0254C32.2026 73.5804 31.0906 72.6253 29.7381 72.6253H26.4521V77.3758H29.7298C31.0906 77.3758 32.1943 76.512 32.1943 75.0171M33.6464 75.0088C33.663 77.0685 32.0034 78.7544 29.9372 78.771H26.4521V84.8171H25V71.23H29.8626C31.937 71.2217 33.6298 72.891 33.6464 74.9756V75.0254" fill="#03296A"/>
<path d="M39.0483 72.9574L41.5791 80.2742H36.4842L39.0483 72.9574ZM38.2268 71.23L33.3062 84.8171H34.891L36.003 81.6446H42.0521L43.1474 84.8171H44.7323L39.82 71.23H38.2268Z" fill="#03296A"/>
<path d="M51.1631 77.301C52.5406 77.301 53.5861 76.3709 53.5861 74.9922C53.5861 73.6136 52.524 72.6834 51.1631 72.6834H47.8357V77.301H51.1631ZM55.8929 84.8171H54.2416L50.3997 78.6714H47.844V84.8088H46.4001V71.23H51.2627C53.3372 71.2217 55.0299 72.8993 55.0382 74.9839C55.0382 74.9839 55.0382 74.9922 55.0382 75.0005V75.0171C55.0382 76.8276 53.6857 78.3558 51.8933 78.5966L55.9012 84.8171H55.8929Z" fill="#03296A"/>
<path d="M56.2996 71.23V72.6834H60.0502V84.8171H61.5023V72.6834H65.253V71.23H56.2996Z" fill="#03296A"/>
<path d="M76.8618 71.23V82.392L68.4727 71.23H67.1118V84.8171H68.5639V73.6551L76.9365 84.8171H78.2891V71.23H76.8618Z" fill="#03296A"/>
<path d="M81.7078 71.23V84.8171H89.1261V83.4135H83.1516V78.7295H88.3544V77.3176H83.1516V72.6335H89.1261V71.23H81.7078Z" fill="#03296A"/>
<path d="M96.9095 77.301C98.2869 77.301 99.3324 76.3709 99.3324 74.9922C99.3324 73.6136 98.2703 72.6834 96.9095 72.6834H93.582V77.301H96.9095ZM101.639 84.8171H99.988L96.1461 78.6714H93.5903V84.8088H92.1382V71.23H97.0007C99.0752 71.2217 100.768 72.8993 100.776 74.9839C100.776 74.9839 100.776 74.9922 100.776 75.0005V75.0171C100.776 76.8276 99.4237 78.3641 97.6314 78.5966L101.639 84.8171Z" fill="#03296A"/>
<path d="M102.494 82.2346L103.805 81.4706C104.286 82.7662 105.548 83.6133 106.925 83.5551C108.443 83.5551 109.638 82.7412 109.638 81.2962C109.638 77.9243 103.033 79.0123 103.033 74.6355C103.033 72.418 104.726 71.056 106.809 71.056C108.211 71.0394 109.539 71.6706 110.427 72.7585L109.298 73.7136C108.734 72.9246 107.821 72.4762 106.859 72.5177C105.589 72.5177 104.485 73.1738 104.485 74.5275C104.485 77.7665 111.09 76.6287 111.09 81.2463C111.09 83.6216 109.215 85.0085 106.908 85.0085C104.9 85.0085 103.199 83.9206 102.494 82.2512" fill="#03296A"/>
<path d="M122.342 71.23V77.301H114.858V71.23H113.406V84.8171H114.858V78.7461H122.342V84.8171H123.786V71.23H122.342Z" fill="#03296A"/>
<path d="M128.649 71.23H127.205V84.8171H128.649V71.23Z" fill="#03296A"/>
<path d="M139.245 75.0254C139.245 73.5804 138.133 72.6253 136.781 72.6253H133.503V77.3758H136.781C138.141 77.3758 139.245 76.512 139.245 75.0171M140.689 75.0088C140.705 77.0685 139.046 78.7544 136.98 78.771H133.495V84.8171H132.042V71.23H136.905C138.98 71.2217 140.672 72.8993 140.681 74.9756V75.0254" fill="#03296A"/>
<path d="M132.026 36.2075L139.494 49.0389H141.27L133.793 36.2075H132.026Z" fill="#FBAA19"/>
<path d="M139.262 51.979L132.018 64.42H133.785L141.037 51.979H139.262Z" fill="#FBAA19"/>
<path d="M125.496 36.2075L132.972 49.0389H134.748L127.271 36.2075H125.496Z" fill="#008942"/>
<path d="M132.731 51.979L125.487 64.42H127.263L134.507 51.979H132.731Z" fill="#008942"/>
<path d="M119.065 36.2075L126.541 49.0389H128.309L120.84 36.2075H119.065Z" fill="#009BD0"/>
<path d="M126.3 51.979L119.056 64.42H120.832L128.076 51.979H126.3Z" fill="#009BD0"/>
<path d="M112.634 36.2075L120.11 49.0389H121.878L114.41 36.2075H112.634Z" fill="#03296A"/>
<path d="M119.87 51.979L112.625 64.42H114.401L121.645 51.979H119.87Z" fill="#03296A"/>
</g>
<defs>
<clipPath id="clip0_3006_5715">
<rect width="117" height="49" fill="white" transform="translate(25 36)"/>
</clipPath>
</defs>
</svg>
