<svg width="167" height="124" viewBox="0 0 167 124" fill="none" xmlns="http://www.w3.org/2000/svg">
<rect y="2" width="167" height="122" rx="12" fill="#FAFAFA"/>
<g clip-path="url(#clip0_3007_3143)">
<path d="M65.3697 68.6851L65.007 69.4051L64.4478 69.4382L64.0765 70.3871L63.5881 71.3821L63.5852 72.8005L61.4699 72.8206L61.1304 73.0294L60.184 72.9891L59.5916 72.3944L58.8677 72.4779L58.2464 72.7342L57.469 72.6421L57.2292 73.0294L57.0254 73.9841L56.9749 75.2282L57.4574 75.6429L57.4083 76.8899L58.3721 77.7798L58.4877 76.3716L59.4673 76.8655L59.5525 76.1916L60.1449 76.6164L60.1782 77.237L60.7879 77.3234L61.6447 78.0981L62.0565 78.9649L63.1547 79.3508L63.2992 79.8706L65.2989 81.3192L68.0138 81.6663L68.7565 82.5504L70.1032 82.2667L70.9484 82.081L72.3442 81.9715L72.5985 81.1896L71.7316 79.2846L70.356 77.4631L70.3011 76.1009L70.2708 75.4198L69.5801 74.6508L69.6162 73.7451L69.9746 73.1389L69.7853 72.3383L69.1654 72.4823L69.2304 70.9545L68.297 69.2668L68.3722 68.7585L68.0037 68.1782L68.3043 67.6843L68.9747 67.5965L69.1799 66.6994L69.9688 66.4532L70.0035 65.605L69.739 65.199L70.0526 64.4142L70.7331 64.0499L71.2865 64.1305L71.3487 65.3775L71.6189 65.559L71.3299 65.834L71.535 66.2977L71.5061 66.9759L71.1565 67.4122L71.5943 68.9601L72.0133 68.1869L72.3427 68.3136L72.8253 68.7888L74.3222 68.9112L74.302 69.4224L74.867 69.2798L75.1198 69.8529L75.6096 70.1582L75.9969 70.233L75.9145 70.8508L76.3292 70.2446L76.3957 71.2698L76.9389 71.6917L76.9736 70.845L77.3681 70.691L77.4028 69.9004L78.1454 69.3662L78.1714 68.7441L78.995 68.9486L79.2638 67.8859L79.9111 67.0061L80.2217 66.2257L80.8243 66.4791L80.7997 67.1026L80.4544 67.3719L80.8286 67.7275L80.2608 67.9853L79.8056 68.1912L79.8475 68.5915L79.6712 68.868L79.2667 69.1891L79.0731 69.8587L78.6092 70.2935C78.6092 70.2935 79.2638 70.6622 79.4299 70.6132C79.6019 70.5628 80.8272 70.5052 80.8272 70.5052L80.9572 70.0027L81.4109 69.7924L82.1406 69.7147L82.3587 68.4749L82.8919 67.6512L82.2013 66.8823L81.973 66.9284L81.7967 67.2595L81.8371 66.2415L81.3502 65.8268L81.3777 65.1443L80.8358 64.7814L80.7607 65.2911L80.5295 65.5057L80.2608 65.2667L80.6263 64.5467L80.583 64.204L80.19 64.299L79.625 64.502L79.586 64.0441L79.8634 64.1132L80.372 63.9117L80.2348 63.1686L81.5222 63.0563L82.155 62.4587L82.1348 61.6106L82.5307 61.5127L82.5451 61.1758L82.2128 61.1023L82.1752 60.6487L82.574 60.3823L83.3644 60.0756L83.3817 59.7387L81.8068 60.0627L81.3675 59.9907L81.4499 59.3096L81.1682 59.4118L80.7 60.0151L80.5049 60.6314L79.5947 61.157L78.8188 61.0634L78.5673 60.4299L78.1194 60.4111L77.8781 60.9698L77.095 60.9871L75.8423 60.2542L74.5751 59.9691L73.7804 60.3319L72.4338 60.6113L71.4064 61.2449L71.1738 61.4637L71.5582 61.5905L72.2907 61.3399L73.0233 61.1455L73.3542 61.2737L73.2299 61.5501L72.5609 61.5818L71.0452 61.9087L70.2086 61.985L69.7882 62.6488L69.661 63.0938L69.2536 63.5301L69.385 64.3883L69.1394 64.9988L68.8403 65.4351L68.7695 65.8873L68.4777 66.158L68.4545 66.7253L67.9618 66.5353L67.9719 67.6671L67.6642 68.3942L67.8116 68.9083L67.4633 69.2323L66.6874 69.143L65.9809 68.7153L65.3697 68.6851Z" fill="#005AAA"/>
<path d="M70.541 67.3835L70.1075 67.1387L70.0223 67.8745L70.2795 68.4461L69.7651 68.7687L69.7275 69.6687L70.0859 70.4246L70.4283 71.6284L70.5295 70.5024L70.895 69.7219L70.3301 69.925L70.3575 69.2453L70.6653 68.4677L70.3604 67.7737L70.541 67.3835Z" fill="#005AAA"/>
<path d="M70.8226 68.7557L70.6955 69.2035L71.1261 69.5088L70.9772 69.1056L70.8226 68.7557ZM59.5322 79.4186L59.6146 80.1587L59.9931 80.4596L59.9758 80.8009L60.4179 80.8772L60.389 80.3085L60.0798 79.6173L59.5322 79.4186ZM65.6282 88.3074L66.1845 88.388L66.225 88.6717L66.6512 89.085L66.1845 89.6336L65.6094 88.7567L65.6282 88.3074ZM97.689 80.2105L97.8681 79.9326L98.1976 80.0032L98.8377 80.7678L98.7596 81.2747L99.0356 81.3999L99.0298 82.9306L98.6296 83.1941L97.9996 83.5642L97.5517 83.6016L97.5951 82.5274L97.3306 82.2308L97.3581 81.4964L97.8754 81.1235L97.8465 80.4424L97.5243 80.199L97.689 80.2105ZM90.9182 77.0182L89.3043 76.9447L90.5064 77.5077L92.0308 78.3732L94.1042 78.006L94.3123 77.057L94.8238 76.7978L95.1156 77.7713L95.1228 79.0197L95.2486 80.0392L94.7125 80.8686L94.685 81.5454L95.5534 82.0983L95.9681 82.8529L95.932 83.7571L95.2962 84.3547L95.1792 85.8796L94.8815 86.3174L94.6692 87.3858L93.3933 88.6343L92.4874 89.0446L91.9658 89.5889L91.1335 89.5515L90.6047 90.2067L89.5658 89.7632L88.6483 89.0446L88.4532 88.3002L87.79 88.2728L86.952 86.9294L87.2612 86.1489L86.6948 84.9883L85.5504 84.4282L84.5332 83.3655L82.4829 83.161L82.1116 82.7449L80.3257 82.7808L79.4588 82.2308L79.5353 81.7239L78.5788 80.6051L78.9328 80.0536L79.2637 78.8786L80.5655 78.3156L81.038 77.5985L81.6001 77.5077L81.9974 77.299L82.8832 77.4545L83.2848 77.1334L84.7976 76.975L85.2282 77.273L87.0878 76.7921L87.3724 76.5761L88.0313 76.7763L88.6656 76.2363L89.2913 75.9814L89.862 75.5523L89.6481 75.3176L88.8708 75.3392L88.1223 75.9281L87.5661 75.908L87.3724 75.2153L88.459 74.4694L89.4083 74.3989L89.5976 73.8402L88.6078 73.5738L88.1122 73.437L87.7654 73.7624L87.9764 73.9971L87.7481 74.157L87.1456 73.9021L87.1282 74.4133L87.0473 74.9763L87.1485 75.26L86.9708 75.4817L87.1803 75.7769L86.7815 76.0376L86.7338 75.8115L86.8017 75.5307L86.3133 75.2283L85.77 74.8611C85.77 74.8611 84.9985 74.7114 84.9913 74.8856C84.9855 75.0555 85.1372 75.4011 85.1372 75.4011L85.7888 75.823L86.2266 75.9584L86.2729 76.2449L86.0576 76.0649L85.8799 76.2838L85.6978 76.674L85.5403 76.4379L85.5042 75.9814L85.01 75.7913L84.3425 75.764L83.5102 75.7251L83.4741 76.6035L83.1548 76.8986L82.3688 77.0326L82.0899 77.1031L81.7966 76.8382L81.525 76.5761L81.6853 76.0664L81.8327 75.8777L82.2026 75.7251L82.8427 75.6963L83.11 75.2801L82.5147 74.8856L82.9771 74.455L83.6793 74.288L83.8223 73.5565L84.1619 73.4327L84.1518 73.6544L83.9798 73.7336L84.0304 73.8762L84.9566 73.6919L85.4377 73.5133L85.5172 72.8697L86.4549 72.4578L86.3841 72.1108L85.8596 72.0028L85.6371 71.3404L85.3005 71.3591L85.01 71.6831L85.0649 72.3902L84.5896 73.1937L84.198 73.1778L84.1879 72.7257L83.6099 73.2354L83.6374 72.5874L83.7458 71.997L84.4624 71.4311L84.7716 70.0848L85.2282 69.7651L86.0359 69.7723L86.3798 69.5347L86.2353 68.9602L86.2844 68.3986L86.4896 68.1783L86.5633 67.7535L86.1197 67.6513L86.1356 67.3129L86.3971 67.0407L86.1746 66.3784L85.2036 66.2228L85.2745 65.942L85.588 65.7304L86.1515 65.5561L85.8481 64.8606V64.0989L85.3496 64.0471L84.9739 63.7173L85.1791 63.4437L85.3496 62.6849L84.4061 62.6158L84.1171 62.7727L83.0955 61.9908L82.7849 61.4379L83.0782 61.0275L83.8093 60.8633L84.0203 60.4746L83.4756 60.1419L83.5984 59.8309L84.0087 60.0757L85.0866 60.2096L85.4999 59.661L85.4377 59.121L86.5835 58.9741C86.5835 58.9741 86.6283 59.314 86.7136 59.2362C86.8017 59.1556 86.4997 59.6754 86.4997 59.6754L85.9203 60.2485L86.2685 60.5753L86.3711 60.7769L86.8133 60.9094L86.8566 61.2248L87.4765 61.0505L87.8666 60.9569C87.8666 60.9569 87.7481 59.7863 87.9432 59.8007C88.1353 59.8079 88.9228 59.6437 88.9228 59.6437L89.7551 59.7387L90.0932 60.2902L91.1537 60.3406L91.0222 59.3975L91.7808 59.2016L92.7792 59.3615L91.9195 59.9187L91.3777 60.8893L91.7837 61.1873L91.8242 61.5574L92.1377 60.6617L92.0683 60.3536L92.4642 60.2269L92.655 60.9973L93.0682 60.3651L92.8616 60.0498L93.2618 59.8079L93.7444 60.1693L94.3253 60.3378L95.0781 60.2859L95.6546 61.1341L95.6445 61.3587L96.3077 61.5574L96.39 62.2702L96.7614 62.0326L97.3104 61.5459L97.8031 61.6798L98.4374 62.5006L98.2771 63.7965L99.0587 63.7173L99.1136 63.0434L99.42 62.9714L99.5457 62.695L99.8 62.5337L99.9849 62.119L100.111 63.1169L99.8245 63.3573L99.6454 63.6324L99.4922 64.0528L98.9258 64.1968L97.897 64.2343L97.6124 64.9902L97.6789 65.5L97.1529 66.0731L97.0532 66.4374L96.3929 66.9759L96.4579 67.3474L96.8957 67.5361L97.098 68.1121L97.3465 68.1481L97.5243 68.5556L97.6268 69.4959L97.9548 69.5952L98.0242 69.9379L98.4634 70.0978L98.7192 70.704L98.4591 70.9502L97.871 70.9776L96.7657 71.4974L96.4131 71.2785L95.8583 71.2008L95.841 71.6543L94.9755 71.6702L94.1851 72.6292L93.6433 73.6501L93.0884 73.5968L92.8154 74.1541L91.9137 74.3686L91.9282 74.7675L92.3068 75.008L92.8659 74.9763L93.35 74.0663L94.4452 73.8013L94.7356 74.8654L94.084 75.823L94.0739 76.6769L93.7632 77.5423L93.6433 77.7641L93.48 77.6157L92.8327 77.8101L92.1232 77.466L91.895 77.6863L90.9182 77.0182Z" fill="#005AAA"/>
<path d="M95.581 75.296L95.3166 75.6287L95.3484 76.1946L95.5897 76.4307L95.8194 76.245L95.7616 75.6186L95.8512 75.4789L95.581 75.296ZM98.5662 69.6485L98.8103 69.1762L99.4201 69.2036L99.462 69.4628C99.462 69.4628 99.9128 69.3965 99.881 69.4786C99.8492 69.5679 99.8145 69.7349 99.8145 69.7349L99.5761 70.118L99.3319 70.0532L98.5662 69.6485ZM99.8926 65.7391L99.9345 64.1018L100.465 64.0068L100.645 63.0291L100.398 62.2486L100.926 61.651L100.624 60.8144L99.9706 60.4746L99.0213 60.5466L98.9202 59.6063L98.1327 59.1167L98.1789 58.6919L98.6196 58.7711L98.0243 58.3766L98.6109 58.26L98.6976 57.4694L97.9087 57.0662L97.7209 56.1231L96.8554 56.2541L96.7832 55.9964L96.984 55.8941L97.0909 55.2764L96.4393 54.8487L96.3901 53.9963L95.3903 53.3281L95.2559 52.5016L94.9351 52.2323L94.5725 52.1301L94.1852 51.4331L94.3991 51.0717L94.1881 50.67L93.3631 50.4324L93.8052 49.8031L93.0842 49.0875L93.0929 48.8931L94.282 49.0313L94.4092 49.3193L94.4294 50.2553L94.9684 50.6196L95.7385 50.8788L96.6083 52.0509L96.1387 52.0581L95.8555 52.0739L96.4581 52.9796L96.6358 53.4102L97.1603 53.5211L97.2513 54.0092L97.2036 54.5722L97.6154 54.6759L98.0633 55.3455L98.5445 55.7904L98.9751 56.8315L99.2323 56.699L100.245 59.2103L100.787 58.8129C100.787 58.8129 100.471 58.4313 100.504 58.26C100.54 58.0929 100.144 57.5357 100.229 57.54C100.312 57.5429 100.564 57.4406 100.564 57.4406C100.564 57.4406 100.966 57.8812 100.933 57.995C100.9 58.1044 101.16 58.6012 101.16 58.6012L101.246 59.9087L101.466 60.5984L101.362 61.7562L101.073 62.1089L101.222 62.5121L101.135 64.0126L100.706 64.3034L100.151 65.5562L99.8926 65.7391Z" fill="#005AAA"/>
<path d="M98.8637 54.8139L99.3059 54.8917L99.5645 55.3525L99.5414 55.9213C99.5414 55.9213 99.3189 55.9688 99.264 55.8521C99.2163 55.737 99.0862 55.4749 99.0862 55.4749C99.0862 55.4749 98.7857 55.3784 98.8175 55.2675C98.8493 55.1552 98.8637 54.8139 98.8637 54.8139ZM99.7885 55.9875L100.062 56.143L100.246 56.408L100.075 57.1913L99.8246 57.1236L99.7885 56.6988L99.5472 56.4886L99.7885 55.9875ZM87.4794 58.9264L88.0314 59.0085L88.2582 58.9351L88.6151 59.0056L88.7639 59.4967L89.771 58.6889L90.6466 58.4167C90.6466 58.4167 91.4009 58.961 91.4847 58.9639C91.5699 58.9696 92.0149 58.9884 92.0149 58.9884L93.4049 58.9639L92.3819 58.1532L91.7418 58.1273L91.541 58.2597L91.5526 57.9473L90.6192 57.7082L90.0846 57.8522L89.956 58.2165L89.3578 58.5881L88.6079 58.4959L88.4518 58.2597L88.2308 58.2252L88.1657 58.506L87.858 58.4671L87.8175 58.7465L87.4823 58.8156L87.4794 58.9264ZM93.8861 59.4967L94.1461 59.2533L94.701 59.2764L94.8556 59.5399L94.5392 59.8653L94.2025 59.8783L94.1534 59.704L93.8861 59.4967ZM95.0983 59.6911L95.2891 59.1338L95.604 58.9768L95.5997 58.4383L95.828 58.2209L95.8453 57.8522L95.6257 57.7572L96.2225 57.4174L95.9841 57.1236L96.5548 56.8068L96.8033 56.8788L96.9045 57.7874L96.3742 57.7932L96.497 58.254L96.2427 58.2972L96.1921 58.8904L96.5389 58.6226L96.9261 58.6399L97.4217 58.7724L97.2642 59.2764L96.208 59.1468L96.2268 59.429L95.8844 59.6133L95.0983 59.6911ZM89.3751 46.491C89.3476 46.6863 89.3302 46.8829 89.3231 47.08L90.242 48.4551L90.9081 48.5098L91.0945 48.6884H91.6812L91.2072 48.0159L90.7131 47.8503L90.2478 47.008L89.589 46.7243L89.5716 46.4982L89.3751 46.491ZM91.9369 49.2111L91.9196 49.6906L92.2403 49.9311L93.1911 49.9167L92.8992 49.5092L92.4325 49.3997L92.3588 49.1708L91.9369 49.2111ZM98.5357 45.9827L97.9274 45.9338L97.6356 45.6098L96.9955 45.7955L96.2412 45.905L96.1329 46.2347L95.2472 46.72L95.2587 47.031L95.7558 47.4587L96.3944 47.941L96.4999 48.7575L96.916 49.4919L96.4493 50.0189L97.0894 50.4293L97.1573 51.0773L97.7974 50.867L98.7669 51.3149L98.673 51.8116L98.4144 52.3732L99.3723 53.6807L99.7755 53.554L100.024 53.8276L100.287 53.6735L100.378 54.2711C100.378 54.2711 100.434 54.6829 100.596 54.7131C100.758 54.7448 101.297 54.7448 101.297 54.7448L101.29 54.9349L102.028 55.1811C102.028 55.1811 102.066 55.423 102.087 55.5454C102.103 55.6621 102.383 55.7024 102.383 55.7024L102.883 56.1272L103.158 56.8572C103.158 56.8572 103.547 57.1121 103.662 57.115C103.781 57.1222 104.201 57.115 104.201 57.115L104.458 56.5534L105.249 56.1632L105.204 55.5382L104.601 54.248L102.651 51.4891L102.281 50.8037L100.975 49.4314L101.255 48.8957L101.053 48.6466L100.68 48.6308C100.68 48.6308 100.517 47.9799 100.52 47.9108C100.525 47.8374 99.8361 46.923 99.8361 46.923L99.7379 46.4205L99.5255 46.4809L99.3073 46.6624L99.0992 46.5587L98.725 46.468L98.5357 45.9827ZM96.8062 43.8444L97.6529 44.1641L97.9664 44.7156L98.4678 44.7674L98.2236 44.5557L98.254 43.7954L98.0416 43.5319L96.9565 43.5953L96.8062 43.8444ZM110.91 70.0544C110.91 70.0544 110.449 70.4288 110.442 70.5195C110.442 70.6016 110.426 70.9414 110.426 70.9414L110.79 70.8996L110.991 70.7096L110.91 70.0544ZM107.906 72.6996L107.812 72.9213L107.423 72.9343L107.413 73.8674L107.839 73.601L107.993 73.3245L108.192 73.2496L108.232 72.9127L108.006 72.989L107.906 72.6996ZM108.682 76.8754L108.351 76.8294L108.227 77.1332L107.948 77.1231L107.852 77.4543L107.623 77.5897L107.692 77.9626L108.137 77.9237L108.634 77.3751L108.682 76.8754ZM109.514 76.2577L109.186 76.1008L109.05 76.6883L109.32 76.9302L109.514 76.2577ZM109.715 75.4456L109.963 75.5406L109.615 75.866L109.534 75.7451L109.715 75.4456ZM82.7416 73.2756L82.6332 73.3346L82.5682 73.614L82.7098 73.6672L82.5581 73.8573L82.5061 74.2475L82.3732 74.4866L82.6231 74.429L82.8948 74.3296L83.0031 74.272L82.8673 74.1323L82.9338 73.8069L82.8716 73.6053L82.8861 73.2568L82.7416 73.2756ZM82.4483 73.8515V74.0229L82.3804 74.2432L82.2446 74.1482L82.2518 73.9509L82.4483 73.8515ZM90.1756 72.6506C90.1756 72.6506 89.9169 72.9213 90.0268 72.9271C90.1366 72.9285 90.2955 73.1345 90.2955 73.1345L90.7131 73.1532L90.7507 73.6096L91.1466 73.457L91.4269 73.4124L91.726 72.8306L91.437 72.5354L90.7087 72.5873L90.2088 72.5628L90.1756 72.6506ZM89.2321 71.8731L89.6814 71.8932L90.2262 72.1409L90.1004 72.4505L89.521 72.39L89.4213 72.1063L89.2321 71.8731ZM77.3521 64.9382L77.6512 65.065L77.8246 65.5848L77.7582 65.8641L78.0052 65.9865L78.0154 67.1198L77.5096 67.2119L77.329 66.8649L77.5631 66.5611L77.5357 65.88L77.2077 66.3782L76.413 66.7641L76.5748 66.2342L77.0025 66.0268L77.436 65.6496L77.2553 65.219L76.5936 65.0722L76.7193 64.7122L77.3521 64.9382ZM83.925 102.292C91.1133 105.349 93.9395 107.833 93.8557 109.545C93.8037 110.638 90.8735 107.218 89.1223 106.017C87.1037 104.482 85.0043 103.133 82.8543 102.715C80.7751 102.321 65.4404 108.412 58.0455 103.117C65.8306 102.616 75.822 98.8448 83.925 102.292ZM51.844 50.723C51.8281 50.9952 51.0508 52.1515 51.1143 52.0507C54.0475 47.5537 55.5155 48.409 58.7087 45.663C58.1885 50.7014 52.4162 53.8564 49.6261 55.9961C48.2982 48.5271 49.9107 42.0113 53.8047 36.3394C52.7471 41.9494 52.4566 42.3137 51.844 50.723Z" fill="#005AAA"/>
<path d="M52.9813 48.5573C53.3078 43.3893 56.7452 40.1149 60.7649 37.9751C59.5989 41.3748 57.787 45.8473 52.9813 48.5573ZM48.375 61.0431C49.4023 58.3274 52.0898 55.1105 54.9319 53.6C54.5403 58.8904 49.8719 62.5464 47.4054 67.209C44.5532 60.5291 43.2543 51.4559 47.339 44.9704C47.3838 50.0534 48.911 56.8197 48.375 61.0431Z" fill="#005AAA"/>
<path d="M47.8099 70.4764C48.7173 67.5735 49.4802 64.9427 51.8166 62.6719C53.3727 66.9586 50.5638 71.8141 48.7259 75.7769C44.202 70.7155 41.2053 65.3545 42.5476 57.3052C44.2627 61.818 45.4836 66.3294 47.8099 70.4764Z" fill="#005AAA"/>
<path d="M50.3168 81.2628C50.2547 75.9581 50.7806 73.886 52.3339 70.7368C54.8003 75.9019 53.3381 81.7539 52.9465 87.2991C45.9749 82.5429 42.7947 77.4268 42 69.3789C44.9317 73.886 48.5454 76.8119 50.3168 81.2628Z" fill="#005AAA"/>
<path d="M60.5105 95.9375C55.5777 95.0577 50.0004 93.4176 47.6654 88.3763L45.2004 81.9527C47.9327 86.0796 50.8688 86.6254 55.4534 91.2591C53.8048 85.1638 55.0604 83.8405 54.5402 79.8101C58.8243 83.9686 58.9544 90.3923 60.5105 95.9375Z" fill="#005AAA"/>
<path d="M69.8518 100.476C65.6992 100.226 61.418 102.616 57.6569 100.476C55.4506 99.2134 53.3728 96.9498 51.8167 94.9325C54.6703 96.8217 60.5149 96.0009 64.0188 98.2688C60.6753 95.4983 62.256 91.5802 59.8734 87.57C59.856 87.4865 59.8633 87.4965 59.8633 87.4965C65.4882 89.7789 65.5446 98.803 69.8518 100.476ZM85.8222 102.292C78.631 105.349 75.8033 107.833 75.8886 109.545C75.942 110.638 78.8694 107.218 80.6192 106.017C82.6406 104.482 84.74 103.133 86.8914 102.715C88.9706 102.321 104.304 108.412 111.7 103.117C103.917 102.616 93.9237 98.8448 85.8222 102.292ZM117.899 50.723C117.919 50.9952 118.696 52.1515 118.633 52.0507C115.698 47.5537 114.23 48.409 111.039 45.663C111.556 50.7014 117.328 53.8564 120.123 55.9961C121.446 48.5271 119.836 42.0113 115.944 36.3394C116.994 41.9494 117.286 42.3137 117.899 50.723Z" fill="#005AAA"/>
<path d="M116.768 48.5573C116.435 43.3893 113.002 40.1149 108.982 37.9751C110.148 41.3748 111.957 45.8473 116.768 48.5573ZM121.374 61.0431C120.344 58.3274 117.656 55.1105 114.813 53.6C115.206 58.8904 119.875 62.5464 122.339 67.209C125.193 60.5291 126.49 51.4559 122.405 44.9704C122.365 50.0534 120.835 56.8197 121.374 61.0431Z" fill="#005AAA"/>
<path d="M121.937 70.4764C121.027 67.5735 120.264 64.9427 117.926 62.6719C116.37 66.9586 119.183 71.8141 121.017 75.7769C125.547 70.7155 128.542 65.3545 127.198 57.3052C125.483 61.818 124.259 66.3294 121.937 70.4764Z" fill="#005AAA"/>
<path d="M119.429 81.2628C119.488 75.9581 118.968 73.886 117.411 70.7368C114.947 75.9019 116.412 81.7539 116.799 87.2991C123.772 82.5429 126.951 77.4268 127.747 69.3789C124.808 73.886 121.203 76.8119 119.429 81.2628Z" fill="#005AAA"/>
<path d="M109.237 95.9375C114.164 95.0577 119.745 93.4176 122.08 88.3763L124.545 81.9527C121.814 86.0796 118.877 86.6254 114.294 91.2591C115.944 85.1638 114.684 83.8405 115.205 79.8101C110.923 83.9686 110.793 90.3923 109.237 95.9375Z" fill="#005AAA"/>
<path d="M99.8926 100.476C104.044 100.226 108.326 102.616 112.092 100.476C114.297 99.2135 116.37 96.9499 117.926 94.9325C115.073 96.8217 109.231 96.0009 105.724 98.2689C109.073 95.4984 107.488 91.5803 109.874 87.57L109.885 87.4966C104.256 89.7789 104.2 98.8031 99.8926 100.476Z" fill="#005AAA"/>
<path d="M109.086 67.0954C109.021 60.8767 106.543 54.9246 102.171 50.487L105.902 46.769C111.265 52.1918 114.299 59.4818 114.363 67.0954H109.086ZM102.171 84.2409C106.543 79.8034 109.022 73.8512 109.086 67.6325H114.363C114.299 75.246 111.265 82.5358 105.902 87.9588L102.171 84.2409ZM85.1243 91.5126C91.3646 91.4471 97.3373 88.9774 101.791 84.621L105.52 88.339C100.252 93.494 93.0582 96.7008 85.1243 96.7713V91.5126ZM67.92 84.621C72.3732 88.9775 78.3455 91.4472 84.5854 91.5126V96.7713C76.9457 96.7074 69.6309 93.6832 64.1893 88.339L67.92 84.621ZM60.6247 67.6325C60.6891 73.851 63.1669 79.8031 67.5385 84.2409L63.8093 87.9588C58.4468 82.5356 55.4118 75.246 55.3465 67.6325H60.6247ZM67.5385 50.487C63.167 54.9248 60.6892 60.8769 60.6247 67.0954H55.3465C55.4115 59.4817 58.4465 52.192 63.8093 46.769L67.5385 50.487ZM84.5854 43.2152C78.3451 43.2809 72.3725 45.7505 67.9185 50.1068L64.1893 46.3888C69.6309 41.0446 76.9457 38.0204 84.5854 37.9565V43.2152ZM101.791 50.1068C97.3373 45.7504 91.3646 43.2807 85.1243 43.2152V37.9565C93.0582 38.027 100.252 41.2338 105.52 46.3888L101.791 50.1068ZM103.266 67.0954C103.2 62.415 101.337 57.9378 98.059 54.5851L101.791 50.8657C106.061 55.2033 108.482 61.019 108.548 67.0954H103.266ZM98.059 80.1428C101.337 76.7901 103.2 72.3129 103.266 67.6325H108.548C108.482 73.7088 106.061 79.5245 101.791 83.8622L98.059 80.1428ZM85.1243 85.7125C89.8212 85.6471 94.3141 83.7892 97.6776 80.5215L101.41 84.2409C97.057 88.4964 91.2216 90.9096 85.1243 90.9755V85.7125ZM72.0322 80.5215C75.3957 83.7891 79.8886 85.647 84.5854 85.7125V90.9755C78.4884 90.9096 72.6532 88.497 68.3 84.2423L72.0322 80.5215ZM66.4433 67.6325C66.5089 72.3133 68.3732 76.7908 71.6521 80.1428L67.9185 83.8622C63.6483 79.5245 61.2273 73.7088 61.1622 67.6325H66.4433ZM71.6521 54.5851C68.3733 57.9371 66.509 62.4146 66.4433 67.0954H61.1622C61.2273 61.019 63.6483 55.2033 67.9185 50.8657L71.6521 54.5851ZM84.5854 49.0153C79.8886 49.0808 75.3957 50.9387 72.0322 54.2063L68.3 50.487C72.6522 46.2305 78.488 43.8172 84.5854 43.7523V49.0153ZM97.6776 54.2063C94.3141 50.9386 89.8212 49.0807 85.1243 49.0153V43.7523C91.2217 43.8177 97.0573 46.2309 101.41 50.487L97.6776 54.2063ZM97.4507 67.0954C97.3852 63.9519 96.1349 60.9482 93.9483 58.6817L97.6776 54.9652C100.855 58.2166 102.662 62.5573 102.727 67.0954H97.4507ZM93.9483 76.0461C96.1349 73.7796 97.3852 70.7759 97.4507 67.6325H102.727C102.662 72.1709 100.855 76.512 97.6776 79.7641L93.9483 76.0461ZM85.1243 79.9167C88.2786 79.8517 91.2927 78.6056 93.5668 76.4262L97.2961 80.1428C94.0339 83.3098 89.6781 85.1108 85.1243 85.1754V79.9167ZM76.1429 76.4262C78.4172 78.6053 81.4312 79.8514 84.5854 79.9167V85.1754C80.0317 85.1106 75.6759 83.3096 72.4136 80.1428L76.1429 76.4262ZM72.2604 67.6325C72.3252 70.776 73.5757 73.78 75.7629 76.0461L72.0322 79.7641C68.8549 76.512 67.0479 72.1709 66.9823 67.6325H72.2604ZM75.7629 58.6817C73.5757 60.9478 72.3252 63.9518 72.2604 67.0954H66.9823C67.0477 62.5573 68.8548 58.2166 72.0322 54.9652L75.7629 58.6817ZM84.5854 54.8111C81.4309 54.8762 78.4166 56.1229 76.1429 58.303L72.4136 54.5851C75.6763 51.4188 80.0318 49.6179 84.5854 49.5524V54.8111ZM93.5668 58.303C91.2933 56.1227 88.2789 54.8759 85.1243 54.8111V49.5524C89.678 49.6176 94.0336 51.4186 97.2961 54.5851L93.5668 58.303ZM91.635 67.0954C91.5709 65.4889 90.9335 63.9581 89.8376 62.7784L93.5668 59.0619C95.6526 61.2273 96.8464 64.0944 96.9118 67.0954H91.635ZM89.8376 71.9494C90.9338 70.7699 91.5712 69.2389 91.635 67.6325H96.9118C96.8464 70.6334 95.6526 73.5005 93.5668 75.666L89.8376 71.9494ZM85.1243 74.1194C86.7366 74.057 88.2731 73.4215 89.4561 72.3281L93.1868 76.0461C91.0134 78.1247 88.136 79.3144 85.1243 79.3796V74.1194ZM80.255 72.3281C81.4373 73.4218 82.9735 74.0572 84.5854 74.1194V79.3796C81.5741 79.3144 78.6972 78.1247 76.5243 76.0461L80.255 72.3281ZM78.0761 67.6325C78.1393 69.2391 78.7769 70.7702 79.8736 71.9494L76.1429 75.666C74.0569 73.5007 72.8635 70.6334 72.7994 67.6325H78.0761ZM79.8736 62.7784C78.777 63.9577 78.1395 65.4888 78.0761 67.0954H72.7994C72.8635 64.0944 74.0569 61.2271 76.1429 59.0619L79.8736 62.7784ZM84.5854 60.6084C82.9738 60.6708 81.4379 61.3057 80.255 62.3982L76.5243 58.6817C78.6972 56.6031 81.5741 55.4134 84.5854 55.3482V60.6084ZM89.4561 62.3982C88.2726 61.3058 86.7363 60.671 85.1243 60.6084V55.3482C88.136 55.4136 91.0133 56.6032 93.1868 58.6817L89.4561 62.3982ZM84.8556 73.5895C83.1993 73.588 81.6113 72.9317 80.44 71.7647C79.2687 70.5977 78.6098 69.0152 78.6079 67.3646C78.6098 65.7139 79.2686 64.1313 80.4399 62.964C81.6112 61.7968 83.1992 61.1402 84.8556 61.1383C86.5119 61.1402 88.0997 61.7968 89.2708 62.9641C90.4418 64.1314 91.1003 65.714 91.1019 67.3646C91.1 69.015 90.4412 70.5972 89.2703 71.7642C88.0993 72.9312 86.5116 73.5876 84.8556 73.5895ZM84.8556 37.4165C68.2855 37.4165 54.8047 50.8498 54.8047 67.3646C54.8047 83.878 68.2855 97.3128 84.8556 97.3128C101.424 97.3128 114.905 83.878 114.905 67.3646C114.905 50.8498 101.424 37.4165 84.8556 37.4165Z" fill="#005AAA"/>
<path d="M106.028 37.2363L91.6581 33.432L94.1332 28.6096C94.162 28.5589 94.1734 28.5002 94.1656 28.4424C94.1577 28.3847 94.1311 28.3311 94.0898 28.2899C94.0488 28.2486 93.9951 28.2221 93.9373 28.2146C93.8795 28.207 93.8208 28.2188 93.7705 28.2481L88.9301 30.7148L85.1127 16.393C85.0987 16.3355 85.0658 16.2844 85.0191 16.2478C84.9725 16.2112 84.9149 16.1914 84.8555 16.1914C84.7961 16.1918 84.7385 16.2118 84.6917 16.2483C84.6449 16.2847 84.6116 16.3356 84.5969 16.393L80.7795 30.7148L75.9405 28.2481C75.8902 28.2188 75.8315 28.207 75.7737 28.2146C75.7159 28.2221 75.6622 28.2486 75.6212 28.2899C75.5799 28.3311 75.5533 28.3847 75.5454 28.4424C75.5376 28.5002 75.549 28.5589 75.5778 28.6096L78.0529 33.432L63.682 37.2363C63.6242 37.2501 63.5727 37.2828 63.5359 37.3293C63.499 37.3758 63.479 37.4334 63.479 37.4926C63.479 37.5519 63.499 37.6094 63.5359 37.6559C63.5727 37.7024 63.6242 37.7352 63.682 37.7489L78.0529 41.5533L75.5778 46.3771C75.5483 46.4275 75.5363 46.4862 75.5438 46.5441C75.5514 46.602 75.578 46.6557 75.6195 46.6969C75.661 46.7381 75.715 46.7644 75.7731 46.7717C75.8312 46.7789 75.8901 46.7668 75.9405 46.7371L80.7795 44.2719L84.5969 58.5922C84.6272 58.7103 84.7341 58.7938 84.8555 58.7938C84.9149 58.7939 84.9725 58.774 85.0191 58.7374C85.0658 58.7009 85.0987 58.6497 85.1127 58.5922L88.9301 44.2719L93.7705 46.7371C93.8209 46.7668 93.8798 46.7789 93.9379 46.7717C93.996 46.7644 94.0501 46.7381 94.0915 46.6969C94.133 46.6557 94.1596 46.602 94.1672 46.5441C94.1747 46.4862 94.1627 46.4275 94.1332 46.3771L91.6581 41.5533L106.028 37.7489C106.085 37.7352 106.137 37.7024 106.174 37.6559C106.211 37.6094 106.231 37.5519 106.231 37.4926C106.231 37.4334 106.211 37.3758 106.174 37.3293C106.137 37.2828 106.085 37.2501 106.028 37.2363Z" fill="white"/>
<path fill-rule="evenodd" clip-rule="evenodd" d="M84.8282 58.6989C84.6976 58.6992 84.5706 58.6558 84.4677 58.5756C84.3647 58.4955 84.2917 58.3832 84.2603 58.2568L80.7521 44.272L76.2484 46.8366C76.1373 46.901 76.008 46.927 75.8805 46.9105C75.7531 46.894 75.6347 46.8359 75.5438 46.7453C75.453 46.6548 75.3947 46.5368 75.3781 46.4098C75.3616 46.2828 75.3876 46.1539 75.4523 46.0432L78.0256 41.5534L63.9914 38.0572C63.8641 38.0267 63.7507 37.9544 63.6697 37.8519C63.5887 37.7494 63.5448 37.6227 63.5449 37.4922C63.5451 37.3617 63.5894 37.235 63.6707 37.1327C63.7519 37.0304 63.8654 36.9584 63.9928 36.9283L78.0256 33.4321L75.4523 28.9437C75.3883 28.8329 75.3628 28.7042 75.3796 28.5775C75.3963 28.4508 75.4545 28.3332 75.5451 28.2427C75.6357 28.1522 75.7537 28.094 75.8808 28.0771C76.0079 28.0601 76.1371 28.0854 76.2484 28.1489L80.7521 30.7149L84.2618 16.7286C84.2923 16.6017 84.3649 16.4888 84.4678 16.4081C84.5706 16.3273 84.6978 16.2835 84.8288 16.2837C84.9597 16.2839 85.0868 16.328 85.1894 16.409C85.2921 16.49 85.3644 16.6031 85.3946 16.7301L88.9028 30.7149L93.408 28.1489C93.5191 28.0858 93.648 28.0608 93.7748 28.0778C93.9015 28.0948 94.0192 28.1529 94.1096 28.243C94.2001 28.3332 94.2583 28.4504 94.2754 28.5768C94.2925 28.7031 94.2674 28.8315 94.2041 28.9423L91.6307 33.4321L105.664 36.9283C105.791 36.9587 105.904 37.031 105.985 37.1335C106.066 37.2361 106.11 37.3628 106.11 37.4933C106.11 37.6238 106.066 37.7504 105.984 37.8527C105.903 37.955 105.79 38.0271 105.662 38.0572L91.6307 41.5534L94.2041 46.0432C94.2678 46.1542 94.293 46.2831 94.2757 46.4099C94.2585 46.5367 94.1998 46.6542 94.1087 46.7444C94.017 46.8322 93.8996 46.8885 93.7735 46.905C93.6475 46.9216 93.5194 46.8976 93.408 46.8366L88.9028 44.272L85.3946 58.2568C85.3633 58.383 85.2905 58.495 85.1878 58.5752C85.0852 58.6553 84.9586 58.6988 84.8282 58.6989Z" stroke="#005AAA" stroke-width="1.25" stroke-miterlimit="2" stroke-linecap="round" stroke-linejoin="round"/>
<path fill-rule="evenodd" clip-rule="evenodd" d="M84.8282 58.6989C84.6976 58.6992 84.5706 58.6558 84.4677 58.5756C84.3647 58.4955 84.2917 58.3832 84.2603 58.2568L80.7521 44.272L76.2484 46.8366C76.1373 46.901 76.008 46.927 75.8805 46.9105C75.7531 46.894 75.6347 46.8359 75.5438 46.7453C75.453 46.6548 75.3947 46.5368 75.3781 46.4098C75.3616 46.2828 75.3876 46.1539 75.4523 46.0432L78.0256 41.5534L63.9914 38.0572C63.8641 38.0267 63.7507 37.9544 63.6697 37.8519C63.5887 37.7494 63.5448 37.6227 63.5449 37.4922C63.5451 37.3617 63.5894 37.235 63.6707 37.1327C63.7519 37.0304 63.8654 36.9584 63.9928 36.9283L78.0256 33.4321L75.4523 28.9437C75.3883 28.8329 75.3628 28.7042 75.3796 28.5775C75.3963 28.4508 75.4545 28.3332 75.5451 28.2427C75.6357 28.1522 75.7537 28.094 75.8808 28.0771C76.0079 28.0601 76.1371 28.0854 76.2484 28.1489L80.7521 30.7149L84.2618 16.7286C84.2923 16.6017 84.3649 16.4888 84.4678 16.4081C84.5706 16.3273 84.6978 16.2835 84.8288 16.2837C84.9597 16.2839 85.0868 16.328 85.1894 16.409C85.2921 16.49 85.3644 16.6031 85.3946 16.7301L88.9028 30.7149L93.408 28.1489C93.5191 28.0858 93.648 28.0608 93.7748 28.0778C93.9015 28.0948 94.0192 28.1529 94.1096 28.243C94.2001 28.3332 94.2583 28.4504 94.2754 28.5768C94.2925 28.7031 94.2674 28.8315 94.2041 28.9423L91.6307 33.4321L105.664 36.9283C105.791 36.9587 105.904 37.031 105.985 37.1335C106.066 37.2361 106.11 37.3628 106.11 37.4933C106.11 37.6238 106.066 37.7504 105.984 37.8527C105.903 37.955 105.79 38.0271 105.662 38.0572L91.6307 41.5534L94.2041 46.0432C94.2678 46.1542 94.293 46.2831 94.2757 46.4099C94.2585 46.5367 94.1998 46.6542 94.1087 46.7444C94.017 46.8322 93.8996 46.8885 93.7735 46.905C93.6475 46.9216 93.5194 46.8976 93.408 46.8366L88.9028 44.272L85.3946 58.2568C85.3633 58.383 85.2905 58.495 85.1878 58.5752C85.0852 58.6553 84.9586 58.6988 84.8282 58.6989Z" stroke="#005AAA" stroke-width="1.66667" stroke-miterlimit="2" stroke-linecap="round" stroke-linejoin="round"/>
<path d="M64.874 37.4928L78.9155 33.9995L84.828 37.4928H64.874ZM104.782 37.4928L90.7405 40.9862L84.828 37.4928H104.782ZM84.828 57.3786L81.3227 43.3851L84.828 37.4928V57.3786Z" fill="#FAA619"/>
<path d="M84.8281 17.6069L88.332 31.6004L84.8281 37.4927V17.6069Z" fill="#FAA619"/>
<path d="M76.5127 29.1914L81.8718 32.2801L84.8281 37.4927L76.5127 29.1914ZM93.2344 45.8545L87.8753 42.7673L84.8281 37.4927L93.2344 45.8545ZM76.5141 45.856L79.6134 40.5152L84.8281 37.4927L76.5141 45.856ZM93.2344 29.1914L90.1352 34.5307L84.8281 37.4927L93.2344 29.1914Z" fill="#FAA619"/>
</g>
<defs>
<clipPath id="clip0_3007_3143">
<rect width="86" height="94" fill="white" transform="translate(42 16)"/>
</clipPath>
</defs>
</svg>
