<svg width="167" height="122" viewBox="0 0 167 122" fill="none" xmlns="http://www.w3.org/2000/svg">
<rect width="167" height="122" rx="12" fill="#FAFAFA"/>
<g clip-path="url(#clip0_3003_3174)">
<mask id="mask0_3003_3174" style="mask-type:luminance" maskUnits="userSpaceOnUse" x="9" y="46" width="150" height="30">
<path d="M159 46.2944H9V75.7057H159V46.2944Z" fill="white"/>
</mask>
<g mask="url(#mask0_3003_3174)">
<mask id="mask1_3003_3174" style="mask-type:luminance" maskUnits="userSpaceOnUse" x="9" y="46" width="30" height="30">
<path d="M27.0219 70.3464C28.9532 70.3215 30.7852 70.0421 32.4061 69.4956C32.8159 69.359 33.2009 69.2037 33.5735 69.0422C33.1202 70.1476 32.462 71.0605 31.5987 71.7498C29.891 73.0043 27.8789 73.8675 25.6991 74.1967C26.2456 73.2527 26.6865 71.9175 27.0219 70.3526M17.9364 73.0229C17.893 72.9919 17.8495 72.9608 17.806 72.936C17.0484 72.5634 16.7378 70.8742 17.1353 68.2846C18.5947 68.9428 20.1845 69.4583 21.855 69.8185C23.1219 70.0917 24.3826 70.2532 25.6184 70.3215C25.016 72.9484 24.2397 74.3333 23.7243 74.3333C23.6933 74.3333 23.6622 74.3333 23.6311 74.3457C21.5942 74.3333 19.669 73.8613 17.9426 73.0353M10.8817 64.6516C10.7637 64.2045 10.6892 63.7512 10.6643 63.2916C11.1177 63.9437 11.6766 64.5771 12.3411 65.192C13.3409 66.1172 14.527 66.9432 15.856 67.6511C15.5828 69.1664 15.5082 70.5326 15.6821 71.6381C13.403 69.9116 11.6952 67.4711 10.8879 64.6516M27.8851 60.9752C27.8851 60.4412 27.8789 59.9071 27.8602 59.373C29.5618 59.2612 31.1392 58.8203 32.4309 58.0751C33.6232 60.4412 34.2691 62.9315 34.2629 65.2851C34.2629 65.9682 34.2008 66.614 34.0952 67.2289C33.4804 67.6077 32.7725 67.9306 31.9775 68.1976C30.5679 68.6696 28.9718 68.9304 27.2889 68.9739C27.6926 66.5395 27.8913 63.7201 27.8913 60.9752M22.1345 68.4771C20.4391 68.1169 18.8369 67.5766 17.3899 66.8935C17.8681 64.751 18.7499 62.1551 20.1597 59.2736C20.3645 58.8576 20.5695 58.4477 20.7869 58.044C21.7681 58.485 22.8362 58.8327 23.9603 59.075C24.811 59.255 25.6619 59.3544 26.5002 59.3855C26.5126 59.9009 26.525 60.4288 26.525 60.9752C26.525 64.1983 26.2705 66.8687 25.8978 68.9615C24.6745 68.9118 23.4138 68.7504 22.1469 68.4771M13.2664 64.1859C12.1051 63.1115 11.304 61.9751 10.9003 60.8448C11.2232 59.5779 11.8443 58.311 12.7633 57.0939C13.6328 55.9388 14.7195 54.9017 15.9616 54.0075C16.3218 54.6533 16.8248 55.2867 17.4644 55.8891C18.073 56.4605 18.781 56.9759 19.5697 57.4292C19.3523 57.8391 19.1412 58.2552 18.9363 58.6837C17.7253 61.1677 16.7316 63.8381 16.1479 66.2601C15.0673 65.6515 14.0985 64.9559 13.2726 64.1921M26.9536 51.4737C28.5061 52.6288 29.9344 54.1254 31.1268 55.8705C31.3503 56.1997 31.5677 56.5412 31.7664 56.8766C30.6734 57.51 29.2948 57.8826 27.7981 57.9943C27.6739 55.6345 27.3945 53.3616 26.9474 51.4737M24.2397 57.7397C23.2523 57.5286 22.3083 57.2243 21.4452 56.8455C22.7182 54.6161 24.1155 52.6723 25.4941 51.2315C25.9227 52.9269 26.2829 55.1998 26.4381 58.0192C25.7115 57.9881 24.9725 57.9012 24.2459 57.7397M18.3959 54.8893C17.8308 54.3614 17.4023 53.8087 17.1104 53.256C18.3897 52.486 19.8119 51.8587 21.3209 51.3992C22.2214 51.1321 23.1281 50.9272 24.0348 50.7906C22.7245 52.2562 21.4203 54.1254 20.2218 56.2307C19.5387 55.8332 18.9238 55.3861 18.3959 54.8955M15.4523 50.5298C15.4337 50.5981 15.4151 50.6664 15.3965 50.7409C15.2598 51.3868 15.2722 52.045 15.4399 52.7033C13.9681 53.7156 12.6888 54.9204 11.6704 56.2679C11.3599 56.6778 11.0804 57.1001 10.832 57.5224C11.5896 54.7216 13.2415 52.2872 15.4586 50.5298M16.7378 51.0266C16.8869 50.3186 17.3154 49.6852 17.9737 49.1573C19.5697 48.6791 21.4265 48.7971 23.3827 49.5113C22.563 49.6541 21.737 49.8466 20.9297 50.0888C19.4206 50.5422 17.9985 51.1632 16.6944 51.9146C16.6633 51.6165 16.6758 51.3184 16.7378 51.0266ZM27.8354 49.2256C28.3074 48.9213 28.7358 48.7102 29.096 48.6294C29.7854 48.9027 30.4623 49.2567 31.1082 49.6976C30.071 49.4368 28.9718 49.2815 27.8354 49.2256ZM25.5314 47.76C26.0841 47.8221 26.6803 47.9153 27.2889 48.0581C26.9101 48.2631 26.5126 48.5177 26.109 48.8282C25.9289 48.4245 25.7364 48.0705 25.5314 47.76ZM24.0472 48.3003C23.4262 48.0643 22.8176 47.878 22.2152 47.7476C22.6996 47.6917 23.1902 47.6607 23.687 47.6607C23.9168 47.6607 24.2024 47.9463 24.5067 48.4866C24.3577 48.4245 24.2024 48.3562 24.0534 48.3003M9 61.0001C9 62.3974 9.19872 63.7512 9.56512 65.0304C9.58996 65.1174 9.6086 65.2044 9.63344 65.2913C9.63344 65.3099 9.64586 65.3223 9.65207 65.341C11.5089 71.34 17.1042 75.7119 23.7057 75.7119C26.761 75.7119 29.5991 74.7742 31.9527 73.1782C31.9775 73.1657 32.0024 73.1533 32.021 73.1409C32.1639 73.0478 32.2943 72.9484 32.4247 72.8428C35.1323 70.8431 37.132 67.943 37.9704 64.5834C38.02 64.428 38.0573 64.2728 38.0945 64.1113C38.1008 64.0741 38.107 64.0368 38.107 63.9996C38.3057 63.037 38.4113 62.031 38.4113 61.0125C38.4113 59.0252 38.02 57.1001 37.2562 55.2867C37.1071 54.939 36.7097 54.7775 36.3619 54.9204C36.0142 55.0694 35.8527 55.4668 35.9955 55.8146C36.6911 57.4603 37.045 59.2053 37.045 61.0063C37.045 62.1117 36.9085 63.1798 36.6538 64.2107C36.4551 64.8566 36.0949 65.459 35.6043 65.9992C35.6167 65.7695 35.623 65.5335 35.623 65.2913C35.623 62.6644 34.9025 59.8946 33.5549 57.2926C34.5423 56.448 35.1696 55.3985 35.3869 54.2248C35.4552 53.8522 35.213 53.4982 34.8404 53.4299C34.4678 53.3616 34.1139 53.6038 34.0456 53.9764C33.9027 54.7526 33.499 55.4606 32.8718 56.063C32.6731 55.74 32.4744 55.4171 32.257 55.1004C31.0585 53.343 29.6301 51.8153 28.0714 50.6043C30.1332 50.7409 32.0397 51.2377 33.5735 52.0947C33.8158 52.2313 34.1325 52.2251 34.3561 52.0388C34.648 51.7966 34.6852 51.3681 34.443 51.0762C32.2384 47.996 28.4253 46.2944 23.7057 46.2944C15.5952 46.2944 9 52.8896 9 61.0001Z" fill="white"/>
</mask>
<g mask="url(#mask1_3003_3174)">
<path d="M38.4113 46.2944H9V75.7057H38.4113V46.2944Z" fill="url(#paint0_radial_3003_3174)"/>
</g>
<path d="M155.628 56.7028C157.801 56.7028 159 57.7523 159 59.665C159 61.466 157.82 62.5466 155.845 62.5466H154.46V65.3039H152.628V56.7028H155.628ZM154.46 61.0437H155.553C156.615 61.0437 157.156 60.578 157.156 59.6588C157.156 58.7397 156.566 58.2181 155.497 58.2181H154.46V61.0437ZM149.256 61.8572C149.256 63.1179 148.772 63.7327 147.778 63.7327C146.784 63.7327 146.263 63.0993 146.263 61.8572V56.7028H144.431V61.733C144.431 62.9626 144.735 63.9003 145.344 64.509C145.909 65.0803 146.729 65.366 147.778 65.366C149.287 65.366 151.088 64.7326 151.088 61.7268V56.6904H149.256V61.8448V61.8572ZM139.438 56.6283C141.294 56.6283 143.282 57.7771 143.282 61.0126C143.282 64.2481 141.294 65.3722 139.438 65.3722C137.581 65.3722 135.581 64.2295 135.581 61.0126C135.581 57.7958 137.575 56.6283 139.438 56.6283ZM139.438 63.77C140.165 63.77 141.388 63.4098 141.388 61.0126C141.388 58.6156 140.165 58.2554 139.438 58.2554C138.171 58.2554 137.476 59.2366 137.476 61.0126C137.476 62.7888 138.171 63.77 139.438 63.77ZM133.694 62.6956C133.998 63.3104 134.259 63.8445 134.861 63.8445H135.296V65.2604L135.234 65.279C135.234 65.279 134.904 65.366 134.345 65.366C132.899 65.366 132.457 64.3724 132.067 63.4905C131.744 62.7702 131.47 62.1491 130.713 62.1491H129.905V65.3039H128.073V56.7028H131.122C133.352 56.7028 134.389 57.5723 134.389 59.4353C134.389 60.5904 133.694 61.2983 133.004 61.6088C133.308 61.9069 133.507 62.3043 133.7 62.6956M129.899 60.7208H130.924C131.942 60.7208 132.575 60.2488 132.575 59.4788C132.575 58.6776 132.023 58.2181 131.06 58.2181H129.905V60.7208H129.899ZM123.192 62.1553H125.08V62.2485C125.08 62.8074 124.881 63.7389 123.564 63.7389C122.323 63.7389 121.578 62.7205 121.578 61.0064C121.578 59.2924 122.285 58.2492 123.528 58.2492C124.999 58.2492 125.055 59.7395 125.055 59.8017V59.9011L126.769 59.634V59.5595C126.769 58.9385 126.217 56.6221 123.509 56.6221C121.081 56.6221 119.69 58.2181 119.69 61.0064C119.69 63.7948 121.124 65.366 123.534 65.366C125.943 65.366 126.813 63.6768 126.813 62.236V60.7394H123.198V62.1491L123.192 62.1553ZM117.708 56.7028H115.529L112.685 60.5717V56.7028H110.827V65.3039H112.685V61.348L115.604 65.3039H117.808L114.479 60.9692L117.708 56.709V56.7028ZM107.35 62.0125L104.344 56.7028H102.487V65.3039H104.319V60.1743L107.313 65.3039H109.182V56.7028H107.35V62.0125ZM98.8608 56.7587L101.997 65.3039H100.09L99.3578 63.1986H96.4949L95.7865 65.3039H93.8679L97.0226 56.7028H98.8424L98.8608 56.7587ZM97.9294 59.044L96.9974 61.7579H98.8792L97.9294 59.044ZM92.166 60.7643C92.8247 60.9568 93.694 61.5592 93.694 62.8509C93.694 64.4034 92.5949 65.2977 90.6694 65.2977H87.0429V56.6966H90.3217C92.1851 56.6966 93.1288 57.4728 93.1288 59.0068C93.1288 60.1929 92.5888 60.6152 92.1722 60.758M90.1233 60.2178C90.8869 60.2178 91.2408 59.8948 91.2408 59.2055C91.2408 58.5162 90.7874 58.2181 89.8935 58.2181H88.8688V60.2116H90.1172L90.1233 60.2178ZM88.8749 63.7824H90.3094C91.2469 63.7824 91.6819 63.4284 91.6819 62.677C91.6819 61.7517 90.9176 61.5592 90.2719 61.5592H88.8749V63.7824ZM79.4972 56.7028C82.174 56.7028 83.7701 58.3609 83.7701 61.1493C83.7701 63.9376 82.3417 65.3039 79.8579 65.3039H76.9451V56.7028H79.4972ZM78.7772 63.7824H79.8456C81.1615 63.7824 81.9504 62.7888 81.9504 61.1245C81.9504 59.1993 81.1185 58.2243 79.4726 58.2243H78.7772V63.7824ZM72.3682 56.7028H70.5362V65.3039H76.0881V63.7824H72.3682V56.7028ZM68.0708 62.6956C68.3751 63.3104 68.6359 63.8445 69.2383 63.8445H69.6731V65.2604L69.6109 65.279C69.6109 65.279 69.2818 65.366 68.7229 65.366C67.2759 65.366 66.835 64.3724 66.4438 63.4905C66.1209 62.7702 65.8476 62.1491 65.0899 62.1491H64.2826V65.3039H62.4506V56.7028H65.4998C67.7231 56.7028 68.7664 57.5723 68.7664 59.4353C68.7664 60.5904 68.0708 61.2983 67.3815 61.6088C67.6858 61.9069 67.8845 62.3043 68.077 62.6956M64.2826 60.7208H65.3073C66.3257 60.7208 66.953 60.2488 66.953 59.4788C66.953 58.6776 66.4003 58.2181 65.4377 58.2181H64.2826V60.7208ZM57.5632 56.6283C59.4201 56.6283 61.4073 57.7771 61.4073 61.0126C61.4073 64.2481 59.4201 65.3722 57.5632 65.3722C55.7064 65.3722 53.7129 64.2295 53.7129 61.0126C53.7129 57.7958 55.7064 56.6283 57.5632 56.6283ZM57.5632 63.77C58.2898 63.77 59.5132 63.4098 59.5132 61.0126C59.5132 58.6156 58.2898 58.2554 57.5632 58.2554C56.2963 58.2554 55.6008 59.2366 55.6008 61.0126C55.6008 62.7888 56.2963 63.77 57.5632 63.77ZM51.3779 56.7028H53.4459L50.9743 65.3039H48.9063L47.4034 59.9135L45.882 65.3039H43.8139L41.3423 56.7028H43.4724L44.9194 62.975L46.652 56.7028H48.1921L49.8688 62.975L51.3717 56.7028H51.3779Z" fill="#002F54"/>
</g>
</g>
<defs>
<radialGradient id="paint0_radial_3003_3174" cx="0" cy="0" r="1" gradientUnits="userSpaceOnUse" gradientTransform="translate(37.1748 52.6569) scale(24.5183 24.5183)">
<stop stop-color="white"/>
<stop offset="0.06" stop-color="#EAF8FD"/>
<stop offset="0.18" stop-color="#B5E7FA"/>
<stop offset="0.36" stop-color="#60CCF5"/>
<stop offset="0.54" stop-color="#00AEEF"/>
<stop offset="1" stop-color="#002F54"/>
</radialGradient>
<clipPath id="clip0_3003_3174">
<rect width="150" height="30" fill="white" transform="translate(9 46)"/>
</clipPath>
</defs>
</svg>
