<svg width="167" height="122" viewBox="0 0 167 122" fill="none" xmlns="http://www.w3.org/2000/svg">
<rect width="167" height="122" rx="12" fill="#FAFAFA"/>
<g clip-path="url(#clip0_2005_3868)">
<path d="M64.8263 66.5642L64.4721 67.2689L63.9259 67.3013L63.5632 68.23L63.0862 69.2039L63.0834 70.5921L61.0172 70.6118L60.6856 70.8161L59.7612 70.7767L59.1826 70.1946L58.4755 70.2764L57.8686 70.5272L57.1094 70.437L56.8751 70.8161L56.6761 71.7505L56.6267 72.9682L57.0981 73.374L57.0501 74.5945L57.9914 75.4655L58.1043 74.0872L59.0612 74.5706L59.1445 73.911L59.7231 74.3267L59.7555 74.9342L60.3511 75.0187L61.188 75.7769L61.5902 76.6253L62.6628 77.003L62.8039 77.5118L64.7572 78.9296L67.409 79.2692L68.1344 80.1345L69.4497 79.8569L70.2753 79.6751L71.6386 79.568L71.887 78.8027L71.0402 76.9382L69.6967 75.1554L69.643 73.8222L69.6134 73.1556L68.9388 72.403L68.9741 71.5166L69.3241 70.9232L69.1392 70.1397L68.5338 70.2806L68.5973 68.7853L67.6856 67.1336L67.759 66.6361L67.3991 66.0682L67.6926 65.5848L68.3475 65.4988L68.5479 64.6208L69.3185 64.3798L69.3523 63.5497L69.0941 63.1523L69.4003 62.3842L70.065 62.0276L70.6055 62.1066L70.6662 63.327L70.9301 63.5046L70.6479 63.7738L70.8483 64.2276L70.8201 64.8914L70.4785 65.3184L70.9062 66.8334L71.3154 66.0766L71.6372 66.2006L72.1086 66.6657L73.5707 66.7855L73.5509 67.2858L74.1027 67.1463L74.3497 67.7072L74.8281 68.006L75.2064 68.0792L75.1259 68.6838L75.531 68.0905L75.5959 69.094L76.1265 69.5069L76.1604 68.6782L76.5457 68.5274L76.5795 67.7537L77.305 67.2308L77.3304 66.622L78.1348 66.8221L78.3973 65.7821L79.0296 64.921L79.333 64.1571L79.9215 64.4052L79.8975 65.0154L79.5602 65.2789L79.9257 65.627L79.3711 65.8793L78.9265 66.0808L78.9675 66.4726L78.7953 66.7432L78.4001 67.0575L78.211 67.7128L77.758 68.1384C77.758 68.1384 78.3973 68.4992 78.5596 68.4513C78.7275 68.402 79.9243 68.3456 79.9243 68.3456L80.0513 67.8538L80.4945 67.648L81.2072 67.5719L81.4203 66.3585L81.941 65.5523L81.2664 64.7998L81.0435 64.8449L80.8713 65.169L80.9108 64.1726L80.4352 63.7667L80.462 63.0987L79.9328 62.7436L79.8594 63.2425L79.6336 63.4525L79.3711 63.2185L79.7281 62.5139L79.6858 62.1784L79.3019 62.2715L78.7501 62.4702L78.712 62.022L78.983 62.0897L79.4798 61.8924L79.3457 61.1651L80.6031 61.0552L81.2213 60.4704L81.2015 59.6403L81.5882 59.5444L81.6023 59.2147L81.2777 59.1428L81.241 58.6988L81.6306 58.4381L82.4025 58.1379L82.4195 57.8082L80.8812 58.1253L80.4521 58.0548L80.5326 57.3882L80.2574 57.4882L79.8001 58.0787L79.6096 58.6819L78.7205 59.1963L77.9626 59.1047L77.717 58.4846L77.2795 58.4663L77.0439 59.0131L76.2789 59.03L75.0554 58.3127L73.8177 58.0337L73.0414 58.3888L71.7261 58.6622L70.7227 59.2823L70.4955 59.4965L70.8709 59.6205L71.5864 59.3753L72.3019 59.1851L72.6251 59.3105L72.5037 59.5811L71.8503 59.6121L70.3699 59.932L69.5527 60.0067L69.142 60.6564L69.0178 61.0919L68.6199 61.5189L68.7483 62.3588L68.5084 62.9564L68.2162 63.3834L68.1471 63.8259L67.862 64.0909L67.8394 64.6462L67.3582 64.4601L67.368 65.5678L67.0674 66.2796L67.2114 66.7827L66.8713 67.0998L66.1134 67.0124L65.4233 66.5938L64.8263 66.5642Z" fill="#005AAA"/>
<path d="M69.8773 65.2899L69.4539 65.0503L69.3707 65.7705L69.6219 66.33L69.1195 66.6456L69.0828 67.5265L69.4328 68.2664L69.7672 69.4445L69.866 68.3425L70.2231 67.5786L69.6713 67.7773L69.6981 67.1121L69.9987 66.3511L69.7009 65.6718L69.8773 65.2899Z" fill="#005AAA"/>
<path d="M70.1523 66.633L70.0282 67.0713L70.4487 67.3701L70.3034 66.9755L70.1523 66.633ZM59.1245 77.069L59.205 77.7934L59.5747 78.088L59.5578 78.422L59.9896 78.4967L59.9614 77.94L59.6594 77.2635L59.1245 77.069ZM65.0788 85.7687L65.6221 85.8476L65.6616 86.1253L66.0779 86.5298L65.6221 87.0667L65.0604 86.2084L65.0788 85.7687ZM96.3939 77.8441L96.5689 77.5721L96.8907 77.6412L97.5159 78.3896L97.4397 78.8856L97.7092 79.0082L97.7036 80.5063L97.3127 80.7642L96.6973 81.1264L96.2598 81.1631L96.3022 80.1117L96.0439 79.8214L96.0707 79.1027L96.576 78.7377L96.5477 78.071L96.233 77.8329L96.3939 77.8441ZM89.7806 74.7197L88.2042 74.6478L89.3784 75.1989L90.8673 76.0459L92.8925 75.6865L93.0957 74.7577L93.5953 74.5041L93.8804 75.4568L93.8874 76.6786L94.0102 77.6764L93.4866 78.4882L93.4598 79.1506L94.308 79.6918L94.7131 80.4302L94.6778 81.3153L94.0568 81.9002L93.9425 83.3926L93.6518 83.8211L93.4443 84.8668L92.1981 86.0886L91.3133 86.4903L90.8038 87.023L89.9909 86.9864L89.4743 87.6276L88.4596 87.1935L87.5634 86.4903L87.3729 85.7617L86.7251 85.7349L85.9066 84.42L86.2086 83.6562L85.6554 82.5203L84.5376 81.972L83.5441 80.932L81.5415 80.7318L81.1788 80.3245L79.4344 80.3598L78.5876 79.8214L78.6624 79.3253L77.7282 78.2303L78.0739 77.6905L78.3971 76.5405L79.6687 75.9895L80.1302 75.2876L80.6792 75.1989L81.0673 74.9945L81.9324 75.1467L82.3247 74.8324L83.8024 74.6774L84.2229 74.9691L86.0393 74.4984L86.3173 74.287L86.9608 74.4829L87.5804 73.9544L88.1915 73.705L88.7489 73.285L88.5401 73.0553L87.7808 73.0764L87.0497 73.6528L86.5064 73.6331L86.3173 72.9552L87.3786 72.2252L88.3058 72.1562L88.4907 71.6093L87.5239 71.3486L87.0399 71.2147L86.7011 71.5332L86.9072 71.763L86.6842 71.9194L86.0957 71.6699L86.0788 72.1702L85.9997 72.7213L86.0985 72.9989L85.9249 73.216L86.1296 73.5049L85.7401 73.76L85.6935 73.5387L85.7598 73.2639L85.2828 72.9679L84.7522 72.6085C84.7522 72.6085 83.9985 72.462 83.9915 72.6325C83.9858 72.7988 84.134 73.137 84.134 73.137L84.7705 73.55L85.1981 73.6824L85.2433 73.9629L85.033 73.7867L84.8594 74.0009L84.6816 74.3829L84.5278 74.1517L84.4925 73.705L84.0098 73.519L83.3578 73.4922L82.5449 73.4541L82.5096 74.3138L82.1977 74.6027L81.43 74.7338L81.1576 74.8028L80.8711 74.5435L80.6058 74.287L80.7624 73.7881L80.9064 73.6035L81.2677 73.4541L81.8929 73.4259L82.154 73.0187L81.5725 72.6325L82.0241 72.2111L82.71 72.0476L82.8497 71.3317L83.1814 71.2105L83.1715 71.4275L83.0036 71.5051L83.053 71.6446L83.9576 71.4642L84.4276 71.2894L84.5052 70.6595L85.4211 70.2564L85.352 69.9167L84.8397 69.811L84.6223 69.1628L84.2935 69.1811L84.0098 69.4982L84.0634 70.1902L83.5991 70.9766L83.2167 70.9611L83.2068 70.5185L82.6423 71.0174L82.6691 70.3832L82.7749 69.8054L83.4749 69.2516L83.7769 67.9338L84.2229 67.621L85.0118 67.628L85.3477 67.3955L85.2066 66.8332L85.2546 66.2835L85.455 66.0679L85.527 65.6522L85.0937 65.5521L85.1092 65.2209L85.3647 64.9546L85.1473 64.3063L84.1989 64.1541L84.2681 63.8792L84.5743 63.6721L85.1247 63.5016L84.8284 62.8208V62.0753L84.3415 62.0246L83.9745 61.7019L84.1749 61.4341L84.3415 60.6914L83.4199 60.6237L83.1376 60.7773L82.1399 60.0121L81.8364 59.4709L82.1229 59.0693L82.837 58.9086L83.0431 58.5281L82.511 58.2025L82.631 57.8981L83.0318 58.1377L84.0846 58.2688L84.4882 57.7318L84.4276 57.2033L85.5467 57.0596C85.5467 57.0596 85.5905 57.3922 85.6737 57.3161C85.7598 57.2371 85.4649 57.7459 85.4649 57.7459L84.8989 58.3068L85.2391 58.6267L85.3393 58.824L85.7711 58.9537L85.8134 59.2623L86.4189 59.0918L86.7999 59.0002C86.7999 59.0002 86.6842 57.8544 86.8747 57.8685C87.0624 57.8756 87.8316 57.7149 87.8316 57.7149L88.6445 57.8079L88.9747 58.3477L90.0106 58.397L89.8822 57.4739L90.6231 57.2822L91.5983 57.4387L90.7586 57.9841L90.2294 58.934L90.626 59.2257L90.6655 59.5879L90.9717 58.7113L90.904 58.4097L91.2907 58.2857L91.477 59.0397L91.8806 58.421L91.6788 58.1123L92.0697 57.8756L92.5411 58.2293L93.1084 58.3942L93.8437 58.3435L94.4068 59.1735L94.3969 59.3934L95.0447 59.5879L95.1251 60.2855L95.4879 60.053L96.0241 59.5766L96.5054 59.7077L97.1249 60.511L96.9683 61.7794L97.7318 61.7019L97.7854 61.0423L98.0846 60.9718L98.2074 60.7012L98.4558 60.5434L98.6364 60.1375L98.7592 61.1142L98.4798 61.3495L98.3048 61.6187L98.1552 62.0302L97.602 62.1712L96.5971 62.2078L96.3191 62.9477L96.384 63.4466L95.8703 64.0075L95.7729 64.3641L95.128 64.8911L95.1915 65.2547L95.6191 65.4394L95.8167 66.0031L96.0594 66.0383L96.233 66.4372L96.3332 67.3574L96.6536 67.4547L96.7213 67.7901L97.1503 67.9465L97.4002 68.5399L97.1461 68.7808L96.5717 68.8076L95.4921 69.3164L95.1477 69.1022L94.6058 69.0261L94.5889 69.47L93.7435 69.4855L92.9715 70.4241L92.4423 71.4233L91.9003 71.3712L91.6336 71.9166L90.753 72.1266L90.7671 72.5169L91.1368 72.7523L91.683 72.7213L92.1558 71.8306L93.2256 71.5713L93.5092 72.6128L92.8727 73.55L92.8628 74.3857L92.5594 75.2327L92.4423 75.4497L92.2828 75.3046L91.6505 75.4948L90.9576 75.158L90.7346 75.3736L89.7806 74.7197Z" fill="#005AAA"/>
<path d="M94.335 73.0341L94.0767 73.3596L94.1077 73.9135L94.3434 74.1446L94.5678 73.9628L94.5114 73.3498L94.5989 73.2131L94.335 73.0341ZM97.2507 67.5067L97.4892 67.0445L98.0848 67.0713L98.1257 67.3249C98.1257 67.3249 98.566 67.2601 98.535 67.3404C98.5039 67.4278 98.47 67.5913 98.47 67.5913L98.2372 67.9662L97.9987 67.9028L97.2507 67.5067ZM98.5462 63.6804L98.5872 62.0781L99.1051 61.985L99.2815 61.0281L99.0402 60.2643L99.5553 59.6794L99.2604 58.8606L98.6225 58.528L97.6952 58.5985L97.5964 57.6782L96.8273 57.199L96.8725 56.7833L97.3029 56.8608L96.7214 56.4746L97.2944 56.3605L97.3791 55.5867L96.6085 55.1921L96.4251 54.269L95.5797 54.3973L95.5091 54.145L95.7053 54.045L95.8097 53.4404L95.1733 53.0218L95.1253 52.1875L94.1487 51.5336L94.0174 50.7246L93.7041 50.4611L93.3499 50.361L92.9716 49.6789L93.1805 49.3252L92.9745 48.932L92.1686 48.6994L92.6005 48.0836L91.8962 47.3831L91.9047 47.1929L93.0662 47.3282L93.1904 47.61L93.2102 48.5261L93.7366 48.8826L94.4888 49.1363L95.3384 50.2835L94.8797 50.2905L94.6031 50.306L95.1916 51.1925L95.3652 51.6139L95.8775 51.7224L95.9664 52.2002L95.9198 52.7512L96.3221 52.8527L96.7595 53.508L97.2295 53.9435L97.6501 54.9624L97.9013 54.8328L98.8906 57.2906L99.4198 56.9016C99.4198 56.9016 99.1108 56.5282 99.1432 56.3605C99.1785 56.197 98.7918 55.6516 98.8751 55.6558C98.9555 55.6586 99.2025 55.5586 99.2025 55.5586C99.2025 55.5586 99.5948 55.9898 99.5624 56.1011C99.5299 56.2083 99.7839 56.6945 99.7839 56.6945L99.8686 57.9741L100.083 58.6492L99.9815 59.7823L99.6993 60.1276L99.8446 60.5222L99.76 61.9907L99.3408 62.2754L98.7989 63.5015L98.5462 63.6804Z" fill="#005AAA"/>
<path d="M97.5413 52.9882L97.9731 53.0644L98.2258 53.5153L98.2032 54.072C98.2032 54.072 97.9858 54.1185 97.9322 54.0044C97.8856 53.8916 97.7586 53.6351 97.7586 53.6351C97.7586 53.6351 97.4651 53.5407 97.4961 53.4322C97.5272 53.3223 97.5413 52.9882 97.5413 52.9882ZM98.4445 54.1368L98.7112 54.289L98.8919 54.5484L98.7239 55.315L98.4798 55.2488L98.4445 54.833L98.2088 54.6273L98.4445 54.1368ZM86.4217 57.0133L86.9608 57.0936L87.1824 57.0217L87.531 57.0908L87.6764 57.5713L88.66 56.7807L89.5153 56.5144C89.5153 56.5144 90.252 57.0471 90.3338 57.0499C90.4171 57.0555 90.8518 57.0739 90.8518 57.0739L92.2094 57.0499L91.2102 56.2564L90.585 56.2311L90.3889 56.3607L90.4001 56.0549L89.4884 55.821L88.9663 55.9619L88.8407 56.3185L88.2564 56.6821L87.5239 56.5919L87.3715 56.3607L87.1556 56.3269L87.0921 56.6017L86.7915 56.5637L86.752 56.8371L86.4245 56.9047L86.4217 57.0133ZM92.6794 57.5713L92.9334 57.3332L93.4753 57.3557L93.6264 57.6136L93.3173 57.9321L92.9885 57.9448L92.9405 57.7743L92.6794 57.5713ZM93.8635 57.7616L94.0497 57.2162L94.3574 57.0626L94.3532 56.5355L94.5762 56.3227L94.5931 55.9619L94.3786 55.8689L94.9614 55.5363L94.7286 55.2488L95.286 54.9387L95.5288 55.0092L95.6276 55.8985L95.1096 55.9041L95.2296 56.3551L94.9812 56.3974L94.9318 56.978L95.2705 56.7159L95.6487 56.7328L96.1328 56.8625L95.979 57.3557L94.9473 57.2289L94.9657 57.5051L94.6312 57.6855L93.8635 57.7616ZM88.2733 44.8424C88.2464 45.0335 88.2295 45.2259 88.2225 45.4188L89.1201 46.7647L89.7707 46.8183L89.9528 46.993H90.5257L90.0628 46.3349L89.5802 46.1728L89.1257 45.3484L88.4822 45.0707L88.4653 44.8495L88.2733 44.8424ZM90.7755 47.5046L90.7586 47.9739L91.0719 48.2093L92.0005 48.1952L91.7155 47.7963L91.2596 47.6892L91.1876 47.4651L90.7755 47.5046ZM97.2209 44.3449L96.6268 44.297L96.3417 43.9799L95.7165 44.1617L94.9798 44.2688L94.8739 44.5915L94.0088 45.0665L94.0201 45.3709L94.5056 45.7895L95.1294 46.2616L95.2324 47.0607L95.6389 47.7794L95.183 48.2952L95.8082 48.6969L95.8745 49.3311L96.4997 49.1253L97.4467 49.5636L97.355 50.0498L97.1024 50.5995L98.0381 51.8791L98.4318 51.7551L98.6745 52.0229L98.9314 51.8721L99.0203 52.4569C99.0203 52.4569 99.0754 52.86 99.2334 52.8896C99.3915 52.9206 99.9179 52.9206 99.9179 52.9206L99.9108 53.1066L100.632 53.3476C100.632 53.3476 100.669 53.5844 100.69 53.7042C100.705 53.8183 100.979 53.8578 100.979 53.8578L101.467 54.2735L101.736 54.9881C101.736 54.9881 102.115 55.2375 102.228 55.2403C102.344 55.2474 102.755 55.2403 102.755 55.2403L103.006 54.6907L103.778 54.3088L103.734 53.6971L103.146 52.4344L101.24 49.7341L100.879 49.0633L99.6032 47.7202L99.877 47.196L99.6794 46.9522L99.3153 46.9366C99.3153 46.9366 99.1558 46.2996 99.1586 46.232C99.1643 46.1601 98.4911 45.2652 98.4911 45.2652L98.3951 44.7734L98.1876 44.8325L97.9745 45.0101L97.7713 44.9086L97.4058 44.8199L97.2209 44.3449ZM95.5316 42.2521L96.3586 42.565L96.6649 43.1047L97.1546 43.1555L96.9161 42.9483L96.9457 42.2042L96.7383 41.9463L95.6784 42.0083L95.5316 42.2521ZM109.307 67.9044C109.307 67.9044 108.857 68.2709 108.85 68.3596C108.85 68.44 108.834 68.7726 108.834 68.7726L109.19 68.7317L109.386 68.5457L109.307 67.9044ZM106.373 70.4933L106.281 70.7104L105.902 70.7231L105.892 71.6363L106.308 71.3756L106.458 71.105L106.653 71.0317L106.692 70.7019L106.471 70.7766L106.373 70.4933ZM107.131 74.5804L106.808 74.5353L106.686 74.8326L106.414 74.8228L106.321 75.1469L106.097 75.2794L106.164 75.6444L106.599 75.6063L107.084 75.0694L107.131 74.5804ZM107.944 73.9758L107.624 73.8221L107.491 74.3972L107.755 74.6339L107.944 73.9758ZM108.14 73.1809L108.383 73.2739L108.043 73.5924L107.964 73.4741L108.14 73.1809ZM81.7941 71.0571L81.6882 71.1149L81.6247 71.3883L81.763 71.4404L81.6149 71.6264L81.564 72.0084L81.4342 72.2423L81.6784 72.1859L81.9437 72.0887L82.0495 72.0323L81.9169 71.8956L81.9818 71.5771L81.9211 71.3798L81.9352 71.0388L81.7941 71.0571ZM81.5076 71.6208V71.7885L81.4413 72.0041L81.3086 71.9111L81.3157 71.718L81.5076 71.6208ZM89.0552 70.4454C89.0552 70.4454 88.8026 70.7104 88.9098 70.716C89.0171 70.7174 89.1723 70.919 89.1723 70.919L89.5802 70.9373L89.6169 71.384L90.0036 71.2346L90.2774 71.191L90.5695 70.6216L90.2872 70.3327L89.5759 70.3834L89.0876 70.3595L89.0552 70.4454ZM88.1336 69.6844L88.5725 69.7041L89.1046 69.9465L88.9818 70.2495L88.4159 70.1903L88.3185 69.9127L88.1336 69.6844ZM76.53 62.8971L76.8221 63.0212L76.9915 63.5299L76.9265 63.8033L77.1679 63.9231L77.1778 65.0323L76.6838 65.1224L76.5074 64.7828L76.736 64.4854L76.7092 63.8188L76.3888 64.3065L75.6126 64.6842L75.7707 64.1655L76.1884 63.9626L76.6118 63.5933L76.4354 63.172L75.789 63.0282L75.9118 62.6759L76.53 62.8971ZM82.9499 99.4562C89.9711 102.448 92.7316 104.879 92.6497 106.555C92.5989 107.625 89.7368 104.277 88.0263 103.102C86.0548 101.6 84.0042 100.279 81.9042 99.8705C79.8733 99.4844 64.8953 105.446 57.6723 100.264C65.2763 99.7733 75.0354 96.0823 82.9499 99.4562ZM51.615 48.9844C51.5995 49.2507 50.8402 50.3824 50.9023 50.2838C53.7672 45.8825 55.2011 46.7196 58.3201 44.0321C57.812 48.9632 52.1739 52.0511 49.4487 54.1453C48.1517 46.8352 49.7267 40.458 53.5302 34.9067C52.4971 40.3974 52.2134 40.754 51.615 48.9844Z" fill="#005AAA"/>
<path d="M52.7258 46.8649C53.0448 41.8068 56.4022 38.6021 60.3284 36.5078C59.1895 39.8352 57.4198 44.2125 52.7258 46.8649ZM48.2266 59.085C49.23 56.4271 51.855 53.2787 54.631 51.8003C54.2486 56.9781 49.6887 60.5564 47.2796 65.1197C44.4937 58.5819 43.225 49.7018 47.2147 43.3543C47.2585 48.3291 48.7502 54.9515 48.2266 59.085Z" fill="#005AAA"/>
<path d="M47.6749 68.3173C48.5612 65.4761 49.3063 62.9013 51.5884 60.6788C53.1083 64.8743 50.3648 69.6265 48.5696 73.505C44.1509 68.5512 41.2238 63.3043 42.5349 55.4263C44.2101 59.8431 45.4027 64.2584 47.6749 68.3173Z" fill="#005AAA"/>
<path d="M50.1234 78.8742C50.0627 73.6823 50.5764 71.6543 52.0936 68.5721C54.5026 73.6274 53.0744 79.3548 52.6919 84.7821C45.8825 80.1271 42.7762 75.1198 42 67.2432C44.8635 71.6543 48.3931 74.5181 50.1234 78.8742Z" fill="#005AAA"/>
<path d="M60.08 93.237C55.2619 92.3759 49.8143 90.7707 47.5336 85.8367L45.126 79.5497C47.7947 83.5888 50.6625 84.1229 55.1405 88.6581C53.5302 82.6925 54.7566 81.3973 54.2486 77.4526C58.433 81.5227 58.5601 87.8097 60.08 93.237Z" fill="#005AAA"/>
<path d="M69.2041 97.679C65.1481 97.4338 60.9664 99.7733 57.2928 97.679C55.1378 96.4431 53.1083 94.2276 51.5884 92.2532C54.3757 94.1022 60.0844 93.2989 63.5067 95.5186C60.241 92.807 61.785 88.9723 59.4577 85.0473C59.4408 84.9656 59.4479 84.9755 59.4479 84.9755C64.942 87.2092 64.9971 96.0414 69.2041 97.679ZM84.8031 99.4562C77.7791 102.448 75.0172 104.879 75.1005 106.555C75.1527 107.625 78.012 104.277 79.7211 103.102C81.6955 101.6 83.7461 100.279 85.8475 99.8705C87.8783 99.4844 102.855 105.446 110.079 100.264C102.477 99.7733 92.7162 96.0823 84.8031 99.4562ZM116.134 48.9844C116.154 49.2507 116.913 50.3824 116.851 50.2838C113.984 45.8825 112.551 46.7196 109.433 44.0321C109.938 48.9632 115.576 52.0511 118.306 54.1453C119.599 46.8352 118.026 40.458 114.224 34.9067C115.25 40.3974 115.535 40.754 116.134 48.9844Z" fill="#005AAA"/>
<path d="M115.029 46.8649C114.704 41.8068 111.351 38.6021 107.425 36.5078C108.563 39.8352 110.33 44.2125 115.029 46.8649ZM119.528 59.085C118.522 56.4271 115.897 53.2787 113.119 51.8003C113.503 56.9781 118.064 60.5564 120.471 65.1197C123.258 58.5819 124.525 49.7018 120.535 43.3543C120.496 48.3291 119.001 54.9515 119.528 59.085Z" fill="#005AAA"/>
<path d="M120.078 68.3173C119.189 65.4761 118.444 62.9013 116.161 60.6788C114.641 64.8743 117.388 69.6265 119.179 73.505C123.604 68.5512 126.529 63.3043 125.217 55.4263C123.542 59.8431 122.346 64.2584 120.078 68.3173Z" fill="#005AAA"/>
<path d="M117.628 78.8742C117.686 73.6823 117.178 71.6543 115.657 68.5721C113.25 73.6274 114.681 79.3548 115.06 84.7821C121.871 80.1271 124.975 75.1198 125.753 67.2432C122.882 71.6543 119.361 74.5181 117.628 78.8742Z" fill="#005AAA"/>
<path d="M107.673 93.237C112.486 92.3759 117.937 90.7707 120.218 85.8367L122.626 79.5497C119.958 83.5888 117.089 84.1229 112.613 88.6581C114.224 82.6925 112.994 81.3973 113.503 77.4526C109.32 81.5227 109.193 87.8097 107.673 93.237Z" fill="#005AAA"/>
<path d="M98.5461 97.6792C102.601 97.4339 106.784 99.7734 110.462 97.6792C112.615 96.4432 114.641 94.2277 116.16 92.2533C113.373 94.1023 107.667 93.299 104.242 95.5187C107.513 92.8071 105.965 88.9724 108.295 85.0475L108.307 84.9756C102.808 87.2094 102.753 96.0415 98.5461 97.6792Z" fill="#005AAA"/>
<path d="M107.526 65.0083C107.463 58.922 105.042 53.0965 100.772 48.7533L104.416 45.1144C109.654 50.4219 112.618 57.5567 112.68 65.0083H107.526ZM100.772 81.789C105.042 77.446 107.463 71.6204 107.526 65.534H112.68C112.618 72.9855 109.654 80.1203 104.416 85.4279L100.772 81.789ZM84.1214 88.9061C90.2165 88.842 96.0504 86.4248 100.401 82.1611L104.043 85.7999C98.8976 90.8453 91.8708 93.9838 84.1214 94.0529V88.9061ZM67.3171 82.1611C71.6668 86.4249 77.5002 88.842 83.595 88.9061V94.0529C76.133 93.9903 68.9882 91.0305 63.6732 85.7999L67.3171 82.1611ZM60.1915 65.534C60.2544 71.6202 62.6746 77.4457 66.9445 81.789L63.302 85.4279C58.0642 80.1201 55.0998 72.9856 55.0361 65.534H60.1915ZM66.9445 48.7533C62.6747 53.0967 60.2545 58.9221 60.1915 65.0083H55.0361C55.0995 57.5567 58.064 50.4221 63.302 45.1144L66.9445 48.7533ZM83.595 41.6362C77.4998 41.7005 71.6661 44.1176 67.3157 48.3812L63.6732 44.7424C68.9882 39.5118 76.133 36.552 83.595 36.4894V41.6362ZM100.401 48.3812C96.0504 44.1175 90.2165 41.7004 84.1214 41.6362V36.4894C91.8708 36.5585 98.8976 39.697 104.043 44.7424L100.401 48.3812ZM101.842 65.0083C101.777 60.4275 99.9566 56.0457 96.7553 52.7642L100.401 49.1239C104.572 53.3693 106.936 59.0613 107 65.0083H101.842ZM96.7553 77.7781C99.9569 74.4968 101.777 70.1149 101.842 65.534H107C106.936 71.481 104.572 77.173 100.401 81.4184L96.7553 77.7781ZM84.1214 83.2294C88.709 83.1654 93.0974 81.347 96.3827 78.1488L100.028 81.789C95.7765 85.954 90.0768 88.3158 84.1214 88.3804V83.2294ZM71.3337 78.1488C74.619 81.3469 79.0074 83.1652 83.595 83.2294V88.3804C77.6398 88.3159 71.9402 85.9547 67.6883 81.7904L71.3337 78.1488ZM65.8748 65.534C65.9388 70.1152 67.7598 74.4975 70.9625 77.7781L67.3157 81.4184C63.1448 77.173 60.7801 71.481 60.7165 65.534H65.8748ZM70.9625 52.7642C67.7599 56.0449 65.939 60.4271 65.8748 65.0083H60.7165C60.7801 59.0613 63.1448 53.3693 67.3157 49.1239L70.9625 52.7642ZM83.595 47.313C79.0074 47.3771 74.619 49.1954 71.3337 52.3936L67.6883 48.7533C71.9393 44.5874 77.6393 42.2255 83.595 42.1619V47.313ZM96.3827 52.3936C93.0974 49.1953 88.709 47.3769 84.1214 47.313V42.1619C90.0769 42.2259 95.7768 44.5878 100.028 48.7533L96.3827 52.3936ZM96.1611 65.0083C96.0971 61.9318 94.8758 58.992 92.7401 56.7737L96.3827 53.1363C99.4862 56.3185 101.251 60.5668 101.315 65.0083H96.1611ZM92.7401 73.7686C94.8758 71.5503 96.0971 68.6105 96.1611 65.534H101.315C101.251 69.9759 99.486 74.2246 96.3827 77.4075L92.7401 73.7686ZM84.1214 77.5569C87.2023 77.4933 90.1463 76.2736 92.3675 74.1407L96.0101 77.7781C92.8238 80.8777 88.5692 82.6404 84.1214 82.7037V77.5569ZM75.3488 74.1407C77.5702 76.2734 80.5141 77.493 83.595 77.5569V82.7037C79.1471 82.6403 74.8927 80.8776 71.7062 77.7781L75.3488 74.1407ZM71.5566 65.534C71.6199 68.6107 72.8413 71.5507 74.9776 73.7686L71.3337 77.4075C68.2303 74.2246 66.4653 69.9759 66.4012 65.534H71.5566ZM74.9776 56.7737C72.8413 58.9916 71.6199 61.9316 71.5566 65.0083H66.4012C66.4651 60.5668 68.2302 56.3185 71.3337 53.1363L74.9776 56.7737ZM83.595 52.9855C80.5138 53.0492 77.5697 54.2694 75.3488 56.403L71.7062 52.7642C74.8931 49.6653 79.1473 47.9028 83.595 47.8386V52.9855ZM92.3675 56.403C90.1468 54.2691 87.2026 53.0489 84.1214 52.9855V47.8386C88.5691 47.9025 92.8234 49.6651 96.0101 52.7642L92.3675 56.403ZM90.4807 65.0083C90.4181 63.4361 89.7955 61.9378 88.725 60.7832L92.3675 57.1458C94.4048 59.2651 95.5708 62.0712 95.6347 65.0083H90.4807ZM88.725 69.7591C89.7957 68.6047 90.4183 67.1063 90.4807 65.534H95.6347C95.5708 68.4711 94.4048 71.2772 92.3675 73.3966L88.725 69.7591ZM84.1214 71.883C85.6961 71.8218 87.1969 71.1999 88.3524 70.1298L91.9964 73.7686C89.8734 75.803 87.063 76.9674 84.1214 77.0312V71.883ZM79.3653 70.1298C80.5201 71.2001 82.0206 71.8221 83.595 71.883V77.0312C80.6537 76.9674 77.8437 75.803 75.7214 73.7686L79.3653 70.1298ZM77.2371 65.534C77.2988 67.1064 77.9215 68.605 78.9927 69.7591L75.3488 73.3966C73.3113 71.2774 72.1457 68.4711 72.0831 65.534H77.2371ZM78.9927 60.7832C77.9216 61.9374 77.299 63.4359 77.2371 65.0083H72.0831C72.1457 62.0712 73.3113 59.2649 75.3488 57.1458L78.9927 60.7832ZM83.595 58.6594C82.0209 58.7205 80.5206 59.3418 79.3653 60.4111L75.7214 56.7737C77.8437 54.7393 80.6537 53.5749 83.595 53.5111V58.6594ZM88.3524 60.4111C87.1965 59.3419 85.6958 58.7206 84.1214 58.6594V53.5111C87.063 53.5751 89.8734 54.7394 91.9964 56.7737L88.3524 60.4111ZM83.8589 71.3643C82.2411 71.3628 80.69 70.7205 79.546 69.5783C78.4019 68.4361 77.7583 66.8874 77.7564 65.2719C77.7583 63.6562 78.4018 62.1073 79.5459 60.9649C80.6899 59.8225 82.241 59.1799 83.8589 59.178C85.4766 59.1799 87.0276 59.8225 88.1714 60.965C89.3152 62.1075 89.9584 63.6564 89.9599 65.2719C89.958 66.8871 89.3146 68.4357 88.1709 69.5778C87.0271 70.72 85.4764 71.3625 83.8589 71.3643ZM83.8589 35.9609C67.6742 35.9609 54.5068 49.1084 54.5068 65.2719C54.5068 81.4339 67.6742 94.5828 83.8589 94.5828C100.042 94.5828 113.21 81.4339 113.21 65.2719C113.21 49.1084 100.042 35.9609 83.8589 35.9609Z" fill="#005AAA"/>
<path d="M104.539 35.7846L90.5032 32.0612L92.9208 27.3414C92.9489 27.2918 92.9601 27.2344 92.9524 27.1779C92.9448 27.1214 92.9188 27.0689 92.8784 27.0286C92.8383 26.9882 92.7859 26.9623 92.7295 26.9549C92.673 26.9475 92.6157 26.959 92.5665 26.9877L87.8387 29.4018L84.1101 15.3848C84.0965 15.3285 84.0643 15.2785 84.0187 15.2427C83.9731 15.2069 83.9168 15.1875 83.8589 15.1875C83.8008 15.1879 83.7446 15.2075 83.6989 15.2431C83.6532 15.2788 83.6206 15.3287 83.6062 15.3848L79.8776 29.4018L75.1512 26.9877C75.102 26.959 75.0447 26.9475 74.9882 26.9549C74.9318 26.9623 74.8794 26.9882 74.8393 27.0286C74.799 27.0689 74.773 27.1214 74.7653 27.1779C74.7577 27.2344 74.7688 27.2918 74.797 27.3414L77.2145 32.0612L63.1778 35.7846C63.1213 35.7981 63.071 35.8302 63.035 35.8757C62.9991 35.9212 62.9795 35.9775 62.9795 36.0355C62.9795 36.0935 62.9991 36.1498 63.035 36.1953C63.071 36.2408 63.1213 36.2729 63.1778 36.2864L77.2145 40.0098L74.797 44.731C74.7681 44.7803 74.7564 44.8377 74.7637 44.8944C74.7711 44.951 74.7971 45.0036 74.8376 45.044C74.8781 45.0843 74.9309 45.11 74.9877 45.1171C75.0444 45.1242 75.1019 45.1123 75.1512 45.0833L79.8776 42.6706L83.6062 56.6862C83.6359 56.8018 83.7403 56.8835 83.8589 56.8835C83.9168 56.8835 83.9731 56.8641 84.0187 56.8283C84.0643 56.7925 84.0965 56.7425 84.1101 56.6862L87.8387 42.6706L92.5665 45.0833C92.6158 45.1123 92.6733 45.1242 92.7301 45.1171C92.7868 45.11 92.8396 45.0843 92.8801 45.044C92.9206 45.0036 92.9466 44.951 92.954 44.8944C92.9613 44.8377 92.9497 44.7803 92.9208 44.731L90.5032 40.0098L104.539 36.2864C104.595 36.2729 104.645 36.2408 104.681 36.1953C104.717 36.1498 104.737 36.0935 104.737 36.0355C104.737 35.9775 104.717 35.9212 104.681 35.8757C104.645 35.8302 104.595 35.7981 104.539 35.7846Z" fill="white"/>
<path fill-rule="evenodd" clip-rule="evenodd" d="M83.832 56.7906C83.7044 56.7908 83.5804 56.7484 83.4799 56.6699C83.3793 56.5915 83.308 56.4816 83.2774 56.3579L79.8508 42.6707L75.4518 45.1807C75.3433 45.2437 75.2169 45.2691 75.0924 45.253C74.968 45.2368 74.8523 45.18 74.7636 45.0914C74.6748 45.0027 74.6179 44.8872 74.6017 44.7629C74.5855 44.6386 74.611 44.5125 74.6741 44.4041L77.1876 40.0099L63.4798 36.5881C63.3554 36.5583 63.2447 36.4875 63.1656 36.3871C63.0865 36.2868 63.0435 36.1628 63.0437 36.0351C63.0439 35.9073 63.0871 35.7834 63.1665 35.6833C63.2459 35.5831 63.3567 35.5126 63.4812 35.4832L77.1876 32.0613L74.6741 27.6685C74.6117 27.5601 74.5867 27.4341 74.6031 27.3101C74.6195 27.1861 74.6763 27.0709 74.7648 26.9824C74.8533 26.8939 74.9686 26.8369 75.0927 26.8203C75.2169 26.8037 75.3431 26.8284 75.4518 26.8906L79.8508 29.402L83.2788 15.7133C83.3086 15.5891 83.3795 15.4786 83.48 15.3996C83.5805 15.3206 83.7047 15.2777 83.8326 15.2778C83.9605 15.278 84.0846 15.3212 84.1848 15.4005C84.2851 15.4797 84.3557 15.5904 84.3852 15.7147L87.8118 29.402L92.2123 26.8906C92.3208 26.8288 92.4467 26.8044 92.5705 26.821C92.6943 26.8377 92.8093 26.8945 92.8976 26.9827C92.986 27.0709 93.0428 27.1857 93.0595 27.3093C93.0762 27.433 93.0517 27.5587 92.9899 27.6671L90.4764 32.0613L104.183 35.4832C104.307 35.513 104.418 35.5837 104.497 35.6841C104.576 35.7844 104.619 35.9085 104.619 36.0362C104.619 36.1639 104.575 36.2878 104.496 36.3879C104.417 36.4881 104.306 36.5586 104.181 36.5881L90.4764 40.0099L92.9899 44.4041C93.0521 44.5128 93.0767 44.639 93.0598 44.7631C93.043 44.8871 92.9857 45.0022 92.8967 45.0905C92.8071 45.1764 92.6924 45.2314 92.5693 45.2476C92.4462 45.2639 92.3211 45.2404 92.2123 45.1807L87.8118 42.6707L84.3852 56.3579C84.3547 56.4814 84.2836 56.5911 84.1833 56.6695C84.083 56.7479 83.9594 56.7905 83.832 56.7906Z" stroke="#005AAA" stroke-width="1.25" stroke-miterlimit="2" stroke-linecap="round" stroke-linejoin="round"/>
<path fill-rule="evenodd" clip-rule="evenodd" d="M83.832 56.7906C83.7044 56.7908 83.5804 56.7484 83.4799 56.6699C83.3793 56.5915 83.308 56.4816 83.2774 56.3579L79.8508 42.6707L75.4518 45.1807C75.3433 45.2437 75.2169 45.2691 75.0924 45.253C74.968 45.2368 74.8523 45.18 74.7636 45.0914C74.6748 45.0027 74.6179 44.8872 74.6017 44.7629C74.5855 44.6386 74.611 44.5125 74.6741 44.4041L77.1876 40.0099L63.4798 36.5881C63.3554 36.5583 63.2447 36.4875 63.1656 36.3871C63.0865 36.2868 63.0435 36.1628 63.0437 36.0351C63.0439 35.9073 63.0871 35.7834 63.1665 35.6833C63.2459 35.5831 63.3567 35.5126 63.4812 35.4832L77.1876 32.0613L74.6741 27.6685C74.6117 27.5601 74.5867 27.4341 74.6031 27.3101C74.6195 27.1861 74.6763 27.0709 74.7648 26.9824C74.8533 26.8939 74.9686 26.8369 75.0927 26.8203C75.2169 26.8037 75.3431 26.8284 75.4518 26.8906L79.8508 29.402L83.2788 15.7133C83.3086 15.5891 83.3795 15.4786 83.48 15.3996C83.5805 15.3206 83.7047 15.2777 83.8326 15.2778C83.9605 15.278 84.0846 15.3212 84.1848 15.4005C84.2851 15.4797 84.3557 15.5904 84.3852 15.7147L87.8118 29.402L92.2123 26.8906C92.3208 26.8288 92.4467 26.8044 92.5705 26.821C92.6943 26.8377 92.8093 26.8945 92.8976 26.9827C92.986 27.0709 93.0428 27.1857 93.0595 27.3093C93.0762 27.433 93.0517 27.5587 92.9899 27.6671L90.4764 32.0613L104.183 35.4832C104.307 35.513 104.418 35.5837 104.497 35.6841C104.576 35.7844 104.619 35.9085 104.619 36.0362C104.619 36.1639 104.575 36.2878 104.496 36.3879C104.417 36.4881 104.306 36.5586 104.181 36.5881L90.4764 40.0099L92.9899 44.4041C93.0521 44.5128 93.0767 44.639 93.0598 44.7631C93.043 44.8871 92.9857 45.0022 92.8967 45.0905C92.8071 45.1764 92.6924 45.2314 92.5693 45.2476C92.4462 45.2639 92.3211 45.2404 92.2123 45.1807L87.8118 42.6707L84.3852 56.3579C84.3547 56.4814 84.2836 56.5911 84.1833 56.6695C84.083 56.7479 83.9594 56.7905 83.832 56.7906Z" stroke="#005AAA" stroke-width="1.66667" stroke-miterlimit="2" stroke-linecap="round" stroke-linejoin="round"/>
<path d="M64.342 36.0357L78.057 32.6167L83.832 36.0357H64.342ZM103.322 36.0357L89.607 39.4547L83.832 36.0357H103.322ZM83.832 55.4983L80.4082 41.8026L83.832 36.0357V55.4983Z" fill="#FAA619"/>
<path d="M83.832 16.5728L87.2544 30.2685L83.832 36.0354V16.5728Z" fill="#FAA619"/>
<path d="M75.7102 27.9106L80.9447 30.9336L83.8322 36.0353L75.7102 27.9106ZM92.0431 44.2192L86.8086 41.1977L83.8322 36.0353L92.0431 44.2192ZM75.7116 44.2206L78.7388 38.9935L83.8322 36.0353L75.7116 44.2206ZM92.0431 27.9106L89.0159 33.1364L83.8322 36.0353L92.0431 27.9106Z" fill="#FAA619"/>
</g>
<defs>
<clipPath id="clip0_2005_3868">
<rect width="84" height="92" fill="white" transform="translate(42 15)"/>
</clipPath>
</defs>
</svg>
